<svg width="153" height="174" viewBox="0 0 153 174" fill="none" xmlns="http://www.w3.org/2000/svg">
<path d="M76.5 173.148L153 128.982L76.5 84.8154L0 128.982L76.5 173.148Z" fill="url(#paint0_linear_369_4419)"/>
<path d="M76.5 93.8874L145.142 133.523L153 128.982L76.5 84.8154L0 128.982L7.85834 133.523L76.5 93.8874Z" fill="#D5C0F1"/>
<path d="M76.5049 103.009L137.248 138.084L145.147 133.522L76.5049 93.8867L7.86328 133.522L15.7621 138.084L76.5049 103.009Z" fill="#040919"/>
<path d="M76.5 84.8154V93.8874L7.85834 133.523L0 128.982L76.5 84.8154Z" fill="#040919"/>
<path d="M76.5049 93.8867L7.86328 133.522" stroke="#6520C2" stroke-linecap="round" stroke-linejoin="round"/>
<path d="M72.7934 151.464H64.7227V159.535H72.7934V151.464Z" fill="#040919"/>
<path d="M97.0117 151.465V159.536H100.076L105.082 156.653V151.465H97.0117Z" fill="#040919"/>
<path d="M80.8598 143.393H72.7891V151.463H80.8598V143.393Z" fill="#040919"/>
<path d="M64.7192 119.181H56.6484V127.251H64.7192V119.181Z" fill="#040919"/>
<path d="M64.7192 127.251H56.6484V135.322H64.7192V127.251Z" fill="#040919"/>
<path d="M129.465 101.059L67.9334 65.5292C65.5061 64.1335 61.5416 64.1335 59.1244 65.5292L15.6355 90.6314L13.1172 90.3988V93.5745C13.1172 94.4948 13.724 95.4152 14.9377 96.1231L78.128 132.603C80.5553 133.999 84.5199 133.999 86.9371 132.603L131.124 107.096C132.337 106.399 132.944 105.478 132.944 104.558V101.382L129.475 101.069L129.465 101.059Z" fill="#6520C2"/>
<path d="M67.9178 62.3524C65.4905 60.9567 61.5259 60.9567 59.1088 62.3524L14.922 87.8592C13.7084 88.557 13.1016 89.4774 13.1016 90.4078C13.1016 91.3383 13.7084 92.2485 14.922 92.9565L78.1124 129.437C80.5397 130.832 84.5043 130.832 86.9214 129.437L131.108 103.93C132.322 103.232 132.929 102.312 132.929 101.381C132.929 100.451 132.322 99.5405 131.108 98.8325L67.9178 62.3524Z" fill="url(#paint1_linear_369_4419)"/>
<path d="M147.716 37.0992C150.144 38.4949 151.529 41.8527 150.801 44.553L136.834 96.4666C136.106 99.167 133.527 100.239 131.11 98.8332L67.9193 62.3531C65.492 60.9574 64.1065 57.5997 64.8346 54.8993L78.8017 2.98575C79.5298 0.285392 82.1088 -0.786656 84.526 0.619148L147.716 37.0992Z" fill="url(#paint2_linear_369_4419)"/>
<path d="M104.417 36.9477L95.9822 68.28L59.4414 47.1828L67.8762 15.8506L104.417 36.9477Z" stroke="#AA73F3" stroke-linecap="round" stroke-linejoin="round"/>
<path d="M116.741 74.2771L115.315 79.607L104.109 73.1444L105.546 67.8145L116.741 74.2771Z" fill="#AA73F3"/>
<path d="M111.547 41.2656L132.341 53.2706" stroke="#AA73F3" stroke-linecap="round" stroke-linejoin="round"/>
<path d="M110.691 45.585L131.485 57.5899" stroke="#AA73F3" stroke-linecap="round" stroke-linejoin="round"/>
<path d="M109.82 49.8926L119.267 55.3439" stroke="#AA73F3" stroke-linecap="round" stroke-linejoin="round"/>
<path d="M46.3867 81.509L69.3043 68.2803L120.844 98.0347L97.9261 111.263L46.3867 81.509Z" fill="#D2C1EA"/>
<path d="M37.7734 101.836L62.7138 116.238" stroke="#D2C1EA" stroke-linecap="round" stroke-linejoin="round"/>
<path d="M81.9297 7.57715L146.111 44.6337" stroke="#6520C2" stroke-linecap="round" stroke-linejoin="round"/>
<path d="M105.391 156.48V153.223C105.391 142.472 119.257 144.404 119.257 135.332V125.633C119.257 123.934 118.053 121.84 116.576 120.991L111.823 118.25" stroke="white" stroke-linecap="round" stroke-linejoin="round"/>
<path d="M111.823 118.23L110.043 119.262L113.643 117.188" stroke="white" stroke-linecap="round" stroke-linejoin="round"/>
<defs>
<linearGradient id="paint0_linear_369_4419" x1="114.831" y1="128.982" x2="102.017" y2="128.982" gradientUnits="userSpaceOnUse">
<stop stop-color="#0A0313"/>
<stop offset="1" stop-color="#5A17B4"/>
</linearGradient>
<linearGradient id="paint1_linear_369_4419" x1="31.5591" y1="95.8895" x2="58.6031" y2="95.8895" gradientUnits="userSpaceOnUse">
<stop stop-color="#E4D4FA"/>
<stop offset="0.45" stop-color="white"/>
</linearGradient>
<linearGradient id="paint2_linear_369_4419" x1="100.789" y1="37.5139" x2="105.916" y2="46.4241" gradientUnits="userSpaceOnUse">
<stop stop-color="#0D041A"/>
<stop offset="1" stop-color="#7326DC"/>
</linearGradient>
</defs>
</svg>
