<svg width="175" height="176" viewBox="0 0 175 176" fill="none" xmlns="http://www.w3.org/2000/svg">
<path d="M87.5057 159.86L14.4608 117.693L1 125.47L87.5057 175.413L174 125.47L160.539 117.693L87.5057 159.86Z" fill="#BCC0E5"/>
<path d="M87.5057 59.9736L1 109.917L87.5057 159.86L174 109.917L87.5057 59.9736Z" fill="url(#paint0_linear_369_4447)"/>
<path d="M87.5078 159.86L174.002 109.917" stroke="#594D6A" stroke-linecap="round" stroke-linejoin="round"/>
<path d="M1 109.917L87.5057 159.86" stroke="#594D6A" stroke-linecap="round" stroke-linejoin="round"/>
<path d="M146.905 119.261L120.624 134.426L43.8281 90.0867L70.0977 74.9219L146.905 119.261Z" fill="#BCC0E5"/>
<g opacity="0.25">
<path d="M87.5036 105.411C87.9458 105.411 88.3042 105.052 88.3042 104.61C88.3042 104.168 87.9458 103.81 87.5036 103.81C87.0615 103.81 86.7031 104.168 86.7031 104.61C86.7031 105.052 87.0615 105.411 87.5036 105.411Z" fill="#040919"/>
<path d="M96.699 110.717C97.1411 110.717 97.4996 110.359 97.4996 109.917C97.4996 109.475 97.1411 109.116 96.699 109.116C96.2569 109.116 95.8984 109.475 95.8984 109.917C95.8984 110.359 96.2569 110.717 96.699 110.717Z" fill="#040919"/>
<path d="M87.5036 116.023C87.9458 116.023 88.3042 115.665 88.3042 115.222C88.3042 114.78 87.9458 114.422 87.5036 114.422C87.0615 114.422 86.7031 114.78 86.7031 115.222C86.7031 115.665 87.0615 116.023 87.5036 116.023Z" fill="#040919"/>
<path d="M105.894 116.023C106.336 116.023 106.695 115.665 106.695 115.222C106.695 114.78 106.336 114.422 105.894 114.422C105.452 114.422 105.094 114.78 105.094 115.222C105.094 115.665 105.452 116.023 105.894 116.023Z" fill="#040919"/>
<path d="M96.699 121.331C97.1411 121.331 97.4996 120.972 97.4996 120.53C97.4996 120.088 97.1411 119.729 96.699 119.729C96.2569 119.729 95.8984 120.088 95.8984 120.53C95.8984 120.972 96.2569 121.331 96.699 121.331Z" fill="#040919"/>
<path d="M87.5036 126.648C87.9458 126.648 88.3042 126.29 88.3042 125.847C88.3042 125.405 87.9458 125.047 87.5036 125.047C87.0615 125.047 86.7031 125.405 86.7031 125.847C86.7031 126.29 87.0615 126.648 87.5036 126.648Z" fill="#040919"/>
<path d="M115.09 121.331C115.532 121.331 115.89 120.972 115.89 120.53C115.89 120.088 115.532 119.729 115.09 119.729C114.647 119.729 114.289 120.088 114.289 120.53C114.289 120.972 114.647 121.331 115.09 121.331Z" fill="#040919"/>
<path d="M105.894 126.648C106.336 126.648 106.695 126.29 106.695 125.847C106.695 125.405 106.336 125.047 105.894 125.047C105.452 125.047 105.094 125.405 105.094 125.847C105.094 126.29 105.452 126.648 105.894 126.648Z" fill="#040919"/>
<path d="M96.699 131.955C97.1411 131.955 97.4996 131.596 97.4996 131.154C97.4996 130.712 97.1411 130.354 96.699 130.354C96.2569 130.354 95.8984 130.712 95.8984 131.154C95.8984 131.596 96.2569 131.955 96.699 131.955Z" fill="#040919"/>
<path d="M87.5036 137.261C87.9458 137.261 88.3042 136.903 88.3042 136.461C88.3042 136.019 87.9458 135.66 87.5036 135.66C87.0615 135.66 86.7031 136.019 86.7031 136.461C86.7031 136.903 87.0615 137.261 87.5036 137.261Z" fill="#040919"/>
<path d="M115.09 131.955C115.532 131.955 115.89 131.596 115.89 131.154C115.89 130.712 115.532 130.354 115.09 130.354C114.647 130.354 114.289 130.712 114.289 131.154C114.289 131.596 114.647 131.955 115.09 131.955Z" fill="#040919"/>
<path d="M105.894 137.261C106.336 137.261 106.695 136.903 106.695 136.461C106.695 136.019 106.336 135.66 105.894 135.66C105.452 135.66 105.094 136.019 105.094 136.461C105.094 136.903 105.452 137.261 105.894 137.261Z" fill="#040919"/>
<path d="M124.285 126.648C124.727 126.648 125.086 126.29 125.086 125.847C125.086 125.405 124.727 125.047 124.285 125.047C123.843 125.047 123.484 125.405 123.484 125.847C123.484 126.29 123.843 126.648 124.285 126.648Z" fill="#040919"/>
<path d="M96.699 142.58C97.1411 142.58 97.4996 142.221 97.4996 141.779C97.4996 141.337 97.1411 140.979 96.699 140.979C96.2569 140.979 95.8984 141.337 95.8984 141.779C95.8984 142.221 96.2569 142.58 96.699 142.58Z" fill="#040919"/>
<path d="M87.5036 147.885C87.9458 147.885 88.3042 147.527 88.3042 147.085C88.3042 146.643 87.9458 146.284 87.5036 146.284C87.0615 146.284 86.7031 146.643 86.7031 147.085C86.7031 147.527 87.0615 147.885 87.5036 147.885Z" fill="#040919"/>
<path d="M78.2967 110.717C78.7388 110.717 79.0972 110.359 79.0972 109.917C79.0972 109.475 78.7388 109.116 78.2967 109.116C77.8545 109.116 77.4961 109.475 77.4961 109.917C77.4961 110.359 77.8545 110.717 78.2967 110.717Z" fill="#040919"/>
<path d="M105.894 94.7867C106.336 94.7867 106.695 94.4283 106.695 93.9861C106.695 93.544 106.336 93.1855 105.894 93.1855C105.452 93.1855 105.094 93.544 105.094 93.9861C105.094 94.4283 105.452 94.7867 105.894 94.7867Z" fill="#040919"/>
<path d="M115.09 100.092C115.532 100.092 115.89 99.7339 115.89 99.2918C115.89 98.8496 115.532 98.4912 115.09 98.4912C114.647 98.4912 114.289 98.8496 114.289 99.2918C114.289 99.7339 114.647 100.092 115.09 100.092Z" fill="#040919"/>
<path d="M105.894 105.411C106.336 105.411 106.695 105.052 106.695 104.61C106.695 104.168 106.336 103.81 105.894 103.81C105.452 103.81 105.094 104.168 105.094 104.61C105.094 105.052 105.452 105.411 105.894 105.411Z" fill="#040919"/>
<path d="M124.285 105.411C124.727 105.411 125.086 105.052 125.086 104.61C125.086 104.168 124.727 103.81 124.285 103.81C123.843 103.81 123.484 104.168 123.484 104.61C123.484 105.052 123.843 105.411 124.285 105.411Z" fill="#040919"/>
<path d="M115.09 110.717C115.532 110.717 115.89 110.359 115.89 109.917C115.89 109.475 115.532 109.116 115.09 109.116C114.647 109.116 114.289 109.475 114.289 109.917C114.289 110.359 114.647 110.717 115.09 110.717Z" fill="#040919"/>
<path d="M133.476 110.717C133.918 110.717 134.277 110.359 134.277 109.917C134.277 109.475 133.918 109.116 133.476 109.116C133.034 109.116 132.676 109.475 132.676 109.917C132.676 110.359 133.034 110.717 133.476 110.717Z" fill="#040919"/>
<path d="M124.285 116.023C124.727 116.023 125.086 115.665 125.086 115.222C125.086 114.78 124.727 114.422 124.285 114.422C123.843 114.422 123.484 114.78 123.484 115.222C123.484 115.665 123.843 116.023 124.285 116.023Z" fill="#040919"/>
<path d="M133.476 121.331C133.918 121.331 134.277 120.972 134.277 120.53C134.277 120.088 133.918 119.729 133.476 119.729C133.034 119.729 132.676 120.088 132.676 120.53C132.676 120.972 133.034 121.331 133.476 121.331Z" fill="#040919"/>
<path d="M142.676 116.023C143.118 116.023 143.476 115.665 143.476 115.222C143.476 114.78 143.118 114.422 142.676 114.422C142.233 114.422 141.875 114.78 141.875 115.222C141.875 115.665 142.233 116.023 142.676 116.023Z" fill="#040919"/>
<path d="M96.699 100.092C97.1411 100.092 97.4996 99.7339 97.4996 99.2918C97.4996 98.8496 97.1411 98.4912 96.699 98.4912C96.2569 98.4912 95.8984 98.8496 95.8984 99.2918C95.8984 99.7339 96.2569 100.092 96.699 100.092Z" fill="#040919"/>
<path d="M124.285 94.7867C124.727 94.7867 125.086 94.4283 125.086 93.9861C125.086 93.544 124.727 93.1855 124.285 93.1855C123.843 93.1855 123.484 93.544 123.484 93.9861C123.484 94.4283 123.843 94.7867 124.285 94.7867Z" fill="#040919"/>
<path d="M133.476 100.092C133.918 100.092 134.277 99.7339 134.277 99.2918C134.277 98.8496 133.918 98.4912 133.476 98.4912C133.034 98.4912 132.676 98.8496 132.676 99.2918C132.676 99.7339 133.034 100.092 133.476 100.092Z" fill="#040919"/>
<path d="M142.676 105.411C143.118 105.411 143.476 105.052 143.476 104.61C143.476 104.168 143.118 103.81 142.676 103.81C142.233 103.81 141.875 104.168 141.875 104.61C141.875 105.052 142.233 105.411 142.676 105.411Z" fill="#040919"/>
<path d="M151.879 110.717C152.321 110.717 152.679 110.359 152.679 109.917C152.679 109.475 152.321 109.116 151.879 109.116C151.437 109.116 151.078 109.475 151.078 109.917C151.078 110.359 151.437 110.717 151.879 110.717Z" fill="#040919"/>
<path d="M115.09 89.479C115.532 89.479 115.89 89.1206 115.89 88.6784C115.89 88.2363 115.532 87.8779 115.09 87.8779C114.647 87.8779 114.289 88.2363 114.289 88.6784C114.289 89.1206 114.647 89.479 115.09 89.479Z" fill="#040919"/>
<path d="M69.1014 116.023C69.5435 116.023 69.9019 115.665 69.9019 115.222C69.9019 114.78 69.5435 114.422 69.1014 114.422C68.6592 114.422 68.3008 114.78 68.3008 115.222C68.3008 115.665 68.6592 116.023 69.1014 116.023Z" fill="#040919"/>
<path d="M78.2967 121.341C78.7388 121.341 79.0972 120.983 79.0972 120.541C79.0972 120.099 78.7388 119.74 78.2967 119.74C77.8545 119.74 77.4961 120.099 77.4961 120.541C77.4961 120.983 77.8545 121.341 78.2967 121.341Z" fill="#040919"/>
<path d="M59.9099 121.341C60.3521 121.341 60.7104 120.983 60.7104 120.541C60.7104 120.099 60.3521 119.74 59.9099 119.74C59.4678 119.74 59.1094 120.099 59.1094 120.541C59.1094 120.983 59.4678 121.341 59.9099 121.341Z" fill="#040919"/>
<path d="M69.1014 126.648C69.5435 126.648 69.9019 126.29 69.9019 125.847C69.9019 125.405 69.5435 125.047 69.1014 125.047C68.6592 125.047 68.3008 125.405 68.3008 125.847C68.3008 126.29 68.6592 126.648 69.1014 126.648Z" fill="#040919"/>
<path d="M78.2967 131.955C78.7388 131.955 79.0972 131.596 79.0972 131.154C79.0972 130.712 78.7388 130.354 78.2967 130.354C77.8545 130.354 77.4961 130.712 77.4961 131.154C77.4961 131.596 77.8545 131.955 78.2967 131.955Z" fill="#040919"/>
<path d="M59.9099 131.955C60.3521 131.955 60.7104 131.596 60.7104 131.154C60.7104 130.712 60.3521 130.354 59.9099 130.354C59.4678 130.354 59.1094 130.712 59.1094 131.154C59.1094 131.596 59.4678 131.955 59.9099 131.955Z" fill="#040919"/>
<path d="M69.1014 137.261C69.5435 137.261 69.9019 136.903 69.9019 136.461C69.9019 136.019 69.5435 135.66 69.1014 135.66C68.6592 135.66 68.3008 136.019 68.3008 136.461C68.3008 136.903 68.6592 137.261 69.1014 137.261Z" fill="#040919"/>
<path d="M50.7146 126.648C51.1568 126.648 51.5152 126.29 51.5152 125.847C51.5152 125.405 51.1568 125.047 50.7146 125.047C50.2725 125.047 49.9141 125.405 49.9141 125.847C49.9141 126.29 50.2725 126.648 50.7146 126.648Z" fill="#040919"/>
<path d="M78.2967 142.58C78.7388 142.58 79.0972 142.221 79.0972 141.779C79.0972 141.337 78.7388 140.979 78.2967 140.979C77.8545 140.979 77.4961 141.337 77.4961 141.779C77.4961 142.221 77.8545 142.58 78.2967 142.58Z" fill="#040919"/>
<path d="M59.9099 110.717C60.3521 110.717 60.7104 110.359 60.7104 109.917C60.7104 109.475 60.3521 109.116 59.9099 109.116C59.4678 109.116 59.1094 109.475 59.1094 109.917C59.1094 110.359 59.4678 110.717 59.9099 110.717Z" fill="#040919"/>
<path d="M50.7146 116.023C51.1568 116.023 51.5152 115.665 51.5152 115.222C51.5152 114.78 51.1568 114.422 50.7146 114.422C50.2725 114.422 49.9141 114.78 49.9141 115.222C49.9141 115.665 50.2725 116.023 50.7146 116.023Z" fill="#040919"/>
<path d="M78.2967 100.092C78.7388 100.092 79.0972 99.7339 79.0972 99.2918C79.0972 98.8496 78.7388 98.4912 78.2967 98.4912C77.8545 98.4912 77.4961 98.8496 77.4961 99.2918C77.4961 99.7339 77.8545 100.092 78.2967 100.092Z" fill="#040919"/>
<path d="M69.1014 105.411C69.5435 105.411 69.9019 105.052 69.9019 104.61C69.9019 104.168 69.5435 103.81 69.1014 103.81C68.6592 103.81 68.3008 104.168 68.3008 104.61C68.3008 105.052 68.6592 105.411 69.1014 105.411Z" fill="#040919"/>
<path d="M87.5036 94.7867C87.9458 94.7867 88.3042 94.4283 88.3042 93.9861C88.3042 93.544 87.9458 93.1855 87.5036 93.1855C87.0615 93.1855 86.7031 93.544 86.7031 93.9861C86.7031 94.4283 87.0615 94.7867 87.5036 94.7867Z" fill="#040919"/>
<path d="M41.5154 121.341C41.9575 121.341 42.316 120.983 42.316 120.541C42.316 120.099 41.9575 119.74 41.5154 119.74C41.0733 119.74 40.7148 120.099 40.7148 120.541C40.7148 120.983 41.0733 121.341 41.5154 121.341Z" fill="#040919"/>
<path d="M59.9099 89.479C60.3521 89.479 60.7104 89.1206 60.7104 88.6784C60.7104 88.2363 60.3521 87.8779 59.9099 87.8779C59.4678 87.8779 59.1094 88.2363 59.1094 88.6784C59.1094 89.1206 59.4678 89.479 59.9099 89.479Z" fill="#040919"/>
<path d="M50.7146 94.7867C51.1568 94.7867 51.5152 94.4283 51.5152 93.9861C51.5152 93.544 51.1568 93.1855 50.7146 93.1855C50.2725 93.1855 49.9141 93.544 49.9141 93.9861C49.9141 94.4283 50.2725 94.7867 50.7146 94.7867Z" fill="#040919"/>
<path d="M41.5154 100.092C41.9575 100.092 42.316 99.7339 42.316 99.2918C42.316 98.8496 41.9575 98.4912 41.5154 98.4912C41.0733 98.4912 40.7148 98.8496 40.7148 99.2918C40.7148 99.7339 41.0733 100.092 41.5154 100.092Z" fill="#040919"/>
<path d="M32.324 105.411C32.7661 105.411 33.1246 105.052 33.1246 104.61C33.1246 104.168 32.7661 103.81 32.324 103.81C31.8819 103.81 31.5234 104.168 31.5234 104.61C31.5234 105.052 31.8819 105.411 32.324 105.411Z" fill="#040919"/>
<path d="M59.9099 100.092C60.3521 100.092 60.7104 99.7339 60.7104 99.2918C60.7104 98.8496 60.3521 98.4912 59.9099 98.4912C59.4678 98.4912 59.1094 98.8496 59.1094 99.2918C59.1094 99.7339 59.4678 100.092 59.9099 100.092Z" fill="#040919"/>
<path d="M50.7146 105.411C51.1568 105.411 51.5152 105.052 51.5152 104.61C51.5152 104.168 51.1568 103.81 50.7146 103.81C50.2725 103.81 49.9141 104.168 49.9141 104.61C49.9141 105.052 50.2725 105.411 50.7146 105.411Z" fill="#040919"/>
<path d="M69.1014 94.7867C69.5435 94.7867 69.9019 94.4283 69.9019 93.9861C69.9019 93.544 69.5435 93.1855 69.1014 93.1855C68.6592 93.1855 68.3008 93.544 68.3008 93.9861C68.3008 94.4283 68.6592 94.7867 69.1014 94.7867Z" fill="#040919"/>
<path d="M41.5154 110.717C41.9575 110.717 42.316 110.359 42.316 109.917C42.316 109.475 41.9575 109.116 41.5154 109.116C41.0733 109.116 40.7148 109.475 40.7148 109.917C40.7148 110.359 41.0733 110.717 41.5154 110.717Z" fill="#040919"/>
<path d="M32.324 116.023C32.7661 116.023 33.1246 115.665 33.1246 115.222C33.1246 114.78 32.7661 114.422 32.324 114.422C31.8819 114.422 31.5234 114.78 31.5234 115.222C31.5234 115.665 31.8819 116.023 32.324 116.023Z" fill="#040919"/>
<path d="M96.699 89.479C97.1411 89.479 97.4996 89.1206 97.4996 88.6784C97.4996 88.2363 97.1411 87.8779 96.699 87.8779C96.2569 87.8779 95.8984 88.2363 95.8984 88.6784C95.8984 89.1206 96.2569 89.479 96.699 89.479Z" fill="#040919"/>
<path d="M78.2967 78.8541C78.7388 78.8541 79.0972 78.4956 79.0972 78.0535C79.0972 77.6114 78.7388 77.2529 78.2967 77.2529C77.8545 77.2529 77.4961 77.6114 77.4961 78.0535C77.4961 78.4956 77.8545 78.8541 78.2967 78.8541Z" fill="#040919"/>
<path d="M69.1014 84.1733C69.5435 84.1733 69.9019 83.815 69.9019 83.3728C69.9019 82.9307 69.5435 82.5723 69.1014 82.5723C68.6592 82.5723 68.3008 82.9307 68.3008 83.3728C68.3008 83.815 68.6592 84.1733 69.1014 84.1733Z" fill="#040919"/>
<path d="M78.2967 89.479C78.7388 89.479 79.0972 89.1206 79.0972 88.6784C79.0972 88.2363 78.7388 87.8779 78.2967 87.8779C77.8545 87.8779 77.4961 88.2363 77.4961 88.6784C77.4961 89.1206 77.8545 89.479 78.2967 89.479Z" fill="#040919"/>
<path d="M87.5036 84.1733C87.9458 84.1733 88.3042 83.815 88.3042 83.3728C88.3042 82.9307 87.9458 82.5723 87.5036 82.5723C87.0615 82.5723 86.7031 82.9307 86.7031 83.3728C86.7031 83.815 87.0615 84.1733 87.5036 84.1733Z" fill="#040919"/>
<path d="M105.894 84.1733C106.336 84.1733 106.695 83.815 106.695 83.3728C106.695 82.9307 106.336 82.5723 105.894 82.5723C105.452 82.5723 105.094 82.9307 105.094 83.3728C105.094 83.815 105.452 84.1733 105.894 84.1733Z" fill="#040919"/>
<path d="M87.5036 73.5484C87.9458 73.5484 88.3042 73.19 88.3042 72.7478C88.3042 72.3057 87.9458 71.9473 87.5036 71.9473C87.0615 71.9473 86.7031 72.3057 86.7031 72.7478C86.7031 73.19 87.0615 73.5484 87.5036 73.5484Z" fill="#040919"/>
<path d="M96.699 78.8541C97.1411 78.8541 97.4996 78.4956 97.4996 78.0535C97.4996 77.6114 97.1411 77.2529 96.699 77.2529C96.2569 77.2529 95.8984 77.6114 95.8984 78.0535C95.8984 78.4956 96.2569 78.8541 96.699 78.8541Z" fill="#040919"/>
<path d="M23.1287 110.717C23.5708 110.717 23.9292 110.359 23.9292 109.917C23.9292 109.475 23.5708 109.116 23.1287 109.116C22.6865 109.116 22.3281 109.475 22.3281 109.917C22.3281 110.359 22.6865 110.717 23.1287 110.717Z" fill="#040919"/>
</g>
<path d="M44.1953 5.04395V70.7239L120.625 114.857V49.1774L44.1953 5.04395Z" fill="url(#paint1_linear_369_4447)"/>
<path d="M88.3163 45.94C93.863 42.7378 102.852 47.93 108.399 57.5366C113.945 67.1433 113.945 77.5162 108.399 80.7184C102.852 83.9207 93.863 78.7285 88.3163 69.1218C82.7696 59.5151 82.7696 49.1422 88.3163 45.94ZM90.7752 67.7037C94.9609 74.9544 101.743 78.8771 105.929 76.4526C110.114 74.0395 110.114 66.194 105.929 58.9547C101.743 51.704 94.9609 47.7813 90.7752 50.2058C86.5894 52.619 86.5894 60.4644 90.7752 67.7037Z" fill="white"/>
<path opacity="0.7" d="M35.1484 72.7477L74.0897 95.2319V53.5115L35.1484 31.0273V72.7477Z" stroke="#6520C2" stroke-linecap="round" stroke-linejoin="round"/>
<path opacity="0.7" d="M35.1484 24.7147L74.0897 47.1989V34.6873L35.1484 12.2031V24.7147Z" stroke="#6520C2" stroke-linecap="round" stroke-linejoin="round"/>
<path d="M98.3588 46.9355L98.3359 50.9383C101.092 52.5166 103.837 55.3185 105.941 58.9553C108.103 62.7065 109.143 66.5949 109.063 69.8315L112.552 71.9358C112.643 67.6585 111.271 62.4892 108.4 57.5372C105.632 52.7339 101.996 49.0399 98.3588 46.9355Z" fill="#6520C2"/>
<path d="M47.8438 24.5078L54.374 28.2704" stroke="white" stroke-linecap="round" stroke-linejoin="round"/>
<path d="M47.8438 27.6533L51.1032 29.5404" stroke="white" stroke-linecap="round" stroke-linejoin="round"/>
<path d="M61.5703 32.4346L68.1006 36.1972" stroke="white" stroke-linecap="round" stroke-linejoin="round"/>
<path d="M61.5703 35.5791L64.8412 37.4662" stroke="white" stroke-linecap="round" stroke-linejoin="round"/>
<path d="M53.9141 67.4756V72.7021" stroke="white" stroke-linecap="round" stroke-linejoin="round"/>
<path d="M58.2617 57.0566V75.2064" stroke="white" stroke-linecap="round" stroke-linejoin="round"/>
<path d="M62.6094 53.8545V77.711" stroke="white" stroke-linecap="round" stroke-linejoin="round"/>
<path d="M66.9414 68.2422V80.2277" stroke="white" stroke-linecap="round" stroke-linejoin="round"/>
<path d="M120.625 44.1335V49.177L44.1953 5.04347V0L120.625 44.1335Z" fill="#040919"/>
<defs>
<linearGradient id="paint0_linear_369_4447" x1="1" y1="109.917" x2="174" y2="109.917" gradientUnits="userSpaceOnUse">
<stop stop-color="#E5D8F5"/>
<stop offset="0.425" stop-color="#D2BEEC" stop-opacity="0.05"/>
</linearGradient>
<linearGradient id="paint1_linear_369_4447" x1="66.7367" y1="35.2706" x2="59.0856" y2="23.2166" gradientUnits="userSpaceOnUse">
<stop stop-color="#10051F"/>
<stop offset="1" stop-color="#6520C2"/>
</linearGradient>
</defs>
</svg>
