<svg width="624" height="510" viewBox="0 0 624 510" fill="none" xmlns="http://www.w3.org/2000/svg">
<path d="M320.525 398.27L473.38 307.457L320.525 216.644L167.68 307.457L320.525 398.27Z" fill="url(#paint0_linear_685_9774)"/>
<path d="M320.525 226.973L464.682 312.626L473.38 307.457L320.525 216.644L167.68 307.457L176.368 312.626L320.525 226.973Z" fill="#E3D6F5"/>
<path d="M320.528 245.737L448.9 322.004L464.685 312.627L320.528 226.974L176.371 312.627L192.166 322.004L320.528 245.737Z" fill="#040919"/>
<path d="M320.525 216.644V226.973L176.368 312.626L167.68 307.457L320.525 216.644Z" fill="#040919"/>
<path d="M320.528 226.974L176.371 312.627" stroke="#6520C2" stroke-linecap="round" stroke-linejoin="round"/>
<path d="M356.539 363.837H348.844V371.755H356.539V363.837Z" fill="#040919"/>
<path d="M422.917 304.669H415.223V312.587H422.917V304.669Z" fill="#040919"/>
<path d="M415.222 312.587H407.527V320.505H415.222V312.587Z" fill="#040919"/>
<path d="M422.917 296.75H415.223V304.668H422.917V296.75Z" fill="#040919"/>
<path d="M356.539 355.919H348.844V363.837H356.539V355.919Z" fill="#040919"/>
<path d="M311.804 344.062H304.109V351.98H311.804V344.062Z" fill="#040919"/>
<path d="M311.804 336.144H304.109V344.062H311.804V336.144Z" fill="#040919"/>
<path d="M415.222 296.75H407.527V304.668H415.222V296.75Z" fill="#040919"/>
<path d="M304.109 336.144H296.414V344.062H304.109V336.144Z" fill="#040919"/>
<path d="M304.109 367.817H296.414V375.736H304.109V367.817Z" fill="#040919"/>
<path d="M278.828 330.428H271.133V338.346H278.828V330.428Z" fill="#040919"/>
<path d="M278.828 338.346H271.133V346.264H278.828V338.346Z" fill="#040919"/>
<path d="M364.234 355.919H356.539V363.837H364.234V355.919Z" fill="#040919"/>
<path d="M364.234 348.001H356.539V355.919H364.234V348.001Z" fill="#040919"/>
<path d="M191.792 499.918L145.816 472.601L137.34 477.641L191.792 509.999L246.253 477.641L237.777 472.601L191.792 499.918Z" fill="#DACBEF"/>
<path d="M191.792 435.212L137.34 467.57L191.792 499.918L246.253 467.57L191.792 435.212Z" fill="url(#paint1_linear_685_9774)"/>
<path d="M246.253 467.569L191.792 499.918L137.34 467.569" stroke="#655181" stroke-linecap="round" stroke-linejoin="round"/>
<g opacity="0.25">
<path d="M191.792 463.65C192.165 463.65 192.467 463.339 192.467 462.955C192.467 462.572 192.165 462.261 191.792 462.261C191.419 462.261 191.117 462.572 191.117 462.955C191.117 463.339 191.419 463.65 191.792 463.65Z" fill="#040919"/>
<path d="M199.546 468.264C199.919 468.264 200.221 467.953 200.221 467.57C200.221 467.186 199.919 466.875 199.546 466.875C199.173 466.875 198.871 467.186 198.871 467.57C198.871 467.953 199.173 468.264 199.546 468.264Z" fill="#040919"/>
<path d="M191.792 472.868C192.165 472.868 192.467 472.557 192.467 472.173C192.467 471.79 192.165 471.479 191.792 471.479C191.419 471.479 191.117 471.79 191.117 472.173C191.117 472.557 191.419 472.868 191.792 472.868Z" fill="#040919"/>
<path d="M207.308 472.868C207.681 472.868 207.983 472.557 207.983 472.173C207.983 471.79 207.681 471.479 207.308 471.479C206.935 471.479 206.633 471.79 206.633 472.173C206.633 472.557 206.935 472.868 207.308 472.868Z" fill="#040919"/>
<path d="M199.546 477.472C199.919 477.472 200.221 477.161 200.221 476.778C200.221 476.394 199.919 476.083 199.546 476.083C199.173 476.083 198.871 476.394 198.871 476.778C198.871 477.161 199.173 477.472 199.546 477.472Z" fill="#040919"/>
<path d="M191.792 482.076C192.165 482.076 192.467 481.765 192.467 481.381C192.467 480.997 192.165 480.687 191.792 480.687C191.419 480.687 191.117 480.997 191.117 481.381C191.117 481.765 191.419 482.076 191.792 482.076Z" fill="#040919"/>
<path d="M215.058 477.472C215.431 477.472 215.733 477.161 215.733 476.778C215.733 476.394 215.431 476.083 215.058 476.083C214.685 476.083 214.383 476.394 214.383 476.778C214.383 477.161 214.685 477.472 215.058 477.472Z" fill="#040919"/>
<path d="M207.308 482.076C207.681 482.076 207.983 481.765 207.983 481.381C207.983 480.997 207.681 480.687 207.308 480.687C206.935 480.687 206.633 480.997 206.633 481.381C206.633 481.765 206.935 482.076 207.308 482.076Z" fill="#040919"/>
<path d="M199.546 486.691C199.919 486.691 200.221 486.38 200.221 485.996C200.221 485.613 199.919 485.302 199.546 485.302C199.173 485.302 198.871 485.613 198.871 485.996C198.871 486.38 199.173 486.691 199.546 486.691Z" fill="#040919"/>
<path d="M191.792 491.295C192.165 491.295 192.467 490.983 192.467 490.6C192.467 490.216 192.165 489.905 191.792 489.905C191.419 489.905 191.117 490.216 191.117 490.6C191.117 490.983 191.419 491.295 191.792 491.295Z" fill="#040919"/>
<path d="M184.042 468.264C184.415 468.264 184.717 467.953 184.717 467.57C184.717 467.186 184.415 466.875 184.042 466.875C183.669 466.875 183.367 467.186 183.367 467.57C183.367 467.953 183.669 468.264 184.042 468.264Z" fill="#040919"/>
<path d="M207.308 454.442C207.681 454.442 207.983 454.131 207.983 453.747C207.983 453.364 207.681 453.053 207.308 453.053C206.935 453.053 206.633 453.364 206.633 453.747C206.633 454.131 206.935 454.442 207.308 454.442Z" fill="#040919"/>
<path d="M215.058 459.046C215.431 459.046 215.733 458.734 215.733 458.351C215.733 457.967 215.431 457.656 215.058 457.656C214.685 457.656 214.383 457.967 214.383 458.351C214.383 458.734 214.685 459.046 215.058 459.046Z" fill="#040919"/>
<path d="M207.308 463.65C207.681 463.65 207.983 463.339 207.983 462.955C207.983 462.572 207.681 462.261 207.308 462.261C206.935 462.261 206.633 462.572 206.633 462.955C206.633 463.339 206.935 463.65 207.308 463.65Z" fill="#040919"/>
<path d="M222.816 463.65C223.188 463.65 223.49 463.339 223.49 462.955C223.49 462.572 223.188 462.261 222.816 462.261C222.443 462.261 222.141 462.572 222.141 462.955C222.141 463.339 222.443 463.65 222.816 463.65Z" fill="#040919"/>
<path d="M215.058 468.264C215.431 468.264 215.733 467.953 215.733 467.57C215.733 467.186 215.431 466.875 215.058 466.875C214.685 466.875 214.383 467.186 214.383 467.57C214.383 467.953 214.685 468.264 215.058 468.264Z" fill="#040919"/>
<path d="M230.566 468.264C230.938 468.264 231.241 467.953 231.241 467.57C231.241 467.186 230.938 466.875 230.566 466.875C230.193 466.875 229.891 467.186 229.891 467.57C229.891 467.953 230.193 468.264 230.566 468.264Z" fill="#040919"/>
<path d="M222.816 472.868C223.188 472.868 223.49 472.557 223.49 472.173C223.49 471.79 223.188 471.479 222.816 471.479C222.443 471.479 222.141 471.79 222.141 472.173C222.141 472.557 222.443 472.868 222.816 472.868Z" fill="#040919"/>
<path d="M199.546 459.046C199.919 459.046 200.221 458.734 200.221 458.351C200.221 457.967 199.919 457.656 199.546 457.656C199.173 457.656 198.871 457.967 198.871 458.351C198.871 458.734 199.173 459.046 199.546 459.046Z" fill="#040919"/>
<path d="M176.288 472.868C176.661 472.868 176.963 472.557 176.963 472.173C176.963 471.79 176.661 471.479 176.288 471.479C175.915 471.479 175.613 471.79 175.613 472.173C175.613 472.557 175.915 472.868 176.288 472.868Z" fill="#040919"/>
<path d="M184.042 477.472C184.415 477.472 184.717 477.161 184.717 476.778C184.717 476.394 184.415 476.083 184.042 476.083C183.669 476.083 183.367 476.394 183.367 476.778C183.367 477.161 183.669 477.472 184.042 477.472Z" fill="#040919"/>
<path d="M168.534 477.472C168.907 477.472 169.209 477.161 169.209 476.778C169.209 476.394 168.907 476.083 168.534 476.083C168.162 476.083 167.859 476.394 167.859 476.778C167.859 477.161 168.162 477.472 168.534 477.472Z" fill="#040919"/>
<path d="M176.288 482.087C176.661 482.087 176.963 481.775 176.963 481.392C176.963 481.008 176.661 480.697 176.288 480.697C175.915 480.697 175.613 481.008 175.613 481.392C175.613 481.775 175.915 482.087 176.288 482.087Z" fill="#040919"/>
<path d="M184.042 486.691C184.415 486.691 184.717 486.38 184.717 485.996C184.717 485.613 184.415 485.302 184.042 485.302C183.669 485.302 183.367 485.613 183.367 485.996C183.367 486.38 183.669 486.691 184.042 486.691Z" fill="#040919"/>
<path d="M168.534 468.264C168.907 468.264 169.209 467.953 169.209 467.57C169.209 467.186 168.907 466.875 168.534 466.875C168.162 466.875 167.859 467.186 167.859 467.57C167.859 467.953 168.162 468.264 168.534 468.264Z" fill="#040919"/>
<path d="M160.781 472.868C161.153 472.868 161.455 472.557 161.455 472.173C161.455 471.79 161.153 471.479 160.781 471.479C160.408 471.479 160.105 471.79 160.105 472.173C160.105 472.557 160.408 472.868 160.781 472.868Z" fill="#040919"/>
<path d="M184.042 459.046C184.415 459.046 184.717 458.734 184.717 458.351C184.717 457.967 184.415 457.656 184.042 457.656C183.669 457.656 183.367 457.967 183.367 458.351C183.367 458.734 183.669 459.046 184.042 459.046Z" fill="#040919"/>
<path d="M176.288 463.65C176.661 463.65 176.963 463.339 176.963 462.955C176.963 462.572 176.661 462.261 176.288 462.261C175.915 462.261 175.613 462.572 175.613 462.955C175.613 463.339 175.915 463.65 176.288 463.65Z" fill="#040919"/>
<path d="M191.792 454.442C192.165 454.442 192.467 454.131 192.467 453.747C192.467 453.364 192.165 453.053 191.792 453.053C191.419 453.053 191.117 453.364 191.117 453.747C191.117 454.131 191.419 454.442 191.792 454.442Z" fill="#040919"/>
<path d="M168.534 459.046C168.907 459.046 169.209 458.734 169.209 458.351C169.209 457.967 168.907 457.656 168.534 457.656C168.162 457.656 167.859 457.967 167.859 458.351C167.859 458.734 168.162 459.046 168.534 459.046Z" fill="#040919"/>
<path d="M160.781 463.65C161.153 463.65 161.455 463.339 161.455 462.955C161.455 462.572 161.153 462.261 160.781 462.261C160.408 462.261 160.105 462.572 160.105 462.955C160.105 463.339 160.408 463.65 160.781 463.65Z" fill="#040919"/>
<path d="M176.288 454.442C176.661 454.442 176.963 454.131 176.963 453.747C176.963 453.364 176.661 453.053 176.288 453.053C175.915 453.053 175.613 453.364 175.613 453.747C175.613 454.131 175.915 454.442 176.288 454.442Z" fill="#040919"/>
<path d="M153.03 468.264C153.403 468.264 153.705 467.953 153.705 467.57C153.705 467.186 153.403 466.875 153.03 466.875C152.658 466.875 152.355 467.186 152.355 467.57C152.355 467.953 152.658 468.264 153.03 468.264Z" fill="#040919"/>
<path d="M199.546 449.838C199.919 449.838 200.221 449.526 200.221 449.143C200.221 448.759 199.919 448.448 199.546 448.448C199.173 448.448 198.871 448.759 198.871 449.143C198.871 449.526 199.173 449.838 199.546 449.838Z" fill="#040919"/>
<path d="M184.042 449.838C184.415 449.838 184.717 449.526 184.717 449.143C184.717 448.759 184.415 448.448 184.042 448.448C183.669 448.448 183.367 448.759 183.367 449.143C183.367 449.526 183.669 449.838 184.042 449.838Z" fill="#040919"/>
<path d="M191.792 445.223C192.165 445.223 192.467 444.912 192.467 444.529C192.467 444.145 192.165 443.834 191.792 443.834C191.419 443.834 191.117 444.145 191.117 444.529C191.117 444.912 191.419 445.223 191.792 445.223Z" fill="#040919"/>
</g>
<path d="M222.812 462.956L230.565 467.57L222.812 472.174" stroke="#AA71F8" stroke-linecap="round" stroke-linejoin="round"/>
<path d="M160.78 472.174L153.027 467.57L160.78 462.956" stroke="#AA71F8" stroke-linecap="round" stroke-linejoin="round"/>
<path d="M188.676 472.551L188.068 472.194L186.4 473.186L184.558 472.095L186.227 471.102L184.356 469.991L182.688 470.983L180.846 469.892L182.514 468.899L181.849 468.502C179.756 467.262 178.619 465.992 178.426 464.692C178.233 463.392 179.062 462.192 180.904 461.1C182.447 460.177 184.125 459.701 185.937 459.651C187.75 459.602 189.467 460.019 191.086 460.902L189.071 462.102C187.056 461.199 185.099 461.319 183.209 462.44C180.836 463.849 181.116 465.427 184.047 467.173L184.742 467.58L190.826 463.968L192.34 465.258L186.583 468.681L188.454 469.792L193.864 466.577L195.387 467.867L190.306 470.884L190.971 471.281C194.018 473.097 196.756 473.285 199.167 471.856C200.112 471.291 200.623 470.715 200.71 470.14C200.787 469.554 200.459 468.969 199.707 468.393L201.799 467.153C203.255 468.135 203.94 469.167 203.844 470.249C203.747 471.33 202.937 472.333 201.385 473.246C199.524 474.347 197.489 474.843 195.271 474.704C193.054 474.575 190.865 473.861 188.695 472.571L188.676 472.551Z" fill="#6520C2"/>
<path d="M105.495 222.488L43.9176 185.903L32.5586 192.651L105.495 235.983L178.432 192.651L167.073 185.903L105.495 222.488Z" fill="#DACBEF"/>
<path d="M131.781 206.87L143.14 213.618" stroke="white" stroke-linecap="round" stroke-linejoin="round"/>
<path d="M105.495 135.823L32.5586 179.156L105.495 222.489L178.432 179.156L105.495 135.823Z" fill="url(#paint2_linear_685_9774)"/>
<path d="M32.5586 179.156L105.495 222.489L178.432 179.156" stroke="#040919" stroke-linecap="round" stroke-linejoin="round"/>
<path d="M113.241 179.85C113.614 179.85 113.916 179.539 113.916 179.155C113.916 178.772 113.614 178.461 113.241 178.461C112.869 178.461 112.566 178.772 112.566 179.155C112.566 179.539 112.869 179.85 113.241 179.85Z" fill="#AA71F8"/>
<path d="M105.491 184.455C105.864 184.455 106.166 184.144 106.166 183.76C106.166 183.376 105.864 183.065 105.491 183.065C105.119 183.065 104.816 183.376 104.816 183.76C104.816 184.144 105.119 184.455 105.491 184.455Z" fill="#AA71F8"/>
<path d="M120.999 184.455C121.372 184.455 121.674 184.144 121.674 183.76C121.674 183.376 121.372 183.065 120.999 183.065C120.626 183.065 120.324 183.376 120.324 183.76C120.324 184.144 120.626 184.455 120.999 184.455Z" fill="#AA71F8"/>
<path d="M113.241 189.058C113.614 189.058 113.916 188.747 113.916 188.364C113.916 187.98 113.614 187.669 113.241 187.669C112.869 187.669 112.566 187.98 112.566 188.364C112.566 188.747 112.869 189.058 113.241 189.058Z" fill="#AA71F8"/>
<path d="M105.491 193.672C105.864 193.672 106.166 193.361 106.166 192.978C106.166 192.594 105.864 192.283 105.491 192.283C105.119 192.283 104.816 192.594 104.816 192.978C104.816 193.361 105.119 193.672 105.491 193.672Z" fill="#AA71F8"/>
<path d="M128.749 189.058C129.122 189.058 129.424 188.747 129.424 188.364C129.424 187.98 129.122 187.669 128.749 187.669C128.376 187.669 128.074 187.98 128.074 188.364C128.074 188.747 128.376 189.058 128.749 189.058Z" fill="#AA71F8"/>
<path d="M120.999 193.672C121.372 193.672 121.674 193.361 121.674 192.978C121.674 192.594 121.372 192.283 120.999 192.283C120.626 192.283 120.324 192.594 120.324 192.978C120.324 193.361 120.626 193.672 120.999 193.672Z" fill="#AA71F8"/>
<path d="M113.241 198.277C113.614 198.277 113.916 197.966 113.916 197.582C113.916 197.199 113.614 196.888 113.241 196.888C112.869 196.888 112.566 197.199 112.566 197.582C112.566 197.966 112.869 198.277 113.241 198.277Z" fill="#AA71F8"/>
<path d="M105.491 202.881C105.864 202.881 106.166 202.57 106.166 202.187C106.166 201.803 105.864 201.492 105.491 201.492C105.119 201.492 104.816 201.803 104.816 202.187C104.816 202.57 105.119 202.881 105.491 202.881Z" fill="#AA71F8"/>
<path d="M128.749 198.277C129.122 198.277 129.424 197.966 129.424 197.582C129.424 197.199 129.122 196.888 128.749 196.888C128.376 196.888 128.074 197.199 128.074 197.582C128.074 197.966 128.376 198.277 128.749 198.277Z" fill="#AA71F8"/>
<path d="M120.999 202.881C121.372 202.881 121.674 202.57 121.674 202.187C121.674 201.803 121.372 201.492 120.999 201.492C120.626 201.492 120.324 201.803 120.324 202.187C120.324 202.57 120.626 202.881 120.999 202.881Z" fill="#AA71F8"/>
<path d="M136.503 193.672C136.876 193.672 137.178 193.361 137.178 192.978C137.178 192.594 136.876 192.283 136.503 192.283C136.13 192.283 135.828 192.594 135.828 192.978C135.828 193.361 136.13 193.672 136.503 193.672Z" fill="#AA71F8"/>
<path d="M113.241 207.495C113.614 207.495 113.916 207.184 113.916 206.8C113.916 206.416 113.614 206.105 113.241 206.105C112.869 206.105 112.566 206.416 112.566 206.8C112.566 207.184 112.869 207.495 113.241 207.495Z" fill="#AA71F8"/>
<path d="M105.491 212.099C105.864 212.099 106.166 211.788 106.166 211.405C106.166 211.021 105.864 210.71 105.491 210.71C105.119 210.71 104.816 211.021 104.816 211.405C104.816 211.788 105.119 212.099 105.491 212.099Z" fill="#AA71F8"/>
<path d="M97.7414 179.85C98.1142 179.85 98.4164 179.539 98.4164 179.155C98.4164 178.772 98.1142 178.461 97.7414 178.461C97.3686 178.461 97.0664 178.772 97.0664 179.155C97.0664 179.539 97.3686 179.85 97.7414 179.85Z" fill="#AA71F8"/>
<path d="M128.749 170.632C129.122 170.632 129.424 170.321 129.424 169.938C129.424 169.554 129.122 169.243 128.749 169.243C128.376 169.243 128.074 169.554 128.074 169.938C128.074 170.321 128.376 170.632 128.749 170.632Z" fill="#AA71F8"/>
<path d="M120.999 175.247C121.372 175.247 121.674 174.936 121.674 174.552C121.674 174.168 121.372 173.857 120.999 173.857C120.626 173.857 120.324 174.168 120.324 174.552C120.324 174.936 120.626 175.247 120.999 175.247Z" fill="#AA71F8"/>
<path d="M136.503 175.247C136.876 175.247 137.178 174.936 137.178 174.552C137.178 174.168 136.876 173.857 136.503 173.857C136.13 173.857 135.828 174.168 135.828 174.552C135.828 174.936 136.13 175.247 136.503 175.247Z" fill="#AA71F8"/>
<path d="M128.749 179.85C129.122 179.85 129.424 179.539 129.424 179.155C129.424 178.772 129.122 178.461 128.749 178.461C128.376 178.461 128.074 178.772 128.074 179.155C128.074 179.539 128.376 179.85 128.749 179.85Z" fill="#AA71F8"/>
<path d="M144.265 179.85C144.638 179.85 144.94 179.539 144.94 179.155C144.94 178.772 144.638 178.461 144.265 178.461C143.892 178.461 143.59 178.772 143.59 179.155C143.59 179.539 143.892 179.85 144.265 179.85Z" fill="#AA71F8"/>
<path d="M136.503 184.455C136.876 184.455 137.178 184.144 137.178 183.76C137.178 183.376 136.876 183.065 136.503 183.065C136.13 183.065 135.828 183.376 135.828 183.76C135.828 184.144 136.13 184.455 136.503 184.455Z" fill="#AA71F8"/>
<path d="M144.265 189.058C144.638 189.058 144.94 188.747 144.94 188.364C144.94 187.98 144.638 187.669 144.265 187.669C143.892 187.669 143.59 187.98 143.59 188.364C143.59 188.747 143.892 189.058 144.265 189.058Z" fill="#AA71F8"/>
<path d="M152.019 184.455C152.391 184.455 152.694 184.144 152.694 183.76C152.694 183.376 152.391 183.065 152.019 183.065C151.646 183.065 151.344 183.376 151.344 183.76C151.344 184.144 151.646 184.455 152.019 184.455Z" fill="#AA71F8"/>
<path d="M136.503 166.028C136.876 166.028 137.178 165.717 137.178 165.333C137.178 164.95 136.876 164.639 136.503 164.639C136.13 164.639 135.828 164.95 135.828 165.333C135.828 165.717 136.13 166.028 136.503 166.028Z" fill="#AA71F8"/>
<path d="M144.265 170.632C144.638 170.632 144.94 170.321 144.94 169.938C144.94 169.554 144.638 169.243 144.265 169.243C143.892 169.243 143.59 169.554 143.59 169.938C143.59 170.321 143.892 170.632 144.265 170.632Z" fill="#AA71F8"/>
<path d="M152.019 175.247C152.391 175.247 152.694 174.936 152.694 174.552C152.694 174.168 152.391 173.857 152.019 173.857C151.646 173.857 151.344 174.168 151.344 174.552C151.344 174.936 151.646 175.247 152.019 175.247Z" fill="#AA71F8"/>
<path d="M159.773 179.85C160.145 179.85 160.448 179.539 160.448 179.155C160.448 178.772 160.145 178.461 159.773 178.461C159.4 178.461 159.098 178.772 159.098 179.155C159.098 179.539 159.4 179.85 159.773 179.85Z" fill="#AA71F8"/>
<path d="M89.9875 184.455C90.3603 184.455 90.6625 184.144 90.6625 183.76C90.6625 183.376 90.3603 183.065 89.9875 183.065C89.6147 183.065 89.3125 183.376 89.3125 183.76C89.3125 184.144 89.6147 184.455 89.9875 184.455Z" fill="#AA71F8"/>
<path d="M97.7414 189.058C98.1142 189.058 98.4164 188.747 98.4164 188.364C98.4164 187.98 98.1142 187.669 97.7414 187.669C97.3686 187.669 97.0664 187.98 97.0664 188.364C97.0664 188.747 97.3686 189.058 97.7414 189.058Z" fill="#AA71F8"/>
<path d="M82.2258 189.058C82.5986 189.058 82.9007 188.747 82.9007 188.364C82.9007 187.98 82.5986 187.669 82.2258 187.669C81.853 187.669 81.5508 187.98 81.5508 188.364C81.5508 188.747 81.853 189.058 82.2258 189.058Z" fill="#AA71F8"/>
<path d="M89.9875 193.672C90.3603 193.672 90.6625 193.361 90.6625 192.978C90.6625 192.594 90.3603 192.283 89.9875 192.283C89.6147 192.283 89.3125 192.594 89.3125 192.978C89.3125 193.361 89.6147 193.672 89.9875 193.672Z" fill="#AA71F8"/>
<path d="M97.7414 198.277C98.1142 198.277 98.4164 197.966 98.4164 197.582C98.4164 197.199 98.1142 196.888 97.7414 196.888C97.3686 196.888 97.0664 197.199 97.0664 197.582C97.0664 197.966 97.3686 198.277 97.7414 198.277Z" fill="#AA71F8"/>
<path d="M82.2258 198.277C82.5986 198.277 82.9007 197.966 82.9007 197.582C82.9007 197.199 82.5986 196.888 82.2258 196.888C81.853 196.888 81.5508 197.199 81.5508 197.582C81.5508 197.966 81.853 198.277 82.2258 198.277Z" fill="#AA71F8"/>
<path d="M89.9875 202.881C90.3603 202.881 90.6625 202.57 90.6625 202.187C90.6625 201.803 90.3603 201.492 89.9875 201.492C89.6147 201.492 89.3125 201.803 89.3125 202.187C89.3125 202.57 89.6147 202.881 89.9875 202.881Z" fill="#AA71F8"/>
<path d="M74.4719 193.672C74.8447 193.672 75.1469 193.361 75.1469 192.978C75.1469 192.594 74.8447 192.283 74.4719 192.283C74.0991 192.283 73.7969 192.594 73.7969 192.978C73.7969 193.361 74.0991 193.672 74.4719 193.672Z" fill="#AA71F8"/>
<path d="M97.7414 207.495C98.1142 207.495 98.4164 207.184 98.4164 206.8C98.4164 206.416 98.1142 206.105 97.7414 206.105C97.3686 206.105 97.0664 206.416 97.0664 206.8C97.0664 207.184 97.3686 207.495 97.7414 207.495Z" fill="#AA71F8"/>
<path d="M82.2258 179.85C82.5986 179.85 82.9007 179.539 82.9007 179.155C82.9007 178.772 82.5986 178.461 82.2258 178.461C81.853 178.461 81.5508 178.772 81.5508 179.155C81.5508 179.539 81.853 179.85 82.2258 179.85Z" fill="#AA71F8"/>
<path d="M74.4719 184.455C74.8447 184.455 75.1469 184.144 75.1469 183.76C75.1469 183.376 74.8447 183.065 74.4719 183.065C74.0991 183.065 73.7969 183.376 73.7969 183.76C73.7969 184.144 74.0991 184.455 74.4719 184.455Z" fill="#AA71F8"/>
<path d="M89.9875 175.247C90.3603 175.247 90.6625 174.936 90.6625 174.552C90.6625 174.168 90.3603 173.857 89.9875 173.857C89.6147 173.857 89.3125 174.168 89.3125 174.552C89.3125 174.936 89.6147 175.247 89.9875 175.247Z" fill="#AA71F8"/>
<path d="M66.718 189.058C67.0907 189.058 67.393 188.747 67.393 188.364C67.393 187.98 67.0907 187.669 66.718 187.669C66.3452 187.669 66.043 187.98 66.043 188.364C66.043 188.747 66.3452 189.058 66.718 189.058Z" fill="#AA71F8"/>
<path d="M74.4719 166.028C74.8447 166.028 75.1469 165.717 75.1469 165.333C75.1469 164.95 74.8447 164.639 74.4719 164.639C74.0991 164.639 73.7969 164.95 73.7969 165.333C73.7969 165.717 74.0991 166.028 74.4719 166.028Z" fill="#AA71F8"/>
<path d="M66.718 170.632C67.0907 170.632 67.393 170.321 67.393 169.938C67.393 169.554 67.0907 169.243 66.718 169.243C66.3452 169.243 66.043 169.554 66.043 169.938C66.043 170.321 66.3452 170.632 66.718 170.632Z" fill="#AA71F8"/>
<path d="M58.9641 175.247C59.3368 175.247 59.639 174.936 59.639 174.552C59.639 174.168 59.3368 173.857 58.9641 173.857C58.5913 173.857 58.2891 174.168 58.2891 174.552C58.2891 174.936 58.5913 175.247 58.9641 175.247Z" fill="#AA71F8"/>
<path d="M82.2258 170.632C82.5986 170.632 82.9007 170.321 82.9007 169.938C82.9007 169.554 82.5986 169.243 82.2258 169.243C81.853 169.243 81.5508 169.554 81.5508 169.938C81.5508 170.321 81.853 170.632 82.2258 170.632Z" fill="#AA71F8"/>
<path d="M74.4719 175.247C74.8447 175.247 75.1469 174.936 75.1469 174.552C75.1469 174.168 74.8447 173.857 74.4719 173.857C74.0991 173.857 73.7969 174.168 73.7969 174.552C73.7969 174.936 74.0991 175.247 74.4719 175.247Z" fill="#AA71F8"/>
<path d="M66.718 179.85C67.0907 179.85 67.393 179.539 67.393 179.155C67.393 178.772 67.0907 178.461 66.718 178.461C66.3452 178.461 66.043 178.772 66.043 179.155C66.043 179.539 66.3452 179.85 66.718 179.85Z" fill="#AA71F8"/>
<path d="M58.9641 184.455C59.3368 184.455 59.639 184.144 59.639 183.76C59.639 183.376 59.3368 183.065 58.9641 183.065C58.5913 183.065 58.2891 183.376 58.2891 183.76C58.2891 184.144 58.5913 184.455 58.9641 184.455Z" fill="#AA71F8"/>
<path d="M51.2141 179.85C51.5868 179.85 51.8891 179.539 51.8891 179.155C51.8891 178.772 51.5868 178.461 51.2141 178.461C50.8413 178.461 50.5391 178.772 50.5391 179.155C50.5391 179.539 50.8413 179.85 51.2141 179.85Z" fill="#AA71F8"/>
<path d="M152.023 137.698V148.782C152.023 159.479 159.776 158.407 159.776 168.072V179.156" stroke="#AA71F8" stroke-linecap="round" stroke-linejoin="round"/>
<path d="M113.25 142.303V153.386C113.25 164.083 121.003 163.012 121.003 172.676V183.76" stroke="#AA71F8" stroke-linecap="round" stroke-linejoin="round"/>
<path d="M66.7253 133.084V144.168C66.7253 154.864 58.9727 153.793 58.9727 163.458V174.541" stroke="#AA71F8" stroke-linecap="round" stroke-linejoin="round"/>
<path d="M128.758 179.155V133.084" stroke="#AA71F8" stroke-linecap="round" stroke-linejoin="round"/>
<path d="M82.2305 179.155V133.084" stroke="#AA71F8" stroke-linecap="round" stroke-linejoin="round"/>
<path d="M89.9961 156.125V110.054" stroke="#AA71F8" stroke-linecap="round" stroke-linejoin="round"/>
<path d="M121 137.698V148.782C121 159.479 136.505 172.22 136.505 181.894V192.978" stroke="white" stroke-linecap="round" stroke-linejoin="round"/>
<path d="M105.501 146.906V157.99C105.501 168.687 89.9961 172.219 89.9961 181.884V192.968" stroke="white" stroke-linecap="round" stroke-linejoin="round"/>
<path d="M97.7461 188.364V142.303" stroke="white" stroke-linecap="round" stroke-linejoin="round"/>
<path d="M105.495 89.752L32.5586 133.085L105.495 176.417L178.432 133.085L105.495 89.752Z" fill="url(#paint3_linear_685_9774)"/>
<path d="M105.491 129.174C105.864 129.174 106.166 128.863 106.166 128.48C106.166 128.096 105.864 127.785 105.491 127.785C105.119 127.785 104.816 128.096 104.816 128.48C104.816 128.863 105.119 129.174 105.491 129.174Z" fill="#AA71F8"/>
<path d="M113.241 133.779C113.614 133.779 113.916 133.468 113.916 133.084C113.916 132.701 113.614 132.39 113.241 132.39C112.869 132.39 112.566 132.701 112.566 133.084C112.566 133.468 112.869 133.779 113.241 133.779Z" fill="#AA71F8"/>
<path d="M105.491 138.393C105.864 138.393 106.166 138.082 106.166 137.699C106.166 137.315 105.864 137.004 105.491 137.004C105.119 137.004 104.816 137.315 104.816 137.699C104.816 138.082 105.119 138.393 105.491 138.393Z" fill="#AA71F8"/>
<path d="M120.999 138.393C121.372 138.393 121.674 138.082 121.674 137.699C121.674 137.315 121.372 137.004 120.999 137.004C120.626 137.004 120.324 137.315 120.324 137.699C120.324 138.082 120.626 138.393 120.999 138.393Z" fill="#AA71F8"/>
<path d="M113.241 142.997C113.614 142.997 113.916 142.686 113.916 142.302C113.916 141.918 113.614 141.607 113.241 141.607C112.869 141.607 112.566 141.918 112.566 142.302C112.566 142.686 112.869 142.997 113.241 142.997Z" fill="#AA71F8"/>
<path d="M105.491 147.601C105.864 147.601 106.166 147.29 106.166 146.907C106.166 146.523 105.864 146.212 105.491 146.212C105.119 146.212 104.816 146.523 104.816 146.907C104.816 147.29 105.119 147.601 105.491 147.601Z" fill="#AA71F8"/>
<path d="M136.503 147.601C136.876 147.601 137.178 147.29 137.178 146.907C137.178 146.523 136.876 146.212 136.503 146.212C136.13 146.212 135.828 146.523 135.828 146.907C135.828 147.29 136.13 147.601 136.503 147.601Z" fill="#AA71F8"/>
<path d="M97.7414 133.779C98.1142 133.779 98.4164 133.468 98.4164 133.084C98.4164 132.701 98.1142 132.39 97.7414 132.39C97.3686 132.39 97.0664 132.701 97.0664 133.084C97.0664 133.468 97.3686 133.779 97.7414 133.779Z" fill="#AA71F8"/>
<path d="M120.999 119.957C121.372 119.957 121.674 119.646 121.674 119.262C121.674 118.878 121.372 118.567 120.999 118.567C120.626 118.567 120.324 118.878 120.324 119.262C120.324 119.646 120.626 119.957 120.999 119.957Z" fill="#AA71F8"/>
<path d="M128.749 124.571C129.122 124.571 129.424 124.26 129.424 123.876C129.424 123.493 129.122 123.182 128.749 123.182C128.376 123.182 128.074 123.493 128.074 123.876C128.074 124.26 128.376 124.571 128.749 124.571Z" fill="#AA71F8"/>
<path d="M120.999 129.174C121.372 129.174 121.674 128.863 121.674 128.48C121.674 128.096 121.372 127.785 120.999 127.785C120.626 127.785 120.324 128.096 120.324 128.48C120.324 128.863 120.626 129.174 120.999 129.174Z" fill="#AA71F8"/>
<path d="M136.503 129.174C136.876 129.174 137.178 128.863 137.178 128.48C137.178 128.096 136.876 127.785 136.503 127.785C136.13 127.785 135.828 128.096 135.828 128.48C135.828 128.863 136.13 129.174 136.503 129.174Z" fill="#AA71F8"/>
<path d="M128.749 133.779C129.122 133.779 129.424 133.468 129.424 133.084C129.424 132.701 129.122 132.39 128.749 132.39C128.376 132.39 128.074 132.701 128.074 133.084C128.074 133.468 128.376 133.779 128.749 133.779Z" fill="#AA71F8"/>
<path d="M144.265 133.779C144.638 133.779 144.94 133.468 144.94 133.084C144.94 132.701 144.638 132.39 144.265 132.39C143.892 132.39 143.59 132.701 143.59 133.084C143.59 133.468 143.892 133.779 144.265 133.779Z" fill="#AA71F8"/>
<path d="M136.503 138.393C136.876 138.393 137.178 138.082 137.178 137.699C137.178 137.315 136.876 137.004 136.503 137.004C136.13 137.004 135.828 137.315 135.828 137.699C135.828 138.082 136.13 138.393 136.503 138.393Z" fill="#AA71F8"/>
<path d="M144.265 142.997C144.638 142.997 144.94 142.686 144.94 142.302C144.94 141.918 144.638 141.607 144.265 141.607C143.892 141.607 143.59 141.918 143.59 142.302C143.59 142.686 143.892 142.997 144.265 142.997Z" fill="#AA71F8"/>
<path d="M152.019 138.393C152.391 138.393 152.694 138.082 152.694 137.699C152.694 137.315 152.391 137.004 152.019 137.004C151.646 137.004 151.344 137.315 151.344 137.699C151.344 138.082 151.646 138.393 152.019 138.393Z" fill="#AA71F8"/>
<path d="M113.241 124.571C113.614 124.571 113.916 124.26 113.916 123.876C113.916 123.493 113.614 123.182 113.241 123.182C112.869 123.182 112.566 123.493 112.566 123.876C112.566 124.26 112.869 124.571 113.241 124.571Z" fill="#AA71F8"/>
<path d="M136.503 119.957C136.876 119.957 137.178 119.646 137.178 119.262C137.178 118.878 136.876 118.567 136.503 118.567C136.13 118.567 135.828 118.878 135.828 119.262C135.828 119.646 136.13 119.957 136.503 119.957Z" fill="#AA71F8"/>
<path d="M144.265 124.571C144.638 124.571 144.94 124.26 144.94 123.876C144.94 123.493 144.638 123.182 144.265 123.182C143.892 123.182 143.59 123.493 143.59 123.876C143.59 124.26 143.892 124.571 144.265 124.571Z" fill="#AA71F8"/>
<path d="M152.019 129.174C152.391 129.174 152.694 128.863 152.694 128.48C152.694 128.096 152.391 127.785 152.019 127.785C151.646 127.785 151.344 128.096 151.344 128.48C151.344 128.863 151.646 129.174 152.019 129.174Z" fill="#AA71F8"/>
<path d="M159.773 133.779C160.145 133.779 160.448 133.468 160.448 133.084C160.448 132.701 160.145 132.39 159.773 132.39C159.4 132.39 159.098 132.701 159.098 133.084C159.098 133.468 159.4 133.779 159.773 133.779Z" fill="#AA71F8"/>
<path d="M128.749 115.352C129.122 115.352 129.424 115.041 129.424 114.658C129.424 114.274 129.122 113.963 128.749 113.963C128.376 113.963 128.074 114.274 128.074 114.658C128.074 115.041 128.376 115.352 128.749 115.352Z" fill="#AA71F8"/>
<path d="M89.9875 138.393C90.3603 138.393 90.6625 138.082 90.6625 137.699C90.6625 137.315 90.3603 137.004 89.9875 137.004C89.6147 137.004 89.3125 137.315 89.3125 137.699C89.3125 138.082 89.6147 138.393 89.9875 138.393Z" fill="#AA71F8"/>
<path d="M97.7414 142.997C98.1142 142.997 98.4164 142.686 98.4164 142.302C98.4164 141.918 98.1142 141.607 97.7414 141.607C97.3686 141.607 97.0664 141.918 97.0664 142.302C97.0664 142.686 97.3686 142.997 97.7414 142.997Z" fill="#AA71F8"/>
<path d="M74.4719 147.601C74.8447 147.601 75.1469 147.29 75.1469 146.907C75.1469 146.523 74.8447 146.212 74.4719 146.212C74.0991 146.212 73.7969 146.523 73.7969 146.907C73.7969 147.29 74.0991 147.601 74.4719 147.601Z" fill="#AA71F8"/>
<path d="M82.2258 133.779C82.5986 133.779 82.9007 133.468 82.9007 133.084C82.9007 132.701 82.5986 132.39 82.2258 132.39C81.853 132.39 81.5508 132.701 81.5508 133.084C81.5508 133.468 81.853 133.779 82.2258 133.779Z" fill="#AA71F8"/>
<path d="M74.4719 138.393C74.8447 138.393 75.1469 138.082 75.1469 137.699C75.1469 137.315 74.8447 137.004 74.4719 137.004C74.0991 137.004 73.7969 137.315 73.7969 137.699C73.7969 138.082 74.0991 138.393 74.4719 138.393Z" fill="#AA71F8"/>
<path d="M97.7414 124.571C98.1142 124.571 98.4164 124.26 98.4164 123.876C98.4164 123.493 98.1142 123.182 97.7414 123.182C97.3686 123.182 97.0664 123.493 97.0664 123.876C97.0664 124.26 97.3686 124.571 97.7414 124.571Z" fill="#AA71F8"/>
<path d="M89.9875 129.174C90.3603 129.174 90.6625 128.863 90.6625 128.48C90.6625 128.096 90.3603 127.785 89.9875 127.785C89.6147 127.785 89.3125 128.096 89.3125 128.48C89.3125 128.863 89.6147 129.174 89.9875 129.174Z" fill="#AA71F8"/>
<path d="M105.491 119.957C105.864 119.957 106.166 119.646 106.166 119.262C106.166 118.878 105.864 118.567 105.491 118.567C105.119 118.567 104.816 118.878 104.816 119.262C104.816 119.646 105.119 119.957 105.491 119.957Z" fill="#AA71F8"/>
<path d="M66.718 142.997C67.0907 142.997 67.393 142.686 67.393 142.302C67.393 141.918 67.0907 141.607 66.718 141.607C66.3452 141.607 66.043 141.918 66.043 142.302C66.043 142.686 66.3452 142.997 66.718 142.997Z" fill="#AA71F8"/>
<path d="M82.2258 115.352C82.5986 115.352 82.9007 115.041 82.9007 114.658C82.9007 114.274 82.5986 113.963 82.2258 113.963C81.853 113.963 81.5508 114.274 81.5508 114.658C81.5508 115.041 81.853 115.352 82.2258 115.352Z" fill="#AA71F8"/>
<path d="M74.4719 119.957C74.8447 119.957 75.1469 119.646 75.1469 119.262C75.1469 118.878 74.8447 118.567 74.4719 118.567C74.0991 118.567 73.7969 118.878 73.7969 119.262C73.7969 119.646 74.0991 119.957 74.4719 119.957Z" fill="#AA71F8"/>
<path d="M66.718 124.571C67.0907 124.571 67.393 124.26 67.393 123.876C67.393 123.493 67.0907 123.182 66.718 123.182C66.3452 123.182 66.043 123.493 66.043 123.876C66.043 124.26 66.3452 124.571 66.718 124.571Z" fill="#AA71F8"/>
<path d="M58.9641 129.174C59.3368 129.174 59.639 128.863 59.639 128.48C59.639 128.096 59.3368 127.785 58.9641 127.785C58.5913 127.785 58.2891 128.096 58.2891 128.48C58.2891 128.863 58.5913 129.174 58.9641 129.174Z" fill="#AA71F8"/>
<path d="M82.2258 124.571C82.5986 124.571 82.9007 124.26 82.9007 123.876C82.9007 123.493 82.5986 123.182 82.2258 123.182C81.853 123.182 81.5508 123.493 81.5508 123.876C81.5508 124.26 81.853 124.571 82.2258 124.571Z" fill="#AA71F8"/>
<path d="M74.4719 129.174C74.8447 129.174 75.1469 128.863 75.1469 128.48C75.1469 128.096 74.8447 127.785 74.4719 127.785C74.0991 127.785 73.7969 128.096 73.7969 128.48C73.7969 128.863 74.0991 129.174 74.4719 129.174Z" fill="#AA71F8"/>
<path d="M89.9875 119.957C90.3603 119.957 90.6625 119.646 90.6625 119.262C90.6625 118.878 90.3603 118.567 89.9875 118.567C89.6147 118.567 89.3125 118.878 89.3125 119.262C89.3125 119.646 89.6147 119.957 89.9875 119.957Z" fill="#AA71F8"/>
<path d="M66.718 133.779C67.0907 133.779 67.393 133.468 67.393 133.084C67.393 132.701 67.0907 132.39 66.718 132.39C66.3452 132.39 66.043 132.701 66.043 133.084C66.043 133.468 66.3452 133.779 66.718 133.779Z" fill="#AA71F8"/>
<path d="M58.9641 138.393C59.3368 138.393 59.639 138.082 59.639 137.699C59.639 137.315 59.3368 137.004 58.9641 137.004C58.5913 137.004 58.2891 137.315 58.2891 137.699C58.2891 138.082 58.5913 138.393 58.9641 138.393Z" fill="#AA71F8"/>
<path d="M113.241 115.352C113.614 115.352 113.916 115.041 113.916 114.658C113.916 114.274 113.614 113.963 113.241 113.963C112.869 113.963 112.566 114.274 112.566 114.658C112.566 115.041 112.869 115.352 113.241 115.352Z" fill="#AA71F8"/>
<path d="M97.7414 106.144C98.1142 106.144 98.4164 105.833 98.4164 105.45C98.4164 105.066 98.1142 104.755 97.7414 104.755C97.3686 104.755 97.0664 105.066 97.0664 105.45C97.0664 105.833 97.3686 106.144 97.7414 106.144Z" fill="#AA71F8"/>
<path d="M89.9875 110.749C90.3603 110.749 90.6625 110.438 90.6625 110.054C90.6625 109.67 90.3603 109.359 89.9875 109.359C89.6147 109.359 89.3125 109.67 89.3125 110.054C89.3125 110.438 89.6147 110.749 89.9875 110.749Z" fill="#AA71F8"/>
<path d="M97.7414 115.352C98.1142 115.352 98.4164 115.041 98.4164 114.658C98.4164 114.274 98.1142 113.963 97.7414 113.963C97.3686 113.963 97.0664 114.274 97.0664 114.658C97.0664 115.041 97.3686 115.352 97.7414 115.352Z" fill="#AA71F8"/>
<path d="M105.491 110.749C105.864 110.749 106.166 110.438 106.166 110.054C106.166 109.67 105.864 109.359 105.491 109.359C105.119 109.359 104.816 109.67 104.816 110.054C104.816 110.438 105.119 110.749 105.491 110.749Z" fill="#AA71F8"/>
<path d="M120.999 110.749C121.372 110.749 121.674 110.438 121.674 110.054C121.674 109.67 121.372 109.359 120.999 109.359C120.626 109.359 120.324 109.67 120.324 110.054C120.324 110.438 120.626 110.749 120.999 110.749Z" fill="#AA71F8"/>
<path d="M105.491 101.53C105.864 101.53 106.166 101.219 106.166 100.835C106.166 100.452 105.864 100.141 105.491 100.141C105.119 100.141 104.816 100.452 104.816 100.835C104.816 101.219 105.119 101.53 105.491 101.53Z" fill="#AA71F8"/>
<path d="M113.241 106.144C113.614 106.144 113.916 105.833 113.916 105.45C113.916 105.066 113.614 104.755 113.241 104.755C112.869 104.755 112.566 105.066 112.566 105.45C112.566 105.833 112.869 106.144 113.241 106.144Z" fill="#AA71F8"/>
<path d="M51.2141 133.779C51.5868 133.779 51.8891 133.468 51.8891 133.084C51.8891 132.701 51.5868 132.39 51.2141 132.39C50.8413 132.39 50.5391 132.701 50.5391 133.084C50.5391 133.468 50.8413 133.779 51.2141 133.779Z" fill="#AA71F8"/>
<path d="M105.496 114.262L73.8008 133.085L105.496 151.919L137.182 133.085L105.496 114.262Z" fill="#040919"/>
<path d="M73.8008 133.085L105.496 151.918L137.182 133.085" stroke="white" stroke-linecap="round" stroke-linejoin="round"/>
<path d="M103.887 139.129L106.384 142.175L104.378 143.366L93.6172 129.732L95.2468 128.77L118.216 135.15L116.181 136.36L111.041 134.892L103.887 139.139V139.129ZM97.156 130.883L102.662 137.621L108.496 134.148L97.1464 130.873L97.156 130.883Z" fill="white"/>
<path d="M105.073 122.925L121.928 132.937L120 134.078L103.145 124.066L105.073 122.925V122.925Z" fill="white"/>
<path d="M32.5586 133.085L105.495 176.418L178.432 133.085" stroke="#DACBEF" stroke-linecap="round" stroke-linejoin="round"/>
<path d="M320.531 276.17L247.594 319.503L320.531 362.835L393.467 319.503L320.531 276.17Z" stroke="#AA71F8" stroke-linecap="round" stroke-linejoin="round"/>
<path d="M393.468 352.774V319.503L320.531 362.836V396.107" stroke="#AA71F8" stroke-linecap="round" stroke-linejoin="round"/>
<path d="M320.531 173.33L247.594 216.663L320.531 259.996L393.467 216.663L320.531 173.33Z" fill="#AA71F8"/>
<path d="M393.468 216.663L320.531 259.996V346.661L393.468 303.328V216.663Z" fill="#040919"/>
<path d="M247.594 216.663L320.531 259.996V346.661L247.594 303.328V216.663Z" fill="#6520C2"/>
<path d="M247.594 303.328L320.531 346.661L393.467 303.328L320.531 346.661" stroke="white" stroke-linecap="round" stroke-linejoin="round"/>
<path d="M387.533 147.75L291.309 170.086L253.52 112.663L349.743 90.3271L387.533 147.75Z" fill="white"/>
<path d="M387.531 147.75L332.559 160.51L365.054 113.605L387.531 147.75Z" fill="#E3D6F5"/>
<path d="M253.52 112.663L291.309 170.086V256.751L253.52 199.328V112.663Z" fill="#E6E7F5"/>
<path d="M387.532 147.75L291.309 170.086V256.751L387.532 234.415V147.75Z" fill="#DACBEF"/>
<path d="M387.532 147.75L291.309 170.086" stroke="white" stroke-linecap="round" stroke-linejoin="round"/>
<path d="M291.316 237.789L298.712 228.343L306.118 228.184L313.514 228.789L320.919 218.578L328.315 218.529L335.721 199.557L343.117 198.108L350.522 203.992L357.928 195.3L365.323 209.856L372.729 176.695L380.231 180.614L387.53 175.027" stroke="white" stroke-linecap="round" stroke-linejoin="round"/>
<path d="M405.683 176.208L327.848 194.277V226.586L405.683 208.506V176.208Z" stroke="#AA71F8" stroke-linecap="round" stroke-linejoin="round"/>
<path d="M402.382 205.947L393.289 208.061" stroke="#AA71F8" stroke-linecap="round" stroke-linejoin="round"/>
<path d="M320.531 86.6653V0L393.468 43.3327V129.998L320.531 86.6653Z" fill="#6520C2"/>
<path d="M320.531 86.6653V0L247.594 43.3327V129.998L320.531 86.6653Z" fill="#6520C2"/>
<path d="M328.28 44.0269C328.653 44.0269 328.955 43.716 328.955 43.3324C328.955 42.9487 328.653 42.6377 328.28 42.6377C327.908 42.6377 327.605 42.9487 327.605 43.3324C327.605 43.716 327.908 44.0269 328.28 44.0269Z" fill="#AA71F8"/>
<path d="M320.526 48.6314C320.899 48.6314 321.202 48.3205 321.202 47.9369C321.202 47.5532 320.899 47.2422 320.526 47.2422C320.154 47.2422 319.852 47.5532 319.852 47.9369C319.852 48.3205 320.154 48.6314 320.526 48.6314Z" fill="#AA71F8"/>
<path d="M336.034 48.6314C336.407 48.6314 336.709 48.3205 336.709 47.9369C336.709 47.5532 336.407 47.2422 336.034 47.2422C335.662 47.2422 335.359 47.5532 335.359 47.9369C335.359 48.3205 335.662 48.6314 336.034 48.6314Z" fill="#AA71F8"/>
<path d="M328.28 53.2359C328.653 53.2359 328.955 52.9248 328.955 52.5412C328.955 52.1576 328.653 51.8467 328.28 51.8467C327.908 51.8467 327.605 52.1576 327.605 52.5412C327.605 52.9248 327.908 53.2359 328.28 53.2359Z" fill="#AA71F8"/>
<path d="M320.526 57.8501C320.899 57.8501 321.202 57.5391 321.202 57.1555C321.202 56.7719 320.899 56.4609 320.526 56.4609C320.154 56.4609 319.852 56.7719 319.852 57.1555C319.852 57.5391 320.154 57.8501 320.526 57.8501Z" fill="#AA71F8"/>
<path d="M343.796 53.2359C344.169 53.2359 344.471 52.9248 344.471 52.5412C344.471 52.1576 344.169 51.8467 343.796 51.8467C343.423 51.8467 343.121 52.1576 343.121 52.5412C343.121 52.9248 343.423 53.2359 343.796 53.2359Z" fill="#AA71F8"/>
<path d="M336.034 57.8501C336.407 57.8501 336.709 57.5391 336.709 57.1555C336.709 56.7719 336.407 56.4609 336.034 56.4609C335.662 56.4609 335.359 56.7719 335.359 57.1555C335.359 57.5391 335.662 57.8501 336.034 57.8501Z" fill="#AA71F8"/>
<path d="M328.28 62.4545C328.653 62.4545 328.955 62.1436 328.955 61.76C328.955 61.3764 328.653 61.0654 328.28 61.0654C327.908 61.0654 327.605 61.3764 327.605 61.76C327.605 62.1436 327.908 62.4545 328.28 62.4545Z" fill="#AA71F8"/>
<path d="M320.526 67.058C320.899 67.058 321.202 66.7471 321.202 66.3635C321.202 65.9799 320.899 65.6689 320.526 65.6689C320.154 65.6689 319.852 65.9799 319.852 66.3635C319.852 66.7471 320.154 67.058 320.526 67.058Z" fill="#AA71F8"/>
<path d="M343.796 62.4545C344.169 62.4545 344.471 62.1436 344.471 61.76C344.471 61.3764 344.169 61.0654 343.796 61.0654C343.423 61.0654 343.121 61.3764 343.121 61.76C343.121 62.1436 343.423 62.4545 343.796 62.4545Z" fill="#AA71F8"/>
<path d="M336.034 67.058C336.407 67.058 336.709 66.7471 336.709 66.3635C336.709 65.9799 336.407 65.6689 336.034 65.6689C335.662 65.6689 335.359 65.9799 335.359 66.3635C335.359 66.7471 335.662 67.058 336.034 67.058Z" fill="#AA71F8"/>
<path d="M351.55 57.8501C351.923 57.8501 352.225 57.5391 352.225 57.1555C352.225 56.7719 351.923 56.4609 351.55 56.4609C351.177 56.4609 350.875 56.7719 350.875 57.1555C350.875 57.5391 351.177 57.8501 351.55 57.8501Z" fill="#AA71F8"/>
<path d="M328.28 71.6724C328.653 71.6724 328.955 71.3615 328.955 70.9779C328.955 70.5943 328.653 70.2832 328.28 70.2832C327.908 70.2832 327.605 70.5943 327.605 70.9779C327.605 71.3615 327.908 71.6724 328.28 71.6724Z" fill="#AA71F8"/>
<path d="M320.526 76.2759C320.899 76.2759 321.202 75.965 321.202 75.5814C321.202 75.1978 320.899 74.8867 320.526 74.8867C320.154 74.8867 319.852 75.1978 319.852 75.5814C319.852 75.965 320.154 76.2759 320.526 76.2759Z" fill="#AA71F8"/>
<path d="M312.777 44.0269C313.149 44.0269 313.452 43.716 313.452 43.3324C313.452 42.9487 313.149 42.6377 312.777 42.6377C312.404 42.6377 312.102 42.9487 312.102 43.3324C312.102 43.716 312.404 44.0269 312.777 44.0269Z" fill="#AA71F8"/>
<path d="M343.796 34.809C344.169 34.809 344.471 34.4981 344.471 34.1145C344.471 33.7309 344.169 33.4199 343.796 33.4199C343.423 33.4199 343.121 33.7309 343.121 34.1145C343.121 34.4981 343.423 34.809 343.796 34.809Z" fill="#AA71F8"/>
<path d="M336.034 39.4234C336.407 39.4234 336.709 39.1125 336.709 38.7288C336.709 38.3452 336.407 38.0342 336.034 38.0342C335.662 38.0342 335.359 38.3452 335.359 38.7288C335.359 39.1125 335.662 39.4234 336.034 39.4234Z" fill="#AA71F8"/>
<path d="M351.55 39.4234C351.923 39.4234 352.225 39.1125 352.225 38.7288C352.225 38.3452 351.923 38.0342 351.55 38.0342C351.177 38.0342 350.875 38.3452 350.875 38.7288C350.875 39.1125 351.177 39.4234 351.55 39.4234Z" fill="#AA71F8"/>
<path d="M343.796 44.0269C344.169 44.0269 344.471 43.716 344.471 43.3324C344.471 42.9487 344.169 42.6377 343.796 42.6377C343.423 42.6377 343.121 42.9487 343.121 43.3324C343.121 43.716 343.423 44.0269 343.796 44.0269Z" fill="#AA71F8"/>
<path d="M359.3 44.0269C359.673 44.0269 359.975 43.716 359.975 43.3324C359.975 42.9487 359.673 42.6377 359.3 42.6377C358.927 42.6377 358.625 42.9487 358.625 43.3324C358.625 43.716 358.927 44.0269 359.3 44.0269Z" fill="#AA71F8"/>
<path d="M351.55 48.6314C351.923 48.6314 352.225 48.3205 352.225 47.9369C352.225 47.5532 351.923 47.2422 351.55 47.2422C351.177 47.2422 350.875 47.5532 350.875 47.9369C350.875 48.3205 351.177 48.6314 351.55 48.6314Z" fill="#AA71F8"/>
<path d="M359.3 53.2359C359.673 53.2359 359.975 52.9248 359.975 52.5412C359.975 52.1576 359.673 51.8467 359.3 51.8467C358.927 51.8467 358.625 52.1576 358.625 52.5412C358.625 52.9248 358.927 53.2359 359.3 53.2359Z" fill="#AA71F8"/>
<path d="M367.054 48.6314C367.427 48.6314 367.729 48.3205 367.729 47.9369C367.729 47.5532 367.427 47.2422 367.054 47.2422C366.681 47.2422 366.379 47.5532 366.379 47.9369C366.379 48.3205 366.681 48.6314 367.054 48.6314Z" fill="#AA71F8"/>
<path d="M351.55 30.2055C351.923 30.2055 352.225 29.8946 352.225 29.511C352.225 29.1273 351.923 28.8164 351.55 28.8164C351.177 28.8164 350.875 29.1273 350.875 29.511C350.875 29.8946 351.177 30.2055 351.55 30.2055Z" fill="#AA71F8"/>
<path d="M320.526 39.4234C320.899 39.4234 321.202 39.1125 321.202 38.7288C321.202 38.3452 320.899 38.0342 320.526 38.0342C320.154 38.0342 319.852 38.3452 319.852 38.7288C319.852 39.1125 320.154 39.4234 320.526 39.4234Z" fill="#AA71F8"/>
<path d="M336.034 30.2055C336.407 30.2055 336.709 29.8946 336.709 29.511C336.709 29.1273 336.407 28.8164 336.034 28.8164C335.662 28.8164 335.359 29.1273 335.359 29.511C335.359 29.8946 335.662 30.2055 336.034 30.2055Z" fill="#AA71F8"/>
<path d="M328.28 34.809C328.653 34.809 328.955 34.4981 328.955 34.1145C328.955 33.7309 328.653 33.4199 328.28 33.4199C327.908 33.4199 327.605 33.7309 327.605 34.1145C327.605 34.4981 327.908 34.809 328.28 34.809Z" fill="#AA71F8"/>
<path d="M343.796 25.6011C344.169 25.6011 344.471 25.2901 344.471 24.9065C344.471 24.5228 344.169 24.2119 343.796 24.2119C343.423 24.2119 343.121 24.5228 343.121 24.9065C343.121 25.2901 343.423 25.6011 343.796 25.6011Z" fill="#AA71F8"/>
<path d="M312.777 34.809C313.149 34.809 313.452 34.4981 313.452 34.1145C313.452 33.7309 313.149 33.4199 312.777 33.4199C312.404 33.4199 312.102 33.7309 312.102 34.1145C312.102 34.4981 312.404 34.809 312.777 34.809Z" fill="#AA71F8"/>
<path d="M328.28 25.6011C328.653 25.6011 328.955 25.2901 328.955 24.9065C328.955 24.5228 328.653 24.2119 328.28 24.2119C327.908 24.2119 327.605 24.5228 327.605 24.9065C327.605 25.2901 327.908 25.6011 328.28 25.6011Z" fill="#AA71F8"/>
<path d="M320.526 30.2055C320.899 30.2055 321.202 29.8946 321.202 29.511C321.202 29.1273 320.899 28.8164 320.526 28.8164C320.154 28.8164 319.852 29.1273 319.852 29.511C319.852 29.8946 320.154 30.2055 320.526 30.2055Z" fill="#AA71F8"/>
<path d="M336.034 20.9966C336.407 20.9966 336.709 20.6856 336.709 20.302C336.709 19.9184 336.407 19.6074 336.034 19.6074C335.662 19.6074 335.359 19.9184 335.359 20.302C335.359 20.6856 335.662 20.9966 336.034 20.9966Z" fill="#AA71F8"/>
<path d="M305.023 30.2055C305.395 30.2055 305.698 29.8946 305.698 29.511C305.698 29.1273 305.395 28.8164 305.023 28.8164C304.65 28.8164 304.348 29.1273 304.348 29.511C304.348 29.8946 304.65 30.2055 305.023 30.2055Z" fill="#AA71F8"/>
<path d="M320.526 20.9966C320.899 20.9966 321.202 20.6856 321.202 20.302C321.202 19.9184 320.899 19.6074 320.526 19.6074C320.154 19.6074 319.852 19.9184 319.852 20.302C319.852 20.6856 320.154 20.9966 320.526 20.9966Z" fill="#AA71F8"/>
<path d="M312.777 25.6011C313.149 25.6011 313.452 25.2901 313.452 24.9065C313.452 24.5228 313.149 24.2119 312.777 24.2119C312.404 24.2119 312.102 24.5228 312.102 24.9065C312.102 25.2901 312.404 25.6011 312.777 25.6011Z" fill="#AA71F8"/>
<path d="M328.28 16.3829C328.653 16.3829 328.955 16.0719 328.955 15.6883C328.955 15.3047 328.653 14.9937 328.28 14.9937C327.908 14.9937 327.605 15.3047 327.605 15.6883C327.605 16.0719 327.908 16.3829 328.28 16.3829Z" fill="#AA71F8"/>
<path d="M297.273 25.6011C297.645 25.6011 297.948 25.2901 297.948 24.9065C297.948 24.5228 297.645 24.2119 297.273 24.2119C296.9 24.2119 296.598 24.5228 296.598 24.9065C296.598 25.2901 296.9 25.6011 297.273 25.6011Z" fill="#AA71F8"/>
<path d="M312.777 16.3829C313.149 16.3829 313.452 16.0719 313.452 15.6883C313.452 15.3047 313.149 14.9937 312.777 14.9937C312.404 14.9937 312.102 15.3047 312.102 15.6883C312.102 16.0719 312.404 16.3829 312.777 16.3829Z" fill="#AA71F8"/>
<path d="M305.023 20.9966C305.395 20.9966 305.698 20.6856 305.698 20.302C305.698 19.9184 305.395 19.6074 305.023 19.6074C304.65 19.6074 304.348 19.9184 304.348 20.302C304.348 20.6856 304.65 20.9966 305.023 20.9966Z" fill="#AA71F8"/>
<path d="M320.526 11.7784C320.899 11.7784 321.202 11.4674 321.202 11.0838C321.202 10.7002 320.899 10.3892 320.526 10.3892C320.154 10.3892 319.852 10.7002 319.852 11.0838C319.852 11.4674 320.154 11.7784 320.526 11.7784Z" fill="#AA71F8"/>
<path d="M359.3 34.809C359.673 34.809 359.975 34.4981 359.975 34.1145C359.975 33.7309 359.673 33.4199 359.3 33.4199C358.927 33.4199 358.625 33.7309 358.625 34.1145C358.625 34.4981 358.927 34.809 359.3 34.809Z" fill="#AA71F8"/>
<path d="M367.054 39.4234C367.427 39.4234 367.729 39.1125 367.729 38.7288C367.729 38.3452 367.427 38.0342 367.054 38.0342C366.681 38.0342 366.379 38.3452 366.379 38.7288C366.379 39.1125 366.681 39.4234 367.054 39.4234Z" fill="#AA71F8"/>
<path d="M374.808 44.0269C375.181 44.0269 375.483 43.716 375.483 43.3324C375.483 42.9487 375.181 42.6377 374.808 42.6377C374.435 42.6377 374.133 42.9487 374.133 43.3324C374.133 43.716 374.435 44.0269 374.808 44.0269Z" fill="#AA71F8"/>
<path d="M305.023 48.6314C305.395 48.6314 305.698 48.3205 305.698 47.9369C305.698 47.5532 305.395 47.2422 305.023 47.2422C304.65 47.2422 304.348 47.5532 304.348 47.9369C304.348 48.3205 304.65 48.6314 305.023 48.6314Z" fill="#AA71F8"/>
<path d="M312.777 53.2359C313.149 53.2359 313.452 52.9248 313.452 52.5412C313.452 52.1576 313.149 51.8467 312.777 51.8467C312.404 51.8467 312.102 52.1576 312.102 52.5412C312.102 52.9248 312.404 53.2359 312.777 53.2359Z" fill="#AA71F8"/>
<path d="M297.273 53.2359C297.645 53.2359 297.948 52.9248 297.948 52.5412C297.948 52.1576 297.645 51.8467 297.273 51.8467C296.9 51.8467 296.598 52.1576 296.598 52.5412C296.598 52.9248 296.9 53.2359 297.273 53.2359Z" fill="#AA71F8"/>
<path d="M305.023 57.8501C305.395 57.8501 305.698 57.5391 305.698 57.1555C305.698 56.7719 305.395 56.4609 305.023 56.4609C304.65 56.4609 304.348 56.7719 304.348 57.1555C304.348 57.5391 304.65 57.8501 305.023 57.8501Z" fill="#AA71F8"/>
<path d="M312.777 62.4545C313.149 62.4545 313.452 62.1436 313.452 61.76C313.452 61.3764 313.149 61.0654 312.777 61.0654C312.404 61.0654 312.102 61.3764 312.102 61.76C312.102 62.1436 312.404 62.4545 312.777 62.4545Z" fill="#AA71F8"/>
<path d="M297.273 62.4545C297.645 62.4545 297.948 62.1436 297.948 61.76C297.948 61.3764 297.645 61.0654 297.273 61.0654C296.9 61.0654 296.598 61.3764 296.598 61.76C296.598 62.1436 296.9 62.4545 297.273 62.4545Z" fill="#AA71F8"/>
<path d="M305.023 67.058C305.395 67.058 305.698 66.7471 305.698 66.3635C305.698 65.9799 305.395 65.6689 305.023 65.6689C304.65 65.6689 304.348 65.9799 304.348 66.3635C304.348 66.7471 304.65 67.058 305.023 67.058Z" fill="#AA71F8"/>
<path d="M289.515 57.8501C289.888 57.8501 290.19 57.5391 290.19 57.1555C290.19 56.7719 289.888 56.4609 289.515 56.4609C289.142 56.4609 288.84 56.7719 288.84 57.1555C288.84 57.5391 289.142 57.8501 289.515 57.8501Z" fill="#AA71F8"/>
<path d="M312.777 71.6724C313.149 71.6724 313.452 71.3615 313.452 70.9779C313.452 70.5943 313.149 70.2832 312.777 70.2832C312.404 70.2832 312.102 70.5943 312.102 70.9779C312.102 71.3615 312.404 71.6724 312.777 71.6724Z" fill="#AA71F8"/>
<path d="M297.273 44.0269C297.645 44.0269 297.948 43.716 297.948 43.3324C297.948 42.9487 297.645 42.6377 297.273 42.6377C296.9 42.6377 296.598 42.9487 296.598 43.3324C296.598 43.716 296.9 44.0269 297.273 44.0269Z" fill="#AA71F8"/>
<path d="M289.515 48.6314C289.888 48.6314 290.19 48.3205 290.19 47.9369C290.19 47.5532 289.888 47.2422 289.515 47.2422C289.142 47.2422 288.84 47.5532 288.84 47.9369C288.84 48.3205 289.142 48.6314 289.515 48.6314Z" fill="#AA71F8"/>
<path d="M305.023 39.4234C305.395 39.4234 305.698 39.1125 305.698 38.7288C305.698 38.3452 305.395 38.0342 305.023 38.0342C304.65 38.0342 304.348 38.3452 304.348 38.7288C304.348 39.1125 304.65 39.4234 305.023 39.4234Z" fill="#AA71F8"/>
<path d="M281.757 53.2359C282.13 53.2359 282.432 52.9248 282.432 52.5412C282.432 52.1576 282.13 51.8467 281.757 51.8467C281.384 51.8467 281.082 52.1576 281.082 52.5412C281.082 52.9248 281.384 53.2359 281.757 53.2359Z" fill="#AA71F8"/>
<path d="M289.515 30.2055C289.888 30.2055 290.19 29.8946 290.19 29.511C290.19 29.1273 289.888 28.8164 289.515 28.8164C289.142 28.8164 288.84 29.1273 288.84 29.511C288.84 29.8946 289.142 30.2055 289.515 30.2055Z" fill="#AA71F8"/>
<path d="M281.757 34.809C282.13 34.809 282.432 34.4981 282.432 34.1145C282.432 33.7309 282.13 33.4199 281.757 33.4199C281.384 33.4199 281.082 33.7309 281.082 34.1145C281.082 34.4981 281.384 34.809 281.757 34.809Z" fill="#AA71F8"/>
<path d="M273.999 39.4234C274.372 39.4234 274.674 39.1125 274.674 38.7288C274.674 38.3452 274.372 38.0342 273.999 38.0342C273.626 38.0342 273.324 38.3452 273.324 38.7288C273.324 39.1125 273.626 39.4234 273.999 39.4234Z" fill="#AA71F8"/>
<path d="M297.273 34.809C297.645 34.809 297.948 34.4981 297.948 34.1145C297.948 33.7309 297.645 33.4199 297.273 33.4199C296.9 33.4199 296.598 33.7309 296.598 34.1145C296.598 34.4981 296.9 34.809 297.273 34.809Z" fill="#AA71F8"/>
<path d="M289.515 39.4234C289.888 39.4234 290.19 39.1125 290.19 38.7288C290.19 38.3452 289.888 38.0342 289.515 38.0342C289.142 38.0342 288.84 38.3452 288.84 38.7288C288.84 39.1125 289.142 39.4234 289.515 39.4234Z" fill="#AA71F8"/>
<path d="M281.757 44.0269C282.13 44.0269 282.432 43.716 282.432 43.3324C282.432 42.9487 282.13 42.6377 281.757 42.6377C281.384 42.6377 281.082 42.9487 281.082 43.3324C281.082 43.716 281.384 44.0269 281.757 44.0269Z" fill="#AA71F8"/>
<path d="M273.999 48.6314C274.372 48.6314 274.674 48.3205 274.674 47.9369C274.674 47.5532 274.372 47.2422 273.999 47.2422C273.626 47.2422 273.324 47.5532 273.324 47.9369C273.324 48.3205 273.626 48.6314 273.999 48.6314Z" fill="#AA71F8"/>
<path d="M266.249 44.0269C266.622 44.0269 266.924 43.716 266.924 43.3324C266.924 42.9487 266.622 42.6377 266.249 42.6377C265.876 42.6377 265.574 42.9487 265.574 43.3324C265.574 43.716 265.876 44.0269 266.249 44.0269Z" fill="#AA71F8"/>
<path d="M308.874 72.3174H301.18V80.2357H308.874V72.3174Z" fill="#040919"/>
<path d="M308.874 64.3984H301.18V72.3168H308.874V64.3984Z" fill="#040919"/>
<path d="M316.57 56.4805H308.875V64.3988H316.57V56.4805Z" fill="#040919"/>
<path d="M308.874 99.0195H301.18V106.938H308.874V99.0195Z" fill="#040919"/>
<path d="M328.285 96.3596V29.6191" stroke="white" stroke-linecap="round" stroke-linejoin="round"/>
<path d="M359.305 86.9432V49.6436" stroke="white" stroke-linecap="round" stroke-linejoin="round"/>
<path d="M332.132 24.8564H324.438V32.7748H332.132V24.8564Z" fill="#040919"/>
<path d="M363.152 45.6846H355.457V53.6029H363.152V45.6846Z" fill="#040919"/>
<path d="M393.464 43.333L320.527 86.6656V173.331L393.464 129.998V43.333Z" fill="#040919"/>
<path d="M320.527 173.331L393.464 129.998" stroke="#6520C2" stroke-linecap="round" stroke-linejoin="round"/>
<path d="M247.59 43.333L320.527 86.6656V173.331L247.59 129.998V43.333Z" fill="url(#paint4_linear_685_9774)"/>
<path d="M247.59 77.9434L253.202 88.0844L258.814 88.253L264.426 87.6081L270.038 98.5628L275.64 98.6224L281.252 93.0557L286.864 120.532L292.476 114.211L298.088 123.538L303.7 145.299L309.303 143.513L314.992 148.712L320.527 145.299" stroke="white" stroke-linecap="round" stroke-linejoin="round"/>
<path d="M241.41 93.9287L275.015 113.893V153.813L241.41 133.858V93.9287Z" stroke="#AA71F8" stroke-linecap="round" stroke-linejoin="round"/>
<path d="M241.41 119.302C244.65 121.395 247.466 118.329 251.188 120.82C254.91 123.311 253.917 127.24 257.658 129.354C261.399 131.467 263.521 118.21 267.436 120.314C271.35 122.408 271.129 126.823 275.015 129.215" stroke="#AA71F8" stroke-linecap="round" stroke-linejoin="round"/>
<path d="M247.59 319.503V352.774" stroke="#AA71F8" stroke-linecap="round" stroke-linejoin="round"/>
<path d="M71.7253 407.378L25.7493 380.061L17.2734 385.101L71.7253 417.459L126.187 385.101L117.711 380.061L71.7253 407.378Z" fill="#DACBEF"/>
<path d="M71.7253 342.672L17.2734 375.03L71.7253 407.378L126.187 375.03L71.7253 342.672Z" fill="url(#paint5_linear_685_9774)"/>
<path d="M126.187 375.029L71.7253 407.378L17.2734 375.029" stroke="#655181" stroke-linecap="round" stroke-linejoin="round"/>
<g opacity="0.25">
<path d="M71.7258 371.11C72.0986 371.11 72.4008 370.799 72.4008 370.415C72.4008 370.032 72.0986 369.721 71.7258 369.721C71.353 369.721 71.0508 370.032 71.0508 370.415C71.0508 370.799 71.353 371.11 71.7258 371.11Z" fill="#040919"/>
<path d="M79.4914 375.723C79.8642 375.723 80.1664 375.412 80.1664 375.029C80.1664 374.645 79.8642 374.334 79.4914 374.334C79.1186 374.334 78.8164 374.645 78.8164 375.029C78.8164 375.412 79.1186 375.723 79.4914 375.723Z" fill="#040919"/>
<path d="M71.7258 380.328C72.0986 380.328 72.4008 380.017 72.4008 379.633C72.4008 379.25 72.0986 378.938 71.7258 378.938C71.353 378.938 71.0508 379.25 71.0508 379.633C71.0508 380.017 71.353 380.328 71.7258 380.328Z" fill="#040919"/>
<path d="M87.2413 380.328C87.6141 380.328 87.9163 380.017 87.9163 379.633C87.9163 379.25 87.6141 378.938 87.2413 378.938C86.8686 378.938 86.5664 379.25 86.5664 379.633C86.5664 380.017 86.8686 380.328 87.2413 380.328Z" fill="#040919"/>
<path d="M79.4914 384.932C79.8642 384.932 80.1664 384.621 80.1664 384.238C80.1664 383.854 79.8642 383.543 79.4914 383.543C79.1186 383.543 78.8164 383.854 78.8164 384.238C78.8164 384.621 79.1186 384.932 79.4914 384.932Z" fill="#040919"/>
<path d="M71.7258 389.536C72.0986 389.536 72.4008 389.225 72.4008 388.841C72.4008 388.458 72.0986 388.146 71.7258 388.146C71.353 388.146 71.0508 388.458 71.0508 388.841C71.0508 389.225 71.353 389.536 71.7258 389.536Z" fill="#040919"/>
<path d="M94.9914 384.932C95.3642 384.932 95.6664 384.621 95.6664 384.238C95.6664 383.854 95.3642 383.543 94.9914 383.543C94.6186 383.543 94.3164 383.854 94.3164 384.238C94.3164 384.621 94.6186 384.932 94.9914 384.932Z" fill="#040919"/>
<path d="M87.2413 389.536C87.6141 389.536 87.9163 389.225 87.9163 388.841C87.9163 388.458 87.6141 388.146 87.2413 388.146C86.8686 388.146 86.5664 388.458 86.5664 388.841C86.5664 389.225 86.8686 389.536 87.2413 389.536Z" fill="#040919"/>
<path d="M79.4914 394.15C79.8642 394.15 80.1664 393.839 80.1664 393.455C80.1664 393.072 79.8642 392.761 79.4914 392.761C79.1186 392.761 78.8164 393.072 78.8164 393.455C78.8164 393.839 79.1186 394.15 79.4914 394.15Z" fill="#040919"/>
<path d="M71.7258 398.755C72.0986 398.755 72.4008 398.443 72.4008 398.06C72.4008 397.676 72.0986 397.365 71.7258 397.365C71.353 397.365 71.0508 397.676 71.0508 398.06C71.0508 398.443 71.353 398.755 71.7258 398.755Z" fill="#040919"/>
<path d="M63.9758 375.723C64.3486 375.723 64.6507 375.412 64.6507 375.029C64.6507 374.645 64.3486 374.334 63.9758 374.334C63.603 374.334 63.3008 374.645 63.3008 375.029C63.3008 375.412 63.603 375.723 63.9758 375.723Z" fill="#040919"/>
<path d="M87.2413 361.902C87.6141 361.902 87.9163 361.591 87.9163 361.207C87.9163 360.824 87.6141 360.513 87.2413 360.513C86.8686 360.513 86.5664 360.824 86.5664 361.207C86.5664 361.591 86.8686 361.902 87.2413 361.902Z" fill="#040919"/>
<path d="M94.9914 366.506C95.3642 366.506 95.6664 366.194 95.6664 365.811C95.6664 365.427 95.3642 365.116 94.9914 365.116C94.6186 365.116 94.3164 365.427 94.3164 365.811C94.3164 366.194 94.6186 366.506 94.9914 366.506Z" fill="#040919"/>
<path d="M87.2413 371.11C87.6141 371.11 87.9163 370.799 87.9163 370.415C87.9163 370.032 87.6141 369.721 87.2413 369.721C86.8686 369.721 86.5664 370.032 86.5664 370.415C86.5664 370.799 86.8686 371.11 87.2413 371.11Z" fill="#040919"/>
<path d="M102.749 371.11C103.122 371.11 103.424 370.799 103.424 370.415C103.424 370.032 103.122 369.721 102.749 369.721C102.376 369.721 102.074 370.032 102.074 370.415C102.074 370.799 102.376 371.11 102.749 371.11Z" fill="#040919"/>
<path d="M94.9914 375.723C95.3642 375.723 95.6664 375.412 95.6664 375.029C95.6664 374.645 95.3642 374.334 94.9914 374.334C94.6186 374.334 94.3164 374.645 94.3164 375.029C94.3164 375.412 94.6186 375.723 94.9914 375.723Z" fill="#040919"/>
<path d="M110.499 375.723C110.872 375.723 111.174 375.412 111.174 375.029C111.174 374.645 110.872 374.334 110.499 374.334C110.126 374.334 109.824 374.645 109.824 375.029C109.824 375.412 110.126 375.723 110.499 375.723Z" fill="#040919"/>
<path d="M102.749 380.328C103.122 380.328 103.424 380.017 103.424 379.633C103.424 379.25 103.122 378.938 102.749 378.938C102.376 378.938 102.074 379.25 102.074 379.633C102.074 380.017 102.376 380.328 102.749 380.328Z" fill="#040919"/>
<path d="M79.4914 366.506C79.8642 366.506 80.1664 366.194 80.1664 365.811C80.1664 365.427 79.8642 365.116 79.4914 365.116C79.1186 365.116 78.8164 365.427 78.8164 365.811C78.8164 366.194 79.1186 366.506 79.4914 366.506Z" fill="#040919"/>
<path d="M56.2219 380.328C56.5947 380.328 56.8969 380.017 56.8969 379.633C56.8969 379.25 56.5947 378.938 56.2219 378.938C55.8491 378.938 55.5469 379.25 55.5469 379.633C55.5469 380.017 55.8491 380.328 56.2219 380.328Z" fill="#040919"/>
<path d="M63.9758 384.932C64.3486 384.932 64.6507 384.621 64.6507 384.238C64.6507 383.854 64.3486 383.543 63.9758 383.543C63.603 383.543 63.3008 383.854 63.3008 384.238C63.3008 384.621 63.603 384.932 63.9758 384.932Z" fill="#040919"/>
<path d="M48.468 384.932C48.8407 384.932 49.143 384.621 49.143 384.238C49.143 383.854 48.8407 383.543 48.468 383.543C48.0952 383.543 47.793 383.854 47.793 384.238C47.793 384.621 48.0952 384.932 48.468 384.932Z" fill="#040919"/>
<path d="M56.2219 389.536C56.5947 389.536 56.8969 389.225 56.8969 388.841C56.8969 388.458 56.5947 388.146 56.2219 388.146C55.8491 388.146 55.5469 388.458 55.5469 388.841C55.5469 389.225 55.8491 389.536 56.2219 389.536Z" fill="#040919"/>
<path d="M63.9758 394.15C64.3486 394.15 64.6507 393.839 64.6507 393.455C64.6507 393.072 64.3486 392.761 63.9758 392.761C63.603 392.761 63.3008 393.072 63.3008 393.455C63.3008 393.839 63.603 394.15 63.9758 394.15Z" fill="#040919"/>
<path d="M48.468 375.723C48.8407 375.723 49.143 375.412 49.143 375.029C49.143 374.645 48.8407 374.334 48.468 374.334C48.0952 374.334 47.793 374.645 47.793 375.029C47.793 375.412 48.0952 375.723 48.468 375.723Z" fill="#040919"/>
<path d="M40.714 380.328C41.0868 380.328 41.389 380.017 41.389 379.633C41.389 379.25 41.0868 378.938 40.714 378.938C40.3412 378.938 40.0391 379.25 40.0391 379.633C40.0391 380.017 40.3412 380.328 40.714 380.328Z" fill="#040919"/>
<path d="M63.9758 366.506C64.3486 366.506 64.6507 366.194 64.6507 365.811C64.6507 365.427 64.3486 365.116 63.9758 365.116C63.603 365.116 63.3008 365.427 63.3008 365.811C63.3008 366.194 63.603 366.506 63.9758 366.506Z" fill="#040919"/>
<path d="M56.2219 371.11C56.5947 371.11 56.8969 370.799 56.8969 370.415C56.8969 370.032 56.5947 369.721 56.2219 369.721C55.8491 369.721 55.5469 370.032 55.5469 370.415C55.5469 370.799 55.8491 371.11 56.2219 371.11Z" fill="#040919"/>
<path d="M71.7258 361.902C72.0986 361.902 72.4008 361.591 72.4008 361.207C72.4008 360.824 72.0986 360.513 71.7258 360.513C71.353 360.513 71.0508 360.824 71.0508 361.207C71.0508 361.591 71.353 361.902 71.7258 361.902Z" fill="#040919"/>
<path d="M48.468 366.506C48.8407 366.506 49.143 366.194 49.143 365.811C49.143 365.427 48.8407 365.116 48.468 365.116C48.0952 365.116 47.793 365.427 47.793 365.811C47.793 366.194 48.0952 366.506 48.468 366.506Z" fill="#040919"/>
<path d="M40.714 371.11C41.0868 371.11 41.389 370.799 41.389 370.415C41.389 370.032 41.0868 369.721 40.714 369.721C40.3412 369.721 40.0391 370.032 40.0391 370.415C40.0391 370.799 40.3412 371.11 40.714 371.11Z" fill="#040919"/>
<path d="M56.2219 361.902C56.5947 361.902 56.8969 361.591 56.8969 361.207C56.8969 360.824 56.5947 360.513 56.2219 360.513C55.8491 360.513 55.5469 360.824 55.5469 361.207C55.5469 361.591 55.8491 361.902 56.2219 361.902Z" fill="#040919"/>
<path d="M32.9641 375.723C33.3368 375.723 33.6391 375.412 33.6391 375.029C33.6391 374.645 33.3368 374.334 32.9641 374.334C32.5913 374.334 32.2891 374.645 32.2891 375.029C32.2891 375.412 32.5913 375.723 32.9641 375.723Z" fill="#040919"/>
<path d="M79.4914 357.298C79.8642 357.298 80.1664 356.986 80.1664 356.603C80.1664 356.219 79.8642 355.908 79.4914 355.908C79.1186 355.908 78.8164 356.219 78.8164 356.603C78.8164 356.986 79.1186 357.298 79.4914 357.298Z" fill="#040919"/>
<path d="M63.9758 357.298C64.3486 357.298 64.6507 356.986 64.6507 356.603C64.6507 356.219 64.3486 355.908 63.9758 355.908C63.603 355.908 63.3008 356.219 63.3008 356.603C63.3008 356.986 63.603 357.298 63.9758 357.298Z" fill="#040919"/>
<path d="M71.7258 352.683C72.0986 352.683 72.4008 352.372 72.4008 351.988C72.4008 351.605 72.0986 351.294 71.7258 351.294C71.353 351.294 71.0508 351.605 71.0508 351.988C71.0508 352.372 71.353 352.683 71.7258 352.683Z" fill="#040919"/>
</g>
<path d="M102.746 370.416L110.499 375.03L102.746 379.634" stroke="#AA71F8" stroke-linecap="round" stroke-linejoin="round"/>
<path d="M40.7175 379.634L32.9648 375.03L40.7175 370.416" stroke="#AA71F8" stroke-linecap="round" stroke-linejoin="round"/>
<path d="M70.9632 381.589L69.0636 380.458L73.1232 378.047L71.3392 376.985L67.2797 379.396L65.3512 378.255L68.89 376.152L53.9922 372.957L56.48 371.478L69.3722 374.455L64.3098 366.824L66.7976 365.346L72.1975 374.177L75.7652 372.063L77.6938 373.205L73.6053 375.636L75.3892 376.697L79.4776 374.266L81.3772 375.398L77.2888 377.829L81.4061 380.27L79.1402 381.619L75.0227 379.178L70.9632 381.589V381.589Z" fill="#6520C2"/>
<path d="M99.3465 397.366L92.8281 401.236L99.3465 405.116L105.865 401.236L99.3465 397.366Z" fill="#AA71F8"/>
<path d="M268.862 367.568L235.566 387.355V445.918L222.809 453.509" stroke="#AA71F8" stroke-linecap="round" stroke-linejoin="round"/>
<path d="M324.367 332.362V336.49" stroke="#AA71F8" stroke-linecap="round" stroke-linejoin="round"/>
<path d="M328.418 329.961V334.089" stroke="#AA71F8" stroke-linecap="round" stroke-linejoin="round"/>
<path d="M332.457 319.801V331.688" stroke="#AA71F8" stroke-linecap="round" stroke-linejoin="round"/>
<path d="M336.496 325.158V329.286" stroke="#AA71F8" stroke-linecap="round" stroke-linejoin="round"/>
<path d="M340.539 320.763V326.885" stroke="#AA71F8" stroke-linecap="round" stroke-linejoin="round"/>
<path d="M344.586 320.356V324.474" stroke="#AA71F8" stroke-linecap="round" stroke-linejoin="round"/>
<path d="M348.629 313.827V322.073" stroke="#AA71F8" stroke-linecap="round" stroke-linejoin="round"/>
<path d="M352.668 305.214V319.671" stroke="#AA71F8" stroke-linecap="round" stroke-linejoin="round"/>
<path d="M356.719 311.158V317.271" stroke="#AA71F8" stroke-linecap="round" stroke-linejoin="round"/>
<path d="M360.758 300.412V314.87" stroke="#AA71F8" stroke-linecap="round" stroke-linejoin="round"/>
<path d="M364.797 304.222V312.467" stroke="#AA71F8" stroke-linecap="round" stroke-linejoin="round"/>
<path d="M368.84 288.008V310.066" stroke="#AA71F8" stroke-linecap="round" stroke-linejoin="round"/>
<path d="M372.891 261.494V307.665" stroke="#AA71F8" stroke-linecap="round" stroke-linejoin="round"/>
<path d="M376.93 251.433V305.264" stroke="#AA71F8" stroke-linecap="round" stroke-linejoin="round"/>
<path d="M380.969 285.15V302.862" stroke="#AA71F8" stroke-linecap="round" stroke-linejoin="round"/>
<path d="M385.02 274.761V300.461" stroke="#AA71F8" stroke-linecap="round" stroke-linejoin="round"/>
<path d="M389.059 263.856V298.06" stroke="#AA71F8" stroke-linecap="round" stroke-linejoin="round"/>
<path d="M266.522 365.554V356.038C266.522 354.47 265.703 353.011 264.381 352.228C263.06 351.444 261.431 351.444 260.1 352.228L251.566 357.298" stroke="white" stroke-linecap="round" stroke-linejoin="round"/>
<path d="M283.811 375.824V366.308C283.811 364.74 282.992 363.282 281.671 362.498C280.35 361.714 278.72 361.714 277.389 362.498L268.855 367.568" stroke="white" stroke-linecap="round" stroke-linejoin="round"/>
<path d="M249.276 355.304V345.788C249.276 344.22 248.456 342.761 247.135 341.978C245.814 341.194 244.185 341.194 242.854 341.978L234.32 347.048" stroke="white" stroke-linecap="round" stroke-linejoin="round"/>
<path d="M325.512 116.206L342.907 105.866" stroke="#6520C2" stroke-linecap="round" stroke-linejoin="round"/>
<path d="M349.674 101.848L346.02 104.021" stroke="#6520C2" stroke-linecap="round" stroke-linejoin="round"/>
<path d="M325.512 121.624L342.907 111.284" stroke="white" stroke-linecap="round" stroke-linejoin="round"/>
<path d="M349.674 107.266L346.02 109.439" stroke="white" stroke-linecap="round" stroke-linejoin="round"/>
<path d="M325.512 127.042L342.907 116.702" stroke="white" stroke-linecap="round" stroke-linejoin="round"/>
<path d="M349.674 112.684L346.02 114.857" stroke="white" stroke-linecap="round" stroke-linejoin="round"/>
<path d="M325.512 132.46L342.907 122.12" stroke="#6520C2" stroke-linecap="round" stroke-linejoin="round"/>
<path d="M349.674 118.102L346.02 120.275" stroke="#6520C2" stroke-linecap="round" stroke-linejoin="round"/>
<path d="M325.512 137.878L342.907 127.538" stroke="#6520C2" stroke-linecap="round" stroke-linejoin="round"/>
<path d="M349.674 123.519L346.02 125.692" stroke="#6520C2" stroke-linecap="round" stroke-linejoin="round"/>
<path d="M325.512 143.296L342.907 132.956" stroke="#6520C2" stroke-linecap="round" stroke-linejoin="round"/>
<path d="M349.674 128.937L346.02 131.11" stroke="#6520C2" stroke-linecap="round" stroke-linejoin="round"/>
<path d="M325.512 148.714L342.907 138.374" stroke="#6520C2" stroke-linecap="round" stroke-linejoin="round"/>
<path d="M349.674 134.354L346.02 136.528" stroke="#6520C2" stroke-linecap="round" stroke-linejoin="round"/>
<path d="M325.512 154.13L342.907 143.791" stroke="white" stroke-linecap="round" stroke-linejoin="round"/>
<path d="M349.674 139.772L346.02 141.946" stroke="white" stroke-linecap="round" stroke-linejoin="round"/>
<path d="M325.512 159.549L342.907 149.209" stroke="#6520C2" stroke-linecap="round" stroke-linejoin="round"/>
<path d="M361.418 94.8718L378.813 84.5322" stroke="#6520C2" stroke-linecap="round" stroke-linejoin="round"/>
<path d="M325.512 96.3602L350.804 81.3271V86.497L325.512 101.53V96.3602Z" fill="#6520C2"/>
<path d="M361.418 100.29L378.813 89.9502" stroke="#6520C2" stroke-linecap="round" stroke-linejoin="round"/>
<path d="M361.418 105.708L378.813 95.3682" stroke="white" stroke-linecap="round" stroke-linejoin="round"/>
<path d="M361.418 111.126L378.813 100.786" stroke="#6520C2" stroke-linecap="round" stroke-linejoin="round"/>
<path d="M361.418 116.544L378.813 106.204" stroke="white" stroke-linecap="round" stroke-linejoin="round"/>
<path d="M361.418 121.962L378.813 111.622" stroke="#6520C2" stroke-linecap="round" stroke-linejoin="round"/>
<path d="M361.418 127.38L378.813 117.04" stroke="#6520C2" stroke-linecap="round" stroke-linejoin="round"/>
<path d="M361.418 132.796L378.813 122.457" stroke="#6520C2" stroke-linecap="round" stroke-linejoin="round"/>
<path d="M361.418 138.215L378.813 127.875" stroke="#6520C2" stroke-linecap="round" stroke-linejoin="round"/>
<path d="M349.674 145.19L346.02 147.364" stroke="#6520C2" stroke-linecap="round" stroke-linejoin="round"/>
<path d="M251.57 250.004L268.966 260.334" stroke="white" stroke-linecap="round" stroke-linejoin="round"/>
<path d="M275.725 264.353L272.07 262.189" stroke="white" stroke-linecap="round" stroke-linejoin="round"/>
<path d="M251.57 255.422L268.966 265.762" stroke="#AA71F8" stroke-linecap="round" stroke-linejoin="round"/>
<path d="M275.725 269.77L272.07 267.606" stroke="#AA71F8" stroke-linecap="round" stroke-linejoin="round"/>
<path d="M251.57 260.839L268.966 271.178" stroke="#AA71F8" stroke-linecap="round" stroke-linejoin="round"/>
<path d="M275.725 275.198L272.07 273.024" stroke="#AA71F8" stroke-linecap="round" stroke-linejoin="round"/>
<path d="M251.57 266.257L268.966 276.596" stroke="#AA71F8" stroke-linecap="round" stroke-linejoin="round"/>
<path d="M275.725 280.615L272.07 278.442" stroke="#AA71F8" stroke-linecap="round" stroke-linejoin="round"/>
<path d="M251.57 282.511L268.966 292.85" stroke="#AA71F8" stroke-linecap="round" stroke-linejoin="round"/>
<path d="M275.725 296.869L272.07 294.696" stroke="#AA71F8" stroke-linecap="round" stroke-linejoin="round"/>
<path d="M251.57 287.929L268.966 298.268" stroke="white" stroke-linecap="round" stroke-linejoin="round"/>
<path d="M275.725 302.286L272.07 300.113" stroke="white" stroke-linecap="round" stroke-linejoin="round"/>
<path d="M251.57 293.346L268.966 303.685" stroke="#AA71F8" stroke-linecap="round" stroke-linejoin="round"/>
<path d="M287.477 271.338L304.872 281.678" stroke="#AA71F8" stroke-linecap="round" stroke-linejoin="round"/>
<path d="M251.57 230.158L270.036 241.133V246.293L251.57 235.328V230.158Z" fill="#AA71F8"/>
<path d="M287.477 276.756L304.872 287.096" stroke="white" stroke-linecap="round" stroke-linejoin="round"/>
<path d="M287.477 282.173L304.872 292.512" stroke="#AA71F8" stroke-linecap="round" stroke-linejoin="round"/>
<path d="M287.477 287.591L304.872 297.93" stroke="white" stroke-linecap="round" stroke-linejoin="round"/>
<path d="M287.477 303.845L304.872 314.184" stroke="#AA71F8" stroke-linecap="round" stroke-linejoin="round"/>
<path d="M287.477 309.262L304.872 319.601" stroke="#AA71F8" stroke-linecap="round" stroke-linejoin="round"/>
<path d="M287.477 314.68L304.872 325.019" stroke="#AA71F8" stroke-linecap="round" stroke-linejoin="round"/>
<path d="M275.725 307.705L272.07 305.531" stroke="#AA71F8" stroke-linecap="round" stroke-linejoin="round"/>
<path d="M55.4615 499.036L9.4759 471.719L1 476.75L55.4615 509.108L109.913 476.75L101.438 471.719L55.4615 499.036Z" fill="#DACBEF"/>
<path d="M55.4615 434.319L1 466.678L55.4615 499.036L109.913 466.678L55.4615 434.319Z" fill="url(#paint6_linear_685_9774)"/>
<path d="M109.913 466.678L55.4615 499.036L1 466.678" stroke="#655181" stroke-linecap="round" stroke-linejoin="round"/>
<g opacity="0.25">
<path d="M55.4602 462.768C55.8329 462.768 56.1351 462.457 56.1351 462.073C56.1351 461.69 55.8329 461.379 55.4602 461.379C55.0874 461.379 54.7852 461.69 54.7852 462.073C54.7852 462.457 55.0874 462.768 55.4602 462.768Z" fill="#040919"/>
<path d="M63.2141 467.372C63.5868 467.372 63.8891 467.061 63.8891 466.677C63.8891 466.293 63.5868 465.982 63.2141 465.982C62.8413 465.982 62.5391 466.293 62.5391 466.677C62.5391 467.061 62.8413 467.372 63.2141 467.372Z" fill="#040919"/>
<path d="M55.4602 471.976C55.8329 471.976 56.1351 471.665 56.1351 471.281C56.1351 470.898 55.8329 470.587 55.4602 470.587C55.0874 470.587 54.7852 470.898 54.7852 471.281C54.7852 471.665 55.0874 471.976 55.4602 471.976Z" fill="#040919"/>
<path d="M70.9641 471.976C71.3368 471.976 71.639 471.665 71.639 471.281C71.639 470.898 71.3368 470.587 70.9641 470.587C70.5913 470.587 70.2891 470.898 70.2891 471.281C70.2891 471.665 70.5913 471.976 70.9641 471.976Z" fill="#040919"/>
<path d="M63.2141 476.591C63.5868 476.591 63.8891 476.28 63.8891 475.896C63.8891 475.512 63.5868 475.201 63.2141 475.201C62.8413 475.201 62.5391 475.512 62.5391 475.896C62.5391 476.28 62.8413 476.591 63.2141 476.591Z" fill="#040919"/>
<path d="M55.4602 481.195C55.8329 481.195 56.1351 480.884 56.1351 480.5C56.1351 480.117 55.8329 479.806 55.4602 479.806C55.0874 479.806 54.7852 480.117 54.7852 480.5C54.7852 480.884 55.0874 481.195 55.4602 481.195Z" fill="#040919"/>
<path d="M78.7141 476.591C79.0868 476.591 79.3891 476.28 79.3891 475.896C79.3891 475.512 79.0868 475.201 78.7141 475.201C78.3413 475.201 78.0391 475.512 78.0391 475.896C78.0391 476.28 78.3413 476.591 78.7141 476.591Z" fill="#040919"/>
<path d="M70.9641 481.195C71.3368 481.195 71.639 480.884 71.639 480.5C71.639 480.117 71.3368 479.806 70.9641 479.806C70.5913 479.806 70.2891 480.117 70.2891 480.5C70.2891 480.884 70.5913 481.195 70.9641 481.195Z" fill="#040919"/>
<path d="M63.2141 485.799C63.5868 485.799 63.8891 485.488 63.8891 485.105C63.8891 484.721 63.5868 484.41 63.2141 484.41C62.8413 484.41 62.5391 484.721 62.5391 485.105C62.5391 485.488 62.8413 485.799 63.2141 485.799Z" fill="#040919"/>
<path d="M55.4602 490.403C55.8329 490.403 56.1351 490.092 56.1351 489.708C56.1351 489.325 55.8329 489.014 55.4602 489.014C55.0874 489.014 54.7852 489.325 54.7852 489.708C54.7852 490.092 55.0874 490.403 55.4602 490.403Z" fill="#040919"/>
<path d="M47.7101 467.372C48.0829 467.372 48.3851 467.061 48.3851 466.677C48.3851 466.293 48.0829 465.982 47.7101 465.982C47.3373 465.982 47.0352 466.293 47.0352 466.677C47.0352 467.061 47.3373 467.372 47.7101 467.372Z" fill="#040919"/>
<path d="M70.9641 453.55C71.3368 453.55 71.639 453.239 71.639 452.856C71.639 452.472 71.3368 452.161 70.9641 452.161C70.5913 452.161 70.2891 452.472 70.2891 452.856C70.2891 453.239 70.5913 453.55 70.9641 453.55Z" fill="#040919"/>
<path d="M78.7141 458.154C79.0868 458.154 79.3891 457.843 79.3891 457.459C79.3891 457.076 79.0868 456.765 78.7141 456.765C78.3413 456.765 78.0391 457.076 78.0391 457.459C78.0391 457.843 78.3413 458.154 78.7141 458.154Z" fill="#040919"/>
<path d="M70.9641 462.768C71.3368 462.768 71.639 462.457 71.639 462.073C71.639 461.69 71.3368 461.379 70.9641 461.379C70.5913 461.379 70.2891 461.69 70.2891 462.073C70.2891 462.457 70.5913 462.768 70.9641 462.768Z" fill="#040919"/>
<path d="M86.4719 462.768C86.8447 462.768 87.1469 462.457 87.1469 462.073C87.1469 461.69 86.8447 461.379 86.4719 461.379C86.0991 461.379 85.7969 461.69 85.7969 462.073C85.7969 462.457 86.0991 462.768 86.4719 462.768Z" fill="#040919"/>
<path d="M78.7141 467.372C79.0868 467.372 79.3891 467.061 79.3891 466.677C79.3891 466.293 79.0868 465.982 78.7141 465.982C78.3413 465.982 78.0391 466.293 78.0391 466.677C78.0391 467.061 78.3413 467.372 78.7141 467.372Z" fill="#040919"/>
<path d="M94.2219 467.372C94.5947 467.372 94.8968 467.061 94.8968 466.677C94.8968 466.293 94.5947 465.982 94.2219 465.982C93.8491 465.982 93.5469 466.293 93.5469 466.677C93.5469 467.061 93.8491 467.372 94.2219 467.372Z" fill="#040919"/>
<path d="M86.4719 471.976C86.8447 471.976 87.1469 471.665 87.1469 471.281C87.1469 470.898 86.8447 470.587 86.4719 470.587C86.0991 470.587 85.7969 470.898 85.7969 471.281C85.7969 471.665 86.0991 471.976 86.4719 471.976Z" fill="#040919"/>
<path d="M63.2141 458.154C63.5868 458.154 63.8891 457.843 63.8891 457.459C63.8891 457.076 63.5868 456.765 63.2141 456.765C62.8413 456.765 62.5391 457.076 62.5391 457.459C62.5391 457.843 62.8413 458.154 63.2141 458.154Z" fill="#040919"/>
<path d="M39.9445 471.976C40.3173 471.976 40.6195 471.665 40.6195 471.281C40.6195 470.898 40.3173 470.587 39.9445 470.587C39.5717 470.587 39.2695 470.898 39.2695 471.281C39.2695 471.665 39.5717 471.976 39.9445 471.976Z" fill="#040919"/>
<path d="M47.7101 476.591C48.0829 476.591 48.3851 476.28 48.3851 475.896C48.3851 475.512 48.0829 475.201 47.7101 475.201C47.3373 475.201 47.0352 475.512 47.0352 475.896C47.0352 476.28 47.3373 476.591 47.7101 476.591Z" fill="#040919"/>
<path d="M32.1906 476.591C32.5634 476.591 32.8656 476.28 32.8656 475.896C32.8656 475.512 32.5634 475.201 32.1906 475.201C31.8178 475.201 31.5156 475.512 31.5156 475.896C31.5156 476.28 31.8178 476.591 32.1906 476.591Z" fill="#040919"/>
<path d="M39.9445 481.195C40.3173 481.195 40.6195 480.884 40.6195 480.5C40.6195 480.117 40.3173 479.806 39.9445 479.806C39.5717 479.806 39.2695 480.117 39.2695 480.5C39.2695 480.884 39.5717 481.195 39.9445 481.195Z" fill="#040919"/>
<path d="M47.7101 485.799C48.0829 485.799 48.3851 485.488 48.3851 485.105C48.3851 484.721 48.0829 484.41 47.7101 484.41C47.3373 484.41 47.0352 484.721 47.0352 485.105C47.0352 485.488 47.3373 485.799 47.7101 485.799Z" fill="#040919"/>
<path d="M32.1906 467.372C32.5634 467.372 32.8656 467.061 32.8656 466.677C32.8656 466.293 32.5634 465.982 32.1906 465.982C31.8178 465.982 31.5156 466.293 31.5156 466.677C31.5156 467.061 31.8178 467.372 32.1906 467.372Z" fill="#040919"/>
<path d="M24.4367 471.976C24.8095 471.976 25.1116 471.665 25.1116 471.281C25.1116 470.898 24.8095 470.587 24.4367 470.587C24.0639 470.587 23.7617 470.898 23.7617 471.281C23.7617 471.665 24.0639 471.976 24.4367 471.976Z" fill="#040919"/>
<path d="M47.7101 458.154C48.0829 458.154 48.3851 457.843 48.3851 457.459C48.3851 457.076 48.0829 456.765 47.7101 456.765C47.3373 456.765 47.0352 457.076 47.0352 457.459C47.0352 457.843 47.3373 458.154 47.7101 458.154Z" fill="#040919"/>
<path d="M39.9445 462.768C40.3173 462.768 40.6195 462.457 40.6195 462.073C40.6195 461.69 40.3173 461.379 39.9445 461.379C39.5717 461.379 39.2695 461.69 39.2695 462.073C39.2695 462.457 39.5717 462.768 39.9445 462.768Z" fill="#040919"/>
<path d="M55.4602 453.55C55.8329 453.55 56.1351 453.239 56.1351 452.856C56.1351 452.472 55.8329 452.161 55.4602 452.161C55.0874 452.161 54.7852 452.472 54.7852 452.856C54.7852 453.239 55.0874 453.55 55.4602 453.55Z" fill="#040919"/>
<path d="M32.1906 458.154C32.5634 458.154 32.8656 457.843 32.8656 457.459C32.8656 457.076 32.5634 456.765 32.1906 456.765C31.8178 456.765 31.5156 457.076 31.5156 457.459C31.5156 457.843 31.8178 458.154 32.1906 458.154Z" fill="#040919"/>
<path d="M24.4367 462.768C24.8095 462.768 25.1116 462.457 25.1116 462.073C25.1116 461.69 24.8095 461.379 24.4367 461.379C24.0639 461.379 23.7617 461.69 23.7617 462.073C23.7617 462.457 24.0639 462.768 24.4367 462.768Z" fill="#040919"/>
<path d="M39.9445 453.55C40.3173 453.55 40.6195 453.239 40.6195 452.856C40.6195 452.472 40.3173 452.161 39.9445 452.161C39.5717 452.161 39.2695 452.472 39.2695 452.856C39.2695 453.239 39.5717 453.55 39.9445 453.55Z" fill="#040919"/>
<path d="M16.6867 467.372C17.0595 467.372 17.3617 467.061 17.3617 466.677C17.3617 466.293 17.0595 465.982 16.6867 465.982C16.3139 465.982 16.0117 466.293 16.0117 466.677C16.0117 467.061 16.3139 467.372 16.6867 467.372Z" fill="#040919"/>
<path d="M63.2141 448.946C63.5868 448.946 63.8891 448.635 63.8891 448.251C63.8891 447.868 63.5868 447.557 63.2141 447.557C62.8413 447.557 62.5391 447.868 62.5391 448.251C62.5391 448.635 62.8413 448.946 63.2141 448.946Z" fill="#040919"/>
<path d="M47.7101 448.946C48.0829 448.946 48.3851 448.635 48.3851 448.251C48.3851 447.868 48.0829 447.557 47.7101 447.557C47.3373 447.557 47.0352 447.868 47.0352 448.251C47.0352 448.635 47.3373 448.946 47.7101 448.946Z" fill="#040919"/>
<path d="M55.4602 444.341C55.8329 444.341 56.1351 444.031 56.1351 443.647C56.1351 443.263 55.8329 442.952 55.4602 442.952C55.0874 442.952 54.7852 443.263 54.7852 443.647C54.7852 444.031 55.0874 444.341 55.4602 444.341Z" fill="#040919"/>
</g>
<path d="M86.4727 462.073L94.2254 466.678L86.4727 471.282" stroke="#AA71F8" stroke-linecap="round" stroke-linejoin="round"/>
<path d="M24.4402 471.282L16.6875 466.678L24.4402 462.073" stroke="#AA71F8" stroke-linecap="round" stroke-linejoin="round"/>
<path d="M63.8717 471.688L66.4077 473.196L64.7396 474.188L62.2325 472.7C60.6221 473.494 58.9637 473.871 57.2666 473.802C55.5695 473.742 53.8627 473.246 52.1463 472.333L54.2195 471.103C55.2609 471.619 56.2444 471.906 57.1701 471.946C58.0958 471.986 59.0408 471.797 60.0243 471.38L53.9495 467.768L53.6409 467.878C51.9727 468.523 50.4107 468.83 48.9546 468.8C47.4986 468.761 46.0811 468.334 44.7022 467.52C43.2654 466.667 42.4844 465.744 42.3687 464.752C42.253 463.76 42.8123 462.807 44.0562 461.884L41.7227 460.495L43.3908 459.503L45.6954 460.872C47.1804 460.148 48.7329 459.82 50.3528 459.86C51.9824 459.91 53.6024 460.366 55.2223 461.229L53.1491 462.46C52.2234 461.984 51.3267 461.726 50.4589 461.676C49.6007 461.626 48.7328 461.795 47.8747 462.172L53.5734 465.556L54.287 465.268C55.9358 464.633 57.5076 464.335 59.0022 464.395C60.4968 464.454 61.9529 464.901 63.3703 465.744C64.9035 466.657 65.7135 467.63 65.781 468.662C65.8485 469.694 65.2217 470.696 63.8717 471.678V471.688ZM51.5485 466.35L46.1968 463.164C44.9144 464.196 45.059 465.189 46.6307 466.121C47.3828 466.568 48.1446 466.806 48.9257 466.826C49.7067 466.856 50.5746 466.697 51.5485 466.34V466.35ZM58.8962 466.359C58.0765 466.35 57.093 466.548 55.9552 466.975L61.7118 470.398C63.245 469.257 63.1389 468.165 61.3936 467.133C60.545 466.637 59.7158 466.369 58.8962 466.359V466.359Z" fill="#6520C2"/>
<path d="M88.6914 454.066L251.574 357.299" stroke="#AA71F8" stroke-linecap="round" stroke-linejoin="round"/>
<path d="M99.3438 401.058L121.387 414.156L234.331 347.059" stroke="#AA71F8" stroke-linecap="round" stroke-linejoin="round"/>
<path d="M143.141 213.617L202.713 249.012H228.941L247.426 259.996" stroke="#AA71F8" stroke-linecap="round" stroke-linejoin="round"/>
<path d="M623.998 475.628L559.923 453.798V461.25L578.369 470.726L559.286 471.441L530.86 462.014L516.656 460.863L589.66 500.633L623.998 475.628Z" fill="url(#paint7_linear_685_9774)"/>
<path d="M539.252 451.654L537.314 460.476C536.33 460.565 535.212 460.823 534.373 461.468C532.473 462.937 531.663 461.22 531.046 458.928C530.429 456.635 529.484 453.798 529.484 453.798H529.465C530.323 452.875 530.921 451.694 531.085 450.354" fill="#E3D6F5"/>
<path d="M537.017 464.476C536.882 467.82 533.42 467.383 530.026 466.063L516.662 460.864C514.039 459.841 511.271 456.597 515.591 456.319L525.581 455.684C527.114 455.585 528.474 454.88 529.477 453.809H529.496C529.496 453.809 530.441 456.646 531.058 458.939C531.675 461.231 532.485 462.947 534.385 461.479C535.224 460.834 536.333 460.576 537.326 460.487L537.181 460.923L537.036 464.485L537.017 464.476Z" fill="#6520C2"/>
<path d="M564.775 453.659C564.775 453.659 564.775 454.314 564.708 458.472C564.65 462.63 558.98 462.272 558.016 459.355L555.19 450.852C554.863 449.869 555.277 448.589 556.116 448.004L558.565 446.297L560.552 451.655L564.795 453.659H564.775Z" fill="#6520C2"/>
<path d="M557.207 446.296C557.207 446.296 558.335 451.376 558.624 453.807C558.624 453.807 562.559 456.199 564.776 453.668L565.018 443.964L557.207 446.306V446.296Z" fill="#E3D6F5"/>
<path d="M551.374 284.1L505.031 275.288L503.816 280.795C502.717 285.767 507.635 289.428 507.635 289.428L538.954 297.565L551.374 284.1V284.1Z" fill="#040919"/>
<path d="M516.209 289.855L506.711 283.167" stroke="#6520C2" stroke-linecap="round" stroke-linejoin="round"/>
<path d="M524.895 353.31L535.579 347.962L566.599 340.014C567.091 343.338 566.715 348.716 566.348 352.06L561.662 394.212L565.856 446.287C559.415 453.709 554.382 447.13 554.382 447.13L546.581 402.507L538.789 453.788C535.347 454.562 532.638 454.84 528.52 452.349L524.904 353.29L524.895 353.31Z" fill="#040919"/>
<path d="M530.304 293.754L525.521 291.055L523.371 296.125L529.215 296.76L530.304 293.754Z" fill="white"/>
<path d="M518.779 296.017L529.212 296.761L528.672 301.137L518.364 333.286L511.402 330.121L518.779 296.017Z" fill="#040919"/>
<path d="M524.896 353.311L527.586 317.152L524.086 308.569L527.172 301.137C528.088 298.934 530.72 296.265 532.745 295.074L551.375 284.1L553.38 284.556C562.203 286.58 564.595 297.138 564.595 305.434V326.48L570.361 354.502L546.544 368.651C542.581 371.003 536.081 371.41 530.72 371.013L524.896 353.311V353.311Z" fill="#040919"/>
<path d="M563.136 329.416L550.138 355.453L544.719 354.511" stroke="#6520C2" stroke-linecap="round" stroke-linejoin="round"/>
<path d="M561.981 340.55L554.652 354.194" stroke="#6520C2" stroke-linecap="round" stroke-linejoin="round"/>
<path d="M534.103 326.42C534.103 326.42 536.08 328.921 533.467 332.205C530.854 335.489 528.028 338.665 529.214 343.765C530.439 349.014 524.895 353.321 524.895 353.321L526.351 333.733L534.094 326.43L534.103 326.42Z" fill="#AA71F8"/>
<path d="M570.361 354.511L546.544 368.661C542.581 371.012 536.081 371.419 530.72 371.022L527.461 361.109" stroke="#6520C2" stroke-linecap="round" stroke-linejoin="round"/>
<path d="M543.785 397.854L550.14 372.938" stroke="#6520C2" stroke-linecap="round" stroke-linejoin="round"/>
<path d="M543.786 397.854L537.258 409.205C537.258 409.205 541.047 411.309 542.851 406.129" stroke="#6520C2" stroke-linecap="round" stroke-linejoin="round"/>
<path d="M518.368 322.342L527.172 301.137L534.095 326.42L523.219 336.67C518.735 340.897 509.487 338.059 511.397 330.121L518.359 322.342H518.368Z" fill="#040919"/>
<path d="M516.111 332.294C513.546 331.222 514.471 327.025 514.471 327.025L515.484 323.919" stroke="#AA71F8" stroke-linecap="round" stroke-linejoin="round"/>
<path d="M549.194 290.004L548.558 285.747L532.744 295.065C530.719 296.255 528.087 298.924 527.171 301.127L518.367 322.332L516.824 326.411C516.824 326.411 518.743 326.133 519.63 324.158L528.222 304.958C529.369 302.407 533.4 301.921 535.473 303.757L540.391 308.083L534.335 298.865L549.194 289.994V290.004Z" fill="#AA71F8"/>
<path d="M530.531 275.497L528.448 276.856L527.898 272.887L530.531 270.744" stroke="#040919" stroke-linecap="round" stroke-linejoin="round"/>
<path d="M550.604 284.664C549.505 283.166 548.85 281.082 549.602 279.375L550.768 276.766L536.594 278.413L536.844 292.652L550.604 284.664V284.664Z" fill="#AA71F8"/>
<path d="M541.329 282.065C547.528 282.065 552.554 276.894 552.554 270.515C552.554 264.136 547.528 258.965 541.329 258.965C535.131 258.965 530.105 264.136 530.105 270.515C530.105 276.894 535.131 282.065 541.329 282.065Z" fill="#AA71F8"/>
<path d="M541.052 284.943L535.402 285.717C533.242 286.015 531.304 284.427 531.111 282.194L530.156 271.518L534.11 273.82L541.052 284.943Z" fill="#AA71F8"/>
<path d="M541.937 258.985L535.834 258.638L533.047 264.711C532.324 266.278 532.468 268.044 533.635 269.295L535.438 271.25L535.342 273.313L539.565 274.871L543.056 279.565C544.329 281.272 546.739 281.609 548.408 280.309L549.594 279.386L550.76 276.777H550.751C551.773 275.149 552.419 273.234 552.525 271.16C552.862 264.79 548.118 259.352 541.928 259.005L541.937 258.985Z" fill="#DACBEF"/>
<path d="M538.939 279.644C540.468 279.644 541.707 278.369 541.707 276.796C541.707 275.223 540.468 273.948 538.939 273.948C537.411 273.948 536.172 275.223 536.172 276.796C536.172 278.369 537.411 279.644 538.939 279.644Z" fill="#AA71F8"/>
<path d="M535.748 274.286L527.898 272.887" stroke="#040919" stroke-linecap="round" stroke-linejoin="round"/>
<path d="M536.863 292.652L545.098 292.265C547.846 292.137 554.587 289.953 551.79 285.974L550.797 284.565L543.324 288.911L536.863 292.662V292.652Z" fill="white"/>
<path d="M528.154 284.393L534.746 288.958L543.312 275.861L536.72 271.296L528.154 284.393Z" fill="#040919"/>
<path d="M532.491 277.609L534.41 285.716L538.18 285.954L537.91 287.969L532.269 290.747L530.302 293.754L525.52 291.055L527.892 280.953L531.961 275.615L534.015 275.277L532.491 277.609Z" fill="#AA71F8"/>
<path d="M534.015 275.277L531.961 275.615L527.892 280.953L525.52 291.055" fill="#AA71F8"/>
<path d="M534.015 275.277L531.961 275.615L527.892 280.953L525.52 291.055" stroke="white" stroke-linecap="round" stroke-linejoin="round"/>
<path d="M505.031 275.278L503.016 274.802L500.586 281.401L503.662 282.055L505.031 275.278Z" fill="white"/>
<path d="M503.015 274.801L500.585 274.285L496.188 270.743L487.721 270.098L487.172 271.388L493.324 273.332L491.28 275.962L491.897 278.75C492.254 280.348 493.825 281.43 495.387 281.152L498.444 280.616L500.585 281.39L503.015 274.791V274.801Z" fill="#AA71F8"/>
<path d="M533.616 236.459L606.553 193.127L533.616 149.794L460.68 193.127L533.616 236.459Z" fill="url(#paint8_linear_685_9774)"/>
<path d="M533.616 158.695L599.071 197.582L606.553 193.127L533.616 149.794L460.68 193.127L468.172 197.582L533.616 158.695Z" fill="#E3D6F5"/>
<path d="M533.616 167.645L591.53 202.057L599.07 197.582L533.616 158.694L468.172 197.582L475.703 202.057L533.616 167.645Z" fill="#040919"/>
<path d="M533.616 149.794V158.695L468.172 197.582L460.68 193.127L533.616 149.794Z" fill="#040919"/>
<path d="M533.616 158.694L468.172 197.582" stroke="#6520C2" stroke-linecap="round" stroke-linejoin="round"/>
<path d="M530.082 215.195H522.387V223.114H530.082V215.195Z" fill="#040919"/>
<path d="M553.176 215.195V223.114H556.098L560.871 220.276V215.195H553.176Z" fill="#040919"/>
<path d="M537.785 207.267H530.09V215.185H537.785V207.267Z" fill="#040919"/>
<path d="M522.386 183.512H514.691V191.43H522.386V183.512Z" fill="#040919"/>
<path d="M522.386 191.431H514.691V199.349H522.386V191.431Z" fill="#040919"/>
<path d="M584.108 165.729L525.443 130.871C523.128 129.501 519.349 129.501 517.044 130.871L475.581 155.499L473.18 155.271V158.387C473.18 159.29 473.758 160.192 474.915 160.887L535.162 196.678C537.477 198.048 541.257 198.048 543.561 196.678L585.69 171.653C586.847 170.969 587.425 170.066 587.425 169.163V166.047L584.118 165.739L584.108 165.729Z" fill="#6520C2"/>
<path d="M525.431 127.755C523.117 126.385 519.337 126.385 517.032 127.755L474.904 152.78C473.746 153.464 473.168 154.367 473.168 155.28C473.168 156.193 473.746 157.086 474.904 157.781L535.151 193.572C537.465 194.942 541.245 194.942 543.549 193.572L585.678 168.547C586.835 167.862 587.414 166.959 587.414 166.047C587.414 165.134 586.835 164.241 585.678 163.546L525.431 127.755V127.755Z" fill="url(#paint9_linear_685_9774)"/>
<path d="M601.523 102.978C603.837 104.347 605.158 107.642 604.464 110.291L591.147 161.225C590.453 163.874 587.994 164.926 585.689 163.547L525.442 127.755C523.128 126.386 521.807 123.091 522.501 120.442L535.818 69.5086C536.512 66.8592 538.971 65.8073 541.276 67.1865L601.523 102.978V102.978Z" fill="url(#paint10_linear_685_9774)"/>
<path d="M560.232 102.829L552.2 133.569L517.352 112.871L525.394 82.1299L560.232 102.829Z" stroke="#AA71F8" stroke-linecap="round" stroke-linejoin="round"/>
<path d="M571.985 139.464L570.616 144.683L559.941 138.343L561.301 133.113L571.985 139.464Z" fill="#AA71F8"/>
<path d="M567.039 107.076L586.855 118.854" stroke="#AA71F8" stroke-linecap="round" stroke-linejoin="round"/>
<path d="M566.207 111.303L586.032 123.081" stroke="#AA71F8" stroke-linecap="round" stroke-linejoin="round"/>
<path d="M565.391 115.53L574.387 120.879" stroke="#AA71F8" stroke-linecap="round" stroke-linejoin="round"/>
<path d="M504.914 146.548L526.755 133.569L575.893 162.762L554.053 175.741L504.914 146.548Z" fill="#DACBEF"/>
<path d="M496.688 166.493L520.476 180.623" stroke="#DACBEF" stroke-linecap="round" stroke-linejoin="round"/>
<path d="M538.793 74.0137L599.995 110.371" stroke="#6520C2" stroke-linecap="round" stroke-linejoin="round"/>
<path d="M560.867 220.275V217.08C560.867 206.532 574.087 208.427 574.087 199.526V190.01C574.087 188.343 572.94 186.289 571.532 185.456L567 182.767" stroke="white" stroke-linecap="round" stroke-linejoin="round"/>
<path d="M567.01 182.757L565.312 183.759L568.736 181.725" stroke="white" stroke-linecap="round" stroke-linejoin="round"/>
<defs>
<linearGradient id="paint0_linear_685_9774" x1="255.591" y1="307.457" x2="278.039" y2="307.457" gradientUnits="userSpaceOnUse">
<stop stop-color="#150728"/>
<stop offset="1" stop-color="#6520C2"/>
</linearGradient>
<linearGradient id="paint1_linear_685_9774" x1="137.34" y1="467.57" x2="246.253" y2="467.57" gradientUnits="userSpaceOnUse">
<stop stop-color="#EADDFB"/>
<stop offset="0.45" stop-color="#EADDFD" stop-opacity="0.01"/>
</linearGradient>
<linearGradient id="paint2_linear_685_9774" x1="78.5442" y1="-1874.16" x2="61.12" y2="-1874.16" gradientUnits="userSpaceOnUse">
<stop stop-color="#150727"/>
<stop offset="1" stop-color="#6520C2"/>
</linearGradient>
<linearGradient id="paint3_linear_685_9774" x1="32.5586" y1="133.085" x2="178.432" y2="133.085" gradientUnits="userSpaceOnUse">
<stop stop-color="#E1CBFF"/>
<stop offset="0.45" stop-color="#E0C9FF" stop-opacity="0"/>
</linearGradient>
<linearGradient id="paint4_linear_685_9774" x1="264.262" y1="75.5125" x2="272.279" y2="88.0674" gradientUnits="userSpaceOnUse">
<stop stop-color="#040919"/>
<stop offset="1" stop-color="#6520C2"/>
</linearGradient>
<linearGradient id="paint5_linear_685_9774" x1="17.2734" y1="375.03" x2="126.187" y2="375.03" gradientUnits="userSpaceOnUse">
<stop stop-color="#EADDFB"/>
<stop offset="0.45" stop-color="#EADDFD" stop-opacity="0.01"/>
</linearGradient>
<linearGradient id="paint6_linear_685_9774" x1="1" y1="466.677" x2="109.913" y2="466.677" gradientUnits="userSpaceOnUse">
<stop stop-color="#D0D3F5"/>
<stop offset="0.06" stop-color="#D0D3F5" stop-opacity="0.78"/>
<stop offset="0.14" stop-color="#D0D3F5" stop-opacity="0.55"/>
<stop offset="0.21" stop-color="#D0D3F5" stop-opacity="0.35"/>
<stop offset="0.28" stop-color="#D0D3F5" stop-opacity="0.2"/>
<stop offset="0.35" stop-color="#D0D3F5" stop-opacity="0.09"/>
<stop offset="0.4" stop-color="#D0D3F5" stop-opacity="0.02"/>
<stop offset="0.45" stop-color="#D0D3F5" stop-opacity="0"/>
</linearGradient>
<linearGradient id="paint7_linear_685_9774" x1="576.209" y1="476.114" x2="588.819" y2="492.048" gradientUnits="userSpaceOnUse">
<stop stop-color="#D5C5EB"/>
<stop offset="1" stop-color="#D6C7EB" stop-opacity="0"/>
</linearGradient>
<linearGradient id="paint8_linear_685_9774" x1="570.162" y1="193.127" x2="557.945" y2="193.127" gradientUnits="userSpaceOnUse">
<stop stop-color="#130625"/>
<stop offset="1" stop-color="#6520C2"/>
</linearGradient>
<linearGradient id="paint9_linear_685_9774" x1="490.766" y1="160.658" x2="516.55" y2="160.658" gradientUnits="userSpaceOnUse">
<stop stop-color="#D0D3F5"/>
<stop offset="0.17" stop-color="#E9EAFA"/>
<stop offset="0.32" stop-color="#F9F9FD"/>
<stop offset="0.45" stop-color="white"/>
</linearGradient>
<linearGradient id="paint10_linear_685_9774" x1="556.771" y1="103.395" x2="561.873" y2="112" gradientUnits="userSpaceOnUse">
<stop stop-color="#130723"/>
<stop offset="1" stop-color="#6520C2"/>
</linearGradient>
</defs>
</svg>
