<svg width="164" height="151" viewBox="0 0 164 151" fill="none" xmlns="http://www.w3.org/2000/svg">
<path d="M81.9952 139.206L10.576 97.9694L1.01562 103.48L81.9952 150.235L162.999 103.472L153.439 97.9531L81.9952 139.206Z" fill="#BCC0E5"/>
<g opacity="0.25">
<path d="M62.4196 89.2378C62.7334 89.2378 62.9877 88.9834 62.9877 88.6697C62.9877 88.3559 62.7334 88.1016 62.4196 88.1016C62.1059 88.1016 61.8516 88.3559 61.8516 88.6697C61.8516 88.9834 62.1059 89.2378 62.4196 89.2378Z" fill="#040919"/>
<path d="M68.947 93.0122C69.2608 93.0122 69.5151 92.7579 69.5151 92.4441C69.5151 92.1303 69.2608 91.876 68.947 91.876C68.6333 91.876 68.3789 92.1303 68.3789 92.4441C68.3789 92.7579 68.6333 93.0122 68.947 93.0122Z" fill="#040919"/>
<path d="M62.4196 96.7768C62.7334 96.7768 62.9877 96.5225 62.9877 96.2087C62.9877 95.895 62.7334 95.6406 62.4196 95.6406C62.1059 95.6406 61.8516 95.895 61.8516 96.2087C61.8516 96.5225 62.1059 96.7768 62.4196 96.7768Z" fill="#040919"/>
<path d="M75.4705 96.7768C75.7842 96.7768 76.0386 96.5225 76.0386 96.2087C76.0386 95.895 75.7842 95.6406 75.4705 95.6406C75.1567 95.6406 74.9023 95.895 74.9023 96.2087C74.9023 96.5225 75.1567 96.7768 75.4705 96.7768Z" fill="#040919"/>
<path d="M68.947 100.542C69.2608 100.542 69.5151 100.288 69.5151 99.9743C69.5151 99.6606 69.2608 99.4062 68.947 99.4062C68.6333 99.4062 68.3789 99.6606 68.3789 99.9743C68.3789 100.288 68.6333 100.542 68.947 100.542Z" fill="#040919"/>
<path d="M62.4196 104.308C62.7334 104.308 62.9877 104.054 62.9877 103.74C62.9877 103.426 62.7334 103.172 62.4196 103.172C62.1059 103.172 61.8516 103.426 61.8516 103.74C61.8516 104.054 62.1059 104.308 62.4196 104.308Z" fill="#040919"/>
<path d="M81.9938 100.542C82.3076 100.542 82.562 100.288 82.562 99.9743C82.562 99.6606 82.3076 99.4062 81.9938 99.4062C81.6801 99.4062 81.4258 99.6606 81.4258 99.9743C81.4258 100.288 81.6801 100.542 81.9938 100.542Z" fill="#040919"/>
<path d="M75.4705 104.308C75.7842 104.308 76.0386 104.054 76.0386 103.74C76.0386 103.426 75.7842 103.172 75.4705 103.172C75.1567 103.172 74.9023 103.426 74.9023 103.74C74.9023 104.054 75.1567 104.308 75.4705 104.308Z" fill="#040919"/>
<path d="M68.9431 108.083C69.2569 108.083 69.5112 107.828 69.5112 107.514C69.5112 107.201 69.2569 106.946 68.9431 106.946C68.6294 106.946 68.375 107.201 68.375 107.514C68.375 107.828 68.6294 108.083 68.9431 108.083Z" fill="#040919"/>
<path d="M62.4196 111.849C62.7334 111.849 62.9877 111.595 62.9877 111.281C62.9877 110.967 62.7334 110.713 62.4196 110.713C62.1059 110.713 61.8516 110.967 61.8516 111.281C61.8516 111.595 62.1059 111.849 62.4196 111.849Z" fill="#040919"/>
<path d="M81.9938 108.083C82.3076 108.083 82.562 107.828 82.562 107.514C82.562 107.201 82.3076 106.946 81.9938 106.946C81.6801 106.946 81.4258 107.201 81.4258 107.514C81.4258 107.828 81.6801 108.083 81.9938 108.083Z" fill="#040919"/>
<path d="M75.4705 111.849C75.7842 111.849 76.0386 111.595 76.0386 111.281C76.0386 110.967 75.7842 110.713 75.4705 110.713C75.1567 110.713 74.9023 110.967 74.9023 111.281C74.9023 111.595 75.1567 111.849 75.4705 111.849Z" fill="#040919"/>
<path d="M88.5291 104.308C88.8428 104.308 89.0971 104.054 89.0971 103.74C89.0971 103.426 88.8428 103.172 88.5291 103.172C88.2153 103.172 87.9609 103.426 87.9609 103.74C87.9609 104.054 88.2153 104.308 88.5291 104.308Z" fill="#040919"/>
<path d="M68.947 115.614C69.2608 115.614 69.5151 115.359 69.5151 115.046C69.5151 114.732 69.2608 114.478 68.947 114.478C68.6333 114.478 68.3789 114.732 68.3789 115.046C68.3789 115.359 68.6333 115.614 68.947 115.614Z" fill="#040919"/>
<path d="M62.4196 119.379C62.7334 119.379 62.9877 119.125 62.9877 118.811C62.9877 118.498 62.7334 118.243 62.4196 118.243C62.1059 118.243 61.8516 118.498 61.8516 118.811C61.8516 119.125 62.1059 119.379 62.4196 119.379Z" fill="#040919"/>
<path d="M55.8962 93.0112C56.21 93.0112 56.4644 92.7569 56.4644 92.4431C56.4644 92.1294 56.21 91.875 55.8962 91.875C55.5825 91.875 55.3281 92.1294 55.3281 92.4431C55.3281 92.7569 55.5825 93.0112 55.8962 93.0112Z" fill="#040919"/>
<path d="M75.4705 81.7056C75.7842 81.7056 76.0386 81.4512 76.0386 81.1375C76.0386 80.8237 75.7842 80.5693 75.4705 80.5693C75.1567 80.5693 74.9023 80.8237 74.9023 81.1375C74.9023 81.4512 75.1567 81.7056 75.4705 81.7056Z" fill="#040919"/>
<path d="M81.9938 85.4721C82.3076 85.4721 82.562 85.2178 82.562 84.904C82.562 84.5902 82.3076 84.3359 81.9938 84.3359C81.6801 84.3359 81.4258 84.5902 81.4258 84.904C81.4258 85.2178 81.6801 85.4721 81.9938 85.4721Z" fill="#040919"/>
<path d="M75.4705 89.2378C75.7842 89.2378 76.0386 88.9834 76.0386 88.6697C76.0386 88.3559 75.7842 88.1016 75.4705 88.1016C75.1567 88.1016 74.9023 88.3559 74.9023 88.6697C74.9023 88.9834 75.1567 89.2378 75.4705 89.2378Z" fill="#040919"/>
<path d="M88.5291 89.2378C88.8428 89.2378 89.0971 88.9834 89.0971 88.6697C89.0971 88.3559 88.8428 88.1016 88.5291 88.1016C88.2153 88.1016 87.9609 88.3559 87.9609 88.6697C87.9609 88.9834 88.2153 89.2378 88.5291 89.2378Z" fill="#040919"/>
<path d="M81.9938 93.0112C82.3076 93.0112 82.562 92.7569 82.562 92.4431C82.562 92.1294 82.3076 91.875 81.9938 91.875C81.6801 91.875 81.4258 92.1294 81.4258 92.4431C81.4258 92.7569 81.6801 93.0112 81.9938 93.0112Z" fill="#040919"/>
<path d="M95.0525 93.0112C95.3662 93.0112 95.6206 92.7569 95.6206 92.4431C95.6206 92.1294 95.3662 91.875 95.0525 91.875C94.7387 91.875 94.4844 92.1294 94.4844 92.4431C94.4844 92.7569 94.7387 93.0112 95.0525 93.0112Z" fill="#040919"/>
<path d="M88.5291 96.7768C88.8428 96.7768 89.0971 96.5225 89.0971 96.2087C89.0971 95.895 88.8428 95.6406 88.5291 95.6406C88.2153 95.6406 87.9609 95.895 87.9609 96.2087C87.9609 96.5225 88.2153 96.7768 88.5291 96.7768Z" fill="#040919"/>
<path d="M95.0525 100.542C95.3662 100.542 95.6206 100.288 95.6206 99.9743C95.6206 99.6606 95.3662 99.4062 95.0525 99.4062C94.7387 99.4062 94.4844 99.6606 94.4844 99.9743C94.4844 100.288 94.7387 100.542 95.0525 100.542Z" fill="#040919"/>
<path d="M101.58 96.7768C101.894 96.7768 102.148 96.5225 102.148 96.2087C102.148 95.895 101.894 95.6406 101.58 95.6406C101.266 95.6406 101.012 95.895 101.012 96.2087C101.012 96.5225 101.266 96.7768 101.58 96.7768Z" fill="#040919"/>
<path d="M108.107 93.0112C108.421 93.0112 108.675 92.7569 108.675 92.4431C108.675 92.1294 108.421 91.875 108.107 91.875C107.793 91.875 107.539 92.1294 107.539 92.4431C107.539 92.7569 107.793 93.0112 108.107 93.0112Z" fill="#040919"/>
<path d="M114.627 89.2378C114.94 89.2378 115.195 88.9834 115.195 88.6697C115.195 88.3559 114.94 88.1016 114.627 88.1016C114.313 88.1016 114.059 88.3559 114.059 88.6697C114.059 88.9834 114.313 89.2378 114.627 89.2378Z" fill="#040919"/>
<path d="M68.947 85.4711C69.2608 85.4711 69.5151 85.2168 69.5151 84.903C69.5151 84.5893 69.2608 84.335 68.947 84.335C68.6333 84.335 68.3789 84.5893 68.3789 84.903C68.3789 85.2168 68.6333 85.4711 68.947 85.4711Z" fill="#040919"/>
<path d="M88.5291 81.7056C88.8428 81.7056 89.0971 81.4512 89.0971 81.1375C89.0971 80.8237 88.8428 80.5693 88.5291 80.5693C88.2153 80.5693 87.9609 80.8237 87.9609 81.1375C87.9609 81.4512 88.2153 81.7056 88.5291 81.7056Z" fill="#040919"/>
<path d="M95.0525 85.4721C95.3662 85.4721 95.6206 85.2178 95.6206 84.904C95.6206 84.5902 95.3662 84.3359 95.0525 84.3359C94.7387 84.3359 94.4844 84.5902 94.4844 84.904C94.4844 85.2178 94.7387 85.4721 95.0525 85.4721Z" fill="#040919"/>
<path d="M101.58 89.2378C101.894 89.2378 102.148 88.9834 102.148 88.6697C102.148 88.3559 101.894 88.1016 101.58 88.1016C101.266 88.1016 101.012 88.3559 101.012 88.6697C101.012 88.9834 101.266 89.2378 101.58 89.2378Z" fill="#040919"/>
<path d="M81.9938 77.9321C82.3076 77.9321 82.562 77.6778 82.562 77.364C82.562 77.0503 82.3076 76.7959 81.9938 76.7959C81.6801 76.7959 81.4258 77.0503 81.4258 77.364C81.4258 77.6778 81.6801 77.9321 81.9938 77.9321Z" fill="#040919"/>
<path d="M49.3689 96.7768C49.6827 96.7768 49.937 96.5225 49.937 96.2087C49.937 95.895 49.6827 95.6406 49.3689 95.6406C49.0551 95.6406 48.8008 95.895 48.8008 96.2087C48.8008 96.5225 49.0551 96.7768 49.3689 96.7768Z" fill="#040919"/>
<path d="M55.8962 100.542C56.21 100.542 56.4644 100.288 56.4644 99.9743C56.4644 99.6606 56.21 99.4062 55.8962 99.4062C55.5825 99.4062 55.3281 99.6606 55.3281 99.9743C55.3281 100.288 55.5825 100.542 55.8962 100.542Z" fill="#040919"/>
<path d="M42.8416 100.542C43.1553 100.542 43.4097 100.288 43.4097 99.9743C43.4097 99.6606 43.1553 99.4062 42.8416 99.4062C42.5278 99.4062 42.2734 99.6606 42.2734 99.9743C42.2734 100.288 42.5278 100.542 42.8416 100.542Z" fill="#040919"/>
<path d="M49.3689 104.308C49.6827 104.308 49.937 104.054 49.937 103.74C49.937 103.426 49.6827 103.172 49.3689 103.172C49.0551 103.172 48.8008 103.426 48.8008 103.74C48.8008 104.054 49.0551 104.308 49.3689 104.308Z" fill="#040919"/>
<path d="M55.8962 108.083C56.21 108.083 56.4644 107.828 56.4644 107.514C56.4644 107.201 56.21 106.946 55.8962 106.946C55.5825 106.946 55.3281 107.201 55.3281 107.514C55.3281 107.828 55.5825 108.083 55.8962 108.083Z" fill="#040919"/>
<path d="M42.8416 108.083C43.1553 108.083 43.4097 107.828 43.4097 107.514C43.4097 107.201 43.1553 106.946 42.8416 106.946C42.5278 106.946 42.2734 107.201 42.2734 107.514C42.2734 107.828 42.5278 108.083 42.8416 108.083Z" fill="#040919"/>
<path d="M49.3689 111.849C49.6827 111.849 49.937 111.595 49.937 111.281C49.937 110.967 49.6827 110.713 49.3689 110.713C49.0551 110.713 48.8008 110.967 48.8008 111.281C48.8008 111.595 49.0551 111.849 49.3689 111.849Z" fill="#040919"/>
<path d="M36.3103 104.308C36.6241 104.308 36.8784 104.054 36.8784 103.74C36.8784 103.426 36.6241 103.172 36.3103 103.172C35.9965 103.172 35.7422 103.426 35.7422 103.74C35.7422 104.054 35.9965 104.308 36.3103 104.308Z" fill="#040919"/>
<path d="M55.8962 115.614C56.21 115.614 56.4644 115.359 56.4644 115.046C56.4644 114.732 56.21 114.478 55.8962 114.478C55.5825 114.478 55.3281 114.732 55.3281 115.046C55.3281 115.359 55.5825 115.614 55.8962 115.614Z" fill="#040919"/>
<path d="M42.8416 93.0112C43.1553 93.0112 43.4097 92.7569 43.4097 92.4431C43.4097 92.1294 43.1553 91.875 42.8416 91.875C42.5278 91.875 42.2734 92.1294 42.2734 92.4431C42.2734 92.7569 42.5278 93.0112 42.8416 93.0112Z" fill="#040919"/>
<path d="M36.3103 96.7768C36.6241 96.7768 36.8784 96.5225 36.8784 96.2087C36.8784 95.895 36.6241 95.6406 36.3103 95.6406C35.9965 95.6406 35.7422 95.895 35.7422 96.2087C35.7422 96.5225 35.9965 96.7768 36.3103 96.7768Z" fill="#040919"/>
<path d="M55.8962 85.4721C56.21 85.4721 56.4644 85.2178 56.4644 84.904C56.4644 84.5902 56.21 84.3359 55.8962 84.3359C55.5825 84.3359 55.3281 84.5902 55.3281 84.904C55.3281 85.2178 55.5825 85.4721 55.8962 85.4721Z" fill="#040919"/>
<path d="M49.3689 89.2378C49.6827 89.2378 49.937 88.9834 49.937 88.6697C49.937 88.3559 49.6827 88.1016 49.3689 88.1016C49.0551 88.1016 48.8008 88.3559 48.8008 88.6697C48.8008 88.9834 49.0551 89.2378 49.3689 89.2378Z" fill="#040919"/>
<path d="M62.4196 81.7056C62.7334 81.7056 62.9877 81.4512 62.9877 81.1375C62.9877 80.8237 62.7334 80.5693 62.4196 80.5693C62.1059 80.5693 61.8516 80.8237 61.8516 81.1375C61.8516 81.4512 62.1059 81.7056 62.4196 81.7056Z" fill="#040919"/>
<path d="M29.7869 100.542C30.1006 100.542 30.3549 100.288 30.3549 99.9743C30.3549 99.6606 30.1006 99.4062 29.7869 99.4062C29.4731 99.4062 29.2188 99.6606 29.2188 99.9743C29.2188 100.288 29.4731 100.542 29.7869 100.542Z" fill="#040919"/>
<path d="M42.8416 77.9321C43.1553 77.9321 43.4097 77.6778 43.4097 77.364C43.4097 77.0503 43.1553 76.7959 42.8416 76.7959C42.5278 76.7959 42.2734 77.0503 42.2734 77.364C42.2734 77.6778 42.5278 77.9321 42.8416 77.9321Z" fill="#040919"/>
<path d="M36.3103 81.7056C36.6241 81.7056 36.8784 81.4512 36.8784 81.1375C36.8784 80.8237 36.6241 80.5693 36.3103 80.5693C35.9965 80.5693 35.7422 80.8237 35.7422 81.1375C35.7422 81.4512 35.9965 81.7056 36.3103 81.7056Z" fill="#040919"/>
<path d="M29.7869 85.4721C30.1006 85.4721 30.3549 85.2178 30.3549 84.904C30.3549 84.5902 30.1006 84.3359 29.7869 84.3359C29.4731 84.3359 29.2188 84.5902 29.2188 84.904C29.2188 85.2178 29.4731 85.4721 29.7869 85.4721Z" fill="#040919"/>
<path d="M23.2634 89.2378C23.5771 89.2378 23.8315 88.9834 23.8315 88.6697C23.8315 88.3559 23.5771 88.1016 23.2634 88.1016C22.9496 88.1016 22.6953 88.3559 22.6953 88.6697C22.6953 88.9834 22.9496 89.2378 23.2634 89.2378Z" fill="#040919"/>
<path d="M42.8416 85.4721C43.1553 85.4721 43.4097 85.2178 43.4097 84.904C43.4097 84.5902 43.1553 84.3359 42.8416 84.3359C42.5278 84.3359 42.2734 84.5902 42.2734 84.904C42.2734 85.2178 42.5278 85.4721 42.8416 85.4721Z" fill="#040919"/>
<path d="M36.3103 89.2378C36.6241 89.2378 36.8784 88.9834 36.8784 88.6697C36.8784 88.3559 36.6241 88.1016 36.3103 88.1016C35.9965 88.1016 35.7422 88.3559 35.7422 88.6697C35.7422 88.9834 35.9965 89.2378 36.3103 89.2378Z" fill="#040919"/>
<path d="M49.3689 81.7056C49.6827 81.7056 49.937 81.4512 49.937 81.1375C49.937 80.8237 49.6827 80.5693 49.3689 80.5693C49.0551 80.5693 48.8008 80.8237 48.8008 81.1375C48.8008 81.4512 49.0551 81.7056 49.3689 81.7056Z" fill="#040919"/>
<path d="M29.7869 93.0112C30.1006 93.0112 30.3549 92.7569 30.3549 92.4431C30.3549 92.1294 30.1006 91.875 29.7869 91.875C29.4731 91.875 29.2188 92.1294 29.2188 92.4431C29.2188 92.7569 29.4731 93.0112 29.7869 93.0112Z" fill="#040919"/>
<path d="M23.2634 96.7768C23.5771 96.7768 23.8315 96.5225 23.8315 96.2087C23.8315 95.895 23.5771 95.6406 23.2634 95.6406C22.9496 95.6406 22.6953 95.895 22.6953 96.2087C22.6953 96.5225 22.9496 96.7768 23.2634 96.7768Z" fill="#040919"/>
<path d="M68.947 77.9321C69.2608 77.9321 69.5151 77.6778 69.5151 77.364C69.5151 77.0503 69.2608 76.7959 68.947 76.7959C68.6333 76.7959 68.3789 77.0503 68.3789 77.364C68.3789 77.6778 68.6333 77.9321 68.947 77.9321Z" fill="#040919"/>
<path d="M55.8962 70.3999C56.21 70.3999 56.4644 70.1455 56.4644 69.8318C56.4644 69.518 56.21 69.2637 55.8962 69.2637C55.5825 69.2637 55.3281 69.518 55.3281 69.8318C55.3281 70.1455 55.5825 70.3999 55.8962 70.3999Z" fill="#040919"/>
<path d="M49.3689 74.1665C49.6827 74.1665 49.937 73.9121 49.937 73.5983C49.937 73.2846 49.6827 73.0303 49.3689 73.0303C49.0551 73.0303 48.8008 73.2846 48.8008 73.5983C48.8008 73.9121 49.0551 74.1665 49.3689 74.1665Z" fill="#040919"/>
<path d="M55.8962 77.9321C56.21 77.9321 56.4644 77.6778 56.4644 77.364C56.4644 77.0503 56.21 76.7959 55.8962 76.7959C55.5825 76.7959 55.3281 77.0503 55.3281 77.364C55.3281 77.6778 55.5825 77.9321 55.8962 77.9321Z" fill="#040919"/>
<path d="M62.4196 74.1665C62.7334 74.1665 62.9877 73.9121 62.9877 73.5983C62.9877 73.2846 62.7334 73.0303 62.4196 73.0303C62.1059 73.0303 61.8516 73.2846 61.8516 73.5983C61.8516 73.9121 62.1059 74.1665 62.4196 74.1665Z" fill="#040919"/>
<path d="M75.4705 74.1665C75.7842 74.1665 76.0386 73.9121 76.0386 73.5983C76.0386 73.2846 75.7842 73.0303 75.4705 73.0303C75.1567 73.0303 74.9023 73.2846 74.9023 73.5983C74.9023 73.9121 75.1567 74.1665 75.4705 74.1665Z" fill="#040919"/>
<path d="M62.4196 66.6353C62.7334 66.6353 62.9877 66.3809 62.9877 66.0671C62.9877 65.7534 62.7334 65.499 62.4196 65.499C62.1059 65.499 61.8516 65.7534 61.8516 66.0671C61.8516 66.3809 62.1059 66.6353 62.4196 66.6353Z" fill="#040919"/>
<path d="M68.947 70.4008C69.2608 70.4008 69.5151 70.1465 69.5151 69.8328C69.5151 69.519 69.2608 69.2646 68.947 69.2646C68.6333 69.2646 68.3789 69.519 68.3789 69.8328C68.3789 70.1465 68.6333 70.4008 68.947 70.4008Z" fill="#040919"/>
<path d="M95.0525 70.3999C95.3662 70.3999 95.6206 70.1455 95.6206 69.8318C95.6206 69.518 95.3662 69.2637 95.0525 69.2637C94.7387 69.2637 94.4844 69.518 94.4844 69.8318C94.4844 70.1455 94.7387 70.3999 95.0525 70.3999Z" fill="#040919"/>
<path d="M101.58 74.1665C101.894 74.1665 102.148 73.9121 102.148 73.5983C102.148 73.2846 101.894 73.0303 101.58 73.0303C101.266 73.0303 101.012 73.2846 101.012 73.5983C101.012 73.9121 101.266 74.1665 101.58 74.1665Z" fill="#040919"/>
<path d="M95.0525 77.9321C95.3662 77.9321 95.6206 77.6778 95.6206 77.364C95.6206 77.0503 95.3662 76.7959 95.0525 76.7959C94.7387 76.7959 94.4844 77.0503 94.4844 77.364C94.4844 77.6778 94.7387 77.9321 95.0525 77.9321Z" fill="#040919"/>
<path d="M108.107 77.9321C108.421 77.9321 108.675 77.6778 108.675 77.364C108.675 77.0503 108.421 76.7959 108.107 76.7959C107.793 76.7959 107.539 77.0503 107.539 77.364C107.539 77.6778 107.793 77.9321 108.107 77.9321Z" fill="#040919"/>
<path d="M101.58 81.7056C101.894 81.7056 102.148 81.4512 102.148 81.1375C102.148 80.8237 101.894 80.5693 101.58 80.5693C101.266 80.5693 101.012 80.8237 101.012 81.1375C101.012 81.4512 101.266 81.7056 101.58 81.7056Z" fill="#040919"/>
<path d="M114.627 81.7056C114.94 81.7056 115.195 81.4512 115.195 81.1375C115.195 80.8237 114.94 80.5693 114.627 80.5693C114.313 80.5693 114.059 80.8237 114.059 81.1375C114.059 81.4512 114.313 81.7056 114.627 81.7056Z" fill="#040919"/>
<path d="M108.107 85.4721C108.421 85.4721 108.675 85.2178 108.675 84.904C108.675 84.5902 108.421 84.3359 108.107 84.3359C107.793 84.3359 107.539 84.5902 107.539 84.904C107.539 85.2178 107.793 85.4721 108.107 85.4721Z" fill="#040919"/>
<path d="M121.154 85.4711C121.468 85.4711 121.722 85.2168 121.722 84.903C121.722 84.5893 121.468 84.335 121.154 84.335C120.84 84.335 120.586 84.5893 120.586 84.903C120.586 85.2168 120.84 85.4711 121.154 85.4711Z" fill="#040919"/>
<path d="M127.677 81.7056C127.991 81.7056 128.246 81.4512 128.246 81.1375C128.246 80.8237 127.991 80.5693 127.677 80.5693C127.364 80.5693 127.109 80.8237 127.109 81.1375C127.109 81.4512 127.364 81.7056 127.677 81.7056Z" fill="#040919"/>
<path d="M88.5291 74.1665C88.8428 74.1665 89.0971 73.9121 89.0971 73.5983C89.0971 73.2846 88.8428 73.0303 88.5291 73.0303C88.2153 73.0303 87.9609 73.2846 87.9609 73.5983C87.9609 73.9121 88.2153 74.1665 88.5291 74.1665Z" fill="#040919"/>
<path d="M108.107 70.3999C108.421 70.3999 108.675 70.1455 108.675 69.8318C108.675 69.518 108.421 69.2637 108.107 69.2637C107.793 69.2637 107.539 69.518 107.539 69.8318C107.539 70.1455 107.793 70.3999 108.107 70.3999Z" fill="#040919"/>
<path d="M114.627 74.1665C114.94 74.1665 115.195 73.9121 115.195 73.5983C115.195 73.2846 114.94 73.0303 114.627 73.0303C114.313 73.0303 114.059 73.2846 114.059 73.5983C114.059 73.9121 114.313 74.1665 114.627 74.1665Z" fill="#040919"/>
<path d="M121.154 77.9321C121.468 77.9321 121.722 77.6778 121.722 77.364C121.722 77.0503 121.468 76.7959 121.154 76.7959C120.84 76.7959 120.586 77.0503 120.586 77.364C120.586 77.6778 120.84 77.9321 121.154 77.9321Z" fill="#040919"/>
<path d="M95.0525 108.083C95.3662 108.083 95.6206 107.828 95.6206 107.514C95.6206 107.201 95.3662 106.946 95.0525 106.946C94.7387 106.946 94.4844 107.201 94.4844 107.514C94.4844 107.828 94.7387 108.083 95.0525 108.083Z" fill="#040919"/>
<path d="M88.5291 111.849C88.8428 111.849 89.0971 111.595 89.0971 111.281C89.0971 110.967 88.8428 110.713 88.5291 110.713C88.2153 110.713 87.9609 110.967 87.9609 111.281C87.9609 111.595 88.2153 111.849 88.5291 111.849Z" fill="#040919"/>
<path d="M81.9938 115.614C82.3076 115.614 82.562 115.359 82.562 115.046C82.562 114.732 82.3076 114.478 81.9938 114.478C81.6801 114.478 81.4258 114.732 81.4258 115.046C81.4258 115.359 81.6801 115.614 81.9938 115.614Z" fill="#040919"/>
<path d="M101.58 111.849C101.894 111.849 102.148 111.595 102.148 111.281C102.148 110.967 101.894 110.713 101.58 110.713C101.266 110.713 101.012 110.967 101.012 111.281C101.012 111.595 101.266 111.849 101.58 111.849Z" fill="#040919"/>
<path d="M95.0525 115.614C95.3662 115.614 95.6206 115.359 95.6206 115.046C95.6206 114.732 95.3662 114.478 95.0525 114.478C94.7387 114.478 94.4844 114.732 94.4844 115.046C94.4844 115.359 94.7387 115.614 95.0525 115.614Z" fill="#040919"/>
<path d="M88.5291 119.379C88.8428 119.379 89.0971 119.125 89.0971 118.811C89.0971 118.498 88.8428 118.243 88.5291 118.243C88.2153 118.243 87.9609 118.498 87.9609 118.811C87.9609 119.125 88.2153 119.379 88.5291 119.379Z" fill="#040919"/>
<path d="M81.9938 123.154C82.3076 123.154 82.562 122.899 82.562 122.586C82.562 122.272 82.3076 122.018 81.9938 122.018C81.6801 122.018 81.4258 122.272 81.4258 122.586C81.4258 122.899 81.6801 123.154 81.9938 123.154Z" fill="#040919"/>
<path d="M101.58 119.379C101.894 119.379 102.148 119.125 102.148 118.811C102.148 118.498 101.894 118.243 101.58 118.243C101.266 118.243 101.012 118.498 101.012 118.811C101.012 119.125 101.266 119.379 101.58 119.379Z" fill="#040919"/>
<path d="M95.0525 123.154C95.3662 123.154 95.6206 122.899 95.6206 122.586C95.6206 122.272 95.3662 122.018 95.0525 122.018C94.7387 122.018 94.4844 122.272 94.4844 122.586C94.4844 122.899 94.7387 123.154 95.0525 123.154Z" fill="#040919"/>
<path d="M108.107 115.614C108.421 115.614 108.675 115.359 108.675 115.046C108.675 114.732 108.421 114.478 108.107 114.478C107.793 114.478 107.539 114.732 107.539 115.046C107.539 115.359 107.793 115.614 108.107 115.614Z" fill="#040919"/>
<path d="M88.5291 126.919C88.8428 126.919 89.0971 126.665 89.0971 126.351C89.0971 126.038 88.8428 125.783 88.5291 125.783C88.2153 125.783 87.9609 126.038 87.9609 126.351C87.9609 126.665 88.2153 126.919 88.5291 126.919Z" fill="#040919"/>
<path d="M81.9938 130.685C82.3076 130.685 82.562 130.431 82.562 130.117C82.562 129.803 82.3076 129.549 81.9938 129.549C81.6801 129.549 81.4258 129.803 81.4258 130.117C81.4258 130.431 81.6801 130.685 81.9938 130.685Z" fill="#040919"/>
<path d="M108.107 100.542C108.421 100.542 108.675 100.288 108.675 99.9743C108.675 99.6606 108.421 99.4062 108.107 99.4062C107.793 99.4062 107.539 99.6606 107.539 99.9743C107.539 100.288 107.793 100.542 108.107 100.542Z" fill="#040919"/>
<path d="M101.58 104.308C101.894 104.308 102.148 104.054 102.148 103.74C102.148 103.426 101.894 103.172 101.58 103.172C101.266 103.172 101.012 103.426 101.012 103.74C101.012 104.054 101.266 104.308 101.58 104.308Z" fill="#040919"/>
<path d="M114.627 104.308C114.94 104.308 115.195 104.054 115.195 103.74C115.195 103.426 114.94 103.172 114.627 103.172C114.313 103.172 114.059 103.426 114.059 103.74C114.059 104.054 114.313 104.308 114.627 104.308Z" fill="#040919"/>
<path d="M108.107 108.083C108.421 108.083 108.675 107.828 108.675 107.514C108.675 107.201 108.421 106.946 108.107 106.946C107.793 106.946 107.539 107.201 107.539 107.514C107.539 107.828 107.793 108.083 108.107 108.083Z" fill="#040919"/>
<path d="M114.627 111.849C114.94 111.849 115.195 111.595 115.195 111.281C115.195 110.967 114.94 110.713 114.627 110.713C114.313 110.713 114.059 110.967 114.059 111.281C114.059 111.595 114.313 111.849 114.627 111.849Z" fill="#040919"/>
<path d="M121.154 108.083C121.468 108.083 121.722 107.828 121.722 107.514C121.722 107.201 121.468 106.946 121.154 106.946C120.84 106.946 120.586 107.201 120.586 107.514C120.586 107.828 120.84 108.083 121.154 108.083Z" fill="#040919"/>
<path d="M127.677 104.308C127.991 104.308 128.246 104.054 128.246 103.74C128.246 103.426 127.991 103.172 127.677 103.172C127.364 103.172 127.109 103.426 127.109 103.74C127.109 104.054 127.364 104.308 127.677 104.308Z" fill="#040919"/>
<path d="M134.213 100.542C134.526 100.542 134.781 100.288 134.781 99.9743C134.781 99.6606 134.526 99.4062 134.213 99.4062C133.899 99.4062 133.645 99.6606 133.645 99.9743C133.645 100.288 133.899 100.542 134.213 100.542Z" fill="#040919"/>
<path d="M108.107 93.0112C108.421 93.0112 108.675 92.7569 108.675 92.4431C108.675 92.1294 108.421 91.875 108.107 91.875C107.793 91.875 107.539 92.1294 107.539 92.4431C107.539 92.7569 107.793 93.0112 108.107 93.0112Z" fill="#040919"/>
<path d="M114.627 96.7768C114.94 96.7768 115.195 96.5225 115.195 96.2087C115.195 95.895 114.94 95.6406 114.627 95.6406C114.313 95.6406 114.059 95.895 114.059 96.2087C114.059 96.5225 114.313 96.7768 114.627 96.7768Z" fill="#040919"/>
<path d="M121.154 100.542C121.468 100.542 121.722 100.288 121.722 99.9743C121.722 99.6606 121.468 99.4062 121.154 99.4062C120.84 99.4062 120.586 99.6606 120.586 99.9743C120.586 100.288 120.84 100.542 121.154 100.542Z" fill="#040919"/>
<path d="M75.4705 119.379C75.7842 119.379 76.0386 119.125 76.0386 118.811C76.0386 118.498 75.7842 118.243 75.4705 118.243C75.1567 118.243 74.9023 118.498 74.9023 118.811C74.9023 119.125 75.1567 119.379 75.4705 119.379Z" fill="#040919"/>
<path d="M68.947 123.153C69.2608 123.153 69.5151 122.898 69.5151 122.585C69.5151 122.271 69.2608 122.017 68.947 122.017C68.6333 122.017 68.3789 122.271 68.3789 122.585C68.3789 122.898 68.6333 123.153 68.947 123.153Z" fill="#040919"/>
<path d="M75.4705 126.919C75.7842 126.919 76.0386 126.665 76.0386 126.351C76.0386 126.038 75.7842 125.783 75.4705 125.783C75.1567 125.783 74.9023 126.038 74.9023 126.351C74.9023 126.665 75.1567 126.919 75.4705 126.919Z" fill="#040919"/>
<path d="M127.677 89.2378C127.991 89.2378 128.246 88.9834 128.246 88.6697C128.246 88.3559 127.991 88.1016 127.677 88.1016C127.364 88.1016 127.109 88.3559 127.109 88.6697C127.109 88.9834 127.364 89.2378 127.677 89.2378Z" fill="#040919"/>
<path d="M121.154 93.0122C121.468 93.0122 121.722 92.7579 121.722 92.4441C121.722 92.1303 121.468 91.876 121.154 91.876C120.84 91.876 120.586 92.1303 120.586 92.4441C120.586 92.7579 120.84 93.0122 121.154 93.0122Z" fill="#040919"/>
<path d="M134.213 93.0112C134.526 93.0112 134.781 92.7569 134.781 92.4431C134.781 92.1294 134.526 91.875 134.213 91.875C133.899 91.875 133.645 92.1294 133.645 92.4431C133.645 92.7569 133.899 93.0112 134.213 93.0112Z" fill="#040919"/>
<path d="M127.677 96.7768C127.991 96.7768 128.246 96.5225 128.246 96.2087C128.246 95.895 127.991 95.6406 127.677 95.6406C127.364 95.6406 127.109 95.895 127.109 96.2087C127.109 96.5225 127.364 96.7768 127.677 96.7768Z" fill="#040919"/>
<path d="M140.74 96.7768C141.054 96.7768 141.308 96.5225 141.308 96.2087C141.308 95.895 141.054 95.6406 140.74 95.6406C140.426 95.6406 140.172 95.895 140.172 96.2087C140.172 96.5225 140.426 96.7768 140.74 96.7768Z" fill="#040919"/>
<path d="M147.263 93.0112C147.577 93.0112 147.831 92.7569 147.831 92.4431C147.831 92.1294 147.577 91.875 147.263 91.875C146.95 91.875 146.695 92.1294 146.695 92.4431C146.695 92.7569 146.95 93.0112 147.263 93.0112Z" fill="#040919"/>
<path d="M134.213 85.4721C134.526 85.4721 134.781 85.2178 134.781 84.904C134.781 84.5902 134.526 84.3359 134.213 84.3359C133.899 84.3359 133.645 84.5902 133.645 84.904C133.645 85.2178 133.899 85.4721 134.213 85.4721Z" fill="#040919"/>
<path d="M140.74 89.2378C141.054 89.2378 141.308 88.9834 141.308 88.6697C141.308 88.3559 141.054 88.1016 140.74 88.1016C140.426 88.1016 140.172 88.3559 140.172 88.6697C140.172 88.9834 140.426 89.2378 140.74 89.2378Z" fill="#040919"/>
<path d="M101.58 66.6353C101.894 66.6353 102.148 66.3809 102.148 66.0671C102.148 65.7534 101.894 65.499 101.58 65.499C101.266 65.499 101.012 65.7534 101.012 66.0671C101.012 66.3809 101.266 66.6353 101.58 66.6353Z" fill="#040919"/>
<path d="M81.9938 70.3999C82.3076 70.3999 82.562 70.1455 82.562 69.8318C82.562 69.518 82.3076 69.2637 81.9938 69.2637C81.6801 69.2637 81.4258 69.518 81.4258 69.8318C81.4258 70.1455 81.6801 70.3999 81.9938 70.3999Z" fill="#040919"/>
<path d="M88.5291 66.6353C88.8428 66.6353 89.0971 66.3809 89.0971 66.0671C89.0971 65.7534 88.8428 65.499 88.5291 65.499C88.2153 65.499 87.9609 65.7534 87.9609 66.0671C87.9609 66.3809 88.2153 66.6353 88.5291 66.6353Z" fill="#040919"/>
<path d="M75.4705 59.0952C75.7842 59.0952 76.0386 58.8408 76.0386 58.5271C76.0386 58.2133 75.7842 57.959 75.4705 57.959C75.1567 57.959 74.9023 58.2133 74.9023 58.5271C74.9023 58.8408 75.1567 59.0952 75.4705 59.0952Z" fill="#040919"/>
<path d="M68.947 62.8608C69.2608 62.8608 69.5151 62.6065 69.5151 62.2927C69.5151 61.979 69.2608 61.7246 68.947 61.7246C68.6333 61.7246 68.3789 61.979 68.3789 62.2927C68.3789 62.6065 68.6333 62.8608 68.947 62.8608Z" fill="#040919"/>
<path d="M75.4705 66.6353C75.7842 66.6353 76.0386 66.3809 76.0386 66.0671C76.0386 65.7534 75.7842 65.499 75.4705 65.499C75.1567 65.499 74.9023 65.7534 74.9023 66.0671C74.9023 66.3809 75.1567 66.6353 75.4705 66.6353Z" fill="#040919"/>
<path d="M81.9938 62.8608C82.3076 62.8608 82.562 62.6065 82.562 62.2927C82.562 61.979 82.3076 61.7246 81.9938 61.7246C81.6801 61.7246 81.4258 61.979 81.4258 62.2927C81.4258 62.6065 81.6801 62.8608 81.9938 62.8608Z" fill="#040919"/>
<path d="M95.0525 62.8608C95.3662 62.8608 95.6206 62.6065 95.6206 62.2927C95.6206 61.979 95.3662 61.7246 95.0525 61.7246C94.7387 61.7246 94.4844 61.979 94.4844 62.2927C94.4844 62.6065 94.7387 62.8608 95.0525 62.8608Z" fill="#040919"/>
<path d="M81.9938 55.3296C82.3076 55.3296 82.562 55.0752 82.562 54.7615C82.562 54.4477 82.3076 54.1934 81.9938 54.1934C81.6801 54.1934 81.4258 54.4477 81.4258 54.7615C81.4258 55.0752 81.6801 55.3296 81.9938 55.3296Z" fill="#040919"/>
<path d="M88.5291 59.0952C88.8428 59.0952 89.0971 58.8408 89.0971 58.5271C89.0971 58.2133 88.8428 57.959 88.5291 57.959C88.2153 57.959 87.9609 58.2133 87.9609 58.5271C87.9609 58.8408 88.2153 59.0952 88.5291 59.0952Z" fill="#040919"/>
<path d="M16.7361 93.0122C17.0498 93.0122 17.3042 92.7579 17.3042 92.4441C17.3042 92.1303 17.0498 91.876 16.7361 91.876C16.4223 91.876 16.168 92.1303 16.168 92.4441C16.168 92.7579 16.4223 93.0122 16.7361 93.0122Z" fill="#040919"/>
</g>
<path d="M1 92.443L81.9958 139.206L163 92.443L81.9958 45.6797L1 92.443Z" fill="url(#paint0_linear_369_4090)"/>
<path d="M1 92.4434L81.9958 139.207L163 92.4434" stroke="#5D688C" stroke-linecap="round" stroke-linejoin="round"/>
<path d="M51.5041 109.104C48.9964 107.652 48.9882 105.298 51.4798 103.845C53.9632 102.393 58.013 102.393 60.5127 103.845L67.0865 107.635C69.5943 109.088 69.6024 111.442 67.119 112.895C64.6274 114.347 60.5857 114.347 58.0779 112.895L51.5041 109.104Z" fill="#BCC0E5"/>
<path d="M68.4885 99.293C65.9807 97.8402 65.9726 95.4866 68.4641 94.0339C70.9476 92.5812 74.9974 92.5812 77.4971 94.0339L89.0945 100.729C91.6023 102.182 91.6105 104.536 89.127 105.989C86.6355 107.441 82.5938 107.441 80.086 105.989L68.4885 99.293Z" fill="#BCC0E5"/>
<path d="M101.762 80.083C99.2542 78.6303 99.246 76.2767 101.738 74.8239C104.221 73.3712 108.271 73.3712 110.77 74.8239L127.684 84.5873C130.192 86.04 130.2 88.3936 127.716 89.8463C125.233 91.299 121.183 91.299 118.675 89.8463L101.762 80.083Z" fill="#BCC0E5"/>
<path d="M85.1369 89.6835C82.6291 88.2308 82.6211 85.8772 85.1126 84.4245C87.5961 82.9718 91.6458 82.9718 94.1455 84.4245L102.773 89.4076C105.28 90.8604 105.289 93.2139 102.805 94.6667C100.314 96.1194 96.2718 96.1194 93.764 94.6667L85.1369 89.6835Z" fill="#BCC0E5"/>
<path d="M68.5238 60.4421C71.0316 58.9894 75.0733 58.9894 77.5567 60.4421C78.7984 61.1644 79.4233 62.1221 79.4152 63.0716V96.663C79.4152 97.6125 78.7822 98.5621 77.5323 99.2925C75.0246 100.745 70.9829 100.745 68.4914 99.2925C67.2496 98.5702 66.6328 97.6125 66.6328 96.663V63.0716C66.6328 62.1221 67.2659 61.1725 68.5157 60.4421H68.5238Z" fill="#040919"/>
<path d="M77.5596 60.4421C80.0673 61.8948 80.0754 64.2484 77.592 65.7011C75.1004 67.1538 71.0588 67.1538 68.551 65.7011C66.0432 64.2484 66.0351 61.8948 68.5266 60.4421C71.0101 58.9894 75.0599 58.9894 77.5596 60.4421Z" fill="#A569F8"/>
<path d="M66.6653 63.0713C66.6653 64.0208 67.2983 64.9704 68.5482 65.7008C69.7899 66.4231 71.4049 66.7802 73.0281 66.7883V100.38C71.3887 100.38 69.7412 100.023 68.4914 99.2922C67.2496 98.5699 66.6328 97.6122 66.6328 96.6627V63.0713H66.6572H66.6653Z" fill="#6520C2"/>
<path d="M101.789 29.0261C104.297 27.5733 108.339 27.5733 110.822 29.0261C112.064 29.7484 112.689 30.706 112.681 31.6556V77.4531C112.681 78.4027 112.048 79.3523 110.798 80.0827C108.29 81.5354 104.249 81.5354 101.757 80.0827C100.515 79.3604 99.8984 78.4027 99.8984 77.4531V31.6556C99.8984 30.706 100.531 29.7565 101.781 29.0261H101.789Z" fill="#040919"/>
<path d="M110.829 29.0264C112.087 29.7568 112.712 30.7145 112.712 31.664C112.712 32.6136 112.095 33.555 110.854 34.2773C108.362 35.7301 104.32 35.7301 101.813 34.2773C100.555 33.5469 99.9297 32.5893 99.9297 31.6397C99.9297 30.6901 100.546 29.7487 101.788 29.0183C104.272 27.5655 108.321 27.5655 110.821 29.0183L110.829 29.0264Z" fill="#A569F8"/>
<path d="M99.9309 31.6553C99.9309 32.6048 100.564 33.5544 101.814 34.2848C103.056 35.0071 104.671 35.3642 106.294 35.3723V81.178C104.654 81.178 103.007 80.8209 101.757 80.0904C100.515 79.3681 99.8984 78.4105 99.8984 77.4609V31.6634H99.9228L99.9309 31.6553Z" fill="#6520C2"/>
<path d="M101.789 2.08955C104.297 0.636817 108.339 0.636817 110.822 2.08955C112.064 2.81186 112.689 3.76951 112.681 4.71906V17.8099C112.681 18.7594 112.048 19.709 110.798 20.4394C108.29 21.8921 104.249 21.8921 101.757 20.4394C100.515 19.7171 99.8984 18.7594 99.8984 17.8099V4.71906C99.8984 3.76951 100.531 2.81997 101.781 2.08955H101.789Z" stroke="#A569F8" stroke-linecap="round" stroke-linejoin="round"/>
<path d="M110.833 2.08955C113.341 3.54228 113.349 5.89585 110.865 7.34858C108.374 8.80131 104.332 8.80131 101.824 7.34858C99.3167 5.89585 99.3085 3.54228 101.8 2.08955C104.284 0.636817 108.333 0.636817 110.833 2.08955Z" stroke="#A569F8" stroke-linecap="round" stroke-linejoin="round"/>
<path d="M68.5238 19.9763C71.0316 18.5235 75.0733 18.5235 77.5567 19.9763C78.7984 20.6986 79.4233 21.6563 79.4152 22.6058V52.4233C79.4152 53.3729 78.7822 54.3224 77.5323 55.0528C75.0246 56.5056 70.9829 56.5056 68.4914 55.0528C67.2496 54.3305 66.6328 53.3729 66.6328 52.4233V22.6058C66.6328 21.6563 67.2659 20.7067 68.5157 19.9763H68.5238Z" stroke="#A569F8" stroke-linecap="round" stroke-linejoin="round"/>
<path d="M77.5596 19.9763C80.0673 21.429 80.0754 23.7826 77.592 25.2353C75.1004 26.6881 71.0588 26.6881 68.551 25.2353C66.0432 23.7826 66.0351 21.429 68.5266 19.9763C71.0182 18.5235 75.0599 18.5235 77.5596 19.9763Z" stroke="#A569F8" stroke-linecap="round" stroke-linejoin="round"/>
<path d="M85.1722 63.7204C87.68 62.2677 91.7217 62.2677 94.2052 63.7204C95.4469 64.4427 96.0718 65.4004 96.0637 66.3499V87.0534C96.0637 88.0029 95.4306 88.9525 94.1808 89.6829C91.673 91.1356 87.6313 91.1356 85.1398 89.6829C83.898 88.9606 83.2812 88.0029 83.2812 87.0534V66.3499C83.2812 65.4004 83.9143 64.4508 85.1641 63.7204H85.1722Z" fill="#040919"/>
<path d="M94.2158 63.7204C96.7236 65.1731 96.7317 67.5267 94.2483 68.9794C91.7567 70.4322 87.715 70.4322 85.2072 68.9794C82.6995 67.5267 82.6914 65.1731 85.1829 63.7204C87.6664 62.2677 91.7162 62.2677 94.2158 63.7204Z" fill="#A569F8"/>
<path d="M83.3137 66.3496C83.3137 67.2992 83.9467 68.2487 85.1966 68.9791C86.4383 69.7014 88.0534 70.0585 89.6765 70.0667V90.7701C88.0371 90.7701 86.3896 90.413 85.1398 89.6826C83.898 88.9603 83.2812 88.0026 83.2812 87.0531V66.3496H83.3056H83.3137Z" fill="#6520C2"/>
<path d="M85.1722 43.0173C87.68 41.5646 91.7217 41.5646 94.2052 43.0173C95.4469 43.7396 96.0718 44.6972 96.0637 45.6468V66.3502C96.0637 67.2998 95.4306 68.2493 94.1808 68.9798C91.673 70.4325 87.6313 70.4325 85.1398 68.9798C83.898 68.2575 83.2812 67.2998 83.2812 66.3502V45.6468C83.2812 44.6972 83.9143 43.7477 85.1641 43.0173H85.1722Z" stroke="#A569F8" stroke-linecap="round" stroke-linejoin="round"/>
<path d="M94.208 43.0173C96.7158 44.47 96.7239 46.8236 94.2405 48.2764C91.7489 49.7291 87.7072 49.7291 85.1994 48.2764C82.6916 46.8236 82.6836 44.47 85.1751 43.0173C87.6586 41.5646 91.7083 41.5646 94.208 43.0173Z" stroke="#A569F8" stroke-linecap="round" stroke-linejoin="round"/>
<path d="M51.5394 96.9802C54.0472 95.5274 58.0889 95.5274 60.5723 96.9802C61.8141 97.7025 62.439 98.6602 62.4308 99.6097V106.476C62.4308 107.425 61.7978 108.375 60.548 109.105C58.0402 110.558 53.9985 110.558 51.507 109.105C50.2653 108.383 49.6484 107.425 49.6484 106.476V99.6097C49.6484 98.6602 50.2815 97.7106 51.5313 96.9802H51.5394Z" fill="#040919"/>
<path d="M60.5752 96.9802C63.083 98.4329 63.0911 100.787 60.6076 102.239C58.1161 103.692 54.0744 103.692 51.5666 102.239C49.0588 100.787 49.0507 98.4329 51.5423 96.9802C54.0257 95.5274 58.0755 95.5274 60.5752 96.9802Z" fill="#A569F8"/>
<path d="M49.6809 99.6094C49.6809 100.559 50.3139 101.508 51.5638 102.239C52.8055 102.961 54.4205 103.318 56.0437 103.326V110.192C54.4043 110.192 52.7568 109.835 51.507 109.105C50.2653 108.383 49.6484 107.425 49.6484 106.475V99.6094H49.6728H49.6809Z" fill="#6520C2"/>
<defs>
<linearGradient id="paint0_linear_369_4090" x1="1" y1="92.443" x2="163" y2="92.443" gradientUnits="userSpaceOnUse">
<stop stop-color="#D0D3F5"/>
<stop offset="0.06" stop-color="#D0D3F5" stop-opacity="0.78"/>
<stop offset="0.14" stop-color="#D0D3F5" stop-opacity="0.55"/>
<stop offset="0.21" stop-color="#D0D3F5" stop-opacity="0.35"/>
<stop offset="0.28" stop-color="#D0D3F5" stop-opacity="0.2"/>
<stop offset="0.35" stop-color="#D0D3F5" stop-opacity="0.09"/>
<stop offset="0.4" stop-color="#D0D3F5" stop-opacity="0.02"/>
<stop offset="0.45" stop-color="#D0D3F5" stop-opacity="0"/>
</linearGradient>
</defs>
</svg>
