<svg width="124" height="62" viewBox="0 0 124 62" fill="none" xmlns="http://www.w3.org/2000/svg">
<path d="M7.96012 31.8823C11.4758 31.8823 14.0408 32.5577 15.6549 33.9085C17.269 35.2592 18.0761 37.3407 18.0761 40.1529C18.0761 42.9651 17.2469 45.0244 15.5886 46.3309C13.9523 47.6373 11.4316 48.2906 8.02646 48.2906H3.91373V54.0996C3.91373 54.6519 3.46601 55.0996 2.91373 55.0996H1C0.447715 55.0996 0 54.6519 0 54.0996L0 32.8823C0 32.3301 0.447715 31.8823 1 31.8823H7.96012ZM8.45763 44.7366C12.8689 43.5076 12.095 44.3269 12.8689 43.5076C13.6649 42.6662 14.0629 41.4483 14.0629 39.8539C14.0629 38.2375 13.5654 37.0971 12.5704 36.4328C11.5753 35.7685 10.0165 35.4364 7.89379 35.4364H3.91373V44.7366H8.45763Z" fill="white"/>
<path d="M31.3958 40.9168C29.5606 40.9168 28.1786 41.5147 27.25 42.7104C26.3213 43.9062 25.8569 45.5116 25.8569 47.5266V54.0996C25.8569 54.6519 25.4092 55.0996 24.8569 55.0996H23.1422C22.5899 55.0996 22.1422 54.6519 22.1422 54.0996V38.4293C22.1422 37.877 22.5899 37.4293 23.1422 37.4293H24.8569C25.4092 37.4293 25.8569 37.877 25.8569 38.4293V40.9833C26.4539 39.8761 27.261 38.9682 28.2781 38.2596C29.0108 37.7601 29.7709 37.4311 30.5585 37.2727C31.1039 37.1631 31.5657 37.6176 31.5706 38.174L31.5931 40.7178C31.5941 40.8274 31.5055 40.9168 31.3958 40.9168Z" fill="white"/>
<path d="M39.4376 50.4495C40.4989 51.5124 41.8367 52.0439 43.4508 52.0439C45.065 52.0439 46.3917 51.5124 47.4309 50.4495C48.4922 49.3645 49.0229 47.9695 49.0229 46.2644C49.0229 44.5594 48.4922 43.1754 47.4309 42.1126C46.3917 41.0275 45.065 40.485 43.4508 40.485C41.8367 40.485 40.4989 41.0275 39.4376 42.1126C38.3984 43.1754 37.8787 44.5594 37.8787 46.2644C37.8787 47.9695 38.3984 49.3645 39.4376 50.4495ZM50.0843 52.7414C48.3153 54.4907 46.1042 55.3654 43.4508 55.3654C40.7975 55.3654 38.5863 54.4907 36.8174 52.7414C35.0485 50.9699 34.164 48.8109 34.164 46.2644C34.164 43.718 35.0485 41.5701 36.8174 39.8207C38.5863 38.0493 40.7975 37.1635 43.4508 37.1635C46.1042 37.1635 48.3153 38.0493 50.0843 39.8207C51.8532 41.5701 52.7376 43.718 52.7376 46.2644C52.7376 48.8109 51.8532 50.9699 50.0843 52.7414Z" fill="white"/>
<path d="M66.4139 37.1635C68.7798 37.1635 70.803 37.9828 72.4835 39.6214C74.164 41.26 75.0042 43.4412 75.0042 46.1648C75.0042 48.8884 74.164 51.1028 72.4835 52.8078C70.8252 54.5128 68.8793 55.3654 66.6461 55.3654C64.435 55.3654 62.4449 54.391 60.676 52.4424V60.5433C60.676 61.0956 60.2283 61.5433 59.676 61.5433H57.9613C57.409 61.5433 56.9613 61.0956 56.9613 60.5433V38.4293C56.9613 37.877 57.409 37.4293 57.9613 37.4293H59.676C60.2283 37.4293 60.676 37.877 60.676 38.4293V40.5182C62.1353 38.2818 64.048 37.1635 66.4139 37.1635ZM60.6097 46.2977C60.6097 47.9806 61.1182 49.3645 62.1354 50.4495C63.1525 51.5124 64.3907 52.0439 65.8501 52.0439C67.3094 52.0439 68.5808 51.5124 69.6643 50.4495C70.7478 49.3867 71.2895 48.0138 71.2895 46.3309C71.2895 44.6258 70.7588 43.2197 69.6975 42.1126C68.6361 40.9833 67.3647 40.4186 65.8832 40.4186C64.4018 40.4186 63.1525 40.9833 62.1354 42.1126C61.1182 43.2197 60.6097 44.6148 60.6097 46.2977Z" fill="white"/>
<path d="M95.6632 47.892H81.8325C81.921 49.1763 82.5069 50.217 83.5904 51.0142C84.6738 51.7892 85.9121 52.1767 87.3051 52.1767C89.0383 52.1767 90.4454 51.7482 91.5265 50.8911C92.0032 50.5131 92.7134 50.4861 93.1236 50.9354L93.8364 51.7161C94.1922 52.1058 94.1874 52.7099 93.7867 53.0532C91.9874 54.5946 89.7384 55.3654 87.0398 55.3654C84.5633 55.3654 82.4516 54.546 80.7048 52.9074C78.9801 51.2467 78.1178 49.0324 78.1178 46.2644C78.1178 43.4744 79.0023 41.26 80.7712 39.6214C82.5401 37.9828 84.6186 37.1635 87.0066 37.1635C89.4167 37.1635 91.4621 37.8943 93.1425 39.3557C94.823 40.795 95.6632 42.7879 95.6632 45.3344V47.892ZM81.8325 44.9691H91.9485C91.9485 43.4855 91.4842 42.3451 90.5555 41.5479C89.6268 40.7508 88.477 40.3522 87.1061 40.3522C85.7573 40.3522 84.5412 40.7729 83.4577 41.6143C82.3742 42.4336 81.8325 43.5519 81.8325 44.9691Z" fill="white"/>
<path d="M103.463 54.0996C103.463 54.6519 103.015 55.0996 102.463 55.0996H100.748C100.196 55.0996 99.7482 54.6519 99.7482 54.0996V31.4541C99.7482 30.9018 100.196 30.4541 100.748 30.4541H102.463C103.015 30.4541 103.463 30.9018 103.463 31.4541V54.0996Z" fill="white"/>
<path d="M112.564 45.1648C112.564 45.7171 112.117 46.1648 111.564 46.1648H109.85C109.297 46.1648 108.85 45.7171 108.85 45.1648V31.4541C108.85 30.9018 109.297 30.4541 109.85 30.4541H111.564C112.117 30.4541 112.564 30.9018 112.564 31.4541V45.1648Z" fill="white"/>
<path fill-rule="evenodd" clip-rule="evenodd" d="M99.7507 11.1129L99.7507 24.406L112.18 24.406V11.0285L106.625 4.23864L99.7507 11.1129ZM96.8026 10.7243C96.8026 10.1912 97.0144 9.67997 97.3913 9.30301L105.273 1.42108C106.114 0.58018 107.497 0.649166 108.25 1.56956L114.674 9.4208C114.968 9.77993 115.128 10.2296 115.128 10.6937L115.128 25.344C115.128 26.4542 114.228 27.3541 113.118 27.3541L98.8127 27.3541C97.7025 27.3541 96.8026 26.4541 96.8026 25.344L96.8026 10.7243Z" fill="white"/>
</svg>
