<svg width="638" height="630" viewBox="0 0 638 630" fill="none" xmlns="http://www.w3.org/2000/svg">
<path d="M137.635 218.393L25.2959 153.529L10.2578 162.21L137.635 235.754L265.038 162.197L250 153.517L137.635 218.393Z" fill="#BCC0E5"/>
<path d="M202.051 198.478L187.09 189.836" stroke="white" stroke-miterlimit="10"/>
<g opacity="0.25">
<path d="M106.847 139.807C107.34 139.807 107.74 139.407 107.74 138.914C107.74 138.42 107.34 138.02 106.847 138.02C106.353 138.02 105.953 138.42 105.953 138.914C105.953 139.407 106.353 139.807 106.847 139.807Z" fill="#040919"/>
<path d="M117.108 145.73C117.602 145.73 118.002 145.33 118.002 144.836C118.002 144.343 117.602 143.943 117.108 143.943C116.615 143.943 116.215 144.343 116.215 144.836C116.215 145.33 116.615 145.73 117.108 145.73Z" fill="#040919"/>
<path d="M106.847 151.654C107.34 151.654 107.74 151.254 107.74 150.76C107.74 150.267 107.34 149.867 106.847 149.867C106.353 149.867 105.953 150.267 105.953 150.76C105.953 151.254 106.353 151.654 106.847 151.654Z" fill="#040919"/>
<path d="M127.374 151.654C127.868 151.654 128.268 151.254 128.268 150.76C128.268 150.267 127.868 149.867 127.374 149.867C126.88 149.867 126.48 150.267 126.48 150.76C126.48 151.254 126.88 151.654 127.374 151.654Z" fill="#040919"/>
<path d="M117.108 157.589C117.602 157.589 118.002 157.189 118.002 156.696C118.002 156.202 117.602 155.802 117.108 155.802C116.615 155.802 116.215 156.202 116.215 156.696C116.215 157.189 116.615 157.589 117.108 157.589Z" fill="#040919"/>
<path d="M106.847 163.514C107.34 163.514 107.74 163.114 107.74 162.62C107.74 162.127 107.34 161.727 106.847 161.727C106.353 161.727 105.953 162.127 105.953 162.62C105.953 163.114 106.353 163.514 106.847 163.514Z" fill="#040919"/>
<path d="M137.636 157.589C138.129 157.589 138.529 157.189 138.529 156.696C138.529 156.202 138.129 155.802 137.636 155.802C137.142 155.802 136.742 156.202 136.742 156.696C136.742 157.189 137.142 157.589 137.636 157.589Z" fill="#040919"/>
<path d="M127.374 163.514C127.868 163.514 128.268 163.114 128.268 162.62C128.268 162.127 127.868 161.727 127.374 161.727C126.88 161.727 126.48 162.127 126.48 162.62C126.48 163.114 126.88 163.514 127.374 163.514Z" fill="#040919"/>
<path d="M117.108 169.437C117.602 169.437 118.002 169.037 118.002 168.543C118.002 168.05 117.602 167.649 117.108 167.649C116.615 167.649 116.215 168.05 116.215 168.543C116.215 169.037 116.615 169.437 117.108 169.437Z" fill="#040919"/>
<path d="M106.847 175.359C107.34 175.359 107.74 174.959 107.74 174.466C107.74 173.972 107.34 173.572 106.847 173.572C106.353 173.572 105.953 173.972 105.953 174.466C105.953 174.959 106.353 175.359 106.847 175.359Z" fill="#040919"/>
<path d="M137.636 169.437C138.129 169.437 138.529 169.037 138.529 168.543C138.529 168.05 138.129 167.649 137.636 167.649C137.142 167.649 136.742 168.05 136.742 168.543C136.742 169.037 137.142 169.437 137.636 169.437Z" fill="#040919"/>
<path d="M127.374 175.359C127.868 175.359 128.268 174.959 128.268 174.466C128.268 173.972 127.868 173.572 127.374 173.572C126.88 173.572 126.48 173.972 126.48 174.466C126.48 174.959 126.88 175.359 127.374 175.359Z" fill="#040919"/>
<path d="M147.901 163.514C148.395 163.514 148.795 163.114 148.795 162.62C148.795 162.127 148.395 161.727 147.901 161.727C147.408 161.727 147.008 162.127 147.008 162.62C147.008 163.114 147.408 163.514 147.901 163.514Z" fill="#040919"/>
<path d="M117.108 181.296C117.602 181.296 118.002 180.896 118.002 180.402C118.002 179.909 117.602 179.509 117.108 179.509C116.615 179.509 116.215 179.909 116.215 180.402C116.215 180.896 116.615 181.296 117.108 181.296Z" fill="#040919"/>
<path d="M106.847 187.219C107.34 187.219 107.74 186.819 107.74 186.325C107.74 185.832 107.34 185.432 106.847 185.432C106.353 185.432 105.953 185.832 105.953 186.325C105.953 186.819 106.353 187.219 106.847 187.219Z" fill="#040919"/>
<path d="M96.5811 145.73C97.0746 145.73 97.4747 145.33 97.4747 144.836C97.4747 144.343 97.0746 143.943 96.5811 143.943C96.0876 143.943 95.6875 144.343 95.6875 144.836C95.6875 145.33 96.0876 145.73 96.5811 145.73Z" fill="#040919"/>
<path d="M127.374 127.947C127.868 127.947 128.268 127.547 128.268 127.054C128.268 126.56 127.868 126.16 127.374 126.16C126.88 126.16 126.48 126.56 126.48 127.054C126.48 127.547 126.88 127.947 127.374 127.947Z" fill="#040919"/>
<path d="M137.636 133.884C138.129 133.884 138.529 133.484 138.529 132.991C138.529 132.497 138.129 132.097 137.636 132.097C137.142 132.097 136.742 132.497 136.742 132.991C136.742 133.484 137.142 133.884 137.636 133.884Z" fill="#040919"/>
<path d="M127.374 139.807C127.868 139.807 128.268 139.407 128.268 138.914C128.268 138.42 127.868 138.02 127.374 138.02C126.88 138.02 126.48 138.42 126.48 138.914C126.48 139.407 126.88 139.807 127.374 139.807Z" fill="#040919"/>
<path d="M147.901 139.807C148.395 139.807 148.795 139.407 148.795 138.914C148.795 138.42 148.395 138.02 147.901 138.02C147.408 138.02 147.008 138.42 147.008 138.914C147.008 139.407 147.408 139.807 147.901 139.807Z" fill="#040919"/>
<path d="M137.636 145.73C138.129 145.73 138.529 145.33 138.529 144.836C138.529 144.343 138.129 143.943 137.636 143.943C137.142 143.943 136.742 144.343 136.742 144.836C136.742 145.33 137.142 145.73 137.636 145.73Z" fill="#040919"/>
<path d="M158.167 145.73C158.661 145.73 159.061 145.33 159.061 144.836C159.061 144.343 158.661 143.943 158.167 143.943C157.673 143.943 157.273 144.343 157.273 144.836C157.273 145.33 157.673 145.73 158.167 145.73Z" fill="#040919"/>
<path d="M147.901 151.654C148.395 151.654 148.795 151.254 148.795 150.76C148.795 150.267 148.395 149.867 147.901 149.867C147.408 149.867 147.008 150.267 147.008 150.76C147.008 151.254 147.408 151.654 147.901 151.654Z" fill="#040919"/>
<path d="M158.167 157.589C158.661 157.589 159.061 157.189 159.061 156.696C159.061 156.202 158.661 155.802 158.167 155.802C157.673 155.802 157.273 156.202 157.273 156.696C157.273 157.189 157.673 157.589 158.167 157.589Z" fill="#040919"/>
<path d="M168.441 151.654C168.934 151.654 169.334 151.254 169.334 150.76C169.334 150.267 168.934 149.867 168.441 149.867C167.947 149.867 167.547 150.267 167.547 150.76C167.547 151.254 167.947 151.654 168.441 151.654Z" fill="#040919"/>
<path d="M178.706 145.73C179.2 145.73 179.6 145.33 179.6 144.836C179.6 144.343 179.2 143.943 178.706 143.943C178.213 143.943 177.812 144.343 177.812 144.836C177.812 145.33 178.213 145.73 178.706 145.73Z" fill="#040919"/>
<path d="M188.968 139.807C189.461 139.807 189.861 139.407 189.861 138.914C189.861 138.42 189.461 138.02 188.968 138.02C188.474 138.02 188.074 138.42 188.074 138.914C188.074 139.407 188.474 139.807 188.968 139.807Z" fill="#040919"/>
<path d="M117.108 133.884C117.602 133.884 118.002 133.484 118.002 132.991C118.002 132.497 117.602 132.097 117.108 132.097C116.615 132.097 116.215 132.497 116.215 132.991C116.215 133.484 116.615 133.884 117.108 133.884Z" fill="#040919"/>
<path d="M147.901 127.947C148.395 127.947 148.795 127.547 148.795 127.054C148.795 126.56 148.395 126.16 147.901 126.16C147.408 126.16 147.008 126.56 147.008 127.054C147.008 127.547 147.408 127.947 147.901 127.947Z" fill="#040919"/>
<path d="M158.167 133.884C158.661 133.884 159.061 133.484 159.061 132.991C159.061 132.497 158.661 132.097 158.167 132.097C157.673 132.097 157.273 132.497 157.273 132.991C157.273 133.484 157.673 133.884 158.167 133.884Z" fill="#040919"/>
<path d="M168.441 139.807C168.934 139.807 169.334 139.407 169.334 138.914C169.334 138.42 168.934 138.02 168.441 138.02C167.947 138.02 167.547 138.42 167.547 138.914C167.547 139.407 167.947 139.807 168.441 139.807Z" fill="#040919"/>
<path d="M137.636 122.025C138.129 122.025 138.529 121.624 138.529 121.131C138.529 120.637 138.129 120.237 137.636 120.237C137.142 120.237 136.742 120.637 136.742 121.131C136.742 121.624 137.142 122.025 137.636 122.025Z" fill="#040919"/>
<path d="M86.3038 151.654C86.7973 151.654 87.1973 151.254 87.1973 150.76C87.1973 150.267 86.7973 149.867 86.3038 149.867C85.8103 149.867 85.4102 150.267 85.4102 150.76C85.4102 151.254 85.8103 151.654 86.3038 151.654Z" fill="#040919"/>
<path d="M96.5811 157.589C97.0746 157.589 97.4747 157.189 97.4747 156.696C97.4747 156.202 97.0746 155.802 96.5811 155.802C96.0876 155.802 95.6875 156.202 95.6875 156.696C95.6875 157.189 96.0876 157.589 96.5811 157.589Z" fill="#040919"/>
<path d="M76.0421 157.589C76.5356 157.589 76.9357 157.189 76.9357 156.696C76.9357 156.202 76.5356 155.802 76.0421 155.802C75.5485 155.802 75.1484 156.202 75.1484 156.696C75.1484 157.189 75.5485 157.589 76.0421 157.589Z" fill="#040919"/>
<path d="M86.3038 163.514C86.7973 163.514 87.1973 163.114 87.1973 162.62C87.1973 162.127 86.7973 161.727 86.3038 161.727C85.8103 161.727 85.4102 162.127 85.4102 162.62C85.4102 163.114 85.8103 163.514 86.3038 163.514Z" fill="#040919"/>
<path d="M96.5811 169.437C97.0746 169.437 97.4747 169.037 97.4747 168.543C97.4747 168.05 97.0746 167.649 96.5811 167.649C96.0876 167.649 95.6875 168.05 95.6875 168.543C95.6875 169.037 96.0876 169.437 96.5811 169.437Z" fill="#040919"/>
<path d="M76.0421 169.437C76.5356 169.437 76.9357 169.037 76.9357 168.543C76.9357 168.05 76.5356 167.649 76.0421 167.649C75.5485 167.649 75.1484 168.05 75.1484 168.543C75.1484 169.037 75.5485 169.437 76.0421 169.437Z" fill="#040919"/>
<path d="M86.3038 175.359C86.7973 175.359 87.1973 174.959 87.1973 174.466C87.1973 173.972 86.7973 173.572 86.3038 173.572C85.8103 173.572 85.4102 173.972 85.4102 174.466C85.4102 174.959 85.8103 175.359 86.3038 175.359Z" fill="#040919"/>
<path d="M65.7764 163.514C66.27 163.514 66.6701 163.114 66.6701 162.62C66.6701 162.127 66.27 161.727 65.7764 161.727C65.2829 161.727 64.8828 162.127 64.8828 162.62C64.8828 163.114 65.2829 163.514 65.7764 163.514Z" fill="#040919"/>
<path d="M96.5811 181.296C97.0746 181.296 97.4747 180.896 97.4747 180.402C97.4747 179.909 97.0746 179.509 96.5811 179.509C96.0876 179.509 95.6875 179.909 95.6875 180.402C95.6875 180.896 96.0876 181.296 96.5811 181.296Z" fill="#040919"/>
<path d="M76.0421 145.73C76.5356 145.73 76.9357 145.33 76.9357 144.836C76.9357 144.343 76.5356 143.943 76.0421 143.943C75.5485 143.943 75.1484 144.343 75.1484 144.836C75.1484 145.33 75.5485 145.73 76.0421 145.73Z" fill="#040919"/>
<path d="M65.7764 151.654C66.27 151.654 66.6701 151.254 66.6701 150.76C66.6701 150.267 66.27 149.867 65.7764 149.867C65.2829 149.867 64.8828 150.267 64.8828 150.76C64.8828 151.254 65.2829 151.654 65.7764 151.654Z" fill="#040919"/>
<path d="M96.5811 133.884C97.0746 133.884 97.4747 133.484 97.4747 132.991C97.4747 132.497 97.0746 132.097 96.5811 132.097C96.0876 132.097 95.6875 132.497 95.6875 132.991C95.6875 133.484 96.0876 133.884 96.5811 133.884Z" fill="#040919"/>
<path d="M86.3038 139.807C86.7973 139.807 87.1973 139.407 87.1973 138.914C87.1973 138.42 86.7973 138.02 86.3038 138.02C85.8103 138.02 85.4102 138.42 85.4102 138.914C85.4102 139.407 85.8103 139.807 86.3038 139.807Z" fill="#040919"/>
<path d="M106.847 127.947C107.34 127.947 107.74 127.547 107.74 127.054C107.74 126.56 107.34 126.16 106.847 126.16C106.353 126.16 105.953 126.56 105.953 127.054C105.953 127.547 106.353 127.947 106.847 127.947Z" fill="#040919"/>
<path d="M55.5147 157.589C56.0082 157.589 56.4083 157.189 56.4083 156.696C56.4083 156.202 56.0082 155.802 55.5147 155.802C55.0212 155.802 54.6211 156.202 54.6211 156.696C54.6211 157.189 55.0212 157.589 55.5147 157.589Z" fill="#040919"/>
<path d="M76.0421 122.025C76.5356 122.025 76.9357 121.624 76.9357 121.131C76.9357 120.637 76.5356 120.237 76.0421 120.237C75.5485 120.237 75.1484 120.637 75.1484 121.131C75.1484 121.624 75.5485 122.025 76.0421 122.025Z" fill="#040919"/>
<path d="M65.7764 127.947C66.27 127.947 66.6701 127.547 66.6701 127.054C66.6701 126.56 66.27 126.16 65.7764 126.16C65.2829 126.16 64.8828 126.56 64.8828 127.054C64.8828 127.547 65.2829 127.947 65.7764 127.947Z" fill="#040919"/>
<path d="M55.5147 133.884C56.0082 133.884 56.4083 133.484 56.4083 132.991C56.4083 132.497 56.0082 132.097 55.5147 132.097C55.0212 132.097 54.6211 132.497 54.6211 132.991C54.6211 133.484 55.0212 133.884 55.5147 133.884Z" fill="#040919"/>
<path d="M45.2491 139.807C45.7426 139.807 46.1427 139.407 46.1427 138.914C46.1427 138.42 45.7426 138.02 45.2491 138.02C44.7556 138.02 44.3555 138.42 44.3555 138.914C44.3555 139.407 44.7556 139.807 45.2491 139.807Z" fill="#040919"/>
<path d="M76.0421 133.884C76.5356 133.884 76.9357 133.484 76.9357 132.991C76.9357 132.497 76.5356 132.097 76.0421 132.097C75.5485 132.097 75.1484 132.497 75.1484 132.991C75.1484 133.484 75.5485 133.884 76.0421 133.884Z" fill="#040919"/>
<path d="M65.7764 139.807C66.27 139.807 66.6701 139.407 66.6701 138.914C66.6701 138.42 66.27 138.02 65.7764 138.02C65.2829 138.02 64.8828 138.42 64.8828 138.914C64.8828 139.407 65.2829 139.807 65.7764 139.807Z" fill="#040919"/>
<path d="M86.3038 127.947C86.7973 127.947 87.1973 127.547 87.1973 127.054C87.1973 126.56 86.7973 126.16 86.3038 126.16C85.8103 126.16 85.4102 126.56 85.4102 127.054C85.4102 127.547 85.8103 127.947 86.3038 127.947Z" fill="#040919"/>
<path d="M55.5147 145.73C56.0082 145.73 56.4083 145.33 56.4083 144.836C56.4083 144.343 56.0082 143.943 55.5147 143.943C55.0212 143.943 54.6211 144.343 54.6211 144.836C54.6211 145.33 55.0212 145.73 55.5147 145.73Z" fill="#040919"/>
<path d="M45.2491 151.654C45.7426 151.654 46.1427 151.254 46.1427 150.76C46.1427 150.267 45.7426 149.867 45.2491 149.867C44.7556 149.867 44.3555 150.267 44.3555 150.76C44.3555 151.254 44.7556 151.654 45.2491 151.654Z" fill="#040919"/>
<path d="M117.108 122.025C117.602 122.025 118.002 121.624 118.002 121.131C118.002 120.637 117.602 120.237 117.108 120.237C116.615 120.237 116.215 120.637 116.215 121.131C116.215 121.624 116.615 122.025 117.108 122.025Z" fill="#040919"/>
<path d="M96.5811 110.165C97.0746 110.165 97.4747 109.765 97.4747 109.272C97.4747 108.778 97.0746 108.378 96.5811 108.378C96.0876 108.378 95.6875 108.778 95.6875 109.272C95.6875 109.765 96.0876 110.165 96.5811 110.165Z" fill="#040919"/>
<path d="M86.3038 116.101C86.7973 116.101 87.1973 115.701 87.1973 115.207C87.1973 114.714 86.7973 114.313 86.3038 114.313C85.8103 114.313 85.4102 114.714 85.4102 115.207C85.4102 115.701 85.8103 116.101 86.3038 116.101Z" fill="#040919"/>
<path d="M96.5811 122.025C97.0746 122.025 97.4747 121.624 97.4747 121.131C97.4747 120.637 97.0746 120.237 96.5811 120.237C96.0876 120.237 95.6875 120.637 95.6875 121.131C95.6875 121.624 96.0876 122.025 96.5811 122.025Z" fill="#040919"/>
<path d="M106.847 116.101C107.34 116.101 107.74 115.701 107.74 115.207C107.74 114.714 107.34 114.313 106.847 114.313C106.353 114.313 105.953 114.714 105.953 115.207C105.953 115.701 106.353 116.101 106.847 116.101Z" fill="#040919"/>
<path d="M127.374 116.101C127.868 116.101 128.268 115.701 128.268 115.207C128.268 114.714 127.868 114.313 127.374 114.313C126.88 114.313 126.48 114.714 126.48 115.207C126.48 115.701 126.88 116.101 127.374 116.101Z" fill="#040919"/>
<path d="M106.847 104.241C107.34 104.241 107.74 103.841 107.74 103.347C107.74 102.854 107.34 102.454 106.847 102.454C106.353 102.454 105.953 102.854 105.953 103.347C105.953 103.841 106.353 104.241 106.847 104.241Z" fill="#040919"/>
<path d="M117.108 110.165C117.602 110.165 118.002 109.765 118.002 109.272C118.002 108.778 117.602 108.378 117.108 108.378C116.615 108.378 116.215 108.778 116.215 109.272C116.215 109.765 116.615 110.165 117.108 110.165Z" fill="#040919"/>
<path d="M158.167 110.165C158.661 110.165 159.061 109.765 159.061 109.272C159.061 108.778 158.661 108.378 158.167 108.378C157.673 108.378 157.273 108.778 157.273 109.272C157.273 109.765 157.673 110.165 158.167 110.165Z" fill="#040919"/>
<path d="M168.441 116.101C168.934 116.101 169.334 115.701 169.334 115.207C169.334 114.714 168.934 114.313 168.441 114.313C167.947 114.313 167.547 114.714 167.547 115.207C167.547 115.701 167.947 116.101 168.441 116.101Z" fill="#040919"/>
<path d="M158.167 122.025C158.661 122.025 159.061 121.624 159.061 121.131C159.061 120.637 158.661 120.237 158.167 120.237C157.673 120.237 157.273 120.637 157.273 121.131C157.273 121.624 157.673 122.025 158.167 122.025Z" fill="#040919"/>
<path d="M178.706 122.025C179.2 122.025 179.6 121.624 179.6 121.131C179.6 120.637 179.2 120.237 178.706 120.237C178.213 120.237 177.812 120.637 177.812 121.131C177.812 121.624 178.213 122.025 178.706 122.025Z" fill="#040919"/>
<path d="M168.441 127.947C168.934 127.947 169.334 127.547 169.334 127.054C169.334 126.56 168.934 126.16 168.441 126.16C167.947 126.16 167.547 126.56 167.547 127.054C167.547 127.547 167.947 127.947 168.441 127.947Z" fill="#040919"/>
<path d="M188.968 127.947C189.461 127.947 189.861 127.547 189.861 127.054C189.861 126.56 189.461 126.16 188.968 126.16C188.474 126.16 188.074 126.56 188.074 127.054C188.074 127.547 188.474 127.947 188.968 127.947Z" fill="#040919"/>
<path d="M178.706 133.884C179.2 133.884 179.6 133.484 179.6 132.991C179.6 132.497 179.2 132.097 178.706 132.097C178.213 132.097 177.812 132.497 177.812 132.991C177.812 133.484 178.213 133.884 178.706 133.884Z" fill="#040919"/>
<path d="M199.234 133.884C199.727 133.884 200.127 133.484 200.127 132.991C200.127 132.497 199.727 132.097 199.234 132.097C198.74 132.097 198.34 132.497 198.34 132.991C198.34 133.484 198.74 133.884 199.234 133.884Z" fill="#040919"/>
<path d="M209.495 127.947C209.989 127.947 210.389 127.547 210.389 127.054C210.389 126.56 209.989 126.16 209.495 126.16C209.002 126.16 208.602 126.56 208.602 127.054C208.602 127.547 209.002 127.947 209.495 127.947Z" fill="#040919"/>
<path d="M147.901 116.101C148.395 116.101 148.795 115.701 148.795 115.207C148.795 114.714 148.395 114.313 147.901 114.313C147.408 114.313 147.008 114.714 147.008 115.207C147.008 115.701 147.408 116.101 147.901 116.101Z" fill="#040919"/>
<path d="M178.706 110.165C179.2 110.165 179.6 109.765 179.6 109.272C179.6 108.778 179.2 108.378 178.706 108.378C178.213 108.378 177.812 108.778 177.812 109.272C177.812 109.765 178.213 110.165 178.706 110.165Z" fill="#040919"/>
<path d="M188.968 116.101C189.461 116.101 189.861 115.701 189.861 115.207C189.861 114.714 189.461 114.313 188.968 114.313C188.474 114.313 188.074 114.714 188.074 115.207C188.074 115.701 188.474 116.101 188.968 116.101Z" fill="#040919"/>
<path d="M199.234 122.025C199.727 122.025 200.127 121.624 200.127 121.131C200.127 120.637 199.727 120.237 199.234 120.237C198.74 120.237 198.34 120.637 198.34 121.131C198.34 121.624 198.74 122.025 199.234 122.025Z" fill="#040919"/>
<path d="M158.167 169.437C158.661 169.437 159.061 169.037 159.061 168.543C159.061 168.05 158.661 167.649 158.167 167.649C157.673 167.649 157.273 168.05 157.273 168.543C157.273 169.037 157.673 169.437 158.167 169.437Z" fill="#040919"/>
<path d="M147.901 175.359C148.395 175.359 148.795 174.959 148.795 174.466C148.795 173.972 148.395 173.572 147.901 173.572C147.408 173.572 147.008 173.972 147.008 174.466C147.008 174.959 147.408 175.359 147.901 175.359Z" fill="#040919"/>
<path d="M137.636 181.296C138.129 181.296 138.529 180.896 138.529 180.402C138.529 179.909 138.129 179.509 137.636 179.509C137.142 179.509 136.742 179.909 136.742 180.402C136.742 180.896 137.142 181.296 137.636 181.296Z" fill="#040919"/>
<path d="M168.441 175.359C168.934 175.359 169.334 174.959 169.334 174.466C169.334 173.972 168.934 173.572 168.441 173.572C167.947 173.572 167.547 173.972 167.547 174.466C167.547 174.959 167.947 175.359 168.441 175.359Z" fill="#040919"/>
<path d="M158.167 181.296C158.661 181.296 159.061 180.896 159.061 180.402C159.061 179.909 158.661 179.509 158.167 179.509C157.673 179.509 157.273 179.909 157.273 180.402C157.273 180.896 157.673 181.296 158.167 181.296Z" fill="#040919"/>
<path d="M147.901 187.219C148.395 187.219 148.795 186.819 148.795 186.325C148.795 185.832 148.395 185.432 147.901 185.432C147.408 185.432 147.008 185.832 147.008 186.325C147.008 186.819 147.408 187.219 147.901 187.219Z" fill="#040919"/>
<path d="M137.636 193.143C138.129 193.143 138.529 192.743 138.529 192.25C138.529 191.756 138.129 191.356 137.636 191.356C137.142 191.356 136.742 191.756 136.742 192.25C136.742 192.743 137.142 193.143 137.636 193.143Z" fill="#040919"/>
<path d="M168.441 187.219C168.934 187.219 169.334 186.819 169.334 186.325C169.334 185.832 168.934 185.432 168.441 185.432C167.947 185.432 167.547 185.832 167.547 186.325C167.547 186.819 167.947 187.219 168.441 187.219Z" fill="#040919"/>
<path d="M158.167 193.143C158.661 193.143 159.061 192.743 159.061 192.25C159.061 191.756 158.661 191.356 158.167 191.356C157.673 191.356 157.273 191.756 157.273 192.25C157.273 192.743 157.673 193.143 158.167 193.143Z" fill="#040919"/>
<path d="M178.706 181.296C179.2 181.296 179.6 180.896 179.6 180.402C179.6 179.909 179.2 179.509 178.706 179.509C178.213 179.509 177.812 179.909 177.812 180.402C177.812 180.896 178.213 181.296 178.706 181.296Z" fill="#040919"/>
<path d="M147.901 199.066C148.395 199.066 148.795 198.666 148.795 198.172C148.795 197.679 148.395 197.279 147.901 197.279C147.408 197.279 147.008 197.679 147.008 198.172C147.008 198.666 147.408 199.066 147.901 199.066Z" fill="#040919"/>
<path d="M137.636 205.003C138.129 205.003 138.529 204.602 138.529 204.109C138.529 203.615 138.129 203.215 137.636 203.215C137.142 203.215 136.742 203.615 136.742 204.109C136.742 204.602 137.142 205.003 137.636 205.003Z" fill="#040919"/>
<path d="M178.706 157.589C179.2 157.589 179.6 157.189 179.6 156.696C179.6 156.202 179.2 155.802 178.706 155.802C178.213 155.802 177.812 156.202 177.812 156.696C177.812 157.189 178.213 157.589 178.706 157.589Z" fill="#040919"/>
<path d="M168.441 163.514C168.934 163.514 169.334 163.114 169.334 162.62C169.334 162.127 168.934 161.727 168.441 161.727C167.947 161.727 167.547 162.127 167.547 162.62C167.547 163.114 167.947 163.514 168.441 163.514Z" fill="#040919"/>
<path d="M188.968 163.514C189.461 163.514 189.861 163.114 189.861 162.62C189.861 162.127 189.461 161.727 188.968 161.727C188.474 161.727 188.074 162.127 188.074 162.62C188.074 163.114 188.474 163.514 188.968 163.514Z" fill="#040919"/>
<path d="M178.706 169.437C179.2 169.437 179.6 169.037 179.6 168.543C179.6 168.05 179.2 167.649 178.706 167.649C178.213 167.649 177.812 168.05 177.812 168.543C177.812 169.037 178.213 169.437 178.706 169.437Z" fill="#040919"/>
<path d="M188.968 175.359C189.461 175.359 189.861 174.959 189.861 174.466C189.861 173.972 189.461 173.572 188.968 173.572C188.474 173.572 188.074 173.972 188.074 174.466C188.074 174.959 188.474 175.359 188.968 175.359Z" fill="#040919"/>
<path d="M199.234 169.437C199.727 169.437 200.127 169.037 200.127 168.543C200.127 168.05 199.727 167.649 199.234 167.649C198.74 167.649 198.34 168.05 198.34 168.543C198.34 169.037 198.74 169.437 199.234 169.437Z" fill="#040919"/>
<path d="M209.495 163.514C209.989 163.514 210.389 163.114 210.389 162.62C210.389 162.127 209.989 161.727 209.495 161.727C209.002 161.727 208.602 162.127 208.602 162.62C208.602 163.114 209.002 163.514 209.495 163.514Z" fill="#040919"/>
<path d="M219.761 157.589C220.254 157.589 220.654 157.189 220.654 156.696C220.654 156.202 220.254 155.802 219.761 155.802C219.267 155.802 218.867 156.202 218.867 156.696C218.867 157.189 219.267 157.589 219.761 157.589Z" fill="#040919"/>
<path d="M178.706 145.73C179.2 145.73 179.6 145.33 179.6 144.836C179.6 144.343 179.2 143.943 178.706 143.943C178.213 143.943 177.812 144.343 177.812 144.836C177.812 145.33 178.213 145.73 178.706 145.73Z" fill="#040919"/>
<path d="M188.968 151.654C189.461 151.654 189.861 151.254 189.861 150.76C189.861 150.267 189.461 149.867 188.968 149.867C188.474 149.867 188.074 150.267 188.074 150.76C188.074 151.254 188.474 151.654 188.968 151.654Z" fill="#040919"/>
<path d="M199.234 157.589C199.727 157.589 200.127 157.189 200.127 156.696C200.127 156.202 199.727 155.802 199.234 155.802C198.74 155.802 198.34 156.202 198.34 156.696C198.34 157.189 198.74 157.589 199.234 157.589Z" fill="#040919"/>
<path d="M127.374 187.219C127.868 187.219 128.268 186.819 128.268 186.325C128.268 185.832 127.868 185.432 127.374 185.432C126.88 185.432 126.48 185.832 126.48 186.325C126.48 186.819 126.88 187.219 127.374 187.219Z" fill="#040919"/>
<path d="M117.108 193.143C117.602 193.143 118.002 192.743 118.002 192.25C118.002 191.756 117.602 191.356 117.108 191.356C116.615 191.356 116.215 191.756 116.215 192.25C116.215 192.743 116.615 193.143 117.108 193.143Z" fill="#040919"/>
<path d="M127.374 199.066C127.868 199.066 128.268 198.666 128.268 198.172C128.268 197.679 127.868 197.279 127.374 197.279C126.88 197.279 126.48 197.679 126.48 198.172C126.48 198.666 126.88 199.066 127.374 199.066Z" fill="#040919"/>
<path d="M209.495 139.807C209.989 139.807 210.389 139.407 210.389 138.914C210.389 138.42 209.989 138.02 209.495 138.02C209.002 138.02 208.602 138.42 208.602 138.914C208.602 139.407 209.002 139.807 209.495 139.807Z" fill="#040919"/>
<path d="M199.234 145.73C199.727 145.73 200.127 145.33 200.127 144.836C200.127 144.343 199.727 143.943 199.234 143.943C198.74 143.943 198.34 144.343 198.34 144.836C198.34 145.33 198.74 145.73 199.234 145.73Z" fill="#040919"/>
<path d="M219.761 145.73C220.254 145.73 220.654 145.33 220.654 144.836C220.654 144.343 220.254 143.943 219.761 143.943C219.267 143.943 218.867 144.343 218.867 144.836C218.867 145.33 219.267 145.73 219.761 145.73Z" fill="#040919"/>
<path d="M209.495 151.654C209.989 151.654 210.389 151.254 210.389 150.76C210.389 150.267 209.989 149.867 209.495 149.867C209.002 149.867 208.602 150.267 208.602 150.76C208.602 151.254 209.002 151.654 209.495 151.654Z" fill="#040919"/>
<path d="M230.023 151.654C230.516 151.654 230.916 151.254 230.916 150.76C230.916 150.267 230.516 149.867 230.023 149.867C229.529 149.867 229.129 150.267 229.129 150.76C229.129 151.254 229.529 151.654 230.023 151.654Z" fill="#040919"/>
<path d="M240.3 145.73C240.793 145.73 241.193 145.33 241.193 144.836C241.193 144.343 240.793 143.943 240.3 143.943C239.806 143.943 239.406 144.343 239.406 144.836C239.406 145.33 239.806 145.73 240.3 145.73Z" fill="#040919"/>
<path d="M219.761 133.884C220.254 133.884 220.654 133.484 220.654 132.991C220.654 132.497 220.254 132.097 219.761 132.097C219.267 132.097 218.867 132.497 218.867 132.991C218.867 133.484 219.267 133.884 219.761 133.884Z" fill="#040919"/>
<path d="M230.023 139.807C230.516 139.807 230.916 139.407 230.916 138.914C230.916 138.42 230.516 138.02 230.023 138.02C229.529 138.02 229.129 138.42 229.129 138.914C229.129 139.407 229.529 139.807 230.023 139.807Z" fill="#040919"/>
<path d="M168.441 104.241C168.934 104.241 169.334 103.841 169.334 103.347C169.334 102.854 168.934 102.454 168.441 102.454C167.947 102.454 167.547 102.854 167.547 103.347C167.547 103.841 167.947 104.241 168.441 104.241Z" fill="#040919"/>
<path d="M137.636 110.165C138.129 110.165 138.529 109.765 138.529 109.272C138.529 108.778 138.129 108.378 137.636 108.378C137.142 108.378 136.742 108.778 136.742 109.272C136.742 109.765 137.142 110.165 137.636 110.165Z" fill="#040919"/>
<path d="M147.901 104.241C148.395 104.241 148.795 103.841 148.795 103.347C148.795 102.854 148.395 102.454 147.901 102.454C147.408 102.454 147.008 102.854 147.008 103.347C147.008 103.841 147.408 104.241 147.901 104.241Z" fill="#040919"/>
<path d="M127.374 92.3951C127.868 92.3951 128.268 91.995 128.268 91.5015C128.268 91.008 127.868 90.6079 127.374 90.6079C126.88 90.6079 126.48 91.008 126.48 91.5015C126.48 91.995 126.88 92.3951 127.374 92.3951Z" fill="#040919"/>
<path d="M117.108 98.318C117.602 98.318 118.002 97.9179 118.002 97.4244C118.002 96.9308 117.602 96.5308 117.108 96.5308C116.615 96.5308 116.215 96.9308 116.215 97.4244C116.215 97.9179 116.615 98.318 117.108 98.318Z" fill="#040919"/>
<path d="M127.374 104.241C127.868 104.241 128.268 103.841 128.268 103.347C128.268 102.854 127.868 102.454 127.374 102.454C126.88 102.454 126.48 102.854 126.48 103.347C126.48 103.841 126.88 104.241 127.374 104.241Z" fill="#040919"/>
<path d="M137.636 98.318C138.129 98.318 138.529 97.9179 138.529 97.4244C138.529 96.9308 138.129 96.5308 137.636 96.5308C137.142 96.5308 136.742 96.9308 136.742 97.4244C136.742 97.9179 137.142 98.318 137.636 98.318Z" fill="#040919"/>
<path d="M158.167 98.318C158.661 98.318 159.061 97.9179 159.061 97.4244C159.061 96.9308 158.661 96.5308 158.167 96.5308C157.673 96.5308 157.273 96.9308 157.273 97.4244C157.273 97.9179 157.673 98.318 158.167 98.318Z" fill="#040919"/>
<path d="M137.636 86.4586C138.129 86.4586 138.529 86.0585 138.529 85.565C138.529 85.0715 138.129 84.6714 137.636 84.6714C137.142 84.6714 136.742 85.0715 136.742 85.565C136.742 86.0585 137.142 86.4586 137.636 86.4586Z" fill="#040919"/>
<path d="M147.901 92.3951C148.395 92.3951 148.795 91.995 148.795 91.5015C148.795 91.008 148.395 90.6079 147.901 90.6079C147.408 90.6079 147.008 91.008 147.008 91.5015C147.008 91.995 147.408 92.3951 147.901 92.3951Z" fill="#040919"/>
<path d="M34.9874 145.73C35.4809 145.73 35.881 145.33 35.881 144.836C35.881 144.343 35.4809 143.943 34.9874 143.943C34.4938 143.943 34.0938 144.343 34.0938 144.836C34.0938 145.33 34.4938 145.73 34.9874 145.73Z" fill="#040919"/>
</g>
<path d="M10.2344 144.836L137.637 218.393L265.04 144.836L137.637 71.2793L10.2344 144.836Z" fill="url(#paint0_linear_365_10)"/>
<path d="M10.2344 144.836L137.637 218.393L265.04 144.836" stroke="#5D688C" stroke-linecap="round" stroke-linejoin="round"/>
<path d="M89.6751 171.044C85.7305 168.759 85.7177 165.057 89.6368 162.771C93.5432 160.486 99.9133 160.486 103.845 162.771L114.186 168.733C118.13 171.018 118.143 174.72 114.237 177.005C110.318 179.29 103.96 179.29 100.015 177.005L89.6751 171.044Z" fill="#BCC0E5"/>
<path d="M116.394 155.623C112.449 153.338 112.436 149.636 116.356 147.351C120.262 145.065 126.632 145.065 130.564 147.351L148.806 157.882C152.751 160.167 152.764 163.87 148.857 166.155C144.938 168.44 138.581 168.44 134.636 166.155L116.394 155.623Z" fill="#BCC0E5"/>
<path d="M168.722 125.406C164.777 123.121 164.765 119.419 168.684 117.134C172.59 114.849 178.96 114.849 182.892 117.134L209.496 132.491C213.441 134.776 213.453 138.478 209.547 140.763C205.628 143.048 199.271 143.048 195.326 140.763L168.722 125.406Z" fill="#BCC0E5"/>
<path d="M142.577 140.496C138.633 138.211 138.62 134.509 142.539 132.224C146.445 129.938 152.816 129.938 156.748 132.224L170.318 140.062C174.262 142.347 174.275 146.049 170.369 148.334C166.45 150.619 160.092 150.619 156.148 148.334L142.577 140.496Z" fill="#BCC0E5"/>
<path d="M116.431 94.5136C120.376 92.2285 126.733 92.2285 130.64 94.5136C132.593 95.6498 133.576 97.1561 133.563 98.6497V151.488C133.563 152.981 132.568 154.475 130.602 155.624C126.657 157.909 120.3 157.909 116.38 155.624C114.427 154.487 113.457 152.981 113.457 151.488V98.6497C113.457 97.1561 114.453 95.6625 116.419 94.5136H116.431Z" fill="#040919"/>
<path d="M130.654 94.5136C134.598 96.7987 134.611 100.501 130.705 102.786C126.786 105.071 120.428 105.071 116.484 102.786C112.539 100.501 112.526 96.7987 116.445 94.5136C120.352 92.2285 126.722 92.2285 130.654 94.5136Z" fill="#AA6BFF"/>
<path d="M113.508 98.6489C113.508 100.143 114.504 101.636 116.47 102.785C118.423 103.921 120.963 104.483 123.517 104.496V157.333C120.938 157.333 118.346 156.772 116.38 155.623C114.427 154.487 113.457 152.98 113.457 151.487V98.6489H113.495H113.508Z" fill="#5516AA"/>
<path d="M168.771 45.0971C172.716 42.812 179.073 42.812 182.98 45.0971C184.933 46.2333 185.916 47.7396 185.903 49.2332V121.271C185.903 122.764 184.907 124.258 182.941 125.407C178.997 127.692 172.639 127.692 168.72 125.407C166.767 124.271 165.797 122.764 165.797 121.271V49.2332C165.797 47.7396 166.793 46.246 168.759 45.0971H168.771Z" fill="#040919"/>
<path d="M182.98 45.0972C184.959 46.2461 185.942 47.7525 185.942 49.2461C185.942 50.7397 184.972 52.2205 183.019 53.3567C179.1 55.6418 172.742 55.6418 168.798 53.3567C166.819 52.2078 165.836 50.7014 165.836 49.2078C165.836 47.7142 166.806 46.2333 168.759 45.0844C172.666 42.7993 179.036 42.7993 182.968 45.0844L182.98 45.0972Z" fill="#AA6BFF"/>
<path d="M165.848 49.2339C165.848 50.7275 166.844 52.2211 168.81 53.37C170.763 54.5062 173.303 55.0679 175.856 55.0806V127.131C173.278 127.131 170.686 126.569 168.72 125.42C166.767 124.284 165.797 122.778 165.797 121.284V49.2339H165.835H165.848Z" fill="#5516AA"/>
<path d="M168.771 2.71381C172.716 0.428729 179.073 0.428729 182.98 2.71381C184.933 3.84997 185.916 5.35634 185.903 6.84994V27.4412C185.903 28.9348 184.907 30.4284 182.941 31.5774C178.997 33.8624 172.639 33.8624 168.72 31.5774C166.767 30.4412 165.797 28.9348 165.797 27.4412V6.84994C165.797 5.35634 166.793 3.86274 168.759 2.71381H168.771Z" stroke="#AA6BFF" stroke-linecap="round" stroke-linejoin="round"/>
<path d="M182.978 2.71381C186.923 4.9989 186.935 8.70099 183.029 10.9861C179.11 13.2712 172.753 13.2712 168.808 10.9861C164.863 8.70099 164.851 4.9989 168.77 2.71381C172.676 0.428729 179.046 0.428729 182.978 2.71381V2.71381Z" stroke="#AA6BFF" stroke-linecap="round" stroke-linejoin="round"/>
<path d="M116.431 30.8623C120.376 28.5772 126.733 28.5772 130.64 30.8623C132.593 31.9984 133.576 33.5048 133.563 34.9984V81.9C133.563 83.3936 132.568 84.8872 130.602 86.0362C126.657 88.3213 120.3 88.3213 116.38 86.0362C114.427 84.9 113.457 83.3936 113.457 81.9V34.9984C113.457 33.5048 114.453 32.0112 116.419 30.8623H116.431Z" stroke="#AA6BFF" stroke-linecap="round" stroke-linejoin="round"/>
<path d="M130.654 30.8623C134.598 33.1473 134.611 36.8494 130.705 39.1345C126.786 41.4196 120.428 41.4196 116.484 39.1345C112.539 36.8494 112.526 33.1473 116.445 30.8623C120.365 28.5772 126.722 28.5772 130.654 30.8623Z" stroke="#AA6BFF" stroke-linecap="round" stroke-linejoin="round"/>
<path d="M142.627 99.6704C146.571 97.3853 152.929 97.3853 156.835 99.6704C158.788 100.807 159.771 102.313 159.759 103.806V136.372C159.759 137.866 158.763 139.359 156.797 140.508C152.852 142.793 146.495 142.793 142.576 140.508C140.623 139.372 139.652 137.866 139.652 136.372V103.806C139.652 102.313 140.648 100.819 142.614 99.6704H142.627Z" fill="#040919"/>
<path d="M156.833 99.6704C160.778 101.955 160.791 105.658 156.885 107.943C152.965 110.228 146.608 110.228 142.663 107.943C138.719 105.658 138.706 101.955 142.625 99.6704C146.531 97.3853 152.902 97.3853 156.833 99.6704Z" fill="#AA6BFF"/>
<path d="M139.703 103.793C139.703 105.287 140.699 106.781 142.665 107.93C144.618 109.066 147.159 109.627 149.712 109.64V142.206C147.133 142.206 144.542 141.644 142.576 140.495C140.623 139.359 139.652 137.853 139.652 136.359V103.793H139.691H139.703Z" fill="#5516AA"/>
<path d="M142.627 67.0913C146.571 64.8062 152.929 64.8062 156.835 67.0913C158.788 68.2274 159.771 69.7338 159.759 71.2274V103.793C159.759 105.287 158.763 106.78 156.797 107.929C152.852 110.214 146.495 110.214 142.576 107.929C140.623 106.793 139.652 105.287 139.652 103.793V71.2274C139.652 69.7338 140.648 68.2402 142.614 67.0913H142.627Z" stroke="#AA6BFF" stroke-linecap="round" stroke-linejoin="round"/>
<path d="M156.833 67.0913C160.778 69.3763 160.791 73.0784 156.885 75.3635C152.965 77.6486 146.608 77.6486 142.663 75.3635C138.719 73.0784 138.706 69.3763 142.625 67.0913C146.531 64.8062 152.902 64.8062 156.833 67.0913V67.0913Z" stroke="#AA6BFF" stroke-linecap="round" stroke-linejoin="round"/>
<path d="M89.7127 151.972C93.6574 149.687 100.015 149.687 103.921 151.972C105.874 153.108 106.857 154.615 106.844 156.108V166.908C106.844 168.402 105.849 169.895 103.883 171.044C99.9381 173.329 93.5808 173.329 89.6617 171.044C87.7085 169.908 86.7383 168.402 86.7383 166.908V156.108C86.7383 154.615 87.734 153.121 89.7 151.972H89.7127Z" fill="#040919"/>
<path d="M103.935 151.972C107.88 154.257 107.892 157.959 103.986 160.244C100.067 162.529 93.7096 162.529 89.7649 160.244C85.8203 157.959 85.8076 154.257 89.7267 151.972C93.633 149.687 100.003 149.687 103.935 151.972Z" fill="#AA6BFF"/>
<path d="M86.7894 156.107C86.7894 157.601 87.7851 159.095 89.751 160.244C91.7042 161.38 94.2446 161.941 96.7978 161.954V172.754C94.2191 172.754 91.6276 172.192 89.6617 171.043C87.7085 169.907 86.7383 168.401 86.7383 166.907V156.107H86.7766H86.7894Z" fill="#5516AA"/>
<path d="M202.051 198.478L248.672 225.388V241.677L384.525 320.11" stroke="#AA6BFF" stroke-miterlimit="10"/>
<path d="M520.508 119.445L554.95 99.5684" stroke="#AA6BFF" stroke-linecap="round" stroke-linejoin="round"/>
<path d="M543.652 121.781L617.886 78.9258" stroke="#AA6BFF" stroke-linecap="round" stroke-linejoin="round"/>
<path d="M560.043 94.4741H549.855V104.661H560.043V94.4741Z" fill="#040919"/>
<path d="M622.98 73.832H612.793V84.0192H622.98V73.832Z" fill="#040919"/>
<path d="M580.765 120.771H570.578V130.959H580.765V120.771Z" fill="#040919"/>
<path d="M528.105 142.908L590.071 178.691V104.572L528.105 68.7896V142.908Z" stroke="#AA6BFF" stroke-linecap="round" stroke-linejoin="round"/>
<path d="M493.664 88.6659L555.642 124.449L590.071 104.572L528.106 68.7896L493.664 88.6659Z" stroke="#AA6BFF" stroke-linecap="round" stroke-linejoin="round"/>
<path d="M442.09 264.809L668.9 395.787L668.926 185.674L442.115 54.6963L442.09 264.809Z" fill="#D0D3F5"/>
<path d="M601.613 325.345L640.919 348.03" stroke="#AA6BFF" stroke-linecap="round" stroke-linejoin="round"/>
<path d="M601.613 330.987L634.69 350.085" stroke="#AA6BFF" stroke-linecap="round" stroke-linejoin="round"/>
<path d="M605.774 170.471L595.816 164.726" stroke="#AA6BFF" stroke-linecap="round" stroke-linejoin="round"/>
<path d="M622.711 180.262L612.754 174.517" stroke="#AA6BFF" stroke-linecap="round" stroke-linejoin="round"/>
<path d="M639.668 190.04L629.711 184.295" stroke="#AA6BFF" stroke-linecap="round" stroke-linejoin="round"/>
<path d="M446.75 72.5688V83.2411L456.146 88.6666V77.9943L446.75 72.5688Z" fill="#5516AA"/>
<path d="M442.09 264.809L668.9 395.787" stroke="white" stroke-linecap="round" stroke-linejoin="round"/>
<path d="M442.09 64.1302L668.9 195.095L668.926 185.674L442.115 54.6963L442.09 64.1302Z" fill="#040919"/>
<path d="M541.688 279.145L640.903 336.438L640.916 236.201L541.688 178.908V279.145Z" fill="white"/>
<path d="M470.836 175.959L532.814 211.741V137.623L470.849 101.84L470.836 175.959Z" stroke="#AA6BFF" stroke-linecap="round" stroke-linejoin="round"/>
<path d="M436.406 121.729L498.372 157.512L532.814 137.623L470.848 101.84L436.406 121.729Z" stroke="#AA6BFF" stroke-linecap="round" stroke-linejoin="round"/>
<path d="M490.687 119.355H480.5V129.543H490.687V119.355Z" fill="#040919"/>
<path d="M293.008 394.599L519.818 525.564L689.17 427.79L462.359 296.826L293.008 394.599Z" fill="#BCC0E5"/>
<path d="M392.391 293.495L619.201 424.472L619.227 214.359L392.416 83.3945L392.391 293.495Z" fill="#D0D3F5"/>
<path d="M556.074 199.168L546.117 193.424" stroke="#AA6BFF" stroke-linecap="round" stroke-linejoin="round"/>
<path d="M573.012 208.946L563.055 203.201" stroke="#AA6BFF" stroke-linecap="round" stroke-linejoin="round"/>
<path d="M589.969 218.737L580.012 212.993" stroke="#AA6BFF" stroke-linecap="round" stroke-linejoin="round"/>
<path d="M602.697 220.794C605.224 219.338 609.335 221.7 611.862 226.092C614.39 230.47 614.39 235.219 611.862 236.674C609.335 238.13 605.224 235.768 602.697 231.377C600.169 226.985 600.169 222.249 602.697 220.794Z" stroke="#AA6BFF" stroke-linecap="round" stroke-linejoin="round"/>
<path d="M611.862 236.674L562.164 265.359" stroke="#AA6BFF" stroke-linecap="round" stroke-linejoin="round"/>
<path d="M553 249.478L602.697 220.793" stroke="#AA6BFF" stroke-linecap="round" stroke-linejoin="round"/>
<path d="M397.051 101.267V111.939L406.446 117.364V106.692L397.051 101.267Z" fill="#5516AA"/>
<path d="M392.391 293.495L619.201 424.472" stroke="white" stroke-linecap="round" stroke-linejoin="round"/>
<path d="M392.391 92.8157L619.201 223.793L619.227 214.359L392.416 83.3945L392.391 92.8157Z" fill="#040919"/>
<path d="M619.225 214.359L619.199 424.472" stroke="#AA6BFF" stroke-linecap="round" stroke-linejoin="round"/>
<path d="M420.41 205.078L482.375 240.861V166.743L420.41 130.96V205.078Z" fill="#5516AA"/>
<path d="M342.691 322.191L569.515 453.169L569.527 243.056L342.717 112.079L342.691 322.191Z" fill="url(#paint1_linear_365_10)"/>
<path d="M506.375 227.853L496.418 222.108" stroke="#AA6BFF" stroke-linecap="round" stroke-linejoin="round"/>
<path d="M523.33 237.644L513.359 231.899" stroke="#AA6BFF" stroke-linecap="round" stroke-linejoin="round"/>
<path d="M540.27 247.434L530.312 241.677" stroke="#AA6BFF" stroke-linecap="round" stroke-linejoin="round"/>
<path d="M552.997 249.478C555.525 248.022 559.635 250.384 562.163 254.776C564.691 259.154 564.691 263.903 562.163 265.358C559.635 266.814 555.525 264.452 552.997 260.061C550.47 255.669 550.47 250.933 552.997 249.478Z" stroke="white" stroke-linecap="round" stroke-linejoin="round"/>
<path d="M347.352 129.951V140.623L356.747 146.048V135.389L347.352 129.951Z" fill="white"/>
<path d="M370.469 160.41L461.617 213.044V195.593L370.469 142.972V160.41Z" fill="white"/>
<path d="M342.691 322.191L569.515 453.169" stroke="white" stroke-linecap="round" stroke-linejoin="round"/>
<path d="M342.691 121.513L569.515 252.477L569.527 243.056L342.717 112.079L342.691 121.513Z" fill="#040919"/>
<path d="M569.528 243.056L569.516 453.168" stroke="#AA6BFF" stroke-linecap="round" stroke-linejoin="round"/>
<path d="M455.699 203.534C457.402 202.55 457.629 199.753 456.205 197.287C454.78 194.82 452.245 193.617 450.542 194.601C448.838 195.585 448.612 198.382 450.036 200.848C451.46 203.315 453.995 204.517 455.699 203.534Z" stroke="#AA6BFF" stroke-linecap="round" stroke-linejoin="round"/>
<path d="M455.695 203.52L457.329 206.482" stroke="#AA6BFF" stroke-linecap="round" stroke-linejoin="round"/>
<path d="M528.41 333.413H518.223V343.6H528.41V333.413Z" fill="#040919"/>
<path d="M538.609 323.225H528.422V333.412H538.609V323.225Z" fill="#040919"/>
<path d="M528.41 323.225H518.223V333.412H528.41V323.225Z" fill="#040919"/>
<path d="M528.41 290.43H518.223V300.617H528.41V290.43Z" fill="#040919"/>
<path d="M488.555 348.719L541.673 379.395L541.686 279.145L488.567 248.481L488.555 348.719Z" stroke="#AA6BFF" stroke-linecap="round" stroke-linejoin="round"/>
<path d="M518.336 392.862L541.672 379.394L541.685 279.144L518.349 292.625L518.336 392.862Z" stroke="#AA6BFF" stroke-linecap="round" stroke-linejoin="round"/>
<path d="M465.23 261.949L488.566 248.481L541.685 279.145L518.349 292.626L465.23 261.949Z" stroke="#AA6BFF" stroke-linecap="round" stroke-linejoin="round"/>
<path d="M293.008 350.889L519.818 481.854L519.831 271.741L293.021 140.776L293.008 350.889Z" fill="url(#paint2_linear_365_10)"/>
<path d="M379.855 344.417L432.974 375.093V274.843L379.868 244.167L379.855 344.417Z" fill="white"/>
<path d="M438.707 378.387L491.826 409.063V308.813L438.707 278.15V378.387Z" fill="white"/>
<path d="M309.031 329.762L348.324 352.447" stroke="#AA6BFF" stroke-linecap="round" stroke-linejoin="round"/>
<path d="M309.031 335.404L334.55 350.148" stroke="#AA6BFF" stroke-linecap="round" stroke-linejoin="round"/>
<path d="M379.855 364.561L419.161 387.259" stroke="#AA6BFF" stroke-linecap="round" stroke-linejoin="round"/>
<path d="M379.855 370.203L405.374 384.948" stroke="#AA6BFF" stroke-linecap="round" stroke-linejoin="round"/>
<path d="M438.707 398.544L478 421.229" stroke="#AA6BFF" stroke-linecap="round" stroke-linejoin="round"/>
<path d="M438.707 404.186L464.226 418.918" stroke="#AA6BFF" stroke-linecap="round" stroke-linejoin="round"/>
<path d="M321.02 310.434L374.126 341.11L374.138 240.873L321.02 210.197V310.434Z" fill="#5516AA"/>
<path d="M456.68 256.55L446.723 250.805" stroke="#AA6BFF" stroke-linecap="round" stroke-linejoin="round"/>
<path d="M473.633 266.34L463.676 260.583" stroke="#AA6BFF" stroke-linecap="round" stroke-linejoin="round"/>
<path d="M490.575 276.119L480.617 270.374" stroke="#AA6BFF" stroke-linecap="round" stroke-linejoin="round"/>
<path d="M503.302 278.175C505.83 276.72 509.94 279.081 512.468 283.473C514.996 287.852 514.996 292.6 512.468 294.056C509.94 295.511 505.83 293.149 503.302 288.758C500.774 284.366 500.774 279.63 503.302 278.175Z" stroke="#AA6BFF" stroke-linecap="round" stroke-linejoin="round"/>
<path d="M297.656 158.648V169.32L307.065 174.746V164.073L297.656 158.648Z" fill="#5516AA"/>
<path d="M293.008 350.889L519.818 481.854" stroke="white" stroke-linecap="round" stroke-linejoin="round"/>
<path d="M293.008 150.198L519.818 281.175L519.831 271.741L293.021 140.776L293.008 150.198Z" fill="#040919"/>
<path d="M519.829 271.741L519.816 481.854" stroke="#AA6BFF" stroke-linecap="round" stroke-linejoin="round"/>
<path d="M204.272 533.824L122.736 486.757L107.711 495.425L204.272 551.186L300.82 495.425L285.794 486.757L204.272 533.824Z" fill="#BCC0E5"/>
<path d="M204.272 422.328L107.711 478.076L204.272 533.825L300.832 478.076L204.272 422.328Z" fill="url(#paint3_linear_365_10)"/>
<path d="M107.711 478.076L204.272 533.825L300.832 478.076" stroke="#040919" stroke-linecap="round" stroke-linejoin="round"/>
<path d="M204.272 473.034C204.766 473.034 205.166 472.634 205.166 472.141C205.166 471.647 204.766 471.247 204.272 471.247C203.779 471.247 203.379 471.647 203.379 472.141C203.379 472.634 203.779 473.034 204.272 473.034Z" fill="#AA6BFF"/>
<path d="M214.534 478.971C215.028 478.971 215.428 478.571 215.428 478.077C215.428 477.584 215.028 477.184 214.534 477.184C214.041 477.184 213.641 477.584 213.641 478.077C213.641 478.571 214.041 478.971 214.534 478.971Z" fill="#AA6BFF"/>
<path d="M204.272 484.894C204.766 484.894 205.166 484.494 205.166 484C205.166 483.507 204.766 483.106 204.272 483.106C203.779 483.106 203.379 483.507 203.379 484C203.379 484.494 203.779 484.894 204.272 484.894Z" fill="#AA6BFF"/>
<path d="M224.8 484.894C225.293 484.894 225.693 484.494 225.693 484C225.693 483.507 225.293 483.106 224.8 483.106C224.306 483.106 223.906 483.507 223.906 484C223.906 484.494 224.306 484.894 224.8 484.894Z" fill="#AA6BFF"/>
<path d="M214.534 490.817C215.028 490.817 215.428 490.417 215.428 489.924C215.428 489.43 215.028 489.03 214.534 489.03C214.041 489.03 213.641 489.43 213.641 489.924C213.641 490.417 214.041 490.817 214.534 490.817Z" fill="#AA6BFF"/>
<path d="M204.272 496.74C204.766 496.74 205.166 496.34 205.166 495.847C205.166 495.353 204.766 494.953 204.272 494.953C203.779 494.953 203.379 495.353 203.379 495.847C203.379 496.34 203.779 496.74 204.272 496.74Z" fill="#AA6BFF"/>
<path d="M235.062 490.817C235.555 490.817 235.955 490.417 235.955 489.924C235.955 489.43 235.555 489.03 235.062 489.03C234.568 489.03 234.168 489.43 234.168 489.924C234.168 490.417 234.568 490.817 235.062 490.817Z" fill="#AA6BFF"/>
<path d="M224.8 496.74C225.293 496.74 225.693 496.34 225.693 495.847C225.693 495.353 225.293 494.953 224.8 494.953C224.306 494.953 223.906 495.353 223.906 495.847C223.906 496.34 224.306 496.74 224.8 496.74Z" fill="#AA6BFF"/>
<path d="M214.534 502.677C215.028 502.677 215.428 502.277 215.428 501.783C215.428 501.29 215.028 500.89 214.534 500.89C214.041 500.89 213.641 501.29 213.641 501.783C213.641 502.277 214.041 502.677 214.534 502.677Z" fill="#AA6BFF"/>
<path d="M204.272 508.6C204.766 508.6 205.166 508.2 205.166 507.706C205.166 507.213 204.766 506.812 204.272 506.812C203.779 506.812 203.379 507.213 203.379 507.706C203.379 508.2 203.779 508.6 204.272 508.6Z" fill="#AA6BFF"/>
<path d="M235.062 502.677C235.555 502.677 235.955 502.277 235.955 501.783C235.955 501.29 235.555 500.89 235.062 500.89C234.568 500.89 234.168 501.29 234.168 501.783C234.168 502.277 234.568 502.677 235.062 502.677Z" fill="#AA6BFF"/>
<path d="M224.8 508.6C225.293 508.6 225.693 508.2 225.693 507.706C225.693 507.213 225.293 506.812 224.8 506.812C224.306 506.812 223.906 507.213 223.906 507.706C223.906 508.2 224.306 508.6 224.8 508.6Z" fill="#AA6BFF"/>
<path d="M245.327 496.74C245.821 496.74 246.221 496.34 246.221 495.847C246.221 495.353 245.821 494.953 245.327 494.953C244.834 494.953 244.434 495.353 244.434 495.847C244.434 496.34 244.834 496.74 245.327 496.74Z" fill="#AA6BFF"/>
<path d="M214.534 514.523C215.028 514.523 215.428 514.123 215.428 513.629C215.428 513.135 215.028 512.735 214.534 512.735C214.041 512.735 213.641 513.135 213.641 513.629C213.641 514.123 214.041 514.523 214.534 514.523Z" fill="#AA6BFF"/>
<path d="M204.272 520.447C204.766 520.447 205.166 520.047 205.166 519.554C205.166 519.06 204.766 518.66 204.272 518.66C203.779 518.66 203.379 519.06 203.379 519.554C203.379 520.047 203.779 520.447 204.272 520.447Z" fill="#AA6BFF"/>
<path d="M193.995 478.971C194.489 478.971 194.889 478.571 194.889 478.077C194.889 477.584 194.489 477.184 193.995 477.184C193.502 477.184 193.102 477.584 193.102 478.077C193.102 478.571 193.502 478.971 193.995 478.971Z" fill="#AA6BFF"/>
<path d="M224.8 461.189C225.293 461.189 225.693 460.789 225.693 460.295C225.693 459.801 225.293 459.401 224.8 459.401C224.306 459.401 223.906 459.801 223.906 460.295C223.906 460.789 224.306 461.189 224.8 461.189Z" fill="#AA6BFF"/>
<path d="M235.062 467.111C235.555 467.111 235.955 466.711 235.955 466.218C235.955 465.724 235.555 465.324 235.062 465.324C234.568 465.324 234.168 465.724 234.168 466.218C234.168 466.711 234.568 467.111 235.062 467.111Z" fill="#AA6BFF"/>
<path d="M224.8 473.034C225.293 473.034 225.693 472.634 225.693 472.141C225.693 471.647 225.293 471.247 224.8 471.247C224.306 471.247 223.906 471.647 223.906 472.141C223.906 472.634 224.306 473.034 224.8 473.034Z" fill="#AA6BFF"/>
<path d="M245.327 473.034C245.821 473.034 246.221 472.634 246.221 472.141C246.221 471.647 245.821 471.247 245.327 471.247C244.834 471.247 244.434 471.647 244.434 472.141C244.434 472.634 244.834 473.034 245.327 473.034Z" fill="#AA6BFF"/>
<path d="M235.062 478.971C235.555 478.971 235.955 478.571 235.955 478.077C235.955 477.584 235.555 477.184 235.062 477.184C234.568 477.184 234.168 477.584 234.168 478.077C234.168 478.571 234.568 478.971 235.062 478.971Z" fill="#AA6BFF"/>
<path d="M255.593 478.971C256.086 478.971 256.486 478.571 256.486 478.077C256.486 477.584 256.086 477.184 255.593 477.184C255.099 477.184 254.699 477.584 254.699 478.077C254.699 478.571 255.099 478.971 255.593 478.971Z" fill="#AA6BFF"/>
<path d="M245.327 484.894C245.821 484.894 246.221 484.494 246.221 484C246.221 483.507 245.821 483.106 245.327 483.106C244.834 483.106 244.434 483.507 244.434 484C244.434 484.494 244.834 484.894 245.327 484.894Z" fill="#AA6BFF"/>
<path d="M255.593 490.817C256.086 490.817 256.486 490.417 256.486 489.924C256.486 489.43 256.086 489.03 255.593 489.03C255.099 489.03 254.699 489.43 254.699 489.924C254.699 490.417 255.099 490.817 255.593 490.817Z" fill="#AA6BFF"/>
<path d="M265.854 484.894C266.348 484.894 266.748 484.494 266.748 484C266.748 483.507 266.348 483.106 265.854 483.106C265.361 483.106 264.961 483.507 264.961 484C264.961 484.494 265.361 484.894 265.854 484.894Z" fill="#AA6BFF"/>
<path d="M214.534 467.111C215.028 467.111 215.428 466.711 215.428 466.218C215.428 465.724 215.028 465.324 214.534 465.324C214.041 465.324 213.641 465.724 213.641 466.218C213.641 466.711 214.041 467.111 214.534 467.111Z" fill="#AA6BFF"/>
<path d="M245.327 461.189C245.821 461.189 246.221 460.789 246.221 460.295C246.221 459.801 245.821 459.401 245.327 459.401C244.834 459.401 244.434 459.801 244.434 460.295C244.434 460.789 244.834 461.189 245.327 461.189Z" fill="#AA6BFF"/>
<path d="M255.593 467.111C256.086 467.111 256.486 466.711 256.486 466.218C256.486 465.724 256.086 465.324 255.593 465.324C255.099 465.324 254.699 465.724 254.699 466.218C254.699 466.711 255.099 467.111 255.593 467.111Z" fill="#AA6BFF"/>
<path d="M265.854 473.034C266.348 473.034 266.748 472.634 266.748 472.141C266.748 471.647 266.348 471.247 265.854 471.247C265.361 471.247 264.961 471.647 264.961 472.141C264.961 472.634 265.361 473.034 265.854 473.034Z" fill="#AA6BFF"/>
<path d="M276.132 478.971C276.626 478.971 277.026 478.571 277.026 478.077C277.026 477.584 276.626 477.184 276.132 477.184C275.638 477.184 275.238 477.584 275.238 478.077C275.238 478.571 275.638 478.971 276.132 478.971Z" fill="#AA6BFF"/>
<path d="M235.062 455.264C235.555 455.264 235.955 454.864 235.955 454.37C235.955 453.877 235.555 453.477 235.062 453.477C234.568 453.477 234.168 453.877 234.168 454.37C234.168 454.864 234.568 455.264 235.062 455.264Z" fill="#AA6BFF"/>
<path d="M183.73 484.894C184.223 484.894 184.623 484.494 184.623 484C184.623 483.507 184.223 483.106 183.73 483.106C183.236 483.106 182.836 483.507 182.836 484C182.836 484.494 183.236 484.894 183.73 484.894Z" fill="#AA6BFF"/>
<path d="M193.995 490.817C194.489 490.817 194.889 490.417 194.889 489.924C194.889 489.43 194.489 489.03 193.995 489.03C193.502 489.03 193.102 489.43 193.102 489.924C193.102 490.417 193.502 490.817 193.995 490.817Z" fill="#AA6BFF"/>
<path d="M173.468 490.817C173.961 490.817 174.361 490.417 174.361 489.924C174.361 489.43 173.961 489.03 173.468 489.03C172.974 489.03 172.574 489.43 172.574 489.924C172.574 490.417 172.974 490.817 173.468 490.817Z" fill="#AA6BFF"/>
<path d="M183.73 496.74C184.223 496.74 184.623 496.34 184.623 495.847C184.623 495.353 184.223 494.953 183.73 494.953C183.236 494.953 182.836 495.353 182.836 495.847C182.836 496.34 183.236 496.74 183.73 496.74Z" fill="#AA6BFF"/>
<path d="M193.995 502.677C194.489 502.677 194.889 502.277 194.889 501.783C194.889 501.29 194.489 500.89 193.995 500.89C193.502 500.89 193.102 501.29 193.102 501.783C193.102 502.277 193.502 502.677 193.995 502.677Z" fill="#AA6BFF"/>
<path d="M173.468 502.677C173.961 502.677 174.361 502.277 174.361 501.783C174.361 501.29 173.961 500.89 173.468 500.89C172.974 500.89 172.574 501.29 172.574 501.783C172.574 502.277 172.974 502.677 173.468 502.677Z" fill="#AA6BFF"/>
<path d="M183.73 508.6C184.223 508.6 184.623 508.2 184.623 507.706C184.623 507.213 184.223 506.812 183.73 506.812C183.236 506.812 182.836 507.213 182.836 507.706C182.836 508.2 183.236 508.6 183.73 508.6Z" fill="#AA6BFF"/>
<path d="M163.202 496.74C163.696 496.74 164.096 496.34 164.096 495.847C164.096 495.353 163.696 494.953 163.202 494.953C162.709 494.953 162.309 495.353 162.309 495.847C162.309 496.34 162.709 496.74 163.202 496.74Z" fill="#AA6BFF"/>
<path d="M193.995 514.523C194.489 514.523 194.889 514.123 194.889 513.629C194.889 513.135 194.489 512.735 193.995 512.735C193.502 512.735 193.102 513.135 193.102 513.629C193.102 514.123 193.502 514.523 193.995 514.523Z" fill="#AA6BFF"/>
<path d="M173.468 478.971C173.961 478.971 174.361 478.571 174.361 478.077C174.361 477.584 173.961 477.184 173.468 477.184C172.974 477.184 172.574 477.584 172.574 478.077C172.574 478.571 172.974 478.971 173.468 478.971Z" fill="#AA6BFF"/>
<path d="M163.202 484.894C163.696 484.894 164.096 484.494 164.096 484C164.096 483.507 163.696 483.106 163.202 483.106C162.709 483.106 162.309 483.507 162.309 484C162.309 484.494 162.709 484.894 163.202 484.894Z" fill="#AA6BFF"/>
<path d="M193.995 467.111C194.489 467.111 194.889 466.711 194.889 466.218C194.889 465.724 194.489 465.324 193.995 465.324C193.502 465.324 193.102 465.724 193.102 466.218C193.102 466.711 193.502 467.111 193.995 467.111Z" fill="#AA6BFF"/>
<path d="M183.73 473.034C184.223 473.034 184.623 472.634 184.623 472.141C184.623 471.647 184.223 471.247 183.73 471.247C183.236 471.247 182.836 471.647 182.836 472.141C182.836 472.634 183.236 473.034 183.73 473.034Z" fill="#AA6BFF"/>
<path d="M204.272 461.189C204.766 461.189 205.166 460.789 205.166 460.295C205.166 459.801 204.766 459.401 204.272 459.401C203.779 459.401 203.379 459.801 203.379 460.295C203.379 460.789 203.779 461.189 204.272 461.189Z" fill="#AA6BFF"/>
<path d="M152.941 490.817C153.434 490.817 153.834 490.417 153.834 489.924C153.834 489.43 153.434 489.03 152.941 489.03C152.447 489.03 152.047 489.43 152.047 489.924C152.047 490.417 152.447 490.817 152.941 490.817Z" fill="#AA6BFF"/>
<path d="M173.468 455.264C173.961 455.264 174.361 454.864 174.361 454.37C174.361 453.877 173.961 453.477 173.468 453.477C172.974 453.477 172.574 453.877 172.574 454.37C172.574 454.864 172.974 455.264 173.468 455.264Z" fill="#AA6BFF"/>
<path d="M163.202 461.189C163.696 461.189 164.096 460.789 164.096 460.295C164.096 459.801 163.696 459.401 163.202 459.401C162.709 459.401 162.309 459.801 162.309 460.295C162.309 460.789 162.709 461.189 163.202 461.189Z" fill="#AA6BFF"/>
<path d="M152.941 467.111C153.434 467.111 153.834 466.711 153.834 466.218C153.834 465.724 153.434 465.324 152.941 465.324C152.447 465.324 152.047 465.724 152.047 466.218C152.047 466.711 152.447 467.111 152.941 467.111Z" fill="#AA6BFF"/>
<path d="M142.679 473.034C143.172 473.034 143.572 472.634 143.572 472.141C143.572 471.647 143.172 471.247 142.679 471.247C142.185 471.247 141.785 471.647 141.785 472.141C141.785 472.634 142.185 473.034 142.679 473.034Z" fill="#AA6BFF"/>
<path d="M173.468 467.111C173.961 467.111 174.361 466.711 174.361 466.218C174.361 465.724 173.961 465.324 173.468 465.324C172.974 465.324 172.574 465.724 172.574 466.218C172.574 466.711 172.974 467.111 173.468 467.111Z" fill="#AA6BFF"/>
<path d="M163.202 473.034C163.696 473.034 164.096 472.634 164.096 472.141C164.096 471.647 163.696 471.247 163.202 471.247C162.709 471.247 162.309 471.647 162.309 472.141C162.309 472.634 162.709 473.034 163.202 473.034Z" fill="#AA6BFF"/>
<path d="M183.73 461.189C184.223 461.189 184.623 460.789 184.623 460.295C184.623 459.801 184.223 459.401 183.73 459.401C183.236 459.401 182.836 459.801 182.836 460.295C182.836 460.789 183.236 461.189 183.73 461.189Z" fill="#AA6BFF"/>
<path d="M152.941 478.971C153.434 478.971 153.834 478.571 153.834 478.077C153.834 477.584 153.434 477.184 152.941 477.184C152.447 477.184 152.047 477.584 152.047 478.077C152.047 478.571 152.447 478.971 152.941 478.971Z" fill="#AA6BFF"/>
<path d="M142.679 484.894C143.172 484.894 143.572 484.494 143.572 484C143.572 483.507 143.172 483.106 142.679 483.106C142.185 483.106 141.785 483.507 141.785 484C141.785 484.494 142.185 484.894 142.679 484.894Z" fill="#AA6BFF"/>
<path d="M214.534 455.264C215.028 455.264 215.428 454.864 215.428 454.37C215.428 453.877 215.028 453.477 214.534 453.477C214.041 453.477 213.641 453.877 213.641 454.37C213.641 454.864 214.041 455.264 214.534 455.264Z" fill="#AA6BFF"/>
<path d="M193.995 443.404C194.489 443.404 194.889 443.004 194.889 442.511C194.889 442.017 194.489 441.617 193.995 441.617C193.502 441.617 193.102 442.017 193.102 442.511C193.102 443.004 193.502 443.404 193.995 443.404Z" fill="#AA6BFF"/>
<path d="M183.73 449.328C184.223 449.328 184.623 448.928 184.623 448.435C184.623 447.941 184.223 447.541 183.73 447.541C183.236 447.541 182.836 447.941 182.836 448.435C182.836 448.928 183.236 449.328 183.73 449.328Z" fill="#AA6BFF"/>
<path d="M193.995 455.264C194.489 455.264 194.889 454.864 194.889 454.37C194.889 453.877 194.489 453.477 193.995 453.477C193.502 453.477 193.102 453.877 193.102 454.37C193.102 454.864 193.502 455.264 193.995 455.264Z" fill="#AA6BFF"/>
<path d="M204.272 449.328C204.766 449.328 205.166 448.928 205.166 448.435C205.166 447.941 204.766 447.541 204.272 447.541C203.779 447.541 203.379 447.941 203.379 448.435C203.379 448.928 203.779 449.328 204.272 449.328Z" fill="#AA6BFF"/>
<path d="M224.8 449.328C225.293 449.328 225.693 448.928 225.693 448.435C225.693 447.941 225.293 447.541 224.8 447.541C224.306 447.541 223.906 447.941 223.906 448.435C223.906 448.928 224.306 449.328 224.8 449.328Z" fill="#AA6BFF"/>
<path d="M204.272 437.482C204.766 437.482 205.166 437.081 205.166 436.588C205.166 436.094 204.766 435.694 204.272 435.694C203.779 435.694 203.379 436.094 203.379 436.588C203.379 437.081 203.779 437.482 204.272 437.482Z" fill="#AA6BFF"/>
<path d="M214.534 443.404C215.028 443.404 215.428 443.004 215.428 442.511C215.428 442.017 215.028 441.617 214.534 441.617C214.041 441.617 213.641 442.017 213.641 442.511C213.641 443.004 214.041 443.404 214.534 443.404Z" fill="#AA6BFF"/>
<path d="M132.413 478.971C132.907 478.971 133.307 478.571 133.307 478.077C133.307 477.584 132.907 477.184 132.413 477.184C131.92 477.184 131.52 477.584 131.52 478.077C131.52 478.571 131.92 478.971 132.413 478.971Z" fill="#AA6BFF"/>
<path d="M163.207 459.399V434.799" stroke="#AA6BFF" stroke-linecap="round" stroke-linejoin="round"/>
<path d="M245.328 483.999V427.957" stroke="#AA6BFF" stroke-linecap="round" stroke-linejoin="round"/>
<path d="M199.242 460.293H189.055V470.48H199.242V460.293Z" fill="#040919"/>
<path d="M250.421 422.863H240.234V433.05H250.421V422.863Z" fill="#040919"/>
<path d="M189.054 480.668H178.867V490.855H189.054V480.668Z" fill="#040919"/>
<path d="M189.054 470.479H178.867V480.667H189.054V470.479Z" fill="#040919"/>
<path d="M168.3 430.601H158.113V440.788H168.3V430.601Z" fill="#040919"/>
<path d="M219.629 480.668H209.441V490.855H219.629V480.668Z" fill="#040919"/>
<path d="M229.816 480.668H219.629V490.855H229.816V480.668Z" fill="#040919"/>
<path d="M219.629 470.479H209.441V480.667H219.629V470.479Z" fill="#040919"/>
<path d="M225.617 394.026H215.43V404.213H225.617V394.026Z" fill="#040919"/>
<path d="M107.711 355.626V478.076" stroke="#BCC0E5" stroke-linecap="round" stroke-linejoin="round"/>
<path d="M107.711 266.266V355.626L204.272 411.375V322.014L107.711 266.266Z" fill="url(#paint4_linear_365_10)"/>
<path d="M107.711 370.614V355.626L204.272 411.375V426.362" fill="#D0D3F5"/>
<path d="M163.448 328.308C170.456 324.261 181.805 330.823 188.813 342.951C195.822 355.078 195.822 368.201 188.813 372.248C181.805 376.295 170.456 369.733 163.448 357.606C156.439 345.478 156.439 332.355 163.448 328.308ZM166.563 355.806C171.848 364.959 180.426 369.912 185.711 366.861C190.996 363.81 190.996 353.904 185.711 344.751C180.426 335.597 171.848 330.644 166.563 333.695C161.277 336.746 161.277 346.653 166.563 355.806Z" fill="white"/>
<path opacity="0.7" d="M90.8867 356.508L145.474 388.014V337.869L90.8867 306.351V356.508Z" stroke="#AA6BFF" stroke-linecap="round" stroke-linejoin="round"/>
<path opacity="0.7" d="M90.8867 298.384L145.474 329.89V314.086L90.8867 282.567V298.384Z" stroke="#AA6BFF" stroke-linecap="round" stroke-linejoin="round"/>
<path d="M176.124 329.559L176.086 334.614C179.558 336.605 183.043 340.141 185.698 344.737C188.43 349.473 189.745 354.388 189.643 358.473L194.047 361.141C194.162 355.741 192.426 349.205 188.801 342.95C185.303 336.886 180.707 332.214 176.111 329.559H176.124Z" fill="#AA6BFF"/>
<path d="M94.9727 291.21L103.232 295.972" stroke="white" stroke-linecap="round" stroke-linejoin="round"/>
<path d="M94.9727 316.257L105.951 322.589" stroke="white" stroke-linecap="round" stroke-linejoin="round"/>
<path d="M94.9727 295.193L99.1088 297.568" stroke="white" stroke-linecap="round" stroke-linejoin="round"/>
<path d="M112.32 301.218L120.567 305.98" stroke="white" stroke-linecap="round" stroke-linejoin="round"/>
<path d="M112.32 305.201L116.444 307.576" stroke="white" stroke-linecap="round" stroke-linejoin="round"/>
<path d="M129.656 311.227L137.903 315.988" stroke="white" stroke-linecap="round" stroke-linejoin="round"/>
<path d="M129.656 315.209L133.78 317.597" stroke="white" stroke-linecap="round" stroke-linejoin="round"/>
<path d="M119.84 358.372V365.432" stroke="white" stroke-linecap="round" stroke-linejoin="round"/>
<path d="M125.699 344.316V368.814" stroke="white" stroke-linecap="round" stroke-linejoin="round"/>
<path d="M131.57 339.989V372.197" stroke="white" stroke-linecap="round" stroke-linejoin="round"/>
<path d="M137.43 359.406V375.58" stroke="white" stroke-linecap="round" stroke-linejoin="round"/>
<path d="M204.273 322.014V533.824" stroke="#BCC0E5" stroke-linecap="round" stroke-linejoin="round"/>
<path d="M33.5461 535.291L84.3413 564.614L92.4221 560.312L166.783 599.771L126.583 619.048L23.793 550.597L33.5461 535.291Z" fill="url(#paint5_linear_365_10)"/>
<path d="M19.9336 531.895L20.6613 540.958C21.5549 546.065 27.7846 546.116 28.1548 543.128C28.5122 540.141 28.5378 531.895 28.5378 531.895" fill="#D0D3F5"/>
<path d="M20.6484 540.958L20.7377 546.882C20.8143 551.988 27.9887 551.554 29.2143 547.967L33.5419 535.303L28.5249 531.907C28.5249 531.907 28.4994 540.154 28.142 543.141C27.7845 546.128 21.542 546.077 20.6484 540.971V540.958Z" fill="#AA6BFF"/>
<path d="M1.84605 363.731L0.0205426 385.638C-0.24754 388.867 2.13965 391.995 5.34387 392.569L14.3055 394.191L9.64595 363.731H1.84605Z" fill="#AA6BFF"/>
<path d="M112.194 381.768L116.585 376.496L115.564 375.781L104.113 384.309L99.543 386.888L103.628 392.811L108.926 391.177L113.726 391.573L116.904 385.688L112.194 381.768Z" fill="#5516AA"/>
<path d="M102.172 385.879V379.189C102.172 379.189 104.865 378.692 105.376 382.291C105.887 385.891 106.053 386.568 106.053 386.568L102.172 385.879Z" fill="#5516AA"/>
<path d="M50.0487 425.748L10.781 415.982C10.1555 420.067 10.3087 426.731 11.1002 430.791L18.9001 470.365L15.364 487.688L19.9214 531.896H28.5128L37.717 462.259L40.6403 463.331L53.253 495.935L51.5679 506.633L62.5082 554.9L72.7974 552.985L63.555 432.323L50.0359 425.748H50.0487Z" fill="#040919"/>
<path d="M63.5549 432.323L60.1463 387.859L64.8825 376.574L60.6698 368.162C59.3549 365.519 56.1762 362.174 53.6102 360.706L30.0318 347.2L11.6745 348.234C8.72561 348.4 5.63627 350.851 4.80649 353.672L1.83203 363.719L5.06182 365.889L13.2958 399.323L10.7681 415.97L40.9083 433.37C45.9253 436.267 54.3252 436.625 59.5719 434.174L63.5549 432.31V432.323Z" fill="#D0D3F5"/>
<path d="M53.1118 395.187C50.8778 398.11 53.0097 400.6 55.1288 403.779C57.2479 406.957 58.2819 411.425 52.9714 415.663C47.6608 419.902 50.2522 427.229 53.8522 428.978C57.4522 430.727 58.5118 434.621 58.5118 434.621L63.5543 432.31L61.1926 401.442L53.1118 395.174V395.187Z" fill="#AA6BFF"/>
<path d="M53.1758 490.7L59.6097 494.313C59.6097 494.313 52.7035 506.211 56.4566 513.002C60.2098 519.794 59.5715 524.606 59.5715 524.606" stroke="#5516AA" stroke-linecap="round" stroke-linejoin="round"/>
<path d="M18.9023 470.365L20.8811 475.765L28.6682 481.714L27.9661 484.752C27.9661 484.752 22.4513 481.816 18.9151 484.752" stroke="#5516AA" stroke-linecap="round" stroke-linejoin="round"/>
<path d="M64.8951 376.574L74.3929 398.825L99.5416 386.889L103.614 392.812L75.3759 412.969C72.3248 415.152 67.9972 414.463 65.7632 411.437L47.6484 386.889L64.8823 376.561L64.8951 376.574Z" fill="#D0D3F5"/>
<path d="M20.6758 350.684L22.6928 337.625L36.8628 338.774L36.8374 351.08L40.9735 354.144L32.497 355.025L20.6758 350.684Z" fill="#5516AA"/>
<path d="M32.4953 341.877C39.9334 341.877 45.9632 335.847 45.9632 328.409C45.9632 320.971 39.9334 314.941 32.4953 314.941C25.0571 314.941 19.0273 320.971 19.0273 328.409C19.0273 335.847 25.0571 341.877 32.4953 341.877Z" fill="#5516AA"/>
<path d="M45.3633 312.77L35.5336 310.498L33.9761 314.136L32.891 313.932C27.5422 312.949 22.0912 315.043 18.7976 319.37C15.4912 323.698 14.904 329.506 17.2657 334.396L21.2103 342.591L28.64 345.719L31.1549 335.034L33.4017 329.889L36.0953 328.868C37.6016 328.294 38.7889 326.506 38.7378 324.898L38.6995 323.609C38.6484 322 39.8102 320.175 41.3038 319.562L41.9675 319.281C43.4611 318.668 44.8399 316.855 45.0569 315.26L45.3888 312.758L45.3633 312.77Z" fill="#040919"/>
<path d="M32.4959 336.042C34.3361 336.042 35.8278 334.55 35.8278 332.71C35.8278 330.87 34.3361 329.378 32.4959 329.378C30.6558 329.378 29.1641 330.87 29.1641 332.71C29.1641 334.55 30.6558 336.042 32.4959 336.042Z" fill="#5516AA"/>
<path d="M31.9219 345.233L38.6495 346.497C41.2282 346.982 43.641 345.259 44.0239 342.667L45.8494 330.297L39.4665 331.702L31.9347 345.233H31.9219Z" fill="#5516AA"/>
<path d="M36.8369 351.08L21.2626 346.586L20.3945 352.127L32.4965 356.225L42.9645 354.591L36.8369 351.08Z" fill="white"/>
<path d="M74.3945 398.824C76.3605 403.037 81.5051 401.798 83.0753 397.879C84.6455 393.96 88.9986 391.905 88.9986 391.905L74.3945 398.837V398.824Z" fill="#AA6BFF"/>
<path d="M49.7812 389.748L61.5131 405.667" stroke="#AA6BFF" stroke-linecap="round" stroke-linejoin="round"/>
<path d="M40.0938 391.51L51.8383 407.416" stroke="#AA6BFF" stroke-linecap="round" stroke-linejoin="round"/>
<path d="M62.4844 554.581L64.9354 565.419C66.1864 565.534 67.6035 565.853 68.6503 566.645C71.0503 568.445 72.0715 566.338 72.8502 563.517C73.6289 560.696 74.8289 557.211 74.8289 557.211H74.8417C73.7566 556.075 73.0034 554.619 72.7992 552.973" fill="#D0D3F5"/>
<path d="M65.3067 570.347C65.4727 574.458 69.8641 573.921 74.1534 572.3L91.0681 565.904C94.3873 564.641 97.8979 560.658 92.4213 560.313L79.7831 559.522C77.8427 559.407 76.1193 558.526 74.8555 557.211H74.8427C74.8427 557.211 73.6428 560.696 72.864 563.517C72.0853 566.339 71.0641 568.445 68.6641 566.645C67.6046 565.853 66.2003 565.534 64.9492 565.419L65.1407 565.956L65.3195 570.347H65.3067Z" fill="#AA6BFF"/>
<path d="M288.539 519.001L370.662 471.844" stroke="#AA6BFF" stroke-linecap="round" stroke-linejoin="round"/>
<path d="M339.858 612.102L258.335 565.034L243.297 573.715L339.858 629.463L436.418 573.715L421.393 565.034L339.858 612.102Z" fill="#BCC0E5"/>
<path d="M339.858 500.605L243.297 556.354L339.858 612.102L436.418 556.354L339.858 500.605Z" fill="url(#paint6_linear_365_10)"/>
<path d="M339.859 612.102L436.42 556.354" stroke="#5D688C" stroke-linecap="round" stroke-linejoin="round"/>
<path d="M243.297 556.354L339.858 612.102" stroke="#5D688C" stroke-linecap="round" stroke-linejoin="round"/>
<path d="M384.551 556.163L354.883 573.295L312.59 548.887L342.258 531.755L384.551 556.163Z" fill="#BCC0E5"/>
<g opacity="0.25">
<path d="M339.858 551.325C340.352 551.325 340.752 550.925 340.752 550.432C340.752 549.938 340.352 549.538 339.858 549.538C339.365 549.538 338.965 549.938 338.965 550.432C338.965 550.925 339.365 551.325 339.858 551.325Z" fill="#040919"/>
<path d="M350.12 557.248C350.614 557.248 351.014 556.848 351.014 556.355C351.014 555.861 350.614 555.461 350.12 555.461C349.627 555.461 349.227 555.861 349.227 556.355C349.227 556.848 349.627 557.248 350.12 557.248Z" fill="#040919"/>
<path d="M339.858 563.171C340.352 563.171 340.752 562.771 340.752 562.277C340.752 561.784 340.352 561.384 339.858 561.384C339.365 561.384 338.965 561.784 338.965 562.277C338.965 562.771 339.365 563.171 339.858 563.171Z" fill="#040919"/>
<path d="M360.398 563.171C360.891 563.171 361.291 562.771 361.291 562.277C361.291 561.784 360.891 561.384 360.398 561.384C359.904 561.384 359.504 561.784 359.504 562.277C359.504 562.771 359.904 563.171 360.398 563.171Z" fill="#040919"/>
<path d="M350.12 569.108C350.614 569.108 351.014 568.707 351.014 568.214C351.014 567.72 350.614 567.32 350.12 567.32C349.627 567.32 349.227 567.72 349.227 568.214C349.227 568.707 349.627 569.108 350.12 569.108Z" fill="#040919"/>
<path d="M339.858 575.03C340.352 575.03 340.752 574.63 340.752 574.137C340.752 573.643 340.352 573.243 339.858 573.243C339.365 573.243 338.965 573.643 338.965 574.137C338.965 574.63 339.365 575.03 339.858 575.03Z" fill="#040919"/>
<path d="M370.663 569.108C371.157 569.108 371.557 568.707 371.557 568.214C371.557 567.72 371.157 567.32 370.663 567.32C370.17 567.32 369.77 567.72 369.77 568.214C369.77 568.707 370.17 569.108 370.663 569.108Z" fill="#040919"/>
<path d="M360.398 575.03C360.891 575.03 361.291 574.63 361.291 574.137C361.291 573.643 360.891 573.243 360.398 573.243C359.904 573.243 359.504 573.643 359.504 574.137C359.504 574.63 359.904 575.03 360.398 575.03Z" fill="#040919"/>
<path d="M350.12 580.954C350.614 580.954 351.014 580.554 351.014 580.061C351.014 579.567 350.614 579.167 350.12 579.167C349.627 579.167 349.227 579.567 349.227 580.061C349.227 580.554 349.627 580.954 350.12 580.954Z" fill="#040919"/>
<path d="M339.858 586.877C340.352 586.877 340.752 586.477 340.752 585.983C340.752 585.49 340.352 585.09 339.858 585.09C339.365 585.09 338.965 585.49 338.965 585.983C338.965 586.477 339.365 586.877 339.858 586.877Z" fill="#040919"/>
<path d="M370.663 580.954C371.157 580.954 371.557 580.554 371.557 580.061C371.557 579.567 371.157 579.167 370.663 579.167C370.17 579.167 369.77 579.567 369.77 580.061C369.77 580.554 370.17 580.954 370.663 580.954Z" fill="#040919"/>
<path d="M360.398 586.877C360.891 586.877 361.291 586.477 361.291 585.983C361.291 585.49 360.891 585.09 360.398 585.09C359.904 585.09 359.504 585.49 359.504 585.983C359.504 586.477 359.904 586.877 360.398 586.877Z" fill="#040919"/>
<path d="M380.925 575.03C381.418 575.03 381.818 574.63 381.818 574.137C381.818 573.643 381.418 573.243 380.925 573.243C380.431 573.243 380.031 573.643 380.031 574.137C380.031 574.63 380.431 575.03 380.925 575.03Z" fill="#040919"/>
<path d="M350.12 592.814C350.614 592.814 351.014 592.414 351.014 591.92C351.014 591.426 350.614 591.026 350.12 591.026C349.627 591.026 349.227 591.426 349.227 591.92C349.227 592.414 349.627 592.814 350.12 592.814Z" fill="#040919"/>
<path d="M339.858 598.736C340.352 598.736 340.752 598.336 340.752 597.843C340.752 597.349 340.352 596.949 339.858 596.949C339.365 596.949 338.965 597.349 338.965 597.843C338.965 598.336 339.365 598.736 339.858 598.736Z" fill="#040919"/>
<path d="M329.593 557.248C330.086 557.248 330.486 556.848 330.486 556.355C330.486 555.861 330.086 555.461 329.593 555.461C329.099 555.461 328.699 555.861 328.699 556.355C328.699 556.848 329.099 557.248 329.593 557.248Z" fill="#040919"/>
<path d="M360.398 539.466C360.891 539.466 361.291 539.066 361.291 538.572C361.291 538.079 360.891 537.679 360.398 537.679C359.904 537.679 359.504 538.079 359.504 538.572C359.504 539.066 359.904 539.466 360.398 539.466Z" fill="#040919"/>
<path d="M370.663 545.401C371.157 545.401 371.557 545 371.557 544.507C371.557 544.013 371.157 543.613 370.663 543.613C370.17 543.613 369.77 544.013 369.77 544.507C369.77 545 370.17 545.401 370.663 545.401Z" fill="#040919"/>
<path d="M360.398 551.325C360.891 551.325 361.291 550.925 361.291 550.432C361.291 549.938 360.891 549.538 360.398 549.538C359.904 549.538 359.504 549.938 359.504 550.432C359.504 550.925 359.904 551.325 360.398 551.325Z" fill="#040919"/>
<path d="M380.925 551.325C381.418 551.325 381.818 550.925 381.818 550.432C381.818 549.938 381.418 549.538 380.925 549.538C380.431 549.538 380.031 549.938 380.031 550.432C380.031 550.925 380.431 551.325 380.925 551.325Z" fill="#040919"/>
<path d="M370.663 557.248C371.157 557.248 371.557 556.848 371.557 556.355C371.557 555.861 371.157 555.461 370.663 555.461C370.17 555.461 369.77 555.861 369.77 556.355C369.77 556.848 370.17 557.248 370.663 557.248Z" fill="#040919"/>
<path d="M391.191 557.248C391.684 557.248 392.084 556.848 392.084 556.355C392.084 555.861 391.684 555.461 391.191 555.461C390.697 555.461 390.297 555.861 390.297 556.355C390.297 556.848 390.697 557.248 391.191 557.248Z" fill="#040919"/>
<path d="M380.925 563.171C381.418 563.171 381.818 562.771 381.818 562.277C381.818 561.784 381.418 561.384 380.925 561.384C380.431 561.384 380.031 561.784 380.031 562.277C380.031 562.771 380.431 563.171 380.925 563.171Z" fill="#040919"/>
<path d="M391.191 569.108C391.684 569.108 392.084 568.707 392.084 568.214C392.084 567.72 391.684 567.32 391.191 567.32C390.697 567.32 390.297 567.72 390.297 568.214C390.297 568.707 390.697 569.108 391.191 569.108Z" fill="#040919"/>
<path d="M401.456 563.171C401.95 563.171 402.35 562.771 402.35 562.277C402.35 561.784 401.95 561.384 401.456 561.384C400.963 561.384 400.562 561.784 400.562 562.277C400.562 562.771 400.963 563.171 401.456 563.171Z" fill="#040919"/>
<path d="M350.12 545.401C350.614 545.401 351.014 545 351.014 544.507C351.014 544.013 350.614 543.613 350.12 543.613C349.627 543.613 349.227 544.013 349.227 544.507C349.227 545 349.627 545.401 350.12 545.401Z" fill="#040919"/>
<path d="M380.925 539.466C381.418 539.466 381.818 539.066 381.818 538.572C381.818 538.079 381.418 537.679 380.925 537.679C380.431 537.679 380.031 538.079 380.031 538.572C380.031 539.066 380.431 539.466 380.925 539.466Z" fill="#040919"/>
<path d="M391.191 545.401C391.684 545.401 392.084 545 392.084 544.507C392.084 544.013 391.684 543.613 391.191 543.613C390.697 543.613 390.297 544.013 390.297 544.507C390.297 545 390.697 545.401 391.191 545.401Z" fill="#040919"/>
<path d="M401.456 551.325C401.95 551.325 402.35 550.925 402.35 550.432C402.35 549.938 401.95 549.538 401.456 549.538C400.963 549.538 400.562 549.938 400.562 550.432C400.562 550.925 400.963 551.325 401.456 551.325Z" fill="#040919"/>
<path d="M411.718 557.248C412.211 557.248 412.611 556.848 412.611 556.355C412.611 555.861 412.211 555.461 411.718 555.461C411.224 555.461 410.824 555.861 410.824 556.355C410.824 556.848 411.224 557.248 411.718 557.248Z" fill="#040919"/>
<path d="M370.663 533.541C371.157 533.541 371.557 533.141 371.557 532.647C371.557 532.154 371.157 531.754 370.663 531.754C370.17 531.754 369.77 532.154 369.77 532.647C369.77 533.141 370.17 533.541 370.663 533.541Z" fill="#040919"/>
<path d="M319.331 563.171C319.825 563.171 320.225 562.771 320.225 562.277C320.225 561.784 319.825 561.384 319.331 561.384C318.838 561.384 318.438 561.784 318.438 562.277C318.438 562.771 318.838 563.171 319.331 563.171Z" fill="#040919"/>
<path d="M329.593 569.108C330.086 569.108 330.486 568.707 330.486 568.214C330.486 567.72 330.086 567.32 329.593 567.32C329.099 567.32 328.699 567.72 328.699 568.214C328.699 568.707 329.099 569.108 329.593 569.108Z" fill="#040919"/>
<path d="M309.065 569.108C309.559 569.108 309.959 568.707 309.959 568.214C309.959 567.72 309.559 567.32 309.065 567.32C308.572 567.32 308.172 567.72 308.172 568.214C308.172 568.707 308.572 569.108 309.065 569.108Z" fill="#040919"/>
<path d="M319.331 575.03C319.825 575.03 320.225 574.63 320.225 574.137C320.225 573.643 319.825 573.243 319.331 573.243C318.838 573.243 318.438 573.643 318.438 574.137C318.438 574.63 318.838 575.03 319.331 575.03Z" fill="#040919"/>
<path d="M329.593 580.954C330.086 580.954 330.486 580.554 330.486 580.061C330.486 579.567 330.086 579.167 329.593 579.167C329.099 579.167 328.699 579.567 328.699 580.061C328.699 580.554 329.099 580.954 329.593 580.954Z" fill="#040919"/>
<path d="M309.065 580.954C309.559 580.954 309.959 580.554 309.959 580.061C309.959 579.567 309.559 579.167 309.065 579.167C308.572 579.167 308.172 579.567 308.172 580.061C308.172 580.554 308.572 580.954 309.065 580.954Z" fill="#040919"/>
<path d="M319.331 586.877C319.825 586.877 320.225 586.477 320.225 585.983C320.225 585.49 319.825 585.09 319.331 585.09C318.838 585.09 318.438 585.49 318.438 585.983C318.438 586.477 318.838 586.877 319.331 586.877Z" fill="#040919"/>
<path d="M298.804 575.03C299.297 575.03 299.697 574.63 299.697 574.137C299.697 573.643 299.297 573.243 298.804 573.243C298.31 573.243 297.91 573.643 297.91 574.137C297.91 574.63 298.31 575.03 298.804 575.03Z" fill="#040919"/>
<path d="M329.593 592.814C330.086 592.814 330.486 592.414 330.486 591.92C330.486 591.426 330.086 591.026 329.593 591.026C329.099 591.026 328.699 591.426 328.699 591.92C328.699 592.414 329.099 592.814 329.593 592.814Z" fill="#040919"/>
<path d="M309.065 557.248C309.559 557.248 309.959 556.848 309.959 556.355C309.959 555.861 309.559 555.461 309.065 555.461C308.572 555.461 308.172 555.861 308.172 556.355C308.172 556.848 308.572 557.248 309.065 557.248Z" fill="#040919"/>
<path d="M298.804 563.171C299.297 563.171 299.697 562.771 299.697 562.277C299.697 561.784 299.297 561.384 298.804 561.384C298.31 561.384 297.91 561.784 297.91 562.277C297.91 562.771 298.31 563.171 298.804 563.171Z" fill="#040919"/>
<path d="M329.593 545.401C330.086 545.401 330.486 545 330.486 544.507C330.486 544.013 330.086 543.613 329.593 543.613C329.099 543.613 328.699 544.013 328.699 544.507C328.699 545 329.099 545.401 329.593 545.401Z" fill="#040919"/>
<path d="M319.331 551.325C319.825 551.325 320.225 550.925 320.225 550.432C320.225 549.938 319.825 549.538 319.331 549.538C318.838 549.538 318.438 549.938 318.438 550.432C318.438 550.925 318.838 551.325 319.331 551.325Z" fill="#040919"/>
<path d="M339.858 539.466C340.352 539.466 340.752 539.066 340.752 538.572C340.752 538.079 340.352 537.679 339.858 537.679C339.365 537.679 338.965 538.079 338.965 538.572C338.965 539.066 339.365 539.466 339.858 539.466Z" fill="#040919"/>
<path d="M288.538 569.108C289.032 569.108 289.432 568.707 289.432 568.214C289.432 567.72 289.032 567.32 288.538 567.32C288.045 567.32 287.645 567.72 287.645 568.214C287.645 568.707 288.045 569.108 288.538 569.108Z" fill="#040919"/>
<path d="M309.065 533.541C309.559 533.541 309.959 533.141 309.959 532.647C309.959 532.154 309.559 531.754 309.065 531.754C308.572 531.754 308.172 532.154 308.172 532.647C308.172 533.141 308.572 533.541 309.065 533.541Z" fill="#040919"/>
<path d="M298.804 539.466C299.297 539.466 299.697 539.066 299.697 538.572C299.697 538.079 299.297 537.679 298.804 537.679C298.31 537.679 297.91 538.079 297.91 538.572C297.91 539.066 298.31 539.466 298.804 539.466Z" fill="#040919"/>
<path d="M288.538 545.401C289.032 545.401 289.432 545 289.432 544.507C289.432 544.013 289.032 543.613 288.538 543.613C288.045 543.613 287.645 544.013 287.645 544.507C287.645 545 288.045 545.401 288.538 545.401Z" fill="#040919"/>
<path d="M278.265 551.325C278.758 551.325 279.158 550.925 279.158 550.432C279.158 549.938 278.758 549.538 278.265 549.538C277.771 549.538 277.371 549.938 277.371 550.432C277.371 550.925 277.771 551.325 278.265 551.325Z" fill="#040919"/>
<path d="M309.065 545.401C309.559 545.401 309.959 545 309.959 544.507C309.959 544.013 309.559 543.613 309.065 543.613C308.572 543.613 308.172 544.013 308.172 544.507C308.172 545 308.572 545.401 309.065 545.401Z" fill="#040919"/>
<path d="M298.804 551.325C299.297 551.325 299.697 550.925 299.697 550.432C299.697 549.938 299.297 549.538 298.804 549.538C298.31 549.538 297.91 549.938 297.91 550.432C297.91 550.925 298.31 551.325 298.804 551.325Z" fill="#040919"/>
<path d="M319.331 539.466C319.825 539.466 320.225 539.066 320.225 538.572C320.225 538.079 319.825 537.679 319.331 537.679C318.838 537.679 318.438 538.079 318.438 538.572C318.438 539.066 318.838 539.466 319.331 539.466Z" fill="#040919"/>
<path d="M288.538 557.248C289.032 557.248 289.432 556.848 289.432 556.355C289.432 555.861 289.032 555.461 288.538 555.461C288.045 555.461 287.645 555.861 287.645 556.355C287.645 556.848 288.045 557.248 288.538 557.248Z" fill="#040919"/>
<path d="M278.265 563.171C278.758 563.171 279.158 562.771 279.158 562.277C279.158 561.784 278.758 561.384 278.265 561.384C277.771 561.384 277.371 561.784 277.371 562.277C277.371 562.771 277.771 563.171 278.265 563.171Z" fill="#040919"/>
<path d="M350.12 533.541C350.614 533.541 351.014 533.141 351.014 532.647C351.014 532.154 350.614 531.754 350.12 531.754C349.627 531.754 349.227 532.154 349.227 532.647C349.227 533.141 349.627 533.541 350.12 533.541Z" fill="#040919"/>
<path d="M329.593 521.682C330.086 521.682 330.486 521.282 330.486 520.788C330.486 520.295 330.086 519.895 329.593 519.895C329.099 519.895 328.699 520.295 328.699 520.788C328.699 521.282 329.099 521.682 329.593 521.682Z" fill="#040919"/>
<path d="M319.331 527.618C319.825 527.618 320.225 527.218 320.225 526.725C320.225 526.231 319.825 525.831 319.331 525.831C318.838 525.831 318.438 526.231 318.438 526.725C318.438 527.218 318.838 527.618 319.331 527.618Z" fill="#040919"/>
<path d="M329.593 533.541C330.086 533.541 330.486 533.141 330.486 532.647C330.486 532.154 330.086 531.754 329.593 531.754C329.099 531.754 328.699 532.154 328.699 532.647C328.699 533.141 329.099 533.541 329.593 533.541Z" fill="#040919"/>
<path d="M339.858 527.618C340.352 527.618 340.752 527.218 340.752 526.725C340.752 526.231 340.352 525.831 339.858 525.831C339.365 525.831 338.965 526.231 338.965 526.725C338.965 527.218 339.365 527.618 339.858 527.618Z" fill="#040919"/>
<path d="M360.398 527.618C360.891 527.618 361.291 527.218 361.291 526.725C361.291 526.231 360.891 525.831 360.398 525.831C359.904 525.831 359.504 526.231 359.504 526.725C359.504 527.218 359.904 527.618 360.398 527.618Z" fill="#040919"/>
<path d="M339.858 515.759C340.352 515.759 340.752 515.359 340.752 514.865C340.752 514.372 340.352 513.972 339.858 513.972C339.365 513.972 338.965 514.372 338.965 514.865C338.965 515.359 339.365 515.759 339.858 515.759Z" fill="#040919"/>
<path d="M350.12 521.682C350.614 521.682 351.014 521.282 351.014 520.788C351.014 520.295 350.614 519.895 350.12 519.895C349.627 519.895 349.227 520.295 349.227 520.788C349.227 521.282 349.627 521.682 350.12 521.682Z" fill="#040919"/>
<path d="M267.999 557.248C268.493 557.248 268.893 556.848 268.893 556.355C268.893 555.861 268.493 555.461 267.999 555.461C267.506 555.461 267.105 555.861 267.105 556.355C267.105 556.848 267.506 557.248 267.999 557.248Z" fill="#040919"/>
</g>
<path d="M370.662 471.844L391.189 512.516L329.594 574.558L288.539 519.001" stroke="#AA6BFF" stroke-linecap="round" stroke-linejoin="round"/>
<path d="M288.539 556.353V519" stroke="#AA6BFF" stroke-linecap="round" stroke-linejoin="round"/>
<path d="M391.188 544.506V512.515" stroke="#AA6BFF" stroke-linecap="round" stroke-linejoin="round"/>
<path d="M329.594 591.919V574.558" stroke="#AA6BFF" stroke-linecap="round" stroke-linejoin="round"/>
<path d="M334.687 569.451H324.5V579.638H334.687V569.451Z" fill="#040919"/>
<path d="M293.632 514.8H283.445V524.987H293.632V514.8Z" fill="#040919"/>
<path d="M375.754 466.75H365.566V476.937H375.754V466.75Z" fill="#040919"/>
<path d="M396.281 507.423H386.094V517.61H396.281V507.423Z" fill="#040919"/>
<path d="M353.893 503.302C359.84 499.869 360.44 489.775 355.233 480.756C350.027 471.738 340.985 467.211 335.038 470.644C329.091 474.078 328.49 484.172 333.697 493.19C338.904 502.209 347.946 506.736 353.893 503.302Z" stroke="#AA6BFF" stroke-linecap="round" stroke-linejoin="round"/>
<path d="M357.855 518.094C363.063 521.107 367.34 528.498 367.34 534.511V560.694L322.289 534.677V508.494C322.289 502.469 326.553 500.018 331.774 503.018L357.867 518.081L357.855 518.094Z" stroke="#AA6BFF" stroke-linecap="round" stroke-linejoin="round"/>
<path d="M348.167 523.686C353.376 526.699 357.652 534.09 357.652 540.103V566.286L312.602 540.269V514.086C312.602 508.061 316.865 505.61 322.087 508.61L348.18 523.673L348.167 523.686Z" fill="#5516AA"/>
<path d="M344.201 508.891C350.148 505.458 350.749 495.364 345.542 486.345C340.335 477.327 331.293 472.8 325.346 476.233C319.399 479.667 318.799 489.761 324.006 498.779C329.212 507.797 338.254 512.325 344.201 508.891Z" fill="#5516AA"/>
<path d="M309.031 317.354L362.15 348.03V247.78L309.031 217.117V317.354Z" stroke="#AA6BFF" stroke-linecap="round" stroke-linejoin="round"/>
<path d="M564.039 261.783L680.885 329.251" stroke="#AA6BFF" stroke-miterlimit="10"/>
<path d="M564.039 261.783L569.528 264.962" stroke="white" stroke-miterlimit="10"/>
<path d="M403.191 537.168L496.165 485.85L693.614 599.849L720.754 584.185V506.658" stroke="#AA6BFF" stroke-miterlimit="10"/>
<defs>
<linearGradient id="paint0_linear_365_10" x1="10.2344" y1="144.836" x2="265.04" y2="144.836" gradientUnits="userSpaceOnUse">
<stop stop-color="#D0D3F5"/>
<stop offset="0.06" stop-color="#D0D3F5" stop-opacity="0.78"/>
<stop offset="0.14" stop-color="#D0D3F5" stop-opacity="0.55"/>
<stop offset="0.21" stop-color="#D0D3F5" stop-opacity="0.35"/>
<stop offset="0.28" stop-color="#D0D3F5" stop-opacity="0.2"/>
<stop offset="0.35" stop-color="#D0D3F5" stop-opacity="0.09"/>
<stop offset="0.4" stop-color="#D0D3F5" stop-opacity="0.02"/>
<stop offset="0.45" stop-color="#D0D3F5" stop-opacity="0"/>
</linearGradient>
<linearGradient id="paint1_linear_365_10" x1="504.549" y1="375.872" x2="487.571" y2="343.191" gradientUnits="userSpaceOnUse">
<stop stop-color="#130724"/>
<stop offset="1" stop-color="#6520C2"/>
</linearGradient>
<linearGradient id="paint2_linear_365_10" x1="366.258" y1="240.056" x2="385.918" y2="274.945" gradientUnits="userSpaceOnUse">
<stop stop-color="#D0D3F5"/>
<stop offset="0.23" stop-color="#E0E1F5"/>
<stop offset="0.4" stop-color="#E6E7F5"/>
</linearGradient>
<linearGradient id="paint3_linear_365_10" x1="109.83" y1="478.077" x2="181.166" y2="478.077" gradientUnits="userSpaceOnUse">
<stop stop-color="#16072C"/>
<stop offset="1" stop-color="#6520C2"/>
</linearGradient>
<linearGradient id="paint4_linear_365_10" x1="135.553" y1="306.644" x2="125.57" y2="290.929" gradientUnits="userSpaceOnUse">
<stop stop-color="#120622"/>
<stop offset="1" stop-color="#6520C2"/>
</linearGradient>
<linearGradient id="paint5_linear_365_10" x1="88.8604" y1="562.635" x2="112.63" y2="609.052" gradientUnits="userSpaceOnUse">
<stop stop-color="#BCC0E5"/>
<stop offset="1" stop-color="#BCC0E5" stop-opacity="0"/>
</linearGradient>
<linearGradient id="paint6_linear_365_10" x1="243.297" y1="556.354" x2="436.418" y2="556.354" gradientUnits="userSpaceOnUse">
<stop stop-color="#D0D3F5"/>
<stop offset="0.06" stop-color="#D0D3F5" stop-opacity="0.78"/>
<stop offset="0.14" stop-color="#D0D3F5" stop-opacity="0.55"/>
<stop offset="0.21" stop-color="#D0D3F5" stop-opacity="0.35"/>
<stop offset="0.28" stop-color="#D0D3F5" stop-opacity="0.2"/>
<stop offset="0.35" stop-color="#D0D3F5" stop-opacity="0.09"/>
<stop offset="0.4" stop-color="#D0D3F5" stop-opacity="0.02"/>
<stop offset="0.45" stop-color="#D0D3F5" stop-opacity="0"/>
</linearGradient>
</defs>
</svg>
