<svg width="153" height="152" viewBox="0 0 153 152" fill="none" xmlns="http://www.w3.org/2000/svg">
<path d="M76.64 138.39L12.78 101.52L1 108.32L76.64 151.99L152.28 108.32L140.5 101.52L76.64 138.39Z" fill="#BCC0E5"/>
<path d="M76.64 51.0498L1 94.7198L76.64 138.39L152.28 94.7198L76.64 51.0498Z" fill="url(#paint0_linear_369_3975)"/>
<path d="M76.6406 138.39L152.281 94.7197" stroke="#5D688C" stroke-linecap="round" stroke-linejoin="round"/>
<path d="M1 94.7197L76.64 138.39" stroke="#5D688C" stroke-linecap="round" stroke-linejoin="round"/>
<g opacity="0.25">
<path d="M76.6375 90.7789C77.0241 90.7789 77.3375 90.4655 77.3375 90.0789C77.3375 89.6923 77.0241 89.3789 76.6375 89.3789C76.2509 89.3789 75.9375 89.6923 75.9375 90.0789C75.9375 90.4655 76.2509 90.7789 76.6375 90.7789Z" fill="#040919"/>
<path d="M84.6765 95.4196C85.0631 95.4196 85.3766 95.1061 85.3766 94.7195C85.3766 94.3329 85.0631 94.0195 84.6765 94.0195C84.2899 94.0195 83.9766 94.3329 83.9766 94.7195C83.9766 95.1061 84.2899 95.4196 84.6765 95.4196Z" fill="#040919"/>
<path d="M76.6375 100.06C77.0241 100.06 77.3375 99.7468 77.3375 99.3602C77.3375 98.9736 77.0241 98.6602 76.6375 98.6602C76.2509 98.6602 75.9375 98.9736 75.9375 99.3602C75.9375 99.7468 76.2509 100.06 76.6375 100.06Z" fill="#040919"/>
<path d="M92.7313 100.06C93.1179 100.06 93.4312 99.7468 93.4312 99.3602C93.4312 98.9736 93.1179 98.6602 92.7313 98.6602C92.3447 98.6602 92.0312 98.9736 92.0312 99.3602C92.0312 99.7468 92.3447 100.06 92.7313 100.06Z" fill="#040919"/>
<path d="M84.6765 104.7C85.0631 104.7 85.3766 104.386 85.3766 104C85.3766 103.613 85.0631 103.3 84.6765 103.3C84.2899 103.3 83.9766 103.613 83.9766 104C83.9766 104.386 84.2899 104.7 84.6765 104.7Z" fill="#040919"/>
<path d="M76.6375 109.349C77.0241 109.349 77.3375 109.036 77.3375 108.649C77.3375 108.263 77.0241 107.949 76.6375 107.949C76.2509 107.949 75.9375 108.263 75.9375 108.649C75.9375 109.036 76.2509 109.349 76.6375 109.349Z" fill="#040919"/>
<path d="M100.77 104.7C101.157 104.7 101.47 104.386 101.47 104C101.47 103.613 101.157 103.3 100.77 103.3C100.384 103.3 100.07 103.613 100.07 104C100.07 104.386 100.384 104.7 100.77 104.7Z" fill="#040919"/>
<path d="M92.7313 109.349C93.1179 109.349 93.4312 109.036 93.4312 108.649C93.4312 108.263 93.1179 107.949 92.7313 107.949C92.3447 107.949 92.0312 108.263 92.0312 108.649C92.0312 109.036 92.3447 109.349 92.7313 109.349Z" fill="#040919"/>
<path d="M84.6765 113.99C85.0631 113.99 85.3766 113.676 85.3766 113.29C85.3766 112.903 85.0631 112.59 84.6765 112.59C84.2899 112.59 83.9766 112.903 83.9766 113.29C83.9766 113.676 84.2899 113.99 84.6765 113.99Z" fill="#040919"/>
<path d="M76.6375 118.63C77.0241 118.63 77.3375 118.316 77.3375 117.93C77.3375 117.543 77.0241 117.229 76.6375 117.229C76.2509 117.229 75.9375 117.543 75.9375 117.93C75.9375 118.316 76.2509 118.63 76.6375 118.63Z" fill="#040919"/>
<path d="M100.77 113.99C101.157 113.99 101.47 113.676 101.47 113.29C101.47 112.903 101.157 112.59 100.77 112.59C100.384 112.59 100.07 112.903 100.07 113.29C100.07 113.676 100.384 113.99 100.77 113.99Z" fill="#040919"/>
<path d="M92.7313 118.63C93.1179 118.63 93.4312 118.316 93.4312 117.93C93.4312 117.543 93.1179 117.229 92.7313 117.229C92.3447 117.229 92.0312 117.543 92.0312 117.93C92.0312 118.316 92.3447 118.63 92.7313 118.63Z" fill="#040919"/>
<path d="M108.809 109.349C109.196 109.349 109.509 109.036 109.509 108.649C109.509 108.263 109.196 107.949 108.809 107.949C108.423 107.949 108.109 108.263 108.109 108.649C108.109 109.036 108.423 109.349 108.809 109.349Z" fill="#040919"/>
<path d="M84.6765 123.28C85.0631 123.28 85.3766 122.966 85.3766 122.58C85.3766 122.193 85.0631 121.88 84.6765 121.88C84.2899 121.88 83.9766 122.193 83.9766 122.58C83.9766 122.966 84.2899 123.28 84.6765 123.28Z" fill="#040919"/>
<path d="M76.6375 127.92C77.0241 127.92 77.3375 127.606 77.3375 127.22C77.3375 126.833 77.0241 126.52 76.6375 126.52C76.2509 126.52 75.9375 126.833 75.9375 127.22C75.9375 127.606 76.2509 127.92 76.6375 127.92Z" fill="#040919"/>
<path d="M68.5984 95.4196C68.985 95.4196 69.2985 95.1061 69.2985 94.7195C69.2985 94.3329 68.985 94.0195 68.5984 94.0195C68.2119 94.0195 67.8984 94.3329 67.8984 94.7195C67.8984 95.1061 68.2119 95.4196 68.5984 95.4196Z" fill="#040919"/>
<path d="M92.7313 81.4899C93.1179 81.4899 93.4312 81.1765 93.4312 80.7899C93.4312 80.4033 93.1179 80.0898 92.7313 80.0898C92.3447 80.0898 92.0312 80.4033 92.0312 80.7899C92.0312 81.1765 92.3447 81.4899 92.7313 81.4899Z" fill="#040919"/>
<path d="M100.77 86.1295C101.157 86.1295 101.47 85.8161 101.47 85.4295C101.47 85.0429 101.157 84.7295 100.77 84.7295C100.384 84.7295 100.07 85.0429 100.07 85.4295C100.07 85.8161 100.384 86.1295 100.77 86.1295Z" fill="#040919"/>
<path d="M92.7313 90.7789C93.1179 90.7789 93.4312 90.4655 93.4312 90.0789C93.4312 89.6923 93.1179 89.3789 92.7313 89.3789C92.3447 89.3789 92.0312 89.6923 92.0312 90.0789C92.0312 90.4655 92.3447 90.7789 92.7313 90.7789Z" fill="#040919"/>
<path d="M108.809 90.7789C109.196 90.7789 109.509 90.4655 109.509 90.0789C109.509 89.6923 109.196 89.3789 108.809 89.3789C108.423 89.3789 108.109 89.6923 108.109 90.0789C108.109 90.4655 108.423 90.7789 108.809 90.7789Z" fill="#040919"/>
<path d="M100.77 95.4196C101.157 95.4196 101.47 95.1061 101.47 94.7195C101.47 94.3329 101.157 94.0195 100.77 94.0195C100.384 94.0195 100.07 94.3329 100.07 94.7195C100.07 95.1061 100.384 95.4196 100.77 95.4196Z" fill="#040919"/>
<path d="M116.848 95.4196C117.235 95.4196 117.548 95.1061 117.548 94.7195C117.548 94.3329 117.235 94.0195 116.848 94.0195C116.462 94.0195 116.148 94.3329 116.148 94.7195C116.148 95.1061 116.462 95.4196 116.848 95.4196Z" fill="#040919"/>
<path d="M108.809 100.06C109.196 100.06 109.509 99.7468 109.509 99.3602C109.509 98.9736 109.196 98.6602 108.809 98.6602C108.423 98.6602 108.109 98.9736 108.109 99.3602C108.109 99.7468 108.423 100.06 108.809 100.06Z" fill="#040919"/>
<path d="M116.848 104.7C117.235 104.7 117.548 104.386 117.548 104C117.548 103.613 117.235 103.3 116.848 103.3C116.462 103.3 116.148 103.613 116.148 104C116.148 104.386 116.462 104.7 116.848 104.7Z" fill="#040919"/>
<path d="M124.888 100.06C125.274 100.06 125.587 99.7468 125.587 99.3602C125.587 98.9736 125.274 98.6602 124.888 98.6602C124.501 98.6602 124.188 98.9736 124.188 99.3602C124.188 99.7468 124.501 100.06 124.888 100.06Z" fill="#040919"/>
<path d="M84.6765 86.1295C85.0631 86.1295 85.3766 85.8161 85.3766 85.4295C85.3766 85.0429 85.0631 84.7295 84.6765 84.7295C84.2899 84.7295 83.9766 85.0429 83.9766 85.4295C83.9766 85.8161 84.2899 86.1295 84.6765 86.1295Z" fill="#040919"/>
<path d="M108.809 81.4899C109.196 81.4899 109.509 81.1765 109.509 80.7899C109.509 80.4033 109.196 80.0898 108.809 80.0898C108.423 80.0898 108.109 80.4033 108.109 80.7899C108.109 81.1765 108.423 81.4899 108.809 81.4899Z" fill="#040919"/>
<path d="M116.848 86.1295C117.235 86.1295 117.548 85.8161 117.548 85.4295C117.548 85.0429 117.235 84.7295 116.848 84.7295C116.462 84.7295 116.148 85.0429 116.148 85.4295C116.148 85.8161 116.462 86.1295 116.848 86.1295Z" fill="#040919"/>
<path d="M124.888 90.7789C125.274 90.7789 125.587 90.4655 125.587 90.0789C125.587 89.6923 125.274 89.3789 124.888 89.3789C124.501 89.3789 124.188 89.6923 124.188 90.0789C124.188 90.4655 124.501 90.7789 124.888 90.7789Z" fill="#040919"/>
<path d="M132.927 95.4196C133.313 95.4196 133.627 95.1061 133.627 94.7195C133.627 94.3329 133.313 94.0195 132.927 94.0195C132.54 94.0195 132.227 94.3329 132.227 94.7195C132.227 95.1061 132.54 95.4196 132.927 95.4196Z" fill="#040919"/>
<path d="M100.77 76.8492C101.157 76.8492 101.47 76.5358 101.47 76.1492C101.47 75.7626 101.157 75.4492 100.77 75.4492C100.384 75.4492 100.07 75.7626 100.07 76.1492C100.07 76.5358 100.384 76.8492 100.77 76.8492Z" fill="#040919"/>
<path d="M60.5594 100.06C60.946 100.06 61.2594 99.7468 61.2594 99.3602C61.2594 98.9736 60.946 98.6602 60.5594 98.6602C60.1728 98.6602 59.8594 98.9736 59.8594 99.3602C59.8594 99.7468 60.1728 100.06 60.5594 100.06Z" fill="#040919"/>
<path d="M68.5984 104.7C68.985 104.7 69.2985 104.386 69.2985 104C69.2985 103.613 68.985 103.3 68.5984 103.3C68.2119 103.3 67.8984 103.613 67.8984 104C67.8984 104.386 68.2119 104.7 68.5984 104.7Z" fill="#040919"/>
<path d="M52.5203 104.7C52.9069 104.7 53.2203 104.386 53.2203 104C53.2203 103.613 52.9069 103.3 52.5203 103.3C52.1337 103.3 51.8203 103.613 51.8203 104C51.8203 104.386 52.1337 104.7 52.5203 104.7Z" fill="#040919"/>
<path d="M60.5594 109.349C60.946 109.349 61.2594 109.036 61.2594 108.649C61.2594 108.263 60.946 107.949 60.5594 107.949C60.1728 107.949 59.8594 108.263 59.8594 108.649C59.8594 109.036 60.1728 109.349 60.5594 109.349Z" fill="#040919"/>
<path d="M68.5984 113.99C68.985 113.99 69.2985 113.676 69.2985 113.29C69.2985 112.903 68.985 112.59 68.5984 112.59C68.2119 112.59 67.8984 112.903 67.8984 113.29C67.8984 113.676 68.2119 113.99 68.5984 113.99Z" fill="#040919"/>
<path d="M52.5203 113.99C52.9069 113.99 53.2203 113.676 53.2203 113.29C53.2203 112.903 52.9069 112.59 52.5203 112.59C52.1337 112.59 51.8203 112.903 51.8203 113.29C51.8203 113.676 52.1337 113.99 52.5203 113.99Z" fill="#040919"/>
<path d="M60.5594 118.63C60.946 118.63 61.2594 118.316 61.2594 117.93C61.2594 117.543 60.946 117.229 60.5594 117.229C60.1728 117.229 59.8594 117.543 59.8594 117.93C59.8594 118.316 60.1728 118.63 60.5594 118.63Z" fill="#040919"/>
<path d="M44.4813 109.349C44.8679 109.349 45.1812 109.036 45.1812 108.649C45.1812 108.263 44.8679 107.949 44.4813 107.949C44.0947 107.949 43.7812 108.263 43.7812 108.649C43.7812 109.036 44.0947 109.349 44.4813 109.349Z" fill="#040919"/>
<path d="M68.5984 123.28C68.985 123.28 69.2985 122.966 69.2985 122.58C69.2985 122.193 68.985 121.88 68.5984 121.88C68.2119 121.88 67.8984 122.193 67.8984 122.58C67.8984 122.966 68.2119 123.28 68.5984 123.28Z" fill="#040919"/>
<path d="M52.5203 95.4196C52.9069 95.4196 53.2203 95.1061 53.2203 94.7195C53.2203 94.3329 52.9069 94.0195 52.5203 94.0195C52.1337 94.0195 51.8203 94.3329 51.8203 94.7195C51.8203 95.1061 52.1337 95.4196 52.5203 95.4196Z" fill="#040919"/>
<path d="M44.4813 100.06C44.8679 100.06 45.1812 99.7468 45.1812 99.3602C45.1812 98.9736 44.8679 98.6602 44.4813 98.6602C44.0947 98.6602 43.7812 98.9736 43.7812 99.3602C43.7812 99.7468 44.0947 100.06 44.4813 100.06Z" fill="#040919"/>
<path d="M68.5984 86.1295C68.985 86.1295 69.2985 85.8161 69.2985 85.4295C69.2985 85.0429 68.985 84.7295 68.5984 84.7295C68.2119 84.7295 67.8984 85.0429 67.8984 85.4295C67.8984 85.8161 68.2119 86.1295 68.5984 86.1295Z" fill="#040919"/>
<path d="M60.5594 90.7789C60.946 90.7789 61.2594 90.4655 61.2594 90.0789C61.2594 89.6923 60.946 89.3789 60.5594 89.3789C60.1728 89.3789 59.8594 89.6923 59.8594 90.0789C59.8594 90.4655 60.1728 90.7789 60.5594 90.7789Z" fill="#040919"/>
<path d="M76.6375 81.4899C77.0241 81.4899 77.3375 81.1765 77.3375 80.7899C77.3375 80.4033 77.0241 80.0898 76.6375 80.0898C76.2509 80.0898 75.9375 80.4033 75.9375 80.7899C75.9375 81.1765 76.2509 81.4899 76.6375 81.4899Z" fill="#040919"/>
<path d="M36.4383 104.7C36.8249 104.7 37.1383 104.386 37.1383 104C37.1383 103.613 36.8249 103.3 36.4383 103.3C36.0517 103.3 35.7383 103.613 35.7383 104C35.7383 104.386 36.0517 104.7 36.4383 104.7Z" fill="#040919"/>
<path d="M52.5203 76.8492C52.9069 76.8492 53.2203 76.5358 53.2203 76.1492C53.2203 75.7626 52.9069 75.4492 52.5203 75.4492C52.1337 75.4492 51.8203 75.7626 51.8203 76.1492C51.8203 76.5358 52.1337 76.8492 52.5203 76.8492Z" fill="#040919"/>
<path d="M44.4813 81.4899C44.8679 81.4899 45.1812 81.1765 45.1812 80.7899C45.1812 80.4033 44.8679 80.0898 44.4813 80.0898C44.0947 80.0898 43.7812 80.4033 43.7812 80.7899C43.7812 81.1765 44.0947 81.4899 44.4813 81.4899Z" fill="#040919"/>
<path d="M36.4383 86.1295C36.8249 86.1295 37.1383 85.8161 37.1383 85.4295C37.1383 85.0429 36.8249 84.7295 36.4383 84.7295C36.0517 84.7295 35.7383 85.0429 35.7383 85.4295C35.7383 85.8161 36.0517 86.1295 36.4383 86.1295Z" fill="#040919"/>
<path d="M28.3875 90.7789C28.7741 90.7789 29.0875 90.4655 29.0875 90.0789C29.0875 89.6923 28.7741 89.3789 28.3875 89.3789C28.0009 89.3789 27.6875 89.6923 27.6875 90.0789C27.6875 90.4655 28.0009 90.7789 28.3875 90.7789Z" fill="#040919"/>
<path d="M52.5203 86.1295C52.9069 86.1295 53.2203 85.8161 53.2203 85.4295C53.2203 85.0429 52.9069 84.7295 52.5203 84.7295C52.1337 84.7295 51.8203 85.0429 51.8203 85.4295C51.8203 85.8161 52.1337 86.1295 52.5203 86.1295Z" fill="#040919"/>
<path d="M44.4813 90.7789C44.8679 90.7789 45.1812 90.4655 45.1812 90.0789C45.1812 89.6923 44.8679 89.3789 44.4813 89.3789C44.0947 89.3789 43.7812 89.6923 43.7812 90.0789C43.7812 90.4655 44.0947 90.7789 44.4813 90.7789Z" fill="#040919"/>
<path d="M60.5594 81.4899C60.946 81.4899 61.2594 81.1765 61.2594 80.7899C61.2594 80.4033 60.946 80.0898 60.5594 80.0898C60.1728 80.0898 59.8594 80.4033 59.8594 80.7899C59.8594 81.1765 60.1728 81.4899 60.5594 81.4899Z" fill="#040919"/>
<path d="M36.4383 95.4196C36.8249 95.4196 37.1383 95.1061 37.1383 94.7195C37.1383 94.3329 36.8249 94.0195 36.4383 94.0195C36.0517 94.0195 35.7383 94.3329 35.7383 94.7195C35.7383 95.1061 36.0517 95.4196 36.4383 95.4196Z" fill="#040919"/>
<path d="M28.3875 100.06C28.7741 100.06 29.0875 99.7468 29.0875 99.3602C29.0875 98.9736 28.7741 98.6602 28.3875 98.6602C28.0009 98.6602 27.6875 98.9736 27.6875 99.3602C27.6875 99.7468 28.0009 100.06 28.3875 100.06Z" fill="#040919"/>
<path d="M84.6765 76.8492C85.0631 76.8492 85.3766 76.5358 85.3766 76.1492C85.3766 75.7626 85.0631 75.4492 84.6765 75.4492C84.2899 75.4492 83.9766 75.7626 83.9766 76.1492C83.9766 76.5358 84.2899 76.8492 84.6765 76.8492Z" fill="#040919"/>
<path d="M68.5984 67.5592C68.985 67.5592 69.2985 67.2458 69.2985 66.8592C69.2985 66.4726 68.985 66.1592 68.5984 66.1592C68.2119 66.1592 67.8984 66.4726 67.8984 66.8592C67.8984 67.2458 68.2119 67.5592 68.5984 67.5592Z" fill="#040919"/>
<path d="M60.5594 72.2095C60.946 72.2095 61.2594 71.8962 61.2594 71.5096C61.2594 71.123 60.946 70.8096 60.5594 70.8096C60.1728 70.8096 59.8594 71.123 59.8594 71.5096C59.8594 71.8962 60.1728 72.2095 60.5594 72.2095Z" fill="#040919"/>
<path d="M68.5984 76.8492C68.985 76.8492 69.2985 76.5358 69.2985 76.1492C69.2985 75.7626 68.985 75.4492 68.5984 75.4492C68.2119 75.4492 67.8984 75.7626 67.8984 76.1492C67.8984 76.5358 68.2119 76.8492 68.5984 76.8492Z" fill="#040919"/>
<path d="M76.6375 72.2095C77.0241 72.2095 77.3375 71.8962 77.3375 71.5096C77.3375 71.123 77.0241 70.8096 76.6375 70.8096C76.2509 70.8096 75.9375 71.123 75.9375 71.5096C75.9375 71.8962 76.2509 72.2095 76.6375 72.2095Z" fill="#040919"/>
<path d="M92.7313 72.2095C93.1179 72.2095 93.4312 71.8962 93.4312 71.5096C93.4312 71.123 93.1179 70.8096 92.7313 70.8096C92.3447 70.8096 92.0312 71.123 92.0312 71.5096C92.0312 71.8962 92.3447 72.2095 92.7313 72.2095Z" fill="#040919"/>
<path d="M76.6375 62.9196C77.0241 62.9196 77.3375 62.6061 77.3375 62.2195C77.3375 61.8329 77.0241 61.5195 76.6375 61.5195C76.2509 61.5195 75.9375 61.8329 75.9375 62.2195C75.9375 62.6061 76.2509 62.9196 76.6375 62.9196Z" fill="#040919"/>
<path d="M84.6765 67.5592C85.0631 67.5592 85.3766 67.2458 85.3766 66.8592C85.3766 66.4726 85.0631 66.1592 84.6765 66.1592C84.2899 66.1592 83.9766 66.4726 83.9766 66.8592C83.9766 67.2458 84.2899 67.5592 84.6765 67.5592Z" fill="#040919"/>
<path d="M20.3484 95.4196C20.735 95.4196 21.0484 95.1061 21.0484 94.7195C21.0484 94.3329 20.735 94.0195 20.3484 94.0195C19.9618 94.0195 19.6484 94.3329 19.6484 94.7195C19.6484 95.1061 19.9618 95.4196 20.3484 95.4196Z" fill="#040919"/>
</g>
<path d="M107.52 91.1202L101.59 87.7003C98.96 86.1803 95.32 85.2402 91.3 85.2402C83.26 85.2402 76.75 89.0003 76.75 93.6403C76.75 95.9603 78.38 98.0602 81.01 99.5802L86.94 103C89.57 104.52 93.21 105.46 97.23 105.46C105.27 105.46 111.78 101.7 111.78 97.0602C111.78 94.7402 110.15 92.6402 107.52 91.1202Z" fill="#BCC0E5"/>
<path d="M75.5106 105.16L72.7306 103.56C70.1006 102.04 66.4606 101.1 62.4406 101.1C54.4006 101.1 47.8906 104.86 47.8906 109.5C47.8906 111.82 49.5206 113.92 52.1506 115.44L54.9306 117.04C57.5606 118.56 61.2006 119.5 65.2206 119.5C73.2606 119.5 79.7706 115.74 79.7706 111.1C79.7706 108.78 78.1406 106.68 75.5106 105.16Z" fill="#BCC0E5"/>
<path d="M68.261 64.159C64.241 64.159 60.6109 63.219 57.9709 61.699C55.3409 60.179 53.7109 58.079 53.7109 55.759V60.449C53.7109 62.769 55.3409 64.869 57.9709 66.389C60.6009 67.909 64.241 68.849 68.261 68.849C76.301 68.849 82.8109 65.089 82.8109 60.449V55.749C82.8109 60.389 76.301 64.149 68.261 64.149V64.159Z" fill="url(#paint1_linear_369_3975)"/>
<path d="M68.261 68.8592C64.241 68.8592 60.6109 67.9192 57.9709 66.3992C55.3409 64.8792 53.7109 62.7792 53.7109 60.4592V65.1492C53.7109 67.4692 55.3409 69.5692 57.9709 71.0892C60.6009 72.6092 64.241 73.5492 68.261 73.5492C76.301 73.5492 82.8109 69.7892 82.8109 65.1492V60.4492C82.8109 65.0892 76.301 68.8492 68.261 68.8492V68.8592Z" fill="url(#paint2_linear_369_3975)"/>
<path d="M68.261 73.5486C64.241 73.5486 60.6109 72.6086 57.9709 71.0886C55.3409 69.5686 53.7109 67.4686 53.7109 65.1486V69.8386C53.7109 72.1586 55.3409 74.2586 57.9709 75.7786C60.6009 77.2986 64.241 78.2386 68.261 78.2386C76.301 78.2386 82.8109 74.4786 82.8109 69.8386V65.1387C82.8109 69.7787 76.301 73.5386 68.261 73.5386V73.5486Z" fill="url(#paint3_linear_369_3975)"/>
<path d="M68.261 78.2499C64.241 78.2499 60.6109 77.3099 57.9709 75.7899C55.3409 74.2699 53.7109 72.1699 53.7109 69.8499V74.5399C53.7109 76.8599 55.3409 78.9599 57.9709 80.4799C60.6009 81.9999 64.241 82.9399 68.261 82.9399C76.301 82.9399 82.8109 79.1799 82.8109 74.5399V69.8398C82.8109 74.4798 76.301 78.2399 68.261 78.2399V78.2499Z" fill="url(#paint4_linear_369_3975)"/>
<path d="M68.261 82.9393C64.241 82.9393 60.6109 81.9993 57.9709 80.4793C55.3409 78.9593 53.7109 76.8593 53.7109 74.5393V79.2293C53.7109 81.5493 55.3409 83.6493 57.9709 85.1693C60.6009 86.6893 64.241 87.6293 68.261 87.6293C76.301 87.6293 82.8109 83.8693 82.8109 79.2293V74.5293C82.8109 79.1693 76.301 82.9293 68.261 82.9293V82.9393Z" fill="url(#paint5_linear_369_3975)"/>
<path d="M68.261 87.6395C64.241 87.6395 60.6109 86.6995 57.9709 85.1795C55.3409 83.6595 53.7109 81.5595 53.7109 79.2395V83.9295C53.7109 86.2495 55.3409 88.3495 57.9709 89.8695C60.6009 91.3895 64.241 92.3295 68.261 92.3295C76.301 92.3295 82.8109 88.5695 82.8109 83.9295V79.2295C82.8109 83.8695 76.301 87.6295 68.261 87.6295V87.6395Z" fill="url(#paint6_linear_369_3975)"/>
<path d="M68.261 64.1594C76.301 64.1594 82.8109 60.3994 82.8109 55.7594C82.8109 53.4394 81.181 51.3394 78.551 49.8194C75.921 48.2994 72.281 47.3594 68.261 47.3594C60.221 47.3594 53.7109 51.1194 53.7109 55.7594C53.7109 58.0794 55.3409 60.1794 57.9709 61.6994C60.6009 63.2194 64.241 64.1594 68.261 64.1594Z" fill="#AF76FB"/>
<path d="M57.8984 55.7593C57.8984 57.4093 59.0584 58.8993 60.9284 59.9893C62.7984 61.0793 65.3884 61.7393 68.2484 61.7393C73.9684 61.7393 78.5984 59.0593 78.5984 55.7593C78.5984 54.1093 77.4385 52.6193 75.5685 51.5293C73.6985 50.4493 71.1084 49.7793 68.2484 49.7793" stroke="white" stroke-linecap="round" stroke-linejoin="round"/>
<path d="M54.1016 62.3994C54.7316 63.9394 56.1016 65.3194 57.9716 66.3994C60.6016 67.9194 64.2416 68.8594 68.2616 68.8594C69.8516 68.8594 71.3916 68.7095 72.8216 68.4395" stroke="#AF76FB" stroke-linecap="round" stroke-linejoin="round"/>
<path d="M54.1016 67.0898C54.7316 68.6298 56.1016 70.0098 57.9716 71.0898C60.6016 72.6098 64.2416 73.5499 68.2616 73.5499C69.8516 73.5499 71.3916 73.3999 72.8216 73.1299" stroke="#AF76FB" stroke-linecap="round" stroke-linejoin="round"/>
<path d="M54.1016 71.7891C54.7316 73.3291 56.1016 74.7091 57.9716 75.7891C60.6016 77.3091 64.2416 78.2491 68.2616 78.2491C69.8516 78.2491 71.3916 78.099 72.8216 77.829" stroke="#AF76FB" stroke-linecap="round" stroke-linejoin="round"/>
<path d="M54.1016 76.4795C54.7316 78.0195 56.1016 79.3995 57.9716 80.4795C60.6016 81.9995 64.2416 82.9395 68.2616 82.9395C69.8516 82.9395 71.3916 82.7895 72.8216 82.5195" stroke="#AF76FB" stroke-linecap="round" stroke-linejoin="round"/>
<path d="M54.1016 81.1797C54.7316 82.7197 56.1016 84.0997 57.9716 85.1797C60.6016 86.6997 64.2416 87.6397 68.2616 87.6397C69.8516 87.6397 71.3916 87.4897 72.8216 87.2197" stroke="#AF76FB" stroke-linecap="round" stroke-linejoin="round"/>
<path d="M53.7109 9.40039V14.0904" stroke="#AF76FB" stroke-linecap="round" stroke-linejoin="round"/>
<path d="M82.8125 14.0904V9.40039" stroke="#AF76FB" stroke-linecap="round" stroke-linejoin="round"/>
<path d="M68.261 17.8C76.301 17.8 82.8109 14.04 82.8109 9.39996C82.8109 7.07996 81.181 4.97996 78.551 3.45996C75.921 1.93996 72.281 1 68.261 1C60.221 1 53.7109 4.75996 53.7109 9.39996C53.7109 11.72 55.3409 13.82 57.9709 15.34C60.6009 16.86 64.241 17.8 68.261 17.8V17.8Z" stroke="#AF76FB" stroke-linecap="round" stroke-linejoin="round"/>
<path d="M68.261 22.4904C76.301 22.4904 82.8109 18.7304 82.8109 14.0904C82.8109 11.7704 81.181 9.67039 78.551 8.15039C75.921 6.63039 72.281 5.69043 68.261 5.69043C60.221 5.69043 53.7109 9.45039 53.7109 14.0904C53.7109 16.4104 55.3409 18.5104 57.9709 20.0304C60.6009 21.5504 64.241 22.4904 68.261 22.4904Z" stroke="#AF76FB" stroke-linecap="round" stroke-linejoin="round"/>
<path d="M91.3078 83.2499C87.2878 83.2499 83.6578 82.3099 81.0178 80.7899C78.3878 79.2699 76.7578 77.1699 76.7578 74.8499V79.5399C76.7578 81.8599 78.3878 83.9599 81.0178 85.4799C83.6478 86.9999 87.2878 87.9399 91.3078 87.9399C99.3478 87.9399 105.858 84.1799 105.858 79.5399V74.8398C105.858 79.4798 99.3478 83.2399 91.3078 83.2399V83.2499Z" fill="url(#paint7_linear_369_3975)"/>
<path d="M91.3078 87.9501C87.2878 87.9501 83.6578 87.0101 81.0178 85.4901C78.3878 83.9701 76.7578 81.87 76.7578 79.55V84.2401C76.7578 86.5601 78.3878 88.6601 81.0178 90.1801C83.6478 91.7001 87.2878 92.6401 91.3078 92.6401C99.3478 92.6401 105.858 88.8801 105.858 84.2401V79.54C105.858 84.18 99.3478 87.9401 91.3078 87.9401V87.9501Z" fill="url(#paint8_linear_369_3975)"/>
<path d="M91.3078 92.6405C87.2878 92.6405 83.6578 91.7005 81.0178 90.1805C78.3878 88.6605 76.7578 86.5605 76.7578 84.2405V88.9305C76.7578 91.2505 78.3878 93.3505 81.0178 94.8705C83.6478 96.3905 87.2878 97.3304 91.3078 97.3304C99.3478 97.3304 105.858 93.5705 105.858 88.9305V84.2305C105.858 88.8705 99.3478 92.6305 91.3078 92.6305V92.6405Z" fill="url(#paint9_linear_369_3975)"/>
<path d="M91.3078 97.3397C87.2878 97.3397 83.6578 96.3997 81.0178 94.8797C78.3878 93.3597 76.7578 91.2597 76.7578 88.9397V93.6297C76.7578 95.9497 78.3878 98.0497 81.0178 99.5697C83.6478 101.09 87.2878 102.03 91.3078 102.03C99.3478 102.03 105.858 98.2697 105.858 93.6297V88.9297C105.858 93.5697 99.3478 97.3297 91.3078 97.3297V97.3397Z" fill="url(#paint10_linear_369_3975)"/>
<path d="M91.3078 83.2502C99.3478 83.2502 105.858 79.4902 105.858 74.8502C105.858 72.5302 104.228 70.4302 101.598 68.9102C98.9678 67.3902 95.3278 66.4502 91.3078 66.4502C83.2678 66.4502 76.7578 70.2102 76.7578 74.8502C76.7578 77.1702 78.3878 79.2702 81.0178 80.7902C83.6478 82.3102 87.2878 83.2502 91.3078 83.2502Z" fill="#AF76FB"/>
<path d="M91.307 68.8809C85.587 68.8809 80.957 71.5608 80.957 74.8608C80.957 76.5108 82.117 78.0008 83.987 79.0908C85.857 80.1808 88.447 80.8408 91.307 80.8408C97.027 80.8408 101.657 78.1608 101.657 74.8608" stroke="white" stroke-linecap="round" stroke-linejoin="round"/>
<path d="M77.1484 81.4902C77.7784 83.0302 79.1484 84.4102 81.0184 85.4902C83.6484 87.0102 87.2884 87.9503 91.3084 87.9503C92.8984 87.9503 94.4384 87.8002 95.8684 87.5302" stroke="#AF76FB" stroke-linecap="round" stroke-linejoin="round"/>
<path d="M77.1484 86.1797C77.7784 87.7197 79.1484 89.0997 81.0184 90.1797C83.6484 91.6997 87.2884 92.6397 91.3084 92.6397C92.8984 92.6397 94.4384 92.4897 95.8684 92.2197" stroke="#AF76FB" stroke-linecap="round" stroke-linejoin="round"/>
<path d="M77.1484 90.8809C77.7784 92.4209 79.1484 93.8009 81.0184 94.8809C83.6484 96.4009 87.2884 97.3408 91.3084 97.3408C92.8984 97.3408 94.4384 97.1908 95.8684 96.9208" stroke="#AF76FB" stroke-linecap="round" stroke-linejoin="round"/>
<path d="M105.858 68.4808V41.1309C105.858 45.7709 99.3478 49.5308 91.3078 49.5308C87.2878 49.5308 83.6578 48.5909 81.0178 47.0709C78.3878 45.5509 76.7578 43.4509 76.7578 41.1309V68.4808" stroke="#AF76FB" stroke-linecap="round" stroke-linejoin="round"/>
<path d="M91.3078 49.5305C99.3478 49.5305 105.858 45.7705 105.858 41.1305C105.858 38.8105 104.228 36.7105 101.598 35.1905C98.9678 33.6705 95.3278 32.7305 91.3078 32.7305C83.2678 32.7305 76.7578 36.4905 76.7578 41.1305C76.7578 43.4505 78.3878 45.5505 81.0178 47.0705C83.6478 48.5905 87.2878 49.5305 91.3078 49.5305Z" stroke="#AF76FB" stroke-linecap="round" stroke-linejoin="round"/>
<path d="M62.4485 113.2C58.4285 113.2 54.7984 112.26 52.1584 110.74C49.5284 109.22 47.8984 107.12 47.8984 104.8V109.49C47.8984 111.81 49.5284 113.91 52.1584 115.43C54.7884 116.95 58.4285 117.89 62.4485 117.89C70.4885 117.89 76.9984 114.13 76.9984 109.49V104.79C76.9984 109.43 70.4885 113.19 62.4485 113.19V113.2Z" fill="url(#paint11_linear_369_3975)"/>
<path d="M62.4485 113.2C70.4885 113.2 76.9984 109.44 76.9984 104.8C76.9984 102.48 75.3684 100.38 72.7384 98.8604C70.1084 97.3404 66.4685 96.4004 62.4485 96.4004C54.4085 96.4004 47.8984 100.16 47.8984 104.8C47.8984 107.12 49.5284 109.22 52.1584 110.74C54.7884 112.26 58.4285 113.2 62.4485 113.2Z" fill="#AF76FB"/>
<path d="M62.4477 110.771C68.1677 110.771 72.7977 108.091 72.7977 104.791C72.7977 103.141 71.6376 101.651 69.7676 100.561C67.8976 99.4705 65.3077 98.8105 62.4477 98.8105C56.7277 98.8105 52.0977 101.491 52.0977 104.791" stroke="white" stroke-linecap="round" stroke-linejoin="round"/>
<defs>
<linearGradient id="paint0_linear_369_3975" x1="1" y1="94.7198" x2="152.28" y2="94.7198" gradientUnits="userSpaceOnUse">
<stop stop-color="#D4C1EE"/>
<stop offset="0.45" stop-color="#D6C3EF" stop-opacity="0.22"/>
</linearGradient>
<linearGradient id="paint1_linear_369_3975" x1="67.7809" y1="62.309" x2="62.8809" y2="62.309" gradientUnits="userSpaceOnUse">
<stop stop-color="#130624"/>
<stop offset="1" stop-color="#792EDE"/>
</linearGradient>
<linearGradient id="paint2_linear_369_3975" x1="67.7809" y1="67.0092" x2="62.8809" y2="67.0092" gradientUnits="userSpaceOnUse">
<stop stop-color="#130624"/>
<stop offset="1" stop-color="#792EDE"/>
</linearGradient>
<linearGradient id="paint3_linear_369_3975" x1="67.7809" y1="71.6987" x2="62.8809" y2="71.6987" gradientUnits="userSpaceOnUse">
<stop stop-color="#130624"/>
<stop offset="1" stop-color="#792EDE"/>
</linearGradient>
<linearGradient id="paint4_linear_369_3975" x1="67.7809" y1="76.3999" x2="62.8809" y2="76.3999" gradientUnits="userSpaceOnUse">
<stop stop-color="#130624"/>
<stop offset="1" stop-color="#792EDE"/>
</linearGradient>
<linearGradient id="paint5_linear_369_3975" x1="67.7809" y1="81.0893" x2="62.8809" y2="81.0893" gradientUnits="userSpaceOnUse">
<stop stop-color="#130624"/>
<stop offset="1" stop-color="#792EDE"/>
</linearGradient>
<linearGradient id="paint6_linear_369_3975" x1="67.7809" y1="85.7895" x2="62.8809" y2="85.7895" gradientUnits="userSpaceOnUse">
<stop stop-color="#130624"/>
<stop offset="1" stop-color="#792EDE"/>
</linearGradient>
<linearGradient id="paint7_linear_369_3975" x1="90.8278" y1="81.3999" x2="85.9278" y2="81.3999" gradientUnits="userSpaceOnUse">
<stop stop-color="#130624"/>
<stop offset="1" stop-color="#792EDE"/>
</linearGradient>
<linearGradient id="paint8_linear_369_3975" x1="90.8278" y1="86.1001" x2="85.9278" y2="86.1001" gradientUnits="userSpaceOnUse">
<stop stop-color="#130624"/>
<stop offset="1" stop-color="#792EDE"/>
</linearGradient>
<linearGradient id="paint9_linear_369_3975" x1="90.8178" y1="90.7905" x2="85.9278" y2="90.7905" gradientUnits="userSpaceOnUse">
<stop stop-color="#1B0B32"/>
<stop offset="1" stop-color="#7A2AE7"/>
</linearGradient>
<linearGradient id="paint10_linear_369_3975" x1="90.8178" y1="95.4897" x2="85.9278" y2="95.4897" gradientUnits="userSpaceOnUse">
<stop stop-color="#1B0B32"/>
<stop offset="1" stop-color="#7A2AE7"/>
</linearGradient>
<linearGradient id="paint11_linear_369_3975" x1="61.9684" y1="111.35" x2="57.0684" y2="111.35" gradientUnits="userSpaceOnUse">
<stop stop-color="#130624"/>
<stop offset="1" stop-color="#792EDE"/>
</linearGradient>
</defs>
</svg>
