<svg width="153" height="127" viewBox="0 0 153 127" fill="none" xmlns="http://www.w3.org/2000/svg">
<path d="M76.64 112.54L12.77 75.6699L1 82.4699L76.64 126.14L152.27 82.4699L140.5 75.6699L76.64 112.54Z" fill="#C6B1E3"/>
<path d="M76.64 25.2002L1 68.8702L76.64 112.54L152.27 68.8702L76.64 25.2002Z" fill="url(#paint0_linear_369_3883)"/>
<path d="M76.6309 47.8398L40.2109 68.8698L76.6309 89.8998L113.061 68.8698L76.6309 47.8398Z" fill="#BAA3DA"/>
<path d="M76.6406 112.54L152.271 68.8701" stroke="#5D688C" stroke-linecap="round" stroke-linejoin="round"/>
<path d="M1 68.8701L76.64 112.54" stroke="#5D688C" stroke-linecap="round" stroke-linejoin="round"/>
<g opacity="0.25">
<path d="M76.6297 64.9293C77.0163 64.9293 77.3297 64.6159 77.3297 64.2293C77.3297 63.8427 77.0163 63.5293 76.6297 63.5293C76.2431 63.5293 75.9297 63.8427 75.9297 64.2293C75.9297 64.6159 76.2431 64.9293 76.6297 64.9293Z" fill="#040919"/>
<path d="M84.6766 69.5699C85.0632 69.5699 85.3766 69.2565 85.3766 68.8699C85.3766 68.4833 85.0632 68.1699 84.6766 68.1699C84.29 68.1699 83.9766 68.4833 83.9766 68.8699C83.9766 69.2565 84.29 69.5699 84.6766 69.5699Z" fill="#040919"/>
<path d="M76.6297 74.2105C77.0163 74.2105 77.3297 73.8971 77.3297 73.5105C77.3297 73.1239 77.0163 72.8105 76.6297 72.8105C76.2431 72.8105 75.9297 73.1239 75.9297 73.5105C75.9297 73.8971 76.2431 74.2105 76.6297 74.2105Z" fill="#040919"/>
<path d="M92.7156 74.2105C93.1022 74.2105 93.4156 73.8971 93.4156 73.5105C93.4156 73.1239 93.1022 72.8105 92.7156 72.8105C92.329 72.8105 92.0156 73.1239 92.0156 73.5105C92.0156 73.8971 92.329 74.2105 92.7156 74.2105Z" fill="#040919"/>
<path d="M84.6766 78.86C85.0632 78.86 85.3766 78.5465 85.3766 78.1599C85.3766 77.7733 85.0632 77.46 84.6766 77.46C84.29 77.46 83.9766 77.7733 83.9766 78.1599C83.9766 78.5465 84.29 78.86 84.6766 78.86Z" fill="#040919"/>
<path d="M76.6297 83.4996C77.0163 83.4996 77.3297 83.1862 77.3297 82.7996C77.3297 82.413 77.0163 82.0996 76.6297 82.0996C76.2431 82.0996 75.9297 82.413 75.9297 82.7996C75.9297 83.1862 76.2431 83.4996 76.6297 83.4996Z" fill="#040919"/>
<path d="M100.759 78.86C101.145 78.86 101.459 78.5465 101.459 78.1599C101.459 77.7733 101.145 77.46 100.759 77.46C100.372 77.46 100.059 77.7733 100.059 78.1599C100.059 78.5465 100.372 78.86 100.759 78.86Z" fill="#040919"/>
<path d="M92.7156 83.4996C93.1022 83.4996 93.4156 83.1862 93.4156 82.7996C93.4156 82.413 93.1022 82.0996 92.7156 82.0996C92.329 82.0996 92.0156 82.413 92.0156 82.7996C92.0156 83.1862 92.329 83.4996 92.7156 83.4996Z" fill="#040919"/>
<path d="M84.6766 88.1402C85.0632 88.1402 85.3766 87.8268 85.3766 87.4402C85.3766 87.0536 85.0632 86.7402 84.6766 86.7402C84.29 86.7402 83.9766 87.0536 83.9766 87.4402C83.9766 87.8268 84.29 88.1402 84.6766 88.1402Z" fill="#040919"/>
<path d="M76.6297 92.7799C77.0163 92.7799 77.3297 92.4665 77.3297 92.0799C77.3297 91.6933 77.0163 91.3799 76.6297 91.3799C76.2431 91.3799 75.9297 91.6933 75.9297 92.0799C75.9297 92.4665 76.2431 92.7799 76.6297 92.7799Z" fill="#040919"/>
<path d="M100.759 88.1402C101.145 88.1402 101.459 87.8268 101.459 87.4402C101.459 87.0536 101.145 86.7402 100.759 86.7402C100.372 86.7402 100.059 87.0536 100.059 87.4402C100.059 87.8268 100.372 88.1402 100.759 88.1402Z" fill="#040919"/>
<path d="M92.7156 92.7799C93.1022 92.7799 93.4156 92.4665 93.4156 92.0799C93.4156 91.6933 93.1022 91.3799 92.7156 91.3799C92.329 91.3799 92.0156 91.6933 92.0156 92.0799C92.0156 92.4665 92.329 92.7799 92.7156 92.7799Z" fill="#040919"/>
<path d="M108.798 83.4996C109.184 83.4996 109.498 83.1862 109.498 82.7996C109.498 82.413 109.184 82.0996 108.798 82.0996C108.411 82.0996 108.098 82.413 108.098 82.7996C108.098 83.1862 108.411 83.4996 108.798 83.4996Z" fill="#040919"/>
<path d="M84.6766 97.4303C85.0632 97.4303 85.3766 97.1169 85.3766 96.7303C85.3766 96.3437 85.0632 96.0303 84.6766 96.0303C84.29 96.0303 83.9766 96.3437 83.9766 96.7303C83.9766 97.1169 84.29 97.4303 84.6766 97.4303Z" fill="#040919"/>
<path d="M76.6297 102.07C77.0163 102.07 77.3297 101.757 77.3297 101.37C77.3297 100.983 77.0163 100.67 76.6297 100.67C76.2431 100.67 75.9297 100.983 75.9297 101.37C75.9297 101.757 76.2431 102.07 76.6297 102.07Z" fill="#040919"/>
<path d="M68.5867 69.5699C68.9733 69.5699 69.2867 69.2565 69.2867 68.8699C69.2867 68.4833 68.9733 68.1699 68.5867 68.1699C68.2001 68.1699 67.8867 68.4833 67.8867 68.8699C67.8867 69.2565 68.2001 69.5699 68.5867 69.5699Z" fill="#040919"/>
<path d="M92.7156 55.6402C93.1022 55.6402 93.4156 55.3268 93.4156 54.9402C93.4156 54.5536 93.1022 54.2402 92.7156 54.2402C92.329 54.2402 92.0156 54.5536 92.0156 54.9402C92.0156 55.3268 92.329 55.6402 92.7156 55.6402Z" fill="#040919"/>
<path d="M100.759 60.2799C101.145 60.2799 101.459 59.9665 101.459 59.5799C101.459 59.1933 101.145 58.8799 100.759 58.8799C100.372 58.8799 100.059 59.1933 100.059 59.5799C100.059 59.9665 100.372 60.2799 100.759 60.2799Z" fill="#040919"/>
<path d="M92.7156 64.9293C93.1022 64.9293 93.4156 64.6159 93.4156 64.2293C93.4156 63.8427 93.1022 63.5293 92.7156 63.5293C92.329 63.5293 92.0156 63.8427 92.0156 64.2293C92.0156 64.6159 92.329 64.9293 92.7156 64.9293Z" fill="#040919"/>
<path d="M108.798 64.9293C109.184 64.9293 109.498 64.6159 109.498 64.2293C109.498 63.8427 109.184 63.5293 108.798 63.5293C108.411 63.5293 108.098 63.8427 108.098 64.2293C108.098 64.6159 108.411 64.9293 108.798 64.9293Z" fill="#040919"/>
<path d="M100.759 69.5699C101.145 69.5699 101.459 69.2565 101.459 68.8699C101.459 68.4833 101.145 68.1699 100.759 68.1699C100.372 68.1699 100.059 68.4833 100.059 68.8699C100.059 69.2565 100.372 69.5699 100.759 69.5699Z" fill="#040919"/>
<path d="M116.837 69.5699C117.223 69.5699 117.537 69.2565 117.537 68.8699C117.537 68.4833 117.223 68.1699 116.837 68.1699C116.45 68.1699 116.137 68.4833 116.137 68.8699C116.137 69.2565 116.45 69.5699 116.837 69.5699Z" fill="#040919"/>
<path d="M108.798 74.2105C109.184 74.2105 109.498 73.8971 109.498 73.5105C109.498 73.1239 109.184 72.8105 108.798 72.8105C108.411 72.8105 108.098 73.1239 108.098 73.5105C108.098 73.8971 108.411 74.2105 108.798 74.2105Z" fill="#040919"/>
<path d="M116.837 78.86C117.223 78.86 117.537 78.5465 117.537 78.1599C117.537 77.7733 117.223 77.46 116.837 77.46C116.45 77.46 116.137 77.7733 116.137 78.1599C116.137 78.5465 116.45 78.86 116.837 78.86Z" fill="#040919"/>
<path d="M124.88 74.2105C125.266 74.2105 125.58 73.8971 125.58 73.5105C125.58 73.1239 125.266 72.8105 124.88 72.8105C124.493 72.8105 124.18 73.1239 124.18 73.5105C124.18 73.8971 124.493 74.2105 124.88 74.2105Z" fill="#040919"/>
<path d="M84.6766 60.2799C85.0632 60.2799 85.3766 59.9665 85.3766 59.5799C85.3766 59.1933 85.0632 58.8799 84.6766 58.8799C84.29 58.8799 83.9766 59.1933 83.9766 59.5799C83.9766 59.9665 84.29 60.2799 84.6766 60.2799Z" fill="#040919"/>
<path d="M108.798 55.6402C109.184 55.6402 109.498 55.3268 109.498 54.9402C109.498 54.5536 109.184 54.2402 108.798 54.2402C108.411 54.2402 108.098 54.5536 108.098 54.9402C108.098 55.3268 108.411 55.6402 108.798 55.6402Z" fill="#040919"/>
<path d="M116.837 60.2799C117.223 60.2799 117.537 59.9665 117.537 59.5799C117.537 59.1933 117.223 58.8799 116.837 58.8799C116.45 58.8799 116.137 59.1933 116.137 59.5799C116.137 59.9665 116.45 60.2799 116.837 60.2799Z" fill="#040919"/>
<path d="M124.88 64.9293C125.266 64.9293 125.58 64.6159 125.58 64.2293C125.58 63.8427 125.266 63.5293 124.88 63.5293C124.493 63.5293 124.18 63.8427 124.18 64.2293C124.18 64.6159 124.493 64.9293 124.88 64.9293Z" fill="#040919"/>
<path d="M132.919 69.5699C133.305 69.5699 133.619 69.2565 133.619 68.8699C133.619 68.4833 133.305 68.1699 132.919 68.1699C132.532 68.1699 132.219 68.4833 132.219 68.8699C132.219 69.2565 132.532 69.5699 132.919 69.5699Z" fill="#040919"/>
<path d="M100.759 50.9996C101.145 50.9996 101.459 50.6862 101.459 50.2996C101.459 49.913 101.145 49.5996 100.759 49.5996C100.372 49.5996 100.059 49.913 100.059 50.2996C100.059 50.6862 100.372 50.9996 100.759 50.9996Z" fill="#040919"/>
<path d="M60.5477 74.2105C60.9343 74.2105 61.2477 73.8971 61.2477 73.5105C61.2477 73.1239 60.9343 72.8105 60.5477 72.8105C60.1611 72.8105 59.8477 73.1239 59.8477 73.5105C59.8477 73.8971 60.1611 74.2105 60.5477 74.2105Z" fill="#040919"/>
<path d="M68.5867 78.86C68.9733 78.86 69.2867 78.5465 69.2867 78.1599C69.2867 77.7733 68.9733 77.46 68.5867 77.46C68.2001 77.46 67.8867 77.7733 67.8867 78.1599C67.8867 78.5465 68.2001 78.86 68.5867 78.86Z" fill="#040919"/>
<path d="M52.5086 78.86C52.8952 78.86 53.2086 78.5465 53.2086 78.1599C53.2086 77.7733 52.8952 77.46 52.5086 77.46C52.122 77.46 51.8086 77.7733 51.8086 78.1599C51.8086 78.5465 52.122 78.86 52.5086 78.86Z" fill="#040919"/>
<path d="M60.5477 83.4996C60.9343 83.4996 61.2477 83.1862 61.2477 82.7996C61.2477 82.413 60.9343 82.0996 60.5477 82.0996C60.1611 82.0996 59.8477 82.413 59.8477 82.7996C59.8477 83.1862 60.1611 83.4996 60.5477 83.4996Z" fill="#040919"/>
<path d="M68.5867 88.1402C68.9733 88.1402 69.2867 87.8268 69.2867 87.4402C69.2867 87.0536 68.9733 86.7402 68.5867 86.7402C68.2001 86.7402 67.8867 87.0536 67.8867 87.4402C67.8867 87.8268 68.2001 88.1402 68.5867 88.1402Z" fill="#040919"/>
<path d="M52.5086 88.1402C52.8952 88.1402 53.2086 87.8268 53.2086 87.4402C53.2086 87.0536 52.8952 86.7402 52.5086 86.7402C52.122 86.7402 51.8086 87.0536 51.8086 87.4402C51.8086 87.8268 52.122 88.1402 52.5086 88.1402Z" fill="#040919"/>
<path d="M60.5477 92.7799C60.9343 92.7799 61.2477 92.4665 61.2477 92.0799C61.2477 91.6933 60.9343 91.3799 60.5477 91.3799C60.1611 91.3799 59.8477 91.6933 59.8477 92.0799C59.8477 92.4665 60.1611 92.7799 60.5477 92.7799Z" fill="#040919"/>
<path d="M44.4656 83.4996C44.8522 83.4996 45.1656 83.1862 45.1656 82.7996C45.1656 82.413 44.8522 82.0996 44.4656 82.0996C44.079 82.0996 43.7656 82.413 43.7656 82.7996C43.7656 83.1862 44.079 83.4996 44.4656 83.4996Z" fill="#040919"/>
<path d="M68.5867 97.4303C68.9733 97.4303 69.2867 97.1169 69.2867 96.7303C69.2867 96.3437 68.9733 96.0303 68.5867 96.0303C68.2001 96.0303 67.8867 96.3437 67.8867 96.7303C67.8867 97.1169 68.2001 97.4303 68.5867 97.4303Z" fill="#040919"/>
<path d="M52.5086 69.5699C52.8952 69.5699 53.2086 69.2565 53.2086 68.8699C53.2086 68.4833 52.8952 68.1699 52.5086 68.1699C52.122 68.1699 51.8086 68.4833 51.8086 68.8699C51.8086 69.2565 52.122 69.5699 52.5086 69.5699Z" fill="#040919"/>
<path d="M44.4656 74.2105C44.8522 74.2105 45.1656 73.8971 45.1656 73.5105C45.1656 73.1239 44.8522 72.8105 44.4656 72.8105C44.079 72.8105 43.7656 73.1239 43.7656 73.5105C43.7656 73.8971 44.079 74.2105 44.4656 74.2105Z" fill="#040919"/>
<path d="M68.5867 60.2799C68.9733 60.2799 69.2867 59.9665 69.2867 59.5799C69.2867 59.1933 68.9733 58.8799 68.5867 58.8799C68.2001 58.8799 67.8867 59.1933 67.8867 59.5799C67.8867 59.9665 68.2001 60.2799 68.5867 60.2799Z" fill="#040919"/>
<path d="M60.5477 64.9293C60.9343 64.9293 61.2477 64.6159 61.2477 64.2293C61.2477 63.8427 60.9343 63.5293 60.5477 63.5293C60.1611 63.5293 59.8477 63.8427 59.8477 64.2293C59.8477 64.6159 60.1611 64.9293 60.5477 64.9293Z" fill="#040919"/>
<path d="M76.6297 55.6402C77.0163 55.6402 77.3297 55.3268 77.3297 54.9402C77.3297 54.5536 77.0163 54.2402 76.6297 54.2402C76.2431 54.2402 75.9297 54.5536 75.9297 54.9402C75.9297 55.3268 76.2431 55.6402 76.6297 55.6402Z" fill="#040919"/>
<path d="M36.4266 78.86C36.8132 78.86 37.1266 78.5465 37.1266 78.1599C37.1266 77.7733 36.8132 77.46 36.4266 77.46C36.04 77.46 35.7266 77.7733 35.7266 78.1599C35.7266 78.5465 36.04 78.86 36.4266 78.86Z" fill="#040919"/>
<path d="M52.5086 50.9996C52.8952 50.9996 53.2086 50.6862 53.2086 50.2996C53.2086 49.913 52.8952 49.5996 52.5086 49.5996C52.122 49.5996 51.8086 49.913 51.8086 50.2996C51.8086 50.6862 52.122 50.9996 52.5086 50.9996Z" fill="#040919"/>
<path d="M44.4656 55.6402C44.8522 55.6402 45.1656 55.3268 45.1656 54.9402C45.1656 54.5536 44.8522 54.2402 44.4656 54.2402C44.079 54.2402 43.7656 54.5536 43.7656 54.9402C43.7656 55.3268 44.079 55.6402 44.4656 55.6402Z" fill="#040919"/>
<path d="M36.4266 60.2799C36.8132 60.2799 37.1266 59.9665 37.1266 59.5799C37.1266 59.1933 36.8132 58.8799 36.4266 58.8799C36.04 58.8799 35.7266 59.1933 35.7266 59.5799C35.7266 59.9665 36.04 60.2799 36.4266 60.2799Z" fill="#040919"/>
<path d="M28.3875 64.9293C28.7741 64.9293 29.0875 64.6159 29.0875 64.2293C29.0875 63.8427 28.7741 63.5293 28.3875 63.5293C28.0009 63.5293 27.6875 63.8427 27.6875 64.2293C27.6875 64.6159 28.0009 64.9293 28.3875 64.9293Z" fill="#040919"/>
<path d="M52.5086 60.2799C52.8952 60.2799 53.2086 59.9665 53.2086 59.5799C53.2086 59.1933 52.8952 58.8799 52.5086 58.8799C52.122 58.8799 51.8086 59.1933 51.8086 59.5799C51.8086 59.9665 52.122 60.2799 52.5086 60.2799Z" fill="#040919"/>
<path d="M44.4656 64.9293C44.8522 64.9293 45.1656 64.6159 45.1656 64.2293C45.1656 63.8427 44.8522 63.5293 44.4656 63.5293C44.079 63.5293 43.7656 63.8427 43.7656 64.2293C43.7656 64.6159 44.079 64.9293 44.4656 64.9293Z" fill="#040919"/>
<path d="M60.5477 55.6402C60.9343 55.6402 61.2477 55.3268 61.2477 54.9402C61.2477 54.5536 60.9343 54.2402 60.5477 54.2402C60.1611 54.2402 59.8477 54.5536 59.8477 54.9402C59.8477 55.3268 60.1611 55.6402 60.5477 55.6402Z" fill="#040919"/>
<path d="M36.4266 69.5699C36.8132 69.5699 37.1266 69.2565 37.1266 68.8699C37.1266 68.4833 36.8132 68.1699 36.4266 68.1699C36.04 68.1699 35.7266 68.4833 35.7266 68.8699C35.7266 69.2565 36.04 69.5699 36.4266 69.5699Z" fill="#040919"/>
<path d="M28.3875 74.2105C28.7741 74.2105 29.0875 73.8971 29.0875 73.5105C29.0875 73.1239 28.7741 72.8105 28.3875 72.8105C28.0009 72.8105 27.6875 73.1239 27.6875 73.5105C27.6875 73.8971 28.0009 74.2105 28.3875 74.2105Z" fill="#040919"/>
<path d="M84.6766 50.9996C85.0632 50.9996 85.3766 50.6862 85.3766 50.2996C85.3766 49.913 85.0632 49.5996 84.6766 49.5996C84.29 49.5996 83.9766 49.913 83.9766 50.2996C83.9766 50.6862 84.29 50.9996 84.6766 50.9996Z" fill="#040919"/>
<path d="M68.5867 41.7096C68.9733 41.7096 69.2867 41.3962 69.2867 41.0096C69.2867 40.623 68.9733 40.3096 68.5867 40.3096C68.2001 40.3096 67.8867 40.623 67.8867 41.0096C67.8867 41.3962 68.2001 41.7096 68.5867 41.7096Z" fill="#040919"/>
<path d="M60.5477 46.36C60.9343 46.36 61.2477 46.0465 61.2477 45.6599C61.2477 45.2733 60.9343 44.96 60.5477 44.96C60.1611 44.96 59.8477 45.2733 59.8477 45.6599C59.8477 46.0465 60.1611 46.36 60.5477 46.36Z" fill="#040919"/>
<path d="M68.5867 50.9996C68.9733 50.9996 69.2867 50.6862 69.2867 50.2996C69.2867 49.913 68.9733 49.5996 68.5867 49.5996C68.2001 49.5996 67.8867 49.913 67.8867 50.2996C67.8867 50.6862 68.2001 50.9996 68.5867 50.9996Z" fill="#040919"/>
<path d="M76.6297 46.36C77.0163 46.36 77.3297 46.0465 77.3297 45.6599C77.3297 45.2733 77.0163 44.96 76.6297 44.96C76.2431 44.96 75.9297 45.2733 75.9297 45.6599C75.9297 46.0465 76.2431 46.36 76.6297 46.36Z" fill="#040919"/>
<path d="M92.7156 46.36C93.1022 46.36 93.4156 46.0465 93.4156 45.6599C93.4156 45.2733 93.1022 44.96 92.7156 44.96C92.329 44.96 92.0156 45.2733 92.0156 45.6599C92.0156 46.0465 92.329 46.36 92.7156 46.36Z" fill="#040919"/>
<path d="M76.6297 37.0699C77.0163 37.0699 77.3297 36.7565 77.3297 36.3699C77.3297 35.9833 77.0163 35.6699 76.6297 35.6699C76.2431 35.6699 75.9297 35.9833 75.9297 36.3699C75.9297 36.7565 76.2431 37.0699 76.6297 37.0699Z" fill="#040919"/>
<path d="M84.6766 41.7096C85.0632 41.7096 85.3766 41.3962 85.3766 41.0096C85.3766 40.623 85.0632 40.3096 84.6766 40.3096C84.29 40.3096 83.9766 40.623 83.9766 41.0096C83.9766 41.3962 84.29 41.7096 84.6766 41.7096Z" fill="#040919"/>
<path d="M20.3484 69.5699C20.735 69.5699 21.0485 69.2565 21.0485 68.8699C21.0485 68.4833 20.735 68.1699 20.3484 68.1699C19.9619 68.1699 19.6484 68.4833 19.6484 68.8699C19.6484 69.2565 19.9619 69.5699 20.3484 69.5699Z" fill="#040919"/>
</g>
<path d="M76.6309 32.4199L40.2109 53.4499L76.6309 74.4799L113.061 53.4499L76.6309 32.4199Z" fill="#040919"/>
<path d="M40.2109 53.4502L76.6309 74.4802L113.061 53.4502" stroke="#9A56F7" stroke-linecap="round" stroke-linejoin="round"/>
<path d="M76.6309 21.6201L40.2109 42.6501L76.6309 63.6801L113.061 42.6501L76.6309 21.6201Z" fill="#6520C2"/>
<path d="M40.2109 42.6504L76.6309 63.6804L113.061 42.6504" stroke="#9A56F7" stroke-linecap="round" stroke-linejoin="round"/>
<path d="M76.6309 10.8096L40.2109 31.8396L76.6309 52.8696L113.061 31.8396L76.6309 10.8096Z" fill="#D2C0EB"/>
<path d="M40.2109 31.8398L76.6309 52.8698L113.061 31.8398" stroke="#9A56F7" stroke-linecap="round" stroke-linejoin="round"/>
<path d="M76.6309 0L40.2109 21.03L76.6309 42.06L113.061 21.03L76.6309 0Z" fill="url(#paint1_linear_369_3883)"/>
<path d="M40.2109 21.0303L76.6309 42.0603L113.061 21.0303" stroke="#9A56F7" stroke-linecap="round" stroke-linejoin="round"/>
<path d="M69.8203 29.2594L84.8103 20.6094" stroke="#9A56F7" stroke-linecap="round" stroke-linejoin="round"/>
<path d="M64.8281 26.3807L85.8981 14.2207" stroke="#9A56F7" stroke-linecap="round" stroke-linejoin="round"/>
<path d="M59.8516 23.5098L80.9216 11.3398" stroke="#9A56F7" stroke-linecap="round" stroke-linejoin="round"/>
<path d="M54.8594 20.6299L75.9294 8.45996" stroke="#9A56F7" stroke-linecap="round" stroke-linejoin="round"/>
<defs>
<linearGradient id="paint0_linear_369_3883" x1="1" y1="68.8702" x2="152.27" y2="68.8702" gradientUnits="userSpaceOnUse">
<stop stop-color="#6520C2" stop-opacity="0.42"/>
<stop offset="0.45" stop-color="#D3C3E8"/>
</linearGradient>
<linearGradient id="paint1_linear_369_3883" x1="40.2109" y1="21.03" x2="113.061" y2="21.03" gradientUnits="userSpaceOnUse">
<stop stop-color="#D0D3F5"/>
<stop offset="0.15" stop-color="#D0D3F5" stop-opacity="0.69"/>
<stop offset="0.34" stop-color="#D0D3F5" stop-opacity="0.32"/>
<stop offset="0.48" stop-color="#D0D3F5" stop-opacity="0.09"/>
<stop offset="0.54" stop-color="#D0D3F5" stop-opacity="0"/>
</linearGradient>
</defs>
</svg>
