<svg width="77" height="37" viewBox="0 0 77 37" fill="none" xmlns="http://www.w3.org/2000/svg">
<path d="M5.33301 19.1677C7.48311 19.1677 9.05174 19.5738 10.0389 20.3859C11.0261 21.1979 11.5196 22.4493 11.5196 24.14C11.5196 25.8307 11.0125 27.0688 9.99833 27.8542C8.99765 28.6397 7.45607 29.0324 5.37357 29.0324H2.85836V32.1261C2.85836 32.6783 2.41064 33.1261 1.85836 33.1261H1.46484C0.912559 33.1261 0.464844 32.6783 0.464844 32.1261L0.464844 20.1677C0.464844 19.6155 0.912559 19.1677 1.46484 19.1677H5.33301ZM5.63727 26.8957C8.33504 26.1569 7.86175 26.6495 8.33504 26.1569C8.82186 25.651 9.06527 24.9188 9.06527 23.9603C9.06527 22.9885 8.761 22.3029 8.15248 21.9035C7.54396 21.5041 6.59062 21.3044 5.29244 21.3044H2.85836V26.8957H5.63727Z" fill="#040919"/>
<path d="M19.6656 24.5993C18.5432 24.5993 17.698 24.9587 17.1301 25.6776C16.5621 26.3965 16.2781 27.3617 16.2781 28.5731V32.1261C16.2781 32.6783 15.8304 33.1261 15.2781 33.1261H15.0063C14.454 33.1261 14.0063 32.6783 14.0063 32.1261V23.5026C14.0063 22.9503 14.454 22.5026 15.0063 22.5026H15.2781C15.8304 22.5026 16.2781 22.9503 16.2781 23.5026V24.6392C16.6432 23.9736 17.1368 23.4278 17.7589 23.0018C18.0881 22.7811 18.4264 22.6158 18.7738 22.5059C19.304 22.3381 19.7711 22.7966 19.7761 23.3528L19.7862 24.4776C19.7868 24.5446 19.7326 24.5993 19.6656 24.5993Z" fill="#040919"/>
<path d="M24.5836 30.3304C25.2327 30.9694 26.0509 31.2889 27.038 31.2889C28.0252 31.2889 28.8365 30.9694 29.4721 30.3304C30.1212 29.6781 30.4457 28.8394 30.4457 27.8143C30.4457 26.7892 30.1212 25.9572 29.4721 25.3182C28.8365 24.6659 28.0252 24.3397 27.038 24.3397C26.0509 24.3397 25.2327 24.6659 24.5836 25.3182C23.9481 25.9572 23.6303 26.7892 23.6303 27.8143C23.6303 28.8394 23.9481 29.6781 24.5836 30.3304ZM31.0948 31.7083C30.013 32.76 28.6607 33.2858 27.038 33.2858C25.4153 33.2858 24.063 32.76 22.9812 31.7083C21.8994 30.6432 21.3585 29.3453 21.3585 27.8143C21.3585 26.2834 21.8994 24.992 22.9812 23.9403C24.063 22.8753 25.4153 22.3428 27.038 22.3428C28.6607 22.3428 30.013 22.8753 31.0948 23.9403C32.1766 24.992 32.7175 26.2834 32.7175 27.8143C32.7175 29.3453 32.1766 30.6432 31.0948 31.7083Z" fill="#040919"/>
<path d="M41.0815 22.3428C42.5284 22.3428 43.7658 22.8354 44.7935 23.8205C45.8212 24.8057 46.3351 26.1169 46.3351 27.7544C46.3351 29.3919 45.8212 30.7231 44.7935 31.7482C43.7793 32.7733 42.5893 33.2858 41.2235 33.2858C39.8712 33.2858 38.6542 32.7 37.5724 31.5285V36C37.5724 36.5523 37.1247 37 36.5724 37H36.3006C35.7483 37 35.3006 36.5523 35.3006 36V23.5026C35.3006 22.9503 35.7483 22.5026 36.3006 22.5026H36.5724C37.1247 22.5026 37.5724 22.9503 37.5724 23.5026V24.3597C38.4649 23.0151 39.6346 22.3428 41.0815 22.3428ZM37.5318 27.8343C37.5318 28.846 37.8428 29.6781 38.4649 30.3304C39.0869 30.9694 39.8442 31.2889 40.7367 31.2889C41.6292 31.2889 42.4067 30.9694 43.0693 30.3304C43.732 29.6914 44.0633 28.866 44.0633 27.8542C44.0633 26.8292 43.7387 25.9838 43.0896 25.3182C42.4405 24.6392 41.663 24.2998 40.757 24.2998C39.851 24.2998 39.0869 24.6392 38.4649 25.3182C37.8428 25.9838 37.5318 26.8225 37.5318 27.8343Z" fill="#040919"/>
<path d="M58.9695 28.7928H50.511C50.5651 29.5649 50.9235 30.1906 51.5861 30.6699C52.2487 31.1358 53.006 31.3688 53.8579 31.3688C54.7764 31.3688 55.5451 31.1753 56.1641 30.7884C56.6302 30.4971 57.2715 30.4666 57.6456 30.8693C57.9778 31.2271 57.9745 31.7902 57.5851 32.0847C56.5263 32.8854 55.2298 33.2858 53.6956 33.2858C52.1811 33.2858 50.8897 32.7932 49.8214 31.8081C48.7666 30.8097 48.2392 29.4784 48.2392 27.8143C48.2392 26.1369 48.7801 24.8057 49.862 23.8205C50.9438 22.8354 52.2149 22.3428 53.6754 22.3428C55.1493 22.3428 56.4002 22.7821 57.4279 23.6608C58.4556 24.5261 58.9695 25.7242 58.9695 27.2552V28.7928ZM50.511 27.0355H56.6977C56.6977 26.1436 56.4137 25.458 55.8457 24.9787C55.2778 24.4995 54.5746 24.2598 53.7362 24.2598C52.9113 24.2598 52.1676 24.5128 51.505 25.0187C50.8424 25.5112 50.511 26.1835 50.511 27.0355Z" fill="#040919"/>
<path d="M63.7395 32.1261C63.7395 32.6783 63.2918 33.1261 62.7395 33.1261H62.4677C61.9155 33.1261 61.4677 32.6783 61.4677 32.1261V19.3091C61.4677 18.7568 61.9155 18.3091 62.4677 18.3091H62.7395C63.2918 18.3091 63.7395 18.7568 63.7395 19.3091V32.1261Z" fill="#040919"/>
<path d="M69.3058 26.7544C69.3058 27.3067 68.858 27.7544 68.3058 27.7544H68.034C67.4817 27.7544 67.034 27.3067 67.034 26.7544V19.3091C67.034 18.7568 67.4817 18.3091 68.034 18.3091H68.3058C68.858 18.3091 69.3058 18.7568 69.3058 19.3091V26.7544Z" fill="#040919"/>
<path fill-rule="evenodd" clip-rule="evenodd" d="M61.4701 6.68168L61.4701 14.6735L69.0717 14.6735L69.0717 6.63094L65.6742 2.54885L61.4701 6.68168ZM59.6672 6.44808C59.6672 6.12757 59.7967 5.8202 60.0272 5.59356L64.8476 0.854925C65.3618 0.349374 66.2077 0.390849 66.6682 0.944194L70.5968 5.66438C70.7765 5.88029 70.8747 6.15067 70.8747 6.42963L70.8747 15.2375C70.8747 15.9049 70.3243 16.4459 69.6454 16.4459L60.8965 16.4459C60.2175 16.4459 59.6672 15.9049 59.6672 15.2375L59.6672 6.44808Z" fill="#41C0D2"/>
</svg>
