<svg width="299" height="241" viewBox="0 0 299 241" fill="none" xmlns="http://www.w3.org/2000/svg">
<path d="M92.4297 42.7584L156.76 5.81836" stroke="#B580FD" stroke-linecap="round" stroke-linejoin="round"/>
<path d="M132.64 115.688L68.77 78.8184L57 85.6183L132.64 129.288L208.28 85.6183L196.5 78.8184L132.64 115.688Z" fill="#D6C6EB"/>
<path d="M132.64 28.3486L57 72.0186L132.64 115.689L208.28 72.0186L132.64 28.3486Z" fill="url(#paint0_linear_685_10767)"/>
<path d="M132.641 115.689L208.281 72.0186" stroke="#5D688C" stroke-linecap="round" stroke-linejoin="round"/>
<path d="M57 72.0186L132.64 115.689" stroke="#5D688C" stroke-linecap="round" stroke-linejoin="round"/>
<path d="M167.641 71.869L144.401 85.289L111.281 66.169L134.521 52.749L167.641 71.869Z" fill="#D6C6EB"/>
<g opacity="0.25">
<path d="M132.637 68.0787C133.024 68.0787 133.337 67.7653 133.337 67.3787C133.337 66.9921 133.024 66.6787 132.637 66.6787C132.251 66.6787 131.938 66.9921 131.938 67.3787C131.938 67.7653 132.251 68.0787 132.637 68.0787Z" fill="#040919"/>
<path d="M140.677 72.7184C141.063 72.7184 141.377 72.405 141.377 72.0184C141.377 71.6318 141.063 71.3184 140.677 71.3184C140.29 71.3184 139.977 71.6318 139.977 72.0184C139.977 72.405 140.29 72.7184 140.677 72.7184Z" fill="#040919"/>
<path d="M132.637 77.358C133.024 77.358 133.337 77.0446 133.337 76.658C133.337 76.2714 133.024 75.958 132.637 75.958C132.251 75.958 131.938 76.2714 131.938 76.658C131.938 77.0446 132.251 77.358 132.637 77.358Z" fill="#040919"/>
<path d="M148.72 77.358C149.106 77.358 149.42 77.0446 149.42 76.658C149.42 76.2714 149.106 75.958 148.72 75.958C148.333 75.958 148.02 76.2714 148.02 76.658C148.02 77.0446 148.333 77.358 148.72 77.358Z" fill="#040919"/>
<path d="M140.677 82.0084C141.063 82.0084 141.377 81.695 141.377 81.3084C141.377 80.9218 141.063 80.6084 140.677 80.6084C140.29 80.6084 139.977 80.9218 139.977 81.3084C139.977 81.695 140.29 82.0084 140.677 82.0084Z" fill="#040919"/>
<path d="M132.637 86.648C133.024 86.648 133.337 86.3347 133.337 85.9481C133.337 85.5615 133.024 85.248 132.637 85.248C132.251 85.248 131.938 85.5615 131.938 85.9481C131.938 86.3347 132.251 86.648 132.637 86.648Z" fill="#040919"/>
<path d="M156.759 82.0084C157.145 82.0084 157.459 81.695 157.459 81.3084C157.459 80.9218 157.145 80.6084 156.759 80.6084C156.372 80.6084 156.059 80.9218 156.059 81.3084C156.059 81.695 156.372 82.0084 156.759 82.0084Z" fill="#040919"/>
<path d="M148.72 86.648C149.106 86.648 149.42 86.3347 149.42 85.9481C149.42 85.5615 149.106 85.248 148.72 85.248C148.333 85.248 148.02 85.5615 148.02 85.9481C148.02 86.3347 148.333 86.648 148.72 86.648Z" fill="#040919"/>
<path d="M140.677 91.2887C141.063 91.2887 141.377 90.9753 141.377 90.5887C141.377 90.2021 141.063 89.8887 140.677 89.8887C140.29 89.8887 139.977 90.2021 139.977 90.5887C139.977 90.9753 140.29 91.2887 140.677 91.2887Z" fill="#040919"/>
<path d="M132.637 95.9283C133.024 95.9283 133.337 95.6149 133.337 95.2283C133.337 94.8417 133.024 94.5283 132.637 94.5283C132.251 94.5283 131.938 94.8417 131.938 95.2283C131.938 95.6149 132.251 95.9283 132.637 95.9283Z" fill="#040919"/>
<path d="M156.759 91.2887C157.145 91.2887 157.459 90.9753 157.459 90.5887C157.459 90.2021 157.145 89.8887 156.759 89.8887C156.372 89.8887 156.059 90.2021 156.059 90.5887C156.059 90.9753 156.372 91.2887 156.759 91.2887Z" fill="#040919"/>
<path d="M148.72 95.9283C149.106 95.9283 149.42 95.6149 149.42 95.2283C149.42 94.8417 149.106 94.5283 148.72 94.5283C148.333 94.5283 148.02 94.8417 148.02 95.2283C148.02 95.6149 148.333 95.9283 148.72 95.9283Z" fill="#040919"/>
<path d="M164.798 86.648C165.184 86.648 165.498 86.3347 165.498 85.9481C165.498 85.5615 165.184 85.248 164.798 85.248C164.411 85.248 164.098 85.5615 164.098 85.9481C164.098 86.3347 164.411 86.648 164.798 86.648Z" fill="#040919"/>
<path d="M140.677 100.579C141.063 100.579 141.377 100.265 141.377 99.8787C141.377 99.4921 141.063 99.1787 140.677 99.1787C140.29 99.1787 139.977 99.4921 139.977 99.8787C139.977 100.265 140.29 100.579 140.677 100.579Z" fill="#040919"/>
<path d="M132.637 105.218C133.024 105.218 133.337 104.905 133.337 104.518C133.337 104.132 133.024 103.818 132.637 103.818C132.251 103.818 131.938 104.132 131.938 104.518C131.938 104.905 132.251 105.218 132.637 105.218Z" fill="#040919"/>
<path d="M124.598 72.7184C124.985 72.7184 125.298 72.405 125.298 72.0184C125.298 71.6318 124.985 71.3184 124.598 71.3184C124.212 71.3184 123.898 71.6318 123.898 72.0184C123.898 72.405 124.212 72.7184 124.598 72.7184Z" fill="#040919"/>
<path d="M148.72 58.7887C149.106 58.7887 149.42 58.4753 149.42 58.0887C149.42 57.7021 149.106 57.3887 148.72 57.3887C148.333 57.3887 148.02 57.7021 148.02 58.0887C148.02 58.4753 148.333 58.7887 148.72 58.7887Z" fill="#040919"/>
<path d="M156.759 63.4283C157.145 63.4283 157.459 63.1149 157.459 62.7283C157.459 62.3417 157.145 62.0283 156.759 62.0283C156.372 62.0283 156.059 62.3417 156.059 62.7283C156.059 63.1149 156.372 63.4283 156.759 63.4283Z" fill="#040919"/>
<path d="M148.72 68.0787C149.106 68.0787 149.42 67.7653 149.42 67.3787C149.42 66.9921 149.106 66.6787 148.72 66.6787C148.333 66.6787 148.02 66.9921 148.02 67.3787C148.02 67.7653 148.333 68.0787 148.72 68.0787Z" fill="#040919"/>
<path d="M164.798 68.0787C165.184 68.0787 165.498 67.7653 165.498 67.3787C165.498 66.9921 165.184 66.6787 164.798 66.6787C164.411 66.6787 164.098 66.9921 164.098 67.3787C164.098 67.7653 164.411 68.0787 164.798 68.0787Z" fill="#040919"/>
<path d="M156.759 72.7184C157.145 72.7184 157.459 72.405 157.459 72.0184C157.459 71.6318 157.145 71.3184 156.759 71.3184C156.372 71.3184 156.059 71.6318 156.059 72.0184C156.059 72.405 156.372 72.7184 156.759 72.7184Z" fill="#040919"/>
<path d="M172.837 72.7184C173.223 72.7184 173.537 72.405 173.537 72.0184C173.537 71.6318 173.223 71.3184 172.837 71.3184C172.45 71.3184 172.137 71.6318 172.137 72.0184C172.137 72.405 172.45 72.7184 172.837 72.7184Z" fill="#040919"/>
<path d="M164.798 77.358C165.184 77.358 165.498 77.0446 165.498 76.658C165.498 76.2714 165.184 75.958 164.798 75.958C164.411 75.958 164.098 76.2714 164.098 76.658C164.098 77.0446 164.411 77.358 164.798 77.358Z" fill="#040919"/>
<path d="M172.837 82.0084C173.223 82.0084 173.537 81.695 173.537 81.3084C173.537 80.9218 173.223 80.6084 172.837 80.6084C172.45 80.6084 172.137 80.9218 172.137 81.3084C172.137 81.695 172.45 82.0084 172.837 82.0084Z" fill="#040919"/>
<path d="M180.887 77.358C181.274 77.358 181.587 77.0446 181.587 76.658C181.587 76.2714 181.274 75.958 180.887 75.958C180.501 75.958 180.188 76.2714 180.188 76.658C180.188 77.0446 180.501 77.358 180.887 77.358Z" fill="#040919"/>
<path d="M140.677 63.4283C141.063 63.4283 141.377 63.1149 141.377 62.7283C141.377 62.3417 141.063 62.0283 140.677 62.0283C140.29 62.0283 139.977 62.3417 139.977 62.7283C139.977 63.1149 140.29 63.4283 140.677 63.4283Z" fill="#040919"/>
<path d="M164.798 58.7887C165.184 58.7887 165.498 58.4753 165.498 58.0887C165.498 57.7021 165.184 57.3887 164.798 57.3887C164.411 57.3887 164.098 57.7021 164.098 58.0887C164.098 58.4753 164.411 58.7887 164.798 58.7887Z" fill="#040919"/>
<path d="M172.837 63.4283C173.223 63.4283 173.537 63.1149 173.537 62.7283C173.537 62.3417 173.223 62.0283 172.837 62.0283C172.45 62.0283 172.137 62.3417 172.137 62.7283C172.137 63.1149 172.45 63.4283 172.837 63.4283Z" fill="#040919"/>
<path d="M180.887 68.0787C181.274 68.0787 181.587 67.7653 181.587 67.3787C181.587 66.9921 181.274 66.6787 180.887 66.6787C180.501 66.6787 180.188 66.9921 180.188 67.3787C180.188 67.7653 180.501 68.0787 180.887 68.0787Z" fill="#040919"/>
<path d="M188.927 72.7184C189.313 72.7184 189.627 72.405 189.627 72.0184C189.627 71.6318 189.313 71.3184 188.927 71.3184C188.54 71.3184 188.227 71.6318 188.227 72.0184C188.227 72.405 188.54 72.7184 188.927 72.7184Z" fill="#040919"/>
<path d="M156.759 54.148C157.145 54.148 157.459 53.8347 157.459 53.4481C157.459 53.0615 157.145 52.748 156.759 52.748C156.372 52.748 156.059 53.0615 156.059 53.4481C156.059 53.8347 156.372 54.148 156.759 54.148Z" fill="#040919"/>
<path d="M116.548 77.358C116.934 77.358 117.248 77.0446 117.248 76.658C117.248 76.2714 116.934 75.958 116.548 75.958C116.161 75.958 115.848 76.2714 115.848 76.658C115.848 77.0446 116.161 77.358 116.548 77.358Z" fill="#040919"/>
<path d="M124.598 82.0084C124.985 82.0084 125.298 81.695 125.298 81.3084C125.298 80.9218 124.985 80.6084 124.598 80.6084C124.212 80.6084 123.898 80.9218 123.898 81.3084C123.898 81.695 124.212 82.0084 124.598 82.0084Z" fill="#040919"/>
<path d="M108.509 82.0084C108.895 82.0084 109.209 81.695 109.209 81.3084C109.209 80.9218 108.895 80.6084 108.509 80.6084C108.122 80.6084 107.809 80.9218 107.809 81.3084C107.809 81.695 108.122 82.0084 108.509 82.0084Z" fill="#040919"/>
<path d="M116.548 86.648C116.934 86.648 117.248 86.3347 117.248 85.9481C117.248 85.5615 116.934 85.248 116.548 85.248C116.161 85.248 115.848 85.5615 115.848 85.9481C115.848 86.3347 116.161 86.648 116.548 86.648Z" fill="#040919"/>
<path d="M124.598 91.2887C124.985 91.2887 125.298 90.9753 125.298 90.5887C125.298 90.2021 124.985 89.8887 124.598 89.8887C124.212 89.8887 123.898 90.2021 123.898 90.5887C123.898 90.9753 124.212 91.2887 124.598 91.2887Z" fill="#040919"/>
<path d="M108.509 91.2887C108.895 91.2887 109.209 90.9753 109.209 90.5887C109.209 90.2021 108.895 89.8887 108.509 89.8887C108.122 89.8887 107.809 90.2021 107.809 90.5887C107.809 90.9753 108.122 91.2887 108.509 91.2887Z" fill="#040919"/>
<path d="M116.548 95.9283C116.934 95.9283 117.248 95.6149 117.248 95.2283C117.248 94.8417 116.934 94.5283 116.548 94.5283C116.161 94.5283 115.848 94.8417 115.848 95.2283C115.848 95.6149 116.161 95.9283 116.548 95.9283Z" fill="#040919"/>
<path d="M100.47 86.648C100.856 86.648 101.17 86.3347 101.17 85.9481C101.17 85.5615 100.856 85.248 100.47 85.248C100.083 85.248 99.7695 85.5615 99.7695 85.9481C99.7695 86.3347 100.083 86.648 100.47 86.648Z" fill="#040919"/>
<path d="M124.598 100.579C124.985 100.579 125.298 100.265 125.298 99.8787C125.298 99.4921 124.985 99.1787 124.598 99.1787C124.212 99.1787 123.898 99.4921 123.898 99.8787C123.898 100.265 124.212 100.579 124.598 100.579Z" fill="#040919"/>
<path d="M108.509 72.7184C108.895 72.7184 109.209 72.405 109.209 72.0184C109.209 71.6318 108.895 71.3184 108.509 71.3184C108.122 71.3184 107.809 71.6318 107.809 72.0184C107.809 72.405 108.122 72.7184 108.509 72.7184Z" fill="#040919"/>
<path d="M100.47 77.358C100.856 77.358 101.17 77.0446 101.17 76.658C101.17 76.2714 100.856 75.958 100.47 75.958C100.083 75.958 99.7695 76.2714 99.7695 76.658C99.7695 77.0446 100.083 77.358 100.47 77.358Z" fill="#040919"/>
<path d="M124.598 63.4283C124.985 63.4283 125.298 63.1149 125.298 62.7283C125.298 62.3417 124.985 62.0283 124.598 62.0283C124.212 62.0283 123.898 62.3417 123.898 62.7283C123.898 63.1149 124.212 63.4283 124.598 63.4283Z" fill="#040919"/>
<path d="M116.548 68.0787C116.934 68.0787 117.248 67.7653 117.248 67.3787C117.248 66.9921 116.934 66.6787 116.548 66.6787C116.161 66.6787 115.848 66.9921 115.848 67.3787C115.848 67.7653 116.161 68.0787 116.548 68.0787Z" fill="#040919"/>
<path d="M132.637 58.7887C133.024 58.7887 133.337 58.4753 133.337 58.0887C133.337 57.7021 133.024 57.3887 132.637 57.3887C132.251 57.3887 131.938 57.7021 131.938 58.0887C131.938 58.4753 132.251 58.7887 132.637 58.7887Z" fill="#040919"/>
<path d="M92.4266 82.0084C92.8132 82.0084 93.1266 81.695 93.1266 81.3084C93.1266 80.9218 92.8132 80.6084 92.4266 80.6084C92.04 80.6084 91.7266 80.9218 91.7266 81.3084C91.7266 81.695 92.04 82.0084 92.4266 82.0084Z" fill="#040919"/>
<path d="M108.509 54.148C108.895 54.148 109.209 53.8347 109.209 53.4481C109.209 53.0615 108.895 52.748 108.509 52.748C108.122 52.748 107.809 53.0615 107.809 53.4481C107.809 53.8347 108.122 54.148 108.509 54.148Z" fill="#040919"/>
<path d="M100.47 58.7887C100.856 58.7887 101.17 58.4753 101.17 58.0887C101.17 57.7021 100.856 57.3887 100.47 57.3887C100.083 57.3887 99.7695 57.7021 99.7695 58.0887C99.7695 58.4753 100.083 58.7887 100.47 58.7887Z" fill="#040919"/>
<path d="M92.4266 63.4283C92.8132 63.4283 93.1266 63.1149 93.1266 62.7283C93.1266 62.3417 92.8132 62.0283 92.4266 62.0283C92.04 62.0283 91.7266 62.3417 91.7266 62.7283C91.7266 63.1149 92.04 63.4283 92.4266 63.4283Z" fill="#040919"/>
<path d="M84.3875 68.0787C84.7741 68.0787 85.0875 67.7653 85.0875 67.3787C85.0875 66.9921 84.7741 66.6787 84.3875 66.6787C84.0009 66.6787 83.6875 66.9921 83.6875 67.3787C83.6875 67.7653 84.0009 68.0787 84.3875 68.0787Z" fill="#040919"/>
<path d="M108.509 63.4283C108.895 63.4283 109.209 63.1149 109.209 62.7283C109.209 62.3417 108.895 62.0283 108.509 62.0283C108.122 62.0283 107.809 62.3417 107.809 62.7283C107.809 63.1149 108.122 63.4283 108.509 63.4283Z" fill="#040919"/>
<path d="M100.47 68.0787C100.856 68.0787 101.17 67.7653 101.17 67.3787C101.17 66.9921 100.856 66.6787 100.47 66.6787C100.083 66.6787 99.7695 66.9921 99.7695 67.3787C99.7695 67.7653 100.083 68.0787 100.47 68.0787Z" fill="#040919"/>
<path d="M116.548 58.7887C116.934 58.7887 117.248 58.4753 117.248 58.0887C117.248 57.7021 116.934 57.3887 116.548 57.3887C116.161 57.3887 115.848 57.7021 115.848 58.0887C115.848 58.4753 116.161 58.7887 116.548 58.7887Z" fill="#040919"/>
<path d="M92.4266 72.7184C92.8132 72.7184 93.1266 72.405 93.1266 72.0184C93.1266 71.6318 92.8132 71.3184 92.4266 71.3184C92.04 71.3184 91.7266 71.6318 91.7266 72.0184C91.7266 72.405 92.04 72.7184 92.4266 72.7184Z" fill="#040919"/>
<path d="M84.3875 77.358C84.7741 77.358 85.0875 77.0446 85.0875 76.658C85.0875 76.2714 84.7741 75.958 84.3875 75.958C84.0009 75.958 83.6875 76.2714 83.6875 76.658C83.6875 77.0446 84.0009 77.358 84.3875 77.358Z" fill="#040919"/>
<path d="M140.677 54.148C141.063 54.148 141.377 53.8347 141.377 53.4481C141.377 53.0615 141.063 52.748 140.677 52.748C140.29 52.748 139.977 53.0615 139.977 53.4481C139.977 53.8347 140.29 54.148 140.677 54.148Z" fill="#040919"/>
<path d="M124.598 44.858C124.985 44.858 125.298 44.5446 125.298 44.158C125.298 43.7714 124.985 43.458 124.598 43.458C124.212 43.458 123.898 43.7714 123.898 44.158C123.898 44.5446 124.212 44.858 124.598 44.858Z" fill="#040919"/>
<path d="M116.548 49.5084C116.934 49.5084 117.248 49.195 117.248 48.8084C117.248 48.4218 116.934 48.1084 116.548 48.1084C116.161 48.1084 115.848 48.4218 115.848 48.8084C115.848 49.195 116.161 49.5084 116.548 49.5084Z" fill="#040919"/>
<path d="M124.598 54.148C124.985 54.148 125.298 53.8347 125.298 53.4481C125.298 53.0615 124.985 52.748 124.598 52.748C124.212 52.748 123.898 53.0615 123.898 53.4481C123.898 53.8347 124.212 54.148 124.598 54.148Z" fill="#040919"/>
<path d="M132.637 49.5084C133.024 49.5084 133.337 49.195 133.337 48.8084C133.337 48.4218 133.024 48.1084 132.637 48.1084C132.251 48.1084 131.938 48.4218 131.938 48.8084C131.938 49.195 132.251 49.5084 132.637 49.5084Z" fill="#040919"/>
<path d="M148.72 49.5084C149.106 49.5084 149.42 49.195 149.42 48.8084C149.42 48.4218 149.106 48.1084 148.72 48.1084C148.333 48.1084 148.02 48.4218 148.02 48.8084C148.02 49.195 148.333 49.5084 148.72 49.5084Z" fill="#040919"/>
<path d="M132.637 40.2184C133.024 40.2184 133.337 39.905 133.337 39.5184C133.337 39.1318 133.024 38.8184 132.637 38.8184C132.251 38.8184 131.938 39.1318 131.938 39.5184C131.938 39.905 132.251 40.2184 132.637 40.2184Z" fill="#040919"/>
<path d="M140.677 44.858C141.063 44.858 141.377 44.5446 141.377 44.158C141.377 43.7714 141.063 43.458 140.677 43.458C140.29 43.458 139.977 43.7714 139.977 44.158C139.977 44.5446 140.29 44.858 140.677 44.858Z" fill="#040919"/>
<path d="M76.3484 72.7184C76.735 72.7184 77.0485 72.405 77.0485 72.0184C77.0485 71.6318 76.735 71.3184 76.3484 71.3184C75.9619 71.3184 75.6484 71.6318 75.6484 72.0184C75.6484 72.405 75.9619 72.7184 76.3484 72.7184Z" fill="#040919"/>
</g>
<path d="M156.76 5.81836L172.84 37.6784L124.6 86.2684L92.4297 42.7584" stroke="#B580FD" stroke-linecap="round" stroke-linejoin="round"/>
<path d="M92.4297 72.0178V42.7578" stroke="#B580FD" stroke-linecap="round" stroke-linejoin="round"/>
<path d="M172.84 62.7277V37.6777" stroke="#B580FD" stroke-linecap="round" stroke-linejoin="round"/>
<path d="M124.602 99.8785V86.2686" stroke="#B580FD" stroke-linecap="round" stroke-linejoin="round"/>
<path d="M128.582 82.2783H120.602V90.2583H128.582V82.2783Z" fill="#040919"/>
<path d="M96.4214 39.4678H88.4414V47.4478H96.4214V39.4678Z" fill="#040919"/>
<path d="M160.75 1.82812H152.77V9.80812H160.75V1.82812Z" fill="#040919"/>
<path d="M176.832 33.6885H168.852V41.6685H176.832V33.6885Z" fill="#040919"/>
<path d="M143.635 30.4526C148.293 27.763 148.763 19.8558 144.685 12.7914C140.606 5.72705 133.523 2.18061 128.865 4.87024C124.206 7.55987 123.736 15.467 127.815 22.5314C131.893 29.5958 138.976 33.1423 143.635 30.4526Z" stroke="#B580FD" stroke-linecap="round" stroke-linejoin="round"/>
<path d="M146.727 42.0484C150.807 44.4084 154.157 50.1984 154.157 54.9084V75.4184L118.867 55.0384V34.5284C118.867 29.8084 122.207 27.8884 126.297 30.2384L146.737 42.0384L146.727 42.0484Z" stroke="#B580FD" stroke-linecap="round" stroke-linejoin="round"/>
<path d="M139.149 46.4283C143.229 48.7882 146.579 54.5783 146.579 59.2883V79.7983L111.289 59.4183V38.9083C111.289 34.1883 114.629 32.2683 118.719 34.6183L139.159 46.4183L139.149 46.4283Z" fill="#AD72FC"/>
<path d="M136.041 34.8403C140.7 32.1507 141.17 24.2435 137.091 17.1791C133.012 10.1148 125.93 6.56831 121.271 9.25793C116.612 11.9476 116.142 19.8547 120.221 26.9191C124.3 33.9835 131.382 37.53 136.041 34.8403Z" fill="#AD72FC"/>
<path d="M222.64 168.39L158.78 131.52L147 138.32L222.64 181.99L298.28 138.32L286.5 131.52L222.64 168.39Z" fill="#C8B8DD"/>
<path d="M222.64 81.0498L147 124.72L222.64 168.39L298.28 124.72L222.64 81.0498Z" fill="url(#paint1_linear_685_10767)"/>
<path d="M222.641 168.39L298.281 124.72" stroke="#5D688C" stroke-linecap="round" stroke-linejoin="round"/>
<path d="M147 124.72L222.64 168.39" stroke="#5D688C" stroke-linecap="round" stroke-linejoin="round"/>
<g opacity="0.25">
<path d="M222.638 120.779C223.024 120.779 223.337 120.465 223.337 120.079C223.337 119.692 223.024 119.379 222.638 119.379C222.251 119.379 221.938 119.692 221.938 120.079C221.938 120.465 222.251 120.779 222.638 120.779Z" fill="#040919"/>
<path d="M230.677 125.42C231.063 125.42 231.377 125.106 231.377 124.72C231.377 124.333 231.063 124.02 230.677 124.02C230.29 124.02 229.977 124.333 229.977 124.72C229.977 125.106 230.29 125.42 230.677 125.42Z" fill="#040919"/>
<path d="M222.638 130.06C223.024 130.06 223.337 129.747 223.337 129.36C223.337 128.974 223.024 128.66 222.638 128.66C222.251 128.66 221.938 128.974 221.938 129.36C221.938 129.747 222.251 130.06 222.638 130.06Z" fill="#040919"/>
<path d="M238.731 130.06C239.118 130.06 239.431 129.747 239.431 129.36C239.431 128.974 239.118 128.66 238.731 128.66C238.345 128.66 238.031 128.974 238.031 129.36C238.031 129.747 238.345 130.06 238.731 130.06Z" fill="#040919"/>
<path d="M230.677 134.7C231.063 134.7 231.377 134.386 231.377 134C231.377 133.613 231.063 133.3 230.677 133.3C230.29 133.3 229.977 133.613 229.977 134C229.977 134.386 230.29 134.7 230.677 134.7Z" fill="#040919"/>
<path d="M222.638 139.349C223.024 139.349 223.337 139.036 223.337 138.649C223.337 138.263 223.024 137.949 222.638 137.949C222.251 137.949 221.938 138.263 221.938 138.649C221.938 139.036 222.251 139.349 222.638 139.349Z" fill="#040919"/>
<path d="M246.77 134.7C247.157 134.7 247.47 134.386 247.47 134C247.47 133.613 247.157 133.3 246.77 133.3C246.384 133.3 246.07 133.613 246.07 134C246.07 134.386 246.384 134.7 246.77 134.7Z" fill="#040919"/>
<path d="M238.731 139.349C239.118 139.349 239.431 139.036 239.431 138.649C239.431 138.263 239.118 137.949 238.731 137.949C238.345 137.949 238.031 138.263 238.031 138.649C238.031 139.036 238.345 139.349 238.731 139.349Z" fill="#040919"/>
<path d="M230.677 143.99C231.063 143.99 231.377 143.676 231.377 143.29C231.377 142.903 231.063 142.59 230.677 142.59C230.29 142.59 229.977 142.903 229.977 143.29C229.977 143.676 230.29 143.99 230.677 143.99Z" fill="#040919"/>
<path d="M222.638 148.63C223.024 148.63 223.337 148.316 223.337 147.93C223.337 147.543 223.024 147.229 222.638 147.229C222.251 147.229 221.938 147.543 221.938 147.93C221.938 148.316 222.251 148.63 222.638 148.63Z" fill="#040919"/>
<path d="M246.77 143.99C247.157 143.99 247.47 143.676 247.47 143.29C247.47 142.903 247.157 142.59 246.77 142.59C246.384 142.59 246.07 142.903 246.07 143.29C246.07 143.676 246.384 143.99 246.77 143.99Z" fill="#040919"/>
<path d="M238.731 148.63C239.118 148.63 239.431 148.316 239.431 147.93C239.431 147.543 239.118 147.229 238.731 147.229C238.345 147.229 238.031 147.543 238.031 147.93C238.031 148.316 238.345 148.63 238.731 148.63Z" fill="#040919"/>
<path d="M254.809 139.349C255.196 139.349 255.509 139.036 255.509 138.649C255.509 138.263 255.196 137.949 254.809 137.949C254.423 137.949 254.109 138.263 254.109 138.649C254.109 139.036 254.423 139.349 254.809 139.349Z" fill="#040919"/>
<path d="M230.677 153.28C231.063 153.28 231.377 152.966 231.377 152.58C231.377 152.193 231.063 151.88 230.677 151.88C230.29 151.88 229.977 152.193 229.977 152.58C229.977 152.966 230.29 153.28 230.677 153.28Z" fill="#040919"/>
<path d="M222.638 157.92C223.024 157.92 223.337 157.606 223.337 157.22C223.337 156.833 223.024 156.52 222.638 156.52C222.251 156.52 221.938 156.833 221.938 157.22C221.938 157.606 222.251 157.92 222.638 157.92Z" fill="#040919"/>
<path d="M214.598 125.42C214.985 125.42 215.298 125.106 215.298 124.72C215.298 124.333 214.985 124.02 214.598 124.02C214.212 124.02 213.898 124.333 213.898 124.72C213.898 125.106 214.212 125.42 214.598 125.42Z" fill="#040919"/>
<path d="M238.731 111.49C239.118 111.49 239.431 111.176 239.431 110.79C239.431 110.403 239.118 110.09 238.731 110.09C238.345 110.09 238.031 110.403 238.031 110.79C238.031 111.176 238.345 111.49 238.731 111.49Z" fill="#040919"/>
<path d="M246.77 116.13C247.157 116.13 247.47 115.816 247.47 115.43C247.47 115.043 247.157 114.729 246.77 114.729C246.384 114.729 246.07 115.043 246.07 115.43C246.07 115.816 246.384 116.13 246.77 116.13Z" fill="#040919"/>
<path d="M238.731 120.779C239.118 120.779 239.431 120.465 239.431 120.079C239.431 119.692 239.118 119.379 238.731 119.379C238.345 119.379 238.031 119.692 238.031 120.079C238.031 120.465 238.345 120.779 238.731 120.779Z" fill="#040919"/>
<path d="M254.809 120.779C255.196 120.779 255.509 120.465 255.509 120.079C255.509 119.692 255.196 119.379 254.809 119.379C254.423 119.379 254.109 119.692 254.109 120.079C254.109 120.465 254.423 120.779 254.809 120.779Z" fill="#040919"/>
<path d="M246.77 125.42C247.157 125.42 247.47 125.106 247.47 124.72C247.47 124.333 247.157 124.02 246.77 124.02C246.384 124.02 246.07 124.333 246.07 124.72C246.07 125.106 246.384 125.42 246.77 125.42Z" fill="#040919"/>
<path d="M262.848 125.42C263.235 125.42 263.548 125.106 263.548 124.72C263.548 124.333 263.235 124.02 262.848 124.02C262.462 124.02 262.148 124.333 262.148 124.72C262.148 125.106 262.462 125.42 262.848 125.42Z" fill="#040919"/>
<path d="M254.809 130.06C255.196 130.06 255.509 129.747 255.509 129.36C255.509 128.974 255.196 128.66 254.809 128.66C254.423 128.66 254.109 128.974 254.109 129.36C254.109 129.747 254.423 130.06 254.809 130.06Z" fill="#040919"/>
<path d="M262.848 134.7C263.235 134.7 263.548 134.386 263.548 134C263.548 133.613 263.235 133.3 262.848 133.3C262.462 133.3 262.148 133.613 262.148 134C262.148 134.386 262.462 134.7 262.848 134.7Z" fill="#040919"/>
<path d="M270.888 130.06C271.274 130.06 271.587 129.747 271.587 129.36C271.587 128.974 271.274 128.66 270.888 128.66C270.501 128.66 270.188 128.974 270.188 129.36C270.188 129.747 270.501 130.06 270.888 130.06Z" fill="#040919"/>
<path d="M230.677 116.13C231.063 116.13 231.377 115.816 231.377 115.43C231.377 115.043 231.063 114.729 230.677 114.729C230.29 114.729 229.977 115.043 229.977 115.43C229.977 115.816 230.29 116.13 230.677 116.13Z" fill="#040919"/>
<path d="M254.809 111.49C255.196 111.49 255.509 111.176 255.509 110.79C255.509 110.403 255.196 110.09 254.809 110.09C254.423 110.09 254.109 110.403 254.109 110.79C254.109 111.176 254.423 111.49 254.809 111.49Z" fill="#040919"/>
<path d="M262.848 116.13C263.235 116.13 263.548 115.816 263.548 115.43C263.548 115.043 263.235 114.729 262.848 114.729C262.462 114.729 262.148 115.043 262.148 115.43C262.148 115.816 262.462 116.13 262.848 116.13Z" fill="#040919"/>
<path d="M270.888 120.779C271.274 120.779 271.587 120.465 271.587 120.079C271.587 119.692 271.274 119.379 270.888 119.379C270.501 119.379 270.188 119.692 270.188 120.079C270.188 120.465 270.501 120.779 270.888 120.779Z" fill="#040919"/>
<path d="M278.927 125.42C279.313 125.42 279.627 125.106 279.627 124.72C279.627 124.333 279.313 124.02 278.927 124.02C278.54 124.02 278.227 124.333 278.227 124.72C278.227 125.106 278.54 125.42 278.927 125.42Z" fill="#040919"/>
<path d="M246.77 106.849C247.157 106.849 247.47 106.536 247.47 106.149C247.47 105.763 247.157 105.449 246.77 105.449C246.384 105.449 246.07 105.763 246.07 106.149C246.07 106.536 246.384 106.849 246.77 106.849Z" fill="#040919"/>
<path d="M206.559 130.06C206.946 130.06 207.259 129.747 207.259 129.36C207.259 128.974 206.946 128.66 206.559 128.66C206.173 128.66 205.859 128.974 205.859 129.36C205.859 129.747 206.173 130.06 206.559 130.06Z" fill="#040919"/>
<path d="M214.598 134.7C214.985 134.7 215.298 134.386 215.298 134C215.298 133.613 214.985 133.3 214.598 133.3C214.212 133.3 213.898 133.613 213.898 134C213.898 134.386 214.212 134.7 214.598 134.7Z" fill="#040919"/>
<path d="M198.52 134.7C198.907 134.7 199.22 134.386 199.22 134C199.22 133.613 198.907 133.3 198.52 133.3C198.134 133.3 197.82 133.613 197.82 134C197.82 134.386 198.134 134.7 198.52 134.7Z" fill="#040919"/>
<path d="M206.559 139.349C206.946 139.349 207.259 139.036 207.259 138.649C207.259 138.263 206.946 137.949 206.559 137.949C206.173 137.949 205.859 138.263 205.859 138.649C205.859 139.036 206.173 139.349 206.559 139.349Z" fill="#040919"/>
<path d="M214.598 143.99C214.985 143.99 215.298 143.676 215.298 143.29C215.298 142.903 214.985 142.59 214.598 142.59C214.212 142.59 213.898 142.903 213.898 143.29C213.898 143.676 214.212 143.99 214.598 143.99Z" fill="#040919"/>
<path d="M198.52 143.99C198.907 143.99 199.22 143.676 199.22 143.29C199.22 142.903 198.907 142.59 198.52 142.59C198.134 142.59 197.82 142.903 197.82 143.29C197.82 143.676 198.134 143.99 198.52 143.99Z" fill="#040919"/>
<path d="M206.559 148.63C206.946 148.63 207.259 148.316 207.259 147.93C207.259 147.543 206.946 147.229 206.559 147.229C206.173 147.229 205.859 147.543 205.859 147.93C205.859 148.316 206.173 148.63 206.559 148.63Z" fill="#040919"/>
<path d="M190.481 139.349C190.868 139.349 191.181 139.036 191.181 138.649C191.181 138.263 190.868 137.949 190.481 137.949C190.095 137.949 189.781 138.263 189.781 138.649C189.781 139.036 190.095 139.349 190.481 139.349Z" fill="#040919"/>
<path d="M214.598 153.28C214.985 153.28 215.298 152.966 215.298 152.58C215.298 152.193 214.985 151.88 214.598 151.88C214.212 151.88 213.898 152.193 213.898 152.58C213.898 152.966 214.212 153.28 214.598 153.28Z" fill="#040919"/>
<path d="M198.52 125.42C198.907 125.42 199.22 125.106 199.22 124.72C199.22 124.333 198.907 124.02 198.52 124.02C198.134 124.02 197.82 124.333 197.82 124.72C197.82 125.106 198.134 125.42 198.52 125.42Z" fill="#040919"/>
<path d="M190.481 130.06C190.868 130.06 191.181 129.747 191.181 129.36C191.181 128.974 190.868 128.66 190.481 128.66C190.095 128.66 189.781 128.974 189.781 129.36C189.781 129.747 190.095 130.06 190.481 130.06Z" fill="#040919"/>
<path d="M214.598 116.13C214.985 116.13 215.298 115.816 215.298 115.43C215.298 115.043 214.985 114.729 214.598 114.729C214.212 114.729 213.898 115.043 213.898 115.43C213.898 115.816 214.212 116.13 214.598 116.13Z" fill="#040919"/>
<path d="M206.559 120.779C206.946 120.779 207.259 120.465 207.259 120.079C207.259 119.692 206.946 119.379 206.559 119.379C206.173 119.379 205.859 119.692 205.859 120.079C205.859 120.465 206.173 120.779 206.559 120.779Z" fill="#040919"/>
<path d="M222.638 111.49C223.024 111.49 223.337 111.176 223.337 110.79C223.337 110.403 223.024 110.09 222.638 110.09C222.251 110.09 221.938 110.403 221.938 110.79C221.938 111.176 222.251 111.49 222.638 111.49Z" fill="#040919"/>
<path d="M182.438 134.7C182.825 134.7 183.138 134.386 183.138 134C183.138 133.613 182.825 133.3 182.438 133.3C182.052 133.3 181.738 133.613 181.738 134C181.738 134.386 182.052 134.7 182.438 134.7Z" fill="#040919"/>
<path d="M198.52 106.849C198.907 106.849 199.22 106.536 199.22 106.149C199.22 105.763 198.907 105.449 198.52 105.449C198.134 105.449 197.82 105.763 197.82 106.149C197.82 106.536 198.134 106.849 198.52 106.849Z" fill="#040919"/>
<path d="M190.481 111.49C190.868 111.49 191.181 111.176 191.181 110.79C191.181 110.403 190.868 110.09 190.481 110.09C190.095 110.09 189.781 110.403 189.781 110.79C189.781 111.176 190.095 111.49 190.481 111.49Z" fill="#040919"/>
<path d="M182.438 116.13C182.825 116.13 183.138 115.816 183.138 115.43C183.138 115.043 182.825 114.729 182.438 114.729C182.052 114.729 181.738 115.043 181.738 115.43C181.738 115.816 182.052 116.13 182.438 116.13Z" fill="#040919"/>
<path d="M174.387 120.779C174.774 120.779 175.087 120.465 175.087 120.079C175.087 119.692 174.774 119.379 174.387 119.379C174.001 119.379 173.688 119.692 173.688 120.079C173.688 120.465 174.001 120.779 174.387 120.779Z" fill="#040919"/>
<path d="M198.52 116.13C198.907 116.13 199.22 115.816 199.22 115.43C199.22 115.043 198.907 114.729 198.52 114.729C198.134 114.729 197.82 115.043 197.82 115.43C197.82 115.816 198.134 116.13 198.52 116.13Z" fill="#040919"/>
<path d="M190.481 120.779C190.868 120.779 191.181 120.465 191.181 120.079C191.181 119.692 190.868 119.379 190.481 119.379C190.095 119.379 189.781 119.692 189.781 120.079C189.781 120.465 190.095 120.779 190.481 120.779Z" fill="#040919"/>
<path d="M206.559 111.49C206.946 111.49 207.259 111.176 207.259 110.79C207.259 110.403 206.946 110.09 206.559 110.09C206.173 110.09 205.859 110.403 205.859 110.79C205.859 111.176 206.173 111.49 206.559 111.49Z" fill="#040919"/>
<path d="M182.438 125.42C182.825 125.42 183.138 125.106 183.138 124.72C183.138 124.333 182.825 124.02 182.438 124.02C182.052 124.02 181.738 124.333 181.738 124.72C181.738 125.106 182.052 125.42 182.438 125.42Z" fill="#040919"/>
<path d="M174.387 130.06C174.774 130.06 175.087 129.747 175.087 129.36C175.087 128.974 174.774 128.66 174.387 128.66C174.001 128.66 173.688 128.974 173.688 129.36C173.688 129.747 174.001 130.06 174.387 130.06Z" fill="#040919"/>
<path d="M230.677 106.849C231.063 106.849 231.377 106.536 231.377 106.149C231.377 105.763 231.063 105.449 230.677 105.449C230.29 105.449 229.977 105.763 229.977 106.149C229.977 106.536 230.29 106.849 230.677 106.849Z" fill="#040919"/>
<path d="M214.598 97.5592C214.985 97.5592 215.298 97.2458 215.298 96.8592C215.298 96.4726 214.985 96.1592 214.598 96.1592C214.212 96.1592 213.898 96.4726 213.898 96.8592C213.898 97.2458 214.212 97.5592 214.598 97.5592Z" fill="#040919"/>
<path d="M206.559 102.21C206.946 102.21 207.259 101.896 207.259 101.51C207.259 101.123 206.946 100.81 206.559 100.81C206.173 100.81 205.859 101.123 205.859 101.51C205.859 101.896 206.173 102.21 206.559 102.21Z" fill="#040919"/>
<path d="M214.598 106.849C214.985 106.849 215.298 106.536 215.298 106.149C215.298 105.763 214.985 105.449 214.598 105.449C214.212 105.449 213.898 105.763 213.898 106.149C213.898 106.536 214.212 106.849 214.598 106.849Z" fill="#040919"/>
<path d="M222.638 102.21C223.024 102.21 223.337 101.896 223.337 101.51C223.337 101.123 223.024 100.81 222.638 100.81C222.251 100.81 221.938 101.123 221.938 101.51C221.938 101.896 222.251 102.21 222.638 102.21Z" fill="#040919"/>
<path d="M238.731 102.21C239.118 102.21 239.431 101.896 239.431 101.51C239.431 101.123 239.118 100.81 238.731 100.81C238.345 100.81 238.031 101.123 238.031 101.51C238.031 101.896 238.345 102.21 238.731 102.21Z" fill="#040919"/>
<path d="M222.638 92.9196C223.024 92.9196 223.337 92.6061 223.337 92.2195C223.337 91.8329 223.024 91.5195 222.638 91.5195C222.251 91.5195 221.938 91.8329 221.938 92.2195C221.938 92.6061 222.251 92.9196 222.638 92.9196Z" fill="#040919"/>
<path d="M230.677 97.5592C231.063 97.5592 231.377 97.2458 231.377 96.8592C231.377 96.4726 231.063 96.1592 230.677 96.1592C230.29 96.1592 229.977 96.4726 229.977 96.8592C229.977 97.2458 230.29 97.5592 230.677 97.5592Z" fill="#040919"/>
<path d="M166.348 125.42C166.735 125.42 167.048 125.106 167.048 124.72C167.048 124.333 166.735 124.02 166.348 124.02C165.962 124.02 165.648 124.333 165.648 124.72C165.648 125.106 165.962 125.42 166.348 125.42Z" fill="#040919"/>
</g>
<path d="M253.52 121.12L247.59 117.7C244.96 116.18 241.32 115.24 237.3 115.24C229.26 115.24 222.75 119 222.75 123.64C222.75 125.96 224.38 128.06 227.01 129.58L232.94 133C235.57 134.52 239.21 135.46 243.23 135.46C251.27 135.46 257.78 131.7 257.78 127.06C257.78 124.74 256.15 122.64 253.52 121.12Z" fill="#C8B8DD"/>
<path d="M221.511 135.16L218.731 133.56C216.101 132.04 212.461 131.1 208.441 131.1C200.401 131.1 193.891 134.86 193.891 139.5C193.891 141.82 195.521 143.92 198.151 145.44L200.931 147.04C203.561 148.56 207.201 149.5 211.221 149.5C219.261 149.5 225.771 145.74 225.771 141.1C225.771 138.78 224.141 136.68 221.511 135.16Z" fill="#C8B8DD"/>
<path d="M214.261 94.159C210.241 94.159 206.611 93.219 203.971 91.699C201.341 90.179 199.711 88.079 199.711 85.759V90.449C199.711 92.769 201.341 94.869 203.971 96.389C206.601 97.909 210.241 98.849 214.261 98.849C222.301 98.849 228.811 95.089 228.811 90.449V85.749C228.811 90.389 222.301 94.149 214.261 94.149V94.159Z" fill="url(#paint2_linear_685_10767)"/>
<path d="M214.261 98.8592C210.241 98.8592 206.611 97.9192 203.971 96.3992C201.341 94.8792 199.711 92.7792 199.711 90.4592V95.1492C199.711 97.4692 201.341 99.5692 203.971 101.089C206.601 102.609 210.241 103.549 214.261 103.549C222.301 103.549 228.811 99.7892 228.811 95.1492V90.4492C228.811 95.0892 222.301 98.8492 214.261 98.8492V98.8592Z" fill="url(#paint3_linear_685_10767)"/>
<path d="M214.261 103.549C210.241 103.549 206.611 102.609 203.971 101.089C201.341 99.5686 199.711 97.4686 199.711 95.1486V99.8386C199.711 102.159 201.341 104.259 203.971 105.779C206.601 107.299 210.241 108.239 214.261 108.239C222.301 108.239 228.811 104.479 228.811 99.8386V95.1387C228.811 99.7787 222.301 103.539 214.261 103.539V103.549Z" fill="url(#paint4_linear_685_10767)"/>
<path d="M214.261 108.25C210.241 108.25 206.611 107.31 203.971 105.79C201.341 104.27 199.711 102.17 199.711 99.8499V104.54C199.711 106.86 201.341 108.96 203.971 110.48C206.601 112 210.241 112.94 214.261 112.94C222.301 112.94 228.811 109.18 228.811 104.54V99.8398C228.811 104.48 222.301 108.24 214.261 108.24V108.25Z" fill="url(#paint5_linear_685_10767)"/>
<path d="M214.261 112.939C210.241 112.939 206.611 111.999 203.971 110.479C201.341 108.959 199.711 106.859 199.711 104.539V109.229C199.711 111.549 201.341 113.649 203.971 115.169C206.601 116.689 210.241 117.629 214.261 117.629C222.301 117.629 228.811 113.869 228.811 109.229V104.529C228.811 109.169 222.301 112.929 214.261 112.929V112.939Z" fill="url(#paint6_linear_685_10767)"/>
<path d="M214.261 117.64C210.241 117.64 206.611 116.7 203.971 115.18C201.341 113.66 199.711 111.56 199.711 109.24V113.93C199.711 116.25 201.341 118.35 203.971 119.87C206.601 121.39 210.241 122.329 214.261 122.329C222.301 122.329 228.811 118.57 228.811 113.93V109.229C228.811 113.869 222.301 117.63 214.261 117.63V117.64Z" fill="url(#paint7_linear_685_10767)"/>
<path d="M214.261 94.1594C222.301 94.1594 228.811 90.3994 228.811 85.7594C228.811 83.4394 227.181 81.3394 224.551 79.8194C221.921 78.2994 218.281 77.3594 214.261 77.3594C206.221 77.3594 199.711 81.1194 199.711 85.7594C199.711 88.0794 201.341 90.1794 203.971 91.6994C206.601 93.2194 210.241 94.1594 214.261 94.1594Z" fill="#AF76FB"/>
<path d="M203.898 85.7593C203.898 87.4093 205.058 88.8993 206.928 89.9893C208.798 91.0793 211.388 91.7393 214.248 91.7393C219.968 91.7393 224.598 89.0593 224.598 85.7593C224.598 84.1093 223.438 82.6193 221.568 81.5293C219.698 80.4493 217.108 79.7793 214.248 79.7793" stroke="white" stroke-linecap="round" stroke-linejoin="round"/>
<path d="M200.102 92.3994C200.732 93.9394 202.102 95.3194 203.972 96.3994C206.602 97.9194 210.242 98.8594 214.262 98.8594C215.852 98.8594 217.392 98.7095 218.822 98.4395" stroke="#AF76FB" stroke-linecap="round" stroke-linejoin="round"/>
<path d="M200.102 97.0898C200.732 98.6298 202.102 100.01 203.972 101.09C206.602 102.61 210.242 103.55 214.262 103.55C215.852 103.55 217.392 103.4 218.822 103.13" stroke="#AF76FB" stroke-linecap="round" stroke-linejoin="round"/>
<path d="M200.102 101.789C200.732 103.329 202.102 104.709 203.972 105.789C206.602 107.309 210.242 108.249 214.262 108.249C215.852 108.249 217.392 108.099 218.822 107.829" stroke="#AF76FB" stroke-linecap="round" stroke-linejoin="round"/>
<path d="M200.102 106.479C200.732 108.019 202.102 109.399 203.972 110.479C206.602 111.999 210.242 112.94 214.262 112.94C215.852 112.94 217.392 112.789 218.822 112.519" stroke="#AF76FB" stroke-linecap="round" stroke-linejoin="round"/>
<path d="M200.102 111.18C200.732 112.72 202.102 114.1 203.972 115.18C206.602 116.7 210.242 117.64 214.262 117.64C215.852 117.64 217.392 117.49 218.822 117.22" stroke="#AF76FB" stroke-linecap="round" stroke-linejoin="round"/>
<path d="M199.711 39.4004V44.0904" stroke="#AF76FB" stroke-linecap="round" stroke-linejoin="round"/>
<path d="M228.812 44.0904V39.4004" stroke="#AF76FB" stroke-linecap="round" stroke-linejoin="round"/>
<path d="M214.261 47.8C222.301 47.8 228.811 44.04 228.811 39.4C228.811 37.08 227.181 34.98 224.551 33.46C221.921 31.94 218.281 31 214.261 31C206.221 31 199.711 34.76 199.711 39.4C199.711 41.72 201.341 43.82 203.971 45.34C206.601 46.86 210.241 47.8 214.261 47.8V47.8Z" stroke="#AF76FB" stroke-linecap="round" stroke-linejoin="round"/>
<path d="M214.261 52.4904C222.301 52.4904 228.811 48.7304 228.811 44.0904C228.811 41.7704 227.181 39.6704 224.551 38.1504C221.921 36.6304 218.281 35.6904 214.261 35.6904C206.221 35.6904 199.711 39.4504 199.711 44.0904C199.711 46.4104 201.341 48.5104 203.971 50.0304C206.601 51.5504 210.241 52.4904 214.261 52.4904Z" stroke="#AF76FB" stroke-linecap="round" stroke-linejoin="round"/>
<path d="M237.308 113.25C233.288 113.25 229.658 112.31 227.018 110.79C224.388 109.27 222.758 107.17 222.758 104.85V109.54C222.758 111.86 224.388 113.96 227.018 115.48C229.648 117 233.288 117.94 237.308 117.94C245.348 117.94 251.858 114.18 251.858 109.54V104.84C251.858 109.48 245.348 113.24 237.308 113.24V113.25Z" fill="url(#paint8_linear_685_10767)"/>
<path d="M237.308 117.95C233.288 117.95 229.658 117.01 227.018 115.49C224.388 113.97 222.758 111.87 222.758 109.55V114.24C222.758 116.56 224.388 118.66 227.018 120.18C229.648 121.7 233.288 122.64 237.308 122.64C245.348 122.64 251.858 118.88 251.858 114.24V109.54C251.858 114.18 245.348 117.94 237.308 117.94V117.95Z" fill="url(#paint9_linear_685_10767)"/>
<path d="M237.308 122.641C233.288 122.641 229.658 121.7 227.018 120.18C224.388 118.66 222.758 116.56 222.758 114.24V118.93C222.758 121.25 224.388 123.35 227.018 124.87C229.648 126.39 233.288 127.33 237.308 127.33C245.348 127.33 251.858 123.57 251.858 118.93V114.23C251.858 118.87 245.348 122.63 237.308 122.63V122.641Z" fill="url(#paint10_linear_685_10767)"/>
<path d="M237.308 127.34C233.288 127.34 229.658 126.4 227.018 124.88C224.388 123.36 222.758 121.26 222.758 118.94V123.63C222.758 125.95 224.388 128.05 227.018 129.57C229.648 131.09 233.288 132.03 237.308 132.03C245.348 132.03 251.858 128.27 251.858 123.63V118.93C251.858 123.57 245.348 127.33 237.308 127.33V127.34Z" fill="url(#paint11_linear_685_10767)"/>
<path d="M237.308 113.25C245.348 113.25 251.858 109.49 251.858 104.85C251.858 102.53 250.228 100.43 247.598 98.9102C244.968 97.3902 241.328 96.4502 237.308 96.4502C229.268 96.4502 222.758 100.21 222.758 104.85C222.758 107.17 224.388 109.27 227.018 110.79C229.648 112.31 233.288 113.25 237.308 113.25Z" fill="#AF76FB"/>
<path d="M237.307 98.8809C231.587 98.8809 226.957 101.561 226.957 104.861C226.957 106.511 228.117 108.001 229.987 109.091C231.857 110.181 234.447 110.841 237.307 110.841C243.027 110.841 247.657 108.161 247.657 104.861" stroke="white" stroke-linecap="round" stroke-linejoin="round"/>
<path d="M223.148 111.49C223.778 113.03 225.148 114.41 227.018 115.49C229.648 117.01 233.288 117.95 237.308 117.95C238.898 117.95 240.438 117.8 241.868 117.53" stroke="#AF76FB" stroke-linecap="round" stroke-linejoin="round"/>
<path d="M223.148 116.18C223.778 117.72 225.148 119.1 227.018 120.18C229.648 121.7 233.288 122.64 237.308 122.64C238.898 122.64 240.438 122.49 241.868 122.22" stroke="#AF76FB" stroke-linecap="round" stroke-linejoin="round"/>
<path d="M223.148 120.881C223.778 122.421 225.148 123.801 227.018 124.881C229.648 126.401 233.288 127.341 237.308 127.341C238.898 127.341 240.438 127.191 241.868 126.921" stroke="#AF76FB" stroke-linecap="round" stroke-linejoin="round"/>
<path d="M251.858 98.4808V71.1309C251.858 75.7709 245.348 79.5308 237.308 79.5308C233.288 79.5308 229.658 78.5909 227.018 77.0709C224.388 75.5509 222.758 73.4509 222.758 71.1309V98.4808" stroke="#AF76FB" stroke-linecap="round" stroke-linejoin="round"/>
<path d="M237.308 79.5305C245.348 79.5305 251.858 75.7705 251.858 71.1305C251.858 68.8105 250.228 66.7105 247.598 65.1905C244.968 63.6705 241.328 62.7305 237.308 62.7305C229.268 62.7305 222.758 66.4905 222.758 71.1305C222.758 73.4505 224.388 75.5505 227.018 77.0705C229.648 78.5905 233.288 79.5305 237.308 79.5305Z" stroke="#AF76FB" stroke-linecap="round" stroke-linejoin="round"/>
<path d="M208.448 143.2C204.428 143.2 200.798 142.26 198.158 140.74C195.528 139.22 193.898 137.12 193.898 134.8V139.49C193.898 141.81 195.528 143.91 198.158 145.43C200.788 146.95 204.428 147.89 208.448 147.89C216.488 147.89 222.998 144.13 222.998 139.49V134.79C222.998 139.43 216.488 143.19 208.448 143.19V143.2Z" fill="url(#paint12_linear_685_10767)"/>
<path d="M208.448 143.2C216.488 143.2 222.998 139.44 222.998 134.8C222.998 132.48 221.368 130.38 218.738 128.86C216.108 127.34 212.468 126.4 208.448 126.4C200.408 126.4 193.898 130.16 193.898 134.8C193.898 137.12 195.528 139.22 198.158 140.74C200.788 142.26 204.428 143.2 208.448 143.2Z" fill="#AF76FB"/>
<path d="M208.448 140.771C214.168 140.771 218.798 138.091 218.798 134.791C218.798 133.141 217.638 131.651 215.768 130.561C213.898 129.471 211.308 128.811 208.448 128.811C202.728 128.811 198.098 131.491 198.098 134.791" stroke="white" stroke-linecap="round" stroke-linejoin="round"/>
<path d="M107.359 207.482L34.652 240.843L0 221.342L54.9853 201.831L56.2861 209.105L50.7501 214.443L88.1181 206.701L107.359 207.482Z" fill="url(#paint13_linear_685_10767)"/>
<path d="M41.7783 44.1787L27.3972 72.0044C25.9403 74.8244 26.0236 78.196 27.5013 81.016L35.774 112.234L38.6356 113.379L43.0062 108.478L45.8678 112.952L46.3257 102.099L40.54 77.0097L54.7129 56.2185L41.7679 44.1787H41.7783Z" fill="#040919"/>
<path d="M45.1625 106.042L67.5146 117.405C72.2389 119.809 78.6491 121.152 82.593 117.613L87.3277 113.368L97.1821 153.858L94.8408 159.144L92.5099 197.896L83.9977 198.541L79.7001 184.222L78.8676 158.915L66.0786 137.177L65.2669 160.153L58.9713 197.802L49.7516 197.428L44.9336 121.214L45.1417 106.042H45.1625Z" fill="#040919"/>
<path d="M92.518 195.606L92.851 199.415L84.1516 201.829L83.4023 196.491C86.4201 198.749 89.5627 198.208 92.5284 195.606H92.518Z" fill="#B37DFC"/>
<path d="M59.8877 192.444C59.8877 192.444 53.7273 196.471 49.3359 190.581L49.773 197.428L58.9927 197.803L59.8877 192.444Z" fill="#B37DFC"/>
<path d="M83.7373 121.226C83.7373 121.226 85.6624 128.707 81.4688 132.787" stroke="#6520C2" stroke-linecap="round" stroke-linejoin="round"/>
<path d="M60.1977 202.204L56.285 209.104C54.7553 211.809 50.1767 211.549 50.0934 208.687L49.7812 197.438L59.001 197.813L60.2081 202.204H60.1977Z" fill="#040919"/>
<path d="M97.0257 202.984L107.088 204.659C107.838 204.805 108.389 205.461 108.389 206.231C108.389 206.834 107.952 207.334 107.359 207.48L89.1067 211.33C86.9215 211.86 84.9027 210.903 84.6946 208.551L84.1847 202.828L84.0078 198.541L92.5199 197.896C92.6968 200.414 94.5491 202.505 97.0362 202.984H97.0257Z" fill="#040919"/>
<path d="M75.0195 122.298L45.1751 107.126L46.8817 94.9926L39.4102 62.0159L40.6381 47.4579C41.2728 43.5556 44.8421 39.2892 48.5779 37.978L54.7382 35.8135L74.4264 39.3411L84.1976 43.743L93.0947 100.903L95.3528 115.159L75.0299 122.319L75.0195 122.298Z" fill="#6520C2"/>
<path d="M76.8575 63.3574C76.8575 63.3574 75.2029 66.1254 82.1021 69.0807C88.0647 71.6406 84.8909 74.1692 84.6932 80.829C84.4954 87.4889 92.5081 96.2821 92.5081 96.2821L87.5965 65.2929L76.8575 63.3574Z" fill="#040919"/>
<path d="M92.777 18.2789C92.8394 17.4256 93.3597 16.6868 94.1402 16.3434C94.9206 16 95.826 16.1249 96.492 16.6556L103.589 22.3581L101.903 29.9233L92.4336 23.1907L92.777 18.2789Z" fill="#B37DFC"/>
<path d="M99.4785 30.2659L103.807 13.7307L97.1683 9.90137L92.4336 26.1971L99.4785 30.2659Z" fill="#040919"/>
<path d="M84.1862 43.7303L101.908 51.0352L98.1302 37.2889L100.534 30.1088C102.459 27.8715 104.634 27.8403 106.07 28.1837L113.437 53.7409C113.958 55.5307 113.489 58.2258 112.407 59.7451L108.359 65.406C107.1 67.1646 104.322 68.2989 102.199 67.9139L93.3434 66.3217L76.8708 63.356C68.5043 50.5254 75.5908 43.7303 84.1966 43.7303H84.1862Z" fill="#6520C2"/>
<path d="M100.525 30.1089L100.441 28.8915L99.4111 26.2171C98.8491 24.7602 99.1405 23.1265 100.16 21.9402L101.118 20.8372L101.451 17.3096L102.762 17.5801L103.99 21.6905L105.343 25.624L106.061 28.1838C104.624 27.8404 102.45 27.8716 100.525 30.1089Z" fill="#B37DFC"/>
<path d="M105.132 25.0303L100.439 28.891L100.262 30.868C100.262 30.868 102.509 27.278 106.058 28.1833L105.132 25.0303Z" fill="white"/>
<path d="M78.7307 112.057L77.7109 97.8428C83.2053 97.7596 87.6695 93.9717 87.6695 93.9717L88.2002 99.0083" stroke="#040919" stroke-linecap="round" stroke-linejoin="round"/>
<path d="M62.9768 2.1593C66.0882 0.51515 69.8343 0.629636 72.8521 2.44028C75.8698 4.26133 77.7117 7.51843 77.7117 11.0357V25.7185C77.7117 26.9777 76.7231 28.3096 75.516 28.6738L73.1226 29.4023L71.5617 38.0288L56.421 31.2129C58.1484 28.8924 59.522 28.0495 58.19 25.4375L55.2971 19.7247C52.3002 13.8036 54.5687 6.58189 60.4377 3.4913L62.9768 2.14888V2.1593Z" fill="#B37DFC"/>
<path d="M60.4364 3.50172L62.9755 2.1593C66.0868 0.51515 69.833 0.629636 72.8507 2.44028C73.4439 2.80449 73.9954 3.2208 74.4949 3.67866L75.2129 9.88061L71.9142 13.5747L74.4013 21.5561L77.5959 22.0452L77.7 19.5062L79.1048 21.8788L78.5013 26.3949C77.9393 30.6406 73.6312 29.2358 73.6312 29.2358L74.6718 27.9975L70.2492 18.5384L63.9224 27.9975L58.2511 25.6041C58.2199 25.5416 58.2095 25.4896 58.1783 25.4271L55.2854 19.7142C52.2885 13.7932 54.557 6.57147 60.426 3.48088L60.4364 3.50172Z" fill="#040919"/>
<path d="M101.906 51.0371L107.369 53.7116C107.369 53.7116 109.7 51.4223 107.369 49.7157C105.038 48.0091 103.238 49.5804 101.906 43.8154" stroke="#040919" stroke-linecap="round" stroke-linejoin="round"/>
<path d="M74.4147 39.3298C74.4147 39.3298 63.3531 43.7317 54.7266 35.8023L56.4123 31.2236L74.4044 39.3298H74.4147Z" fill="white"/>
<path d="M50.5742 99.8193L63.0406 107.145" stroke="#040919" stroke-linecap="round" stroke-linejoin="round"/>
<path d="M46.8789 93.9092L56.1402 99.0601" stroke="#040919" stroke-linecap="round" stroke-linejoin="round"/>
<path d="M67.5984 23.0339C69.2708 23.0339 70.6266 21.6781 70.6266 20.0057C70.6266 18.3333 69.2708 16.9775 67.5984 16.9775C65.926 16.9775 64.5703 18.3333 64.5703 20.0057C64.5703 21.6781 65.926 23.0339 67.5984 23.0339Z" fill="#B37DFC"/>
<path d="M48.0664 153.255C48.0664 153.255 48.4514 160.674 52.9156 163.817L49.7729 165.628L54.6118 168.573" stroke="#6520C2" stroke-linecap="round" stroke-linejoin="round"/>
<path d="M81.1133 162.901L84.8907 167.948L81.4775 171.185" stroke="#6520C2" stroke-linecap="round" stroke-linejoin="round"/>
<path d="M61.168 128.677L66.1004 137.189" stroke="#6520C2" stroke-linecap="round" stroke-linejoin="round"/>
<defs>
<linearGradient id="paint0_linear_685_10767" x1="57" y1="72.0186" x2="208.28" y2="72.0186" gradientUnits="userSpaceOnUse">
<stop stop-color="#D0D3F5"/>
<stop offset="0.06" stop-color="#D0D3F5" stop-opacity="0.78"/>
<stop offset="0.14" stop-color="#D0D3F5" stop-opacity="0.55"/>
<stop offset="0.21" stop-color="#D0D3F5" stop-opacity="0.35"/>
<stop offset="0.28" stop-color="#D0D3F5" stop-opacity="0.2"/>
<stop offset="0.35" stop-color="#D0D3F5" stop-opacity="0.09"/>
<stop offset="0.4" stop-color="#D0D3F5" stop-opacity="0.02"/>
<stop offset="0.45" stop-color="#D0D3F5" stop-opacity="0"/>
</linearGradient>
<linearGradient id="paint1_linear_685_10767" x1="147" y1="124.72" x2="298.28" y2="124.72" gradientUnits="userSpaceOnUse">
<stop stop-color="#D4C1EE"/>
<stop offset="0.3625" stop-color="#D6C3EF" stop-opacity="0"/>
</linearGradient>
<linearGradient id="paint2_linear_685_10767" x1="213.781" y1="92.309" x2="208.881" y2="92.309" gradientUnits="userSpaceOnUse">
<stop stop-color="#130624"/>
<stop offset="1" stop-color="#792EDE"/>
</linearGradient>
<linearGradient id="paint3_linear_685_10767" x1="213.781" y1="97.0092" x2="208.881" y2="97.0092" gradientUnits="userSpaceOnUse">
<stop stop-color="#130624"/>
<stop offset="1" stop-color="#792EDE"/>
</linearGradient>
<linearGradient id="paint4_linear_685_10767" x1="213.781" y1="101.699" x2="208.881" y2="101.699" gradientUnits="userSpaceOnUse">
<stop stop-color="#130624"/>
<stop offset="1" stop-color="#792EDE"/>
</linearGradient>
<linearGradient id="paint5_linear_685_10767" x1="213.781" y1="106.4" x2="208.881" y2="106.4" gradientUnits="userSpaceOnUse">
<stop stop-color="#130624"/>
<stop offset="1" stop-color="#792EDE"/>
</linearGradient>
<linearGradient id="paint6_linear_685_10767" x1="213.781" y1="111.089" x2="208.881" y2="111.089" gradientUnits="userSpaceOnUse">
<stop stop-color="#130624"/>
<stop offset="1" stop-color="#792EDE"/>
</linearGradient>
<linearGradient id="paint7_linear_685_10767" x1="213.781" y1="115.789" x2="208.881" y2="115.789" gradientUnits="userSpaceOnUse">
<stop stop-color="#130624"/>
<stop offset="1" stop-color="#792EDE"/>
</linearGradient>
<linearGradient id="paint8_linear_685_10767" x1="236.828" y1="111.4" x2="231.928" y2="111.4" gradientUnits="userSpaceOnUse">
<stop stop-color="#130624"/>
<stop offset="1" stop-color="#792EDE"/>
</linearGradient>
<linearGradient id="paint9_linear_685_10767" x1="236.828" y1="116.1" x2="231.928" y2="116.1" gradientUnits="userSpaceOnUse">
<stop stop-color="#130624"/>
<stop offset="1" stop-color="#792EDE"/>
</linearGradient>
<linearGradient id="paint10_linear_685_10767" x1="236.818" y1="120.79" x2="231.928" y2="120.79" gradientUnits="userSpaceOnUse">
<stop stop-color="#1B0B32"/>
<stop offset="1" stop-color="#7A2AE7"/>
</linearGradient>
<linearGradient id="paint11_linear_685_10767" x1="236.818" y1="125.49" x2="231.928" y2="125.49" gradientUnits="userSpaceOnUse">
<stop stop-color="#1B0B32"/>
<stop offset="1" stop-color="#7A2AE7"/>
</linearGradient>
<linearGradient id="paint12_linear_685_10767" x1="207.968" y1="141.35" x2="203.068" y2="141.35" gradientUnits="userSpaceOnUse">
<stop stop-color="#130624"/>
<stop offset="1" stop-color="#792EDE"/>
</linearGradient>
<linearGradient id="paint13_linear_685_10767" x1="48.0029" y1="223.933" x2="38.4918" y2="239.927" gradientUnits="userSpaceOnUse">
<stop stop-color="#D6C6EB"/>
<stop offset="1" stop-color="#C3B2DA" stop-opacity="0"/>
</linearGradient>
</defs>
</svg>
