<svg width="172" height="177" viewBox="0 0 172 177" fill="none" xmlns="http://www.w3.org/2000/svg">
<path d="M86.1942 161.681L14.2679 120.154L1 127.813L86.1942 176.999L171.389 127.813L158.121 120.154L86.1942 161.681Z" fill="#D4C2EC"/>
<path d="M86.1942 63.3096L1 112.496L86.1942 161.682L171.389 112.496L86.1942 63.3096Z" fill="url(#paint0_linear_369_3336)"/>
<path d="M1 112.496L86.1942 161.682L171.389 112.496" stroke="#7B6994" stroke-linecap="round" stroke-linejoin="round"/>
<g opacity="0.25">
<path d="M86.1907 108.056C86.6261 108.056 86.9791 107.703 86.9791 107.268C86.9791 106.832 86.6261 106.479 86.1907 106.479C85.7553 106.479 85.4023 106.832 85.4023 107.268C85.4023 107.703 85.7553 108.056 86.1907 108.056Z" fill="#040919"/>
<path d="M95.2455 113.284C95.6809 113.284 96.0339 112.931 96.0339 112.495C96.0339 112.06 95.6809 111.707 95.2455 111.707C94.81 111.707 94.457 112.06 94.457 112.495C94.457 112.931 94.81 113.284 95.2455 113.284Z" fill="#040919"/>
<path d="M86.1907 118.51C86.6261 118.51 86.9791 118.157 86.9791 117.722C86.9791 117.287 86.6261 116.934 86.1907 116.934C85.7553 116.934 85.4023 117.287 85.4023 117.722C85.4023 118.157 85.7553 118.51 86.1907 118.51Z" fill="#040919"/>
<path d="M104.3 118.51C104.736 118.51 105.089 118.157 105.089 117.722C105.089 117.287 104.736 116.934 104.3 116.934C103.865 116.934 103.512 117.287 103.512 117.722C103.512 118.157 103.865 118.51 104.3 118.51Z" fill="#040919"/>
<path d="M95.2455 123.736C95.6809 123.736 96.0339 123.383 96.0339 122.948C96.0339 122.512 95.6809 122.159 95.2455 122.159C94.81 122.159 94.457 122.512 94.457 122.948C94.457 123.383 94.81 123.736 95.2455 123.736Z" fill="#040919"/>
<path d="M86.1907 128.972C86.6261 128.972 86.9791 128.619 86.9791 128.184C86.9791 127.749 86.6261 127.396 86.1907 127.396C85.7553 127.396 85.4023 127.749 85.4023 128.184C85.4023 128.619 85.7553 128.972 86.1907 128.972Z" fill="#040919"/>
<path d="M113.374 123.747C113.81 123.747 114.163 123.394 114.163 122.958C114.163 122.523 113.81 122.17 113.374 122.17C112.939 122.17 112.586 122.523 112.586 122.958C112.586 123.394 112.939 123.747 113.374 123.747Z" fill="#040919"/>
<path d="M104.3 128.972C104.736 128.972 105.089 128.619 105.089 128.184C105.089 127.749 104.736 127.396 104.3 127.396C103.865 127.396 103.512 127.749 103.512 128.184C103.512 128.619 103.865 128.972 104.3 128.972Z" fill="#040919"/>
<path d="M95.2455 134.2C95.6809 134.2 96.0339 133.847 96.0339 133.411C96.0339 132.976 95.6809 132.623 95.2455 132.623C94.81 132.623 94.457 132.976 94.457 133.411C94.457 133.847 94.81 134.2 95.2455 134.2Z" fill="#040919"/>
<path d="M86.1907 139.425C86.6261 139.425 86.9791 139.072 86.9791 138.637C86.9791 138.202 86.6261 137.849 86.1907 137.849C85.7553 137.849 85.4023 138.202 85.4023 138.637C85.4023 139.072 85.7553 139.425 86.1907 139.425Z" fill="#040919"/>
<path d="M113.374 134.2C113.81 134.2 114.163 133.847 114.163 133.411C114.163 132.976 113.81 132.623 113.374 132.623C112.939 132.623 112.586 132.976 112.586 133.411C112.586 133.847 112.939 134.2 113.374 134.2Z" fill="#040919"/>
<path d="M104.3 139.425C104.736 139.425 105.089 139.072 105.089 138.637C105.089 138.202 104.736 137.849 104.3 137.849C103.865 137.849 103.512 138.202 103.512 138.637C103.512 139.072 103.865 139.425 104.3 139.425Z" fill="#040919"/>
<path d="M122.425 128.972C122.861 128.972 123.214 128.619 123.214 128.184C123.214 127.749 122.861 127.396 122.425 127.396C121.99 127.396 121.637 127.749 121.637 128.184C121.637 128.619 121.99 128.972 122.425 128.972Z" fill="#040919"/>
<path d="M95.2455 144.663C95.6809 144.663 96.0339 144.31 96.0339 143.874C96.0339 143.439 95.6809 143.086 95.2455 143.086C94.81 143.086 94.457 143.439 94.457 143.874C94.457 144.31 94.81 144.663 95.2455 144.663Z" fill="#040919"/>
<path d="M86.1907 149.888C86.6261 149.888 86.9791 149.535 86.9791 149.1C86.9791 148.665 86.6261 148.312 86.1907 148.312C85.7553 148.312 85.4023 148.665 85.4023 149.1C85.4023 149.535 85.7553 149.888 86.1907 149.888Z" fill="#040919"/>
<path d="M77.1361 113.284C77.5715 113.284 77.9245 112.931 77.9245 112.495C77.9245 112.06 77.5715 111.707 77.1361 111.707C76.7007 111.707 76.3477 112.06 76.3477 112.495C76.3477 112.931 76.7007 113.284 77.1361 113.284Z" fill="#040919"/>
<path d="M104.3 97.5944C104.736 97.5944 105.089 97.2414 105.089 96.806C105.089 96.3706 104.736 96.0176 104.3 96.0176C103.865 96.0176 103.512 96.3706 103.512 96.806C103.512 97.2414 103.865 97.5944 104.3 97.5944Z" fill="#040919"/>
<path d="M113.374 102.82C113.81 102.82 114.163 102.467 114.163 102.032C114.163 101.596 113.81 101.243 113.374 101.243C112.939 101.243 112.586 101.596 112.586 102.032C112.586 102.467 112.939 102.82 113.374 102.82Z" fill="#040919"/>
<path d="M104.3 108.056C104.736 108.056 105.089 107.703 105.089 107.268C105.089 106.832 104.736 106.479 104.3 106.479C103.865 106.479 103.512 106.832 103.512 107.268C103.512 107.703 103.865 108.056 104.3 108.056Z" fill="#040919"/>
<path d="M122.425 108.056C122.861 108.056 123.214 107.703 123.214 107.268C123.214 106.832 122.861 106.479 122.425 106.479C121.99 106.479 121.637 106.832 121.637 107.268C121.637 107.703 121.99 108.056 122.425 108.056Z" fill="#040919"/>
<path d="M113.374 113.284C113.81 113.284 114.163 112.931 114.163 112.495C114.163 112.06 113.81 111.707 113.374 111.707C112.939 111.707 112.586 112.06 112.586 112.495C112.586 112.931 112.939 113.284 113.374 113.284Z" fill="#040919"/>
<path d="M131.48 113.284C131.915 113.284 132.268 112.931 132.268 112.495C132.268 112.06 131.915 111.707 131.48 111.707C131.044 111.707 130.691 112.06 130.691 112.495C130.691 112.931 131.044 113.284 131.48 113.284Z" fill="#040919"/>
<path d="M122.425 118.51C122.861 118.51 123.214 118.157 123.214 117.722C123.214 117.287 122.861 116.934 122.425 116.934C121.99 116.934 121.637 117.287 121.637 117.722C121.637 118.157 121.99 118.51 122.425 118.51Z" fill="#040919"/>
<path d="M131.48 123.747C131.915 123.747 132.268 123.394 132.268 122.958C132.268 122.523 131.915 122.17 131.48 122.17C131.044 122.17 130.691 122.523 130.691 122.958C130.691 123.394 131.044 123.747 131.48 123.747Z" fill="#040919"/>
<path d="M140.534 118.51C140.97 118.51 141.323 118.157 141.323 117.722C141.323 117.287 140.97 116.934 140.534 116.934C140.099 116.934 139.746 117.287 139.746 117.722C139.746 118.157 140.099 118.51 140.534 118.51Z" fill="#040919"/>
<path d="M95.2455 102.82C95.6809 102.82 96.0339 102.467 96.0339 102.032C96.0339 101.596 95.6809 101.243 95.2455 101.243C94.81 101.243 94.457 101.596 94.457 102.032C94.457 102.467 94.81 102.82 95.2455 102.82Z" fill="#040919"/>
<path d="M122.425 97.5944C122.861 97.5944 123.214 97.2414 123.214 96.806C123.214 96.3706 122.861 96.0176 122.425 96.0176C121.99 96.0176 121.637 96.3706 121.637 96.806C121.637 97.2414 121.99 97.5944 122.425 97.5944Z" fill="#040919"/>
<path d="M131.48 102.82C131.915 102.82 132.268 102.467 132.268 102.032C132.268 101.596 131.915 101.243 131.48 101.243C131.044 101.243 130.691 101.596 130.691 102.032C130.691 102.467 131.044 102.82 131.48 102.82Z" fill="#040919"/>
<path d="M140.534 108.056C140.97 108.056 141.323 107.703 141.323 107.268C141.323 106.832 140.97 106.479 140.534 106.479C140.099 106.479 139.746 106.832 139.746 107.268C139.746 107.703 140.099 108.056 140.534 108.056Z" fill="#040919"/>
<path d="M149.589 113.284C150.025 113.284 150.378 112.931 150.378 112.495C150.378 112.06 150.025 111.707 149.589 111.707C149.154 111.707 148.801 112.06 148.801 112.495C148.801 112.931 149.154 113.284 149.589 113.284Z" fill="#040919"/>
<path d="M113.374 92.3679C113.81 92.3679 114.163 92.0149 114.163 91.5794C114.163 91.144 113.81 90.791 113.374 90.791C112.939 90.791 112.586 91.144 112.586 91.5794C112.586 92.0149 112.939 92.3679 113.374 92.3679Z" fill="#040919"/>
<path d="M68.0814 118.51C68.5168 118.51 68.8698 118.157 68.8698 117.722C68.8698 117.287 68.5168 116.934 68.0814 116.934C67.646 116.934 67.293 117.287 67.293 117.722C67.293 118.157 67.646 118.51 68.0814 118.51Z" fill="#040919"/>
<path d="M77.1361 123.747C77.5715 123.747 77.9245 123.394 77.9245 122.958C77.9245 122.523 77.5715 122.17 77.1361 122.17C76.7007 122.17 76.3477 122.523 76.3477 122.958C76.3477 123.394 76.7007 123.747 77.1361 123.747Z" fill="#040919"/>
<path d="M59.0266 123.747C59.4621 123.747 59.8151 123.394 59.8151 122.958C59.8151 122.523 59.4621 122.17 59.0266 122.17C58.5912 122.17 58.2383 122.523 58.2383 122.958C58.2383 123.394 58.5912 123.747 59.0266 123.747Z" fill="#040919"/>
<path d="M68.0814 128.972C68.5168 128.972 68.8698 128.619 68.8698 128.184C68.8698 127.749 68.5168 127.396 68.0814 127.396C67.646 127.396 67.293 127.749 67.293 128.184C67.293 128.619 67.646 128.972 68.0814 128.972Z" fill="#040919"/>
<path d="M77.1361 134.2C77.5715 134.2 77.9245 133.847 77.9245 133.411C77.9245 132.976 77.5715 132.623 77.1361 132.623C76.7007 132.623 76.3477 132.976 76.3477 133.411C76.3477 133.847 76.7007 134.2 77.1361 134.2Z" fill="#040919"/>
<path d="M59.0266 134.2C59.4621 134.2 59.8151 133.847 59.8151 133.411C59.8151 132.976 59.4621 132.623 59.0266 132.623C58.5912 132.623 58.2383 132.976 58.2383 133.411C58.2383 133.847 58.5912 134.2 59.0266 134.2Z" fill="#040919"/>
<path d="M68.0814 139.425C68.5168 139.425 68.8698 139.072 68.8698 138.637C68.8698 138.202 68.5168 137.849 68.0814 137.849C67.646 137.849 67.293 138.202 67.293 138.637C67.293 139.072 67.646 139.425 68.0814 139.425Z" fill="#040919"/>
<path d="M49.972 128.972C50.4075 128.972 50.7605 128.619 50.7605 128.184C50.7605 127.749 50.4075 127.396 49.972 127.396C49.5366 127.396 49.1836 127.749 49.1836 128.184C49.1836 128.619 49.5366 128.972 49.972 128.972Z" fill="#040919"/>
<path d="M77.1361 144.663C77.5715 144.663 77.9245 144.31 77.9245 143.874C77.9245 143.439 77.5715 143.086 77.1361 143.086C76.7007 143.086 76.3477 143.439 76.3477 143.874C76.3477 144.31 76.7007 144.663 77.1361 144.663Z" fill="#040919"/>
<path d="M59.0266 113.284C59.4621 113.284 59.8151 112.931 59.8151 112.495C59.8151 112.06 59.4621 111.707 59.0266 111.707C58.5912 111.707 58.2383 112.06 58.2383 112.495C58.2383 112.931 58.5912 113.284 59.0266 113.284Z" fill="#040919"/>
<path d="M49.972 118.51C50.4075 118.51 50.7605 118.157 50.7605 117.722C50.7605 117.287 50.4075 116.934 49.972 116.934C49.5366 116.934 49.1836 117.287 49.1836 117.722C49.1836 118.157 49.5366 118.51 49.972 118.51Z" fill="#040919"/>
<path d="M77.1361 102.82C77.5715 102.82 77.9245 102.467 77.9245 102.032C77.9245 101.596 77.5715 101.243 77.1361 101.243C76.7007 101.243 76.3477 101.596 76.3477 102.032C76.3477 102.467 76.7007 102.82 77.1361 102.82Z" fill="#040919"/>
<path d="M68.0814 108.056C68.5168 108.056 68.8698 107.703 68.8698 107.268C68.8698 106.832 68.5168 106.479 68.0814 106.479C67.646 106.479 67.293 106.832 67.293 107.268C67.293 107.703 67.646 108.056 68.0814 108.056Z" fill="#040919"/>
<path d="M86.1907 97.5944C86.6261 97.5944 86.9791 97.2414 86.9791 96.806C86.9791 96.3706 86.6261 96.0176 86.1907 96.0176C85.7553 96.0176 85.4023 96.3706 85.4023 96.806C85.4023 97.2414 85.7553 97.5944 86.1907 97.5944Z" fill="#040919"/>
<path d="M40.9017 123.747C41.3371 123.747 41.6901 123.394 41.6901 122.958C41.6901 122.523 41.3371 122.17 40.9017 122.17C40.4663 122.17 40.1133 122.523 40.1133 122.958C40.1133 123.394 40.4663 123.747 40.9017 123.747Z" fill="#040919"/>
<path d="M59.0266 92.3679C59.4621 92.3679 59.8151 92.0149 59.8151 91.5794C59.8151 91.144 59.4621 90.791 59.0266 90.791C58.5912 90.791 58.2383 91.144 58.2383 91.5794C58.2383 92.0149 58.5912 92.3679 59.0266 92.3679Z" fill="#040919"/>
<path d="M49.972 97.5944C50.4075 97.5944 50.7605 97.2414 50.7605 96.806C50.7605 96.3706 50.4075 96.0176 49.972 96.0176C49.5366 96.0176 49.1836 96.3706 49.1836 96.806C49.1836 97.2414 49.5366 97.5944 49.972 97.5944Z" fill="#040919"/>
<path d="M40.9017 102.82C41.3371 102.82 41.6901 102.467 41.6901 102.032C41.6901 101.596 41.3371 101.243 40.9017 101.243C40.4663 101.243 40.1133 101.596 40.1133 102.032C40.1133 102.467 40.4663 102.82 40.9017 102.82Z" fill="#040919"/>
<path d="M31.847 108.056C32.2824 108.056 32.6354 107.703 32.6354 107.268C32.6354 106.832 32.2824 106.479 31.847 106.479C31.4115 106.479 31.0586 106.832 31.0586 107.268C31.0586 107.703 31.4115 108.056 31.847 108.056Z" fill="#040919"/>
<path d="M59.0266 102.82C59.4621 102.82 59.8151 102.467 59.8151 102.032C59.8151 101.596 59.4621 101.243 59.0266 101.243C58.5912 101.243 58.2383 101.596 58.2383 102.032C58.2383 102.467 58.5912 102.82 59.0266 102.82Z" fill="#040919"/>
<path d="M49.972 108.056C50.4075 108.056 50.7605 107.703 50.7605 107.268C50.7605 106.832 50.4075 106.479 49.972 106.479C49.5366 106.479 49.1836 106.832 49.1836 107.268C49.1836 107.703 49.5366 108.056 49.972 108.056Z" fill="#040919"/>
<path d="M68.0814 97.5944C68.5168 97.5944 68.8698 97.2414 68.8698 96.806C68.8698 96.3706 68.5168 96.0176 68.0814 96.0176C67.646 96.0176 67.293 96.3706 67.293 96.806C67.293 97.2414 67.646 97.5944 68.0814 97.5944Z" fill="#040919"/>
<path d="M40.9017 113.284C41.3371 113.284 41.6901 112.931 41.6901 112.495C41.6901 112.06 41.3371 111.707 40.9017 111.707C40.4663 111.707 40.1133 112.06 40.1133 112.495C40.1133 112.931 40.4663 113.284 40.9017 113.284Z" fill="#040919"/>
<path d="M31.847 118.51C32.2824 118.51 32.6354 118.157 32.6354 117.722C32.6354 117.287 32.2824 116.934 31.847 116.934C31.4115 116.934 31.0586 117.287 31.0586 117.722C31.0586 118.157 31.4115 118.51 31.847 118.51Z" fill="#040919"/>
<path d="M95.2455 92.3679C95.6809 92.3679 96.0339 92.0149 96.0339 91.5794C96.0339 91.144 95.6809 90.791 95.2455 90.791C94.81 90.791 94.457 91.144 94.457 91.5794C94.457 92.0149 94.81 92.3679 95.2455 92.3679Z" fill="#040919"/>
<path d="M77.1361 81.904C77.5715 81.904 77.9245 81.551 77.9245 81.1155C77.9245 80.6801 77.5715 80.3271 77.1361 80.3271C76.7007 80.3271 76.3477 80.6801 76.3477 81.1155C76.3477 81.551 76.7007 81.904 77.1361 81.904Z" fill="#040919"/>
<path d="M68.0814 87.1423C68.5168 87.1423 68.8698 86.7893 68.8698 86.3539C68.8698 85.9184 68.5168 85.5654 68.0814 85.5654C67.646 85.5654 67.293 85.9184 67.293 86.3539C67.293 86.7893 67.646 87.1423 68.0814 87.1423Z" fill="#040919"/>
<path d="M77.1361 92.3679C77.5715 92.3679 77.9245 92.0149 77.9245 91.5794C77.9245 91.144 77.5715 90.791 77.1361 90.791C76.7007 90.791 76.3477 91.144 76.3477 91.5794C76.3477 92.0149 76.7007 92.3679 77.1361 92.3679Z" fill="#040919"/>
<path d="M86.1907 87.1423C86.6261 87.1423 86.9791 86.7893 86.9791 86.3539C86.9791 85.9184 86.6261 85.5654 86.1907 85.5654C85.7553 85.5654 85.4023 85.9184 85.4023 86.3539C85.4023 86.7893 85.7553 87.1423 86.1907 87.1423Z" fill="#040919"/>
<path d="M104.3 87.1423C104.736 87.1423 105.089 86.7893 105.089 86.3539C105.089 85.9184 104.736 85.5654 104.3 85.5654C103.865 85.5654 103.512 85.9184 103.512 86.3539C103.512 86.7893 103.865 87.1423 104.3 87.1423Z" fill="#040919"/>
<path d="M86.1907 76.6784C86.6261 76.6784 86.9791 76.3254 86.9791 75.89C86.9791 75.4546 86.6261 75.1016 86.1907 75.1016C85.7553 75.1016 85.4023 75.4546 85.4023 75.89C85.4023 76.3254 85.7553 76.6784 86.1907 76.6784Z" fill="#040919"/>
<path d="M95.2455 81.904C95.6809 81.904 96.0339 81.551 96.0339 81.1155C96.0339 80.6801 95.6809 80.3271 95.2455 80.3271C94.81 80.3271 94.457 80.6801 94.457 81.1155C94.457 81.551 94.81 81.904 95.2455 81.904Z" fill="#040919"/>
<path d="M22.7923 113.284C23.2278 113.284 23.5808 112.931 23.5808 112.495C23.5808 112.06 23.2278 111.707 22.7923 111.707C22.3569 111.707 22.0039 112.06 22.0039 112.495C22.0039 112.931 22.3569 113.284 22.7923 113.284Z" fill="#040919"/>
</g>
<path d="M62.0312 117.002L109.032 144.135L140.648 125.877L93.6469 98.7441" fill="#9F67EC"/>
<path d="M76.5882 112.203L66.8906 117.79" stroke="#040919" stroke-linecap="round" stroke-linejoin="round"/>
<path d="M39.543 104.015L62.0355 117.001V57.0474L39.543 44.0723V104.015Z" fill="#924EEE"/>
<path d="M39.543 44.072L62.0355 57.0471L93.6511 38.8008L71.1698 25.8145L39.543 44.072Z" fill="#6520C2"/>
<path d="M93.6508 98.7422L62.0352 117V57.046L93.6508 38.7998V98.7422Z" fill="#040919"/>
<path d="M62.0352 117V57.046L93.6508 38.7998" stroke="#6520C2" stroke-linecap="round" stroke-linejoin="round"/>
<path d="M42.4023 50.4346L59.1731 60.1209V67.96L42.4023 58.2737V50.4346Z" fill="#040919"/>
<path d="M42.4023 61.3262L59.1731 71.0124V78.8516L42.4023 69.1653V61.3262Z" fill="#040919"/>
<path d="M42.4023 72.2295L59.1731 81.9045V89.7436L42.4023 80.0573V72.2295Z" fill="#040919"/>
<path d="M44.9375 54.7266L46.7846 55.7966" stroke="white" stroke-linecap="round" stroke-linejoin="round"/>
<path d="M52.8555 59.2998L54.7026 60.3698" stroke="white" stroke-linecap="round" stroke-linejoin="round"/>
<path d="M56.8203 61.5859L58.6675 62.6559" stroke="white" stroke-linecap="round" stroke-linejoin="round"/>
<path d="M48.9062 67.916L50.7534 68.986" stroke="white" stroke-linecap="round" stroke-linejoin="round"/>
<path d="M52.8555 70.2021L54.7026 71.2722" stroke="white" stroke-linecap="round" stroke-linejoin="round"/>
<path d="M56.8203 72.4893L58.6675 73.5593" stroke="white" stroke-linecap="round" stroke-linejoin="round"/>
<path d="M44.9375 76.5439L46.7846 77.614" stroke="white" stroke-linecap="round" stroke-linejoin="round"/>
<path d="M48.9062 78.8301L50.7534 79.9001" stroke="white" stroke-linecap="round" stroke-linejoin="round"/>
<path d="M56.8203 83.4023L58.6675 84.4724" stroke="white" stroke-linecap="round" stroke-linejoin="round"/>
<path d="M71.7266 122.599L94.219 135.585V75.6426L71.7266 62.6562V122.599Z" fill="#924EEE"/>
<path d="M71.7266 62.656L94.219 75.6423L125.835 57.3848L103.353 44.3984L71.7266 62.656Z" fill="#040919"/>
<path d="M125.834 117.326L94.2188 135.584V75.6413L125.834 57.3838V117.326Z" fill="#040919"/>
<path d="M94.2188 135.584V75.6413L125.834 57.3838" stroke="#6520C2" stroke-linecap="round" stroke-linejoin="round"/>
<path d="M74.5859 69.0186L91.3567 78.7048V86.544L74.5859 76.8577V69.0186Z" fill="#040919"/>
<path d="M74.5859 79.9102L91.3567 89.5964V97.4356L74.5859 87.7493V79.9102Z" fill="#040919"/>
<path d="M74.5859 90.8135L91.3567 100.5V108.328L74.5859 98.6413V90.8135Z" fill="#040919"/>
<path d="M77.1211 73.3105L78.9683 74.3806" stroke="white" stroke-linecap="round" stroke-linejoin="round"/>
<path d="M85.0391 77.8838L86.8862 78.9538" stroke="white" stroke-linecap="round" stroke-linejoin="round"/>
<path d="M89.0039 80.1699L90.8511 81.2399" stroke="white" stroke-linecap="round" stroke-linejoin="round"/>
<path d="M81.0898 86.5117L82.937 87.5705" stroke="white" stroke-linecap="round" stroke-linejoin="round"/>
<path d="M85.0391 88.7979L86.8862 89.8566" stroke="white" stroke-linecap="round" stroke-linejoin="round"/>
<path d="M89.0039 91.084L90.8511 92.1427" stroke="white" stroke-linecap="round" stroke-linejoin="round"/>
<path d="M77.1211 95.1279L78.9683 96.1979" stroke="white" stroke-linecap="round" stroke-linejoin="round"/>
<path d="M81.0898 97.4141L82.937 98.4841" stroke="white" stroke-linecap="round" stroke-linejoin="round"/>
<path d="M89.0039 101.986L90.8511 103.056" stroke="white" stroke-linecap="round" stroke-linejoin="round"/>
<path d="M71.7266 57.8928L94.219 70.8679V31.233L71.7266 18.2578V57.8928Z" fill="#924EEE"/>
<path d="M71.7266 18.2575L94.219 31.2327L125.835 12.9864L103.353 0L71.7266 18.2575Z" fill="#6520C2"/>
<path d="M125.834 52.6203L94.2188 70.8666V31.2316L125.834 12.9854V52.6203Z" fill="#040919"/>
<path d="M94.2188 70.8666V31.2316L125.834 12.9854" stroke="#6520C2" stroke-linecap="round" stroke-linejoin="round"/>
<path d="M74.5859 24.6201L91.3567 34.3064V42.1343L74.5859 32.4593V24.6201Z" fill="#040919"/>
<path d="M74.5859 35.5117L91.3567 45.198V53.0371L74.5859 43.3508V35.5117Z" fill="#040919"/>
<path d="M74.5859 46.4043L91.3567 56.0906V63.9297L74.5859 54.2434V46.4043Z" fill="#040919"/>
<path d="M77.1211 28.9121L78.9683 29.9821" stroke="white" stroke-linecap="round" stroke-linejoin="round"/>
<path d="M85.0391 33.4854L86.8862 34.5553" stroke="white" stroke-linecap="round" stroke-linejoin="round"/>
<path d="M89.0039 35.7715L90.8511 36.8415" stroke="white" stroke-linecap="round" stroke-linejoin="round"/>
<path d="M81.0898 42.1016L82.937 43.1715" stroke="white" stroke-linecap="round" stroke-linejoin="round"/>
<path d="M85.0391 44.3877L86.8862 45.4577" stroke="white" stroke-linecap="round" stroke-linejoin="round"/>
<path d="M89.0039 46.6748L90.8511 47.7448" stroke="white" stroke-linecap="round" stroke-linejoin="round"/>
<path d="M77.1211 50.7295L78.9683 51.7882" stroke="white" stroke-linecap="round" stroke-linejoin="round"/>
<path d="M81.0898 53.0156L82.937 54.0744" stroke="white" stroke-linecap="round" stroke-linejoin="round"/>
<path d="M89.0039 57.5879L90.8511 58.6466" stroke="white" stroke-linecap="round" stroke-linejoin="round"/>
<path d="M69.7851 116.123L66.9017 117.79C59.2203 122.228 59.2203 129.481 66.9017 133.919L81.3635 142.265C88.02 146.106 98.9002 146.106 105.557 142.265L108.26 140.699C111.335 138.92 113.846 134.561 113.846 131.013V106.02C113.846 102.472 111.369 98.0459 108.35 96.1875" stroke="#040919" stroke-linecap="round" stroke-linejoin="round"/>
<path d="M113.832 124.255V106.02C113.832 102.472 111.354 98.0459 108.336 96.1875" stroke="#6520C2" stroke-linecap="round" stroke-linejoin="round"/>
<path d="M118.711 121.451V103.216C118.711 99.6676 116.233 95.2412 113.215 93.3828" stroke="#6520C2" stroke-linecap="round" stroke-linejoin="round"/>
<path d="M123.574 118.635V100.4C123.574 96.8522 121.097 92.4258 118.078 90.5674" stroke="#6520C2" stroke-linecap="round" stroke-linejoin="round"/>
<path d="M118.707 121.45V128.794C118.707 131.452 120.588 134.707 122.886 136.036L126.749 138.266" stroke="#040919" stroke-linecap="round" stroke-linejoin="round"/>
<path d="M123.574 118.635V125.978C123.574 128.636 125.455 131.891 127.753 133.221L131.616 135.451" stroke="#040919" stroke-linecap="round" stroke-linejoin="round"/>
<defs>
<linearGradient id="paint0_linear_369_3336" x1="1" y1="112.496" x2="171.389" y2="112.496" gradientUnits="userSpaceOnUse">
<stop stop-color="#D2C1EA"/>
<stop offset="0.492708" stop-color="#B695E3" stop-opacity="0.31"/>
</linearGradient>
</defs>
</svg>
