<svg width="153" height="163" viewBox="0 0 153 163" fill="none" xmlns="http://www.w3.org/2000/svg">
<path d="M76.64 148.55L12.78 111.68L1 118.48L76.64 162.15L152.28 118.48L140.5 111.68L76.64 148.55Z" fill="#BCC0E5"/>
<path d="M76.64 61.21L1 104.88L76.64 148.55L152.28 104.88L76.64 61.21Z" fill="url(#paint0_linear_369_4248)"/>
<path d="M1 104.88L76.64 148.55L152.28 104.88" stroke="#5D688C" stroke-linecap="round" stroke-linejoin="round"/>
<g opacity="0.25">
<path d="M76.6375 100.939C77.0241 100.939 77.3375 100.626 77.3375 100.239C77.3375 99.8524 77.0241 99.5391 76.6375 99.5391C76.2509 99.5391 75.9375 99.8524 75.9375 100.239C75.9375 100.626 76.2509 100.939 76.6375 100.939Z" fill="#040919"/>
<path d="M84.6766 105.58C85.0632 105.58 85.3766 105.266 85.3766 104.88C85.3766 104.493 85.0632 104.18 84.6766 104.18C84.29 104.18 83.9766 104.493 83.9766 104.88C83.9766 105.266 84.29 105.58 84.6766 105.58Z" fill="#040919"/>
<path d="M76.6375 110.22C77.0241 110.22 77.3375 109.907 77.3375 109.52C77.3375 109.134 77.0241 108.82 76.6375 108.82C76.2509 108.82 75.9375 109.134 75.9375 109.52C75.9375 109.907 76.2509 110.22 76.6375 110.22Z" fill="#040919"/>
<path d="M92.7156 110.22C93.1022 110.22 93.4156 109.907 93.4156 109.52C93.4156 109.134 93.1022 108.82 92.7156 108.82C92.329 108.82 92.0156 109.134 92.0156 109.52C92.0156 109.907 92.329 110.22 92.7156 110.22Z" fill="#040919"/>
<path d="M84.6766 114.86C85.0632 114.86 85.3766 114.547 85.3766 114.16C85.3766 113.773 85.0632 113.46 84.6766 113.46C84.29 113.46 83.9766 113.773 83.9766 114.16C83.9766 114.547 84.29 114.86 84.6766 114.86Z" fill="#040919"/>
<path d="M76.6375 119.509C77.0241 119.509 77.3375 119.196 77.3375 118.809C77.3375 118.423 77.0241 118.109 76.6375 118.109C76.2509 118.109 75.9375 118.423 75.9375 118.809C75.9375 119.196 76.2509 119.509 76.6375 119.509Z" fill="#040919"/>
<path d="M100.77 114.87C101.157 114.87 101.47 114.556 101.47 114.17C101.47 113.783 101.157 113.47 100.77 113.47C100.384 113.47 100.07 113.783 100.07 114.17C100.07 114.556 100.384 114.87 100.77 114.87Z" fill="#040919"/>
<path d="M92.7156 119.509C93.1022 119.509 93.4156 119.196 93.4156 118.809C93.4156 118.423 93.1022 118.109 92.7156 118.109C92.329 118.109 92.0156 118.423 92.0156 118.809C92.0156 119.196 92.329 119.509 92.7156 119.509Z" fill="#040919"/>
<path d="M84.6766 124.15C85.0632 124.15 85.3766 123.837 85.3766 123.45C85.3766 123.063 85.0632 122.75 84.6766 122.75C84.29 122.75 83.9766 123.063 83.9766 123.45C83.9766 123.837 84.29 124.15 84.6766 124.15Z" fill="#040919"/>
<path d="M76.6375 128.79C77.0241 128.79 77.3375 128.476 77.3375 128.09C77.3375 127.703 77.0241 127.39 76.6375 127.39C76.2509 127.39 75.9375 127.703 75.9375 128.09C75.9375 128.476 76.2509 128.79 76.6375 128.79Z" fill="#040919"/>
<path d="M100.77 124.15C101.157 124.15 101.47 123.837 101.47 123.45C101.47 123.063 101.157 122.75 100.77 122.75C100.384 122.75 100.07 123.063 100.07 123.45C100.07 123.837 100.384 124.15 100.77 124.15Z" fill="#040919"/>
<path d="M92.7156 128.79C93.1022 128.79 93.4156 128.476 93.4156 128.09C93.4156 127.703 93.1022 127.39 92.7156 127.39C92.329 127.39 92.0156 127.703 92.0156 128.09C92.0156 128.476 92.329 128.79 92.7156 128.79Z" fill="#040919"/>
<path d="M108.809 119.509C109.196 119.509 109.509 119.196 109.509 118.809C109.509 118.423 109.196 118.109 108.809 118.109C108.423 118.109 108.109 118.423 108.109 118.809C108.109 119.196 108.423 119.509 108.809 119.509Z" fill="#040919"/>
<path d="M84.6766 133.44C85.0632 133.44 85.3766 133.127 85.3766 132.74C85.3766 132.353 85.0632 132.04 84.6766 132.04C84.29 132.04 83.9766 132.353 83.9766 132.74C83.9766 133.127 84.29 133.44 84.6766 133.44Z" fill="#040919"/>
<path d="M76.6375 138.08C77.0241 138.08 77.3375 137.766 77.3375 137.38C77.3375 136.993 77.0241 136.68 76.6375 136.68C76.2509 136.68 75.9375 136.993 75.9375 137.38C75.9375 137.766 76.2509 138.08 76.6375 138.08Z" fill="#040919"/>
<path d="M68.5984 105.58C68.985 105.58 69.2985 105.266 69.2985 104.88C69.2985 104.493 68.985 104.18 68.5984 104.18C68.2119 104.18 67.8984 104.493 67.8984 104.88C67.8984 105.266 68.2119 105.58 68.5984 105.58Z" fill="#040919"/>
<path d="M92.7156 91.65C93.1022 91.65 93.4156 91.3366 93.4156 90.95C93.4156 90.5634 93.1022 90.25 92.7156 90.25C92.329 90.25 92.0156 90.5634 92.0156 90.95C92.0156 91.3366 92.329 91.65 92.7156 91.65Z" fill="#040919"/>
<path d="M100.77 96.2896C101.157 96.2896 101.47 95.9762 101.47 95.5896C101.47 95.203 101.157 94.8896 100.77 94.8896C100.384 94.8896 100.07 95.203 100.07 95.5896C100.07 95.9762 100.384 96.2896 100.77 96.2896Z" fill="#040919"/>
<path d="M92.7156 100.939C93.1022 100.939 93.4156 100.626 93.4156 100.239C93.4156 99.8524 93.1022 99.5391 92.7156 99.5391C92.329 99.5391 92.0156 99.8524 92.0156 100.239C92.0156 100.626 92.329 100.939 92.7156 100.939Z" fill="#040919"/>
<path d="M108.809 100.939C109.196 100.939 109.509 100.626 109.509 100.239C109.509 99.8524 109.196 99.5391 108.809 99.5391C108.423 99.5391 108.109 99.8524 108.109 100.239C108.109 100.626 108.423 100.939 108.809 100.939Z" fill="#040919"/>
<path d="M100.77 105.58C101.157 105.58 101.47 105.266 101.47 104.88C101.47 104.493 101.157 104.18 100.77 104.18C100.384 104.18 100.07 104.493 100.07 104.88C100.07 105.266 100.384 105.58 100.77 105.58Z" fill="#040919"/>
<path d="M116.848 105.58C117.235 105.58 117.548 105.266 117.548 104.88C117.548 104.493 117.235 104.18 116.848 104.18C116.462 104.18 116.148 104.493 116.148 104.88C116.148 105.266 116.462 105.58 116.848 105.58Z" fill="#040919"/>
<path d="M108.809 110.22C109.196 110.22 109.509 109.907 109.509 109.52C109.509 109.134 109.196 108.82 108.809 108.82C108.423 108.82 108.109 109.134 108.109 109.52C108.109 109.907 108.423 110.22 108.809 110.22Z" fill="#040919"/>
<path d="M116.848 114.87C117.235 114.87 117.548 114.556 117.548 114.17C117.548 113.783 117.235 113.47 116.848 113.47C116.462 113.47 116.148 113.783 116.148 114.17C116.148 114.556 116.462 114.87 116.848 114.87Z" fill="#040919"/>
<path d="M124.887 110.22C125.274 110.22 125.587 109.907 125.587 109.52C125.587 109.134 125.274 108.82 124.887 108.82C124.501 108.82 124.188 109.134 124.188 109.52C124.188 109.907 124.501 110.22 124.887 110.22Z" fill="#040919"/>
<path d="M84.6766 96.2896C85.0632 96.2896 85.3766 95.9762 85.3766 95.5896C85.3766 95.203 85.0632 94.8896 84.6766 94.8896C84.29 94.8896 83.9766 95.203 83.9766 95.5896C83.9766 95.9762 84.29 96.2896 84.6766 96.2896Z" fill="#040919"/>
<path d="M108.809 91.65C109.196 91.65 109.509 91.3366 109.509 90.95C109.509 90.5634 109.196 90.25 108.809 90.25C108.423 90.25 108.109 90.5634 108.109 90.95C108.109 91.3366 108.423 91.65 108.809 91.65Z" fill="#040919"/>
<path d="M116.848 96.2896C117.235 96.2896 117.548 95.9762 117.548 95.5896C117.548 95.203 117.235 94.8896 116.848 94.8896C116.462 94.8896 116.148 95.203 116.148 95.5896C116.148 95.9762 116.462 96.2896 116.848 96.2896Z" fill="#040919"/>
<path d="M124.887 100.939C125.274 100.939 125.587 100.626 125.587 100.239C125.587 99.8524 125.274 99.5391 124.887 99.5391C124.501 99.5391 124.188 99.8524 124.188 100.239C124.188 100.626 124.501 100.939 124.887 100.939Z" fill="#040919"/>
<path d="M132.927 105.58C133.313 105.58 133.627 105.266 133.627 104.88C133.627 104.493 133.313 104.18 132.927 104.18C132.54 104.18 132.227 104.493 132.227 104.88C132.227 105.266 132.54 105.58 132.927 105.58Z" fill="#040919"/>
<path d="M100.77 87.0094C101.157 87.0094 101.47 86.696 101.47 86.3094C101.47 85.9228 101.157 85.6094 100.77 85.6094C100.384 85.6094 100.07 85.9228 100.07 86.3094C100.07 86.696 100.384 87.0094 100.77 87.0094Z" fill="#040919"/>
<path d="M60.5594 110.22C60.946 110.22 61.2594 109.907 61.2594 109.52C61.2594 109.134 60.946 108.82 60.5594 108.82C60.1728 108.82 59.8594 109.134 59.8594 109.52C59.8594 109.907 60.1728 110.22 60.5594 110.22Z" fill="#040919"/>
<path d="M68.5984 114.87C68.985 114.87 69.2985 114.556 69.2985 114.17C69.2985 113.783 68.985 113.47 68.5984 113.47C68.2119 113.47 67.8984 113.783 67.8984 114.17C67.8984 114.556 68.2119 114.87 68.5984 114.87Z" fill="#040919"/>
<path d="M52.5203 114.87C52.9069 114.87 53.2203 114.556 53.2203 114.17C53.2203 113.783 52.9069 113.47 52.5203 113.47C52.1337 113.47 51.8203 113.783 51.8203 114.17C51.8203 114.556 52.1337 114.87 52.5203 114.87Z" fill="#040919"/>
<path d="M60.5594 119.509C60.946 119.509 61.2594 119.196 61.2594 118.809C61.2594 118.423 60.946 118.109 60.5594 118.109C60.1728 118.109 59.8594 118.423 59.8594 118.809C59.8594 119.196 60.1728 119.509 60.5594 119.509Z" fill="#040919"/>
<path d="M68.5984 124.15C68.985 124.15 69.2985 123.837 69.2985 123.45C69.2985 123.063 68.985 122.75 68.5984 122.75C68.2119 122.75 67.8984 123.063 67.8984 123.45C67.8984 123.837 68.2119 124.15 68.5984 124.15Z" fill="#040919"/>
<path d="M52.5203 124.15C52.9069 124.15 53.2203 123.837 53.2203 123.45C53.2203 123.063 52.9069 122.75 52.5203 122.75C52.1337 122.75 51.8203 123.063 51.8203 123.45C51.8203 123.837 52.1337 124.15 52.5203 124.15Z" fill="#040919"/>
<path d="M60.5594 128.79C60.946 128.79 61.2594 128.476 61.2594 128.09C61.2594 127.703 60.946 127.39 60.5594 127.39C60.1728 127.39 59.8594 127.703 59.8594 128.09C59.8594 128.476 60.1728 128.79 60.5594 128.79Z" fill="#040919"/>
<path d="M44.4813 119.509C44.8679 119.509 45.1813 119.196 45.1813 118.809C45.1813 118.423 44.8679 118.109 44.4813 118.109C44.0947 118.109 43.7812 118.423 43.7812 118.809C43.7812 119.196 44.0947 119.509 44.4813 119.509Z" fill="#040919"/>
<path d="M68.5984 133.44C68.985 133.44 69.2985 133.127 69.2985 132.74C69.2985 132.353 68.985 132.04 68.5984 132.04C68.2119 132.04 67.8984 132.353 67.8984 132.74C67.8984 133.127 68.2119 133.44 68.5984 133.44Z" fill="#040919"/>
<path d="M52.5203 105.58C52.9069 105.58 53.2203 105.266 53.2203 104.88C53.2203 104.493 52.9069 104.18 52.5203 104.18C52.1337 104.18 51.8203 104.493 51.8203 104.88C51.8203 105.266 52.1337 105.58 52.5203 105.58Z" fill="#040919"/>
<path d="M44.4813 110.22C44.8679 110.22 45.1813 109.907 45.1813 109.52C45.1813 109.134 44.8679 108.82 44.4813 108.82C44.0947 108.82 43.7812 109.134 43.7812 109.52C43.7812 109.907 44.0947 110.22 44.4813 110.22Z" fill="#040919"/>
<path d="M68.5984 96.2896C68.985 96.2896 69.2985 95.9762 69.2985 95.5896C69.2985 95.203 68.985 94.8896 68.5984 94.8896C68.2119 94.8896 67.8984 95.203 67.8984 95.5896C67.8984 95.9762 68.2119 96.2896 68.5984 96.2896Z" fill="#040919"/>
<path d="M60.5594 100.939C60.946 100.939 61.2594 100.626 61.2594 100.239C61.2594 99.8524 60.946 99.5391 60.5594 99.5391C60.1728 99.5391 59.8594 99.8524 59.8594 100.239C59.8594 100.626 60.1728 100.939 60.5594 100.939Z" fill="#040919"/>
<path d="M76.6375 91.65C77.0241 91.65 77.3375 91.3366 77.3375 90.95C77.3375 90.5634 77.0241 90.25 76.6375 90.25C76.2509 90.25 75.9375 90.5634 75.9375 90.95C75.9375 91.3366 76.2509 91.65 76.6375 91.65Z" fill="#040919"/>
<path d="M36.4266 114.87C36.8132 114.87 37.1266 114.556 37.1266 114.17C37.1266 113.783 36.8132 113.47 36.4266 113.47C36.04 113.47 35.7266 113.783 35.7266 114.17C35.7266 114.556 36.04 114.87 36.4266 114.87Z" fill="#040919"/>
<path d="M52.5203 87.0094C52.9069 87.0094 53.2203 86.696 53.2203 86.3094C53.2203 85.9228 52.9069 85.6094 52.5203 85.6094C52.1337 85.6094 51.8203 85.9228 51.8203 86.3094C51.8203 86.696 52.1337 87.0094 52.5203 87.0094Z" fill="#040919"/>
<path d="M44.4813 91.65C44.8679 91.65 45.1813 91.3366 45.1813 90.95C45.1813 90.5634 44.8679 90.25 44.4813 90.25C44.0947 90.25 43.7812 90.5634 43.7812 90.95C43.7812 91.3366 44.0947 91.65 44.4813 91.65Z" fill="#040919"/>
<path d="M36.4266 96.2896C36.8132 96.2896 37.1266 95.9762 37.1266 95.5896C37.1266 95.203 36.8132 94.8896 36.4266 94.8896C36.04 94.8896 35.7266 95.203 35.7266 95.5896C35.7266 95.9762 36.04 96.2896 36.4266 96.2896Z" fill="#040919"/>
<path d="M28.3875 100.939C28.7741 100.939 29.0875 100.626 29.0875 100.239C29.0875 99.8524 28.7741 99.5391 28.3875 99.5391C28.0009 99.5391 27.6875 99.8524 27.6875 100.239C27.6875 100.626 28.0009 100.939 28.3875 100.939Z" fill="#040919"/>
<path d="M52.5203 96.2896C52.9069 96.2896 53.2203 95.9762 53.2203 95.5896C53.2203 95.203 52.9069 94.8896 52.5203 94.8896C52.1337 94.8896 51.8203 95.203 51.8203 95.5896C51.8203 95.9762 52.1337 96.2896 52.5203 96.2896Z" fill="#040919"/>
<path d="M44.4813 100.939C44.8679 100.939 45.1813 100.626 45.1813 100.239C45.1813 99.8524 44.8679 99.5391 44.4813 99.5391C44.0947 99.5391 43.7812 99.8524 43.7812 100.239C43.7812 100.626 44.0947 100.939 44.4813 100.939Z" fill="#040919"/>
<path d="M60.5594 91.65C60.946 91.65 61.2594 91.3366 61.2594 90.95C61.2594 90.5634 60.946 90.25 60.5594 90.25C60.1728 90.25 59.8594 90.5634 59.8594 90.95C59.8594 91.3366 60.1728 91.65 60.5594 91.65Z" fill="#040919"/>
<path d="M36.4266 105.58C36.8132 105.58 37.1266 105.266 37.1266 104.88C37.1266 104.493 36.8132 104.18 36.4266 104.18C36.04 104.18 35.7266 104.493 35.7266 104.88C35.7266 105.266 36.04 105.58 36.4266 105.58Z" fill="#040919"/>
<path d="M28.3875 110.22C28.7741 110.22 29.0875 109.907 29.0875 109.52C29.0875 109.134 28.7741 108.82 28.3875 108.82C28.0009 108.82 27.6875 109.134 27.6875 109.52C27.6875 109.907 28.0009 110.22 28.3875 110.22Z" fill="#040919"/>
<path d="M84.6766 87.0094C85.0632 87.0094 85.3766 86.696 85.3766 86.3094C85.3766 85.9228 85.0632 85.6094 84.6766 85.6094C84.29 85.6094 83.9766 85.9228 83.9766 86.3094C83.9766 86.696 84.29 87.0094 84.6766 87.0094Z" fill="#040919"/>
<path d="M68.5984 77.7193C68.985 77.7193 69.2985 77.4059 69.2985 77.0193C69.2985 76.6327 68.985 76.3193 68.5984 76.3193C68.2119 76.3193 67.8984 76.6327 67.8984 77.0193C67.8984 77.4059 68.2119 77.7193 68.5984 77.7193Z" fill="#040919"/>
<path d="M60.5594 82.3697C60.946 82.3697 61.2594 82.0563 61.2594 81.6697C61.2594 81.2831 60.946 80.9697 60.5594 80.9697C60.1728 80.9697 59.8594 81.2831 59.8594 81.6697C59.8594 82.0563 60.1728 82.3697 60.5594 82.3697Z" fill="#040919"/>
<path d="M68.5984 87.0094C68.985 87.0094 69.2985 86.696 69.2985 86.3094C69.2985 85.9228 68.985 85.6094 68.5984 85.6094C68.2119 85.6094 67.8984 85.9228 67.8984 86.3094C67.8984 86.696 68.2119 87.0094 68.5984 87.0094Z" fill="#040919"/>
<path d="M76.6375 82.3697C77.0241 82.3697 77.3375 82.0563 77.3375 81.6697C77.3375 81.2831 77.0241 80.9697 76.6375 80.9697C76.2509 80.9697 75.9375 81.2831 75.9375 81.6697C75.9375 82.0563 76.2509 82.3697 76.6375 82.3697Z" fill="#040919"/>
<path d="M92.7156 82.3697C93.1022 82.3697 93.4156 82.0563 93.4156 81.6697C93.4156 81.2831 93.1022 80.9697 92.7156 80.9697C92.329 80.9697 92.0156 81.2831 92.0156 81.6697C92.0156 82.0563 92.329 82.3697 92.7156 82.3697Z" fill="#040919"/>
<path d="M76.6375 73.0797C77.0241 73.0797 77.3375 72.7663 77.3375 72.3797C77.3375 71.9931 77.0241 71.6797 76.6375 71.6797C76.2509 71.6797 75.9375 71.9931 75.9375 72.3797C75.9375 72.7663 76.2509 73.0797 76.6375 73.0797Z" fill="#040919"/>
<path d="M84.6766 77.7193C85.0632 77.7193 85.3766 77.4059 85.3766 77.0193C85.3766 76.6327 85.0632 76.3193 84.6766 76.3193C84.29 76.3193 83.9766 76.6327 83.9766 77.0193C83.9766 77.4059 84.29 77.7193 84.6766 77.7193Z" fill="#040919"/>
<path d="M20.3484 105.58C20.735 105.58 21.0485 105.266 21.0485 104.88C21.0485 104.493 20.735 104.18 20.3484 104.18C19.9619 104.18 19.6484 104.493 19.6484 104.88C19.6484 105.266 19.9619 105.58 20.3484 105.58Z" fill="#040919"/>
</g>
<path d="M54.9688 103.88L96.6987 127.97L124.769 111.76L83.0388 87.6699" fill="#9F67EC"/>
<path d="M67.8912 99.6201L59.2812 104.58" stroke="#040919" stroke-linecap="round" stroke-linejoin="round"/>
<path d="M35 92.3499L54.97 103.88V50.6499L35 39.1299V92.3499Z" fill="#924EEE"/>
<path d="M35 39.1299L54.97 50.6499L83.04 34.4499L63.08 22.9199L35 39.1299Z" fill="#6520C2"/>
<path d="M83.0388 87.6692L54.9688 103.879V50.6492L83.0388 34.4492V87.6692Z" fill="#040919"/>
<path d="M54.9688 103.879V50.6492L83.0388 34.4492" stroke="#6520C2" stroke-linecap="round" stroke-linejoin="round"/>
<path d="M37.5391 44.7793L52.429 53.3793V60.3393L37.5391 51.7393V44.7793Z" fill="#040919"/>
<path d="M37.5391 54.4492L52.429 63.0492V70.0092L37.5391 61.4092V54.4492Z" fill="#040919"/>
<path d="M37.5391 64.1299L52.429 72.7199V79.6799L37.5391 71.0799V64.1299Z" fill="#040919"/>
<path d="M39.7891 48.5898L41.429 49.5399" stroke="white" stroke-linecap="round" stroke-linejoin="round"/>
<path d="M46.8203 52.6504L48.4603 53.6004" stroke="white" stroke-linecap="round" stroke-linejoin="round"/>
<path d="M50.3398 54.6797L51.9799 55.6297" stroke="white" stroke-linecap="round" stroke-linejoin="round"/>
<path d="M43.3125 60.2998L44.9525 61.2498" stroke="white" stroke-linecap="round" stroke-linejoin="round"/>
<path d="M46.8203 62.3301L48.4603 63.2801" stroke="white" stroke-linecap="round" stroke-linejoin="round"/>
<path d="M50.3398 64.3604L51.9799 65.3104" stroke="white" stroke-linecap="round" stroke-linejoin="round"/>
<path d="M39.7891 67.96L41.429 68.91" stroke="white" stroke-linecap="round" stroke-linejoin="round"/>
<path d="M43.3125 69.9902L44.9525 70.9402" stroke="white" stroke-linecap="round" stroke-linejoin="round"/>
<path d="M50.3398 74.0498L51.9799 74.9998" stroke="white" stroke-linecap="round" stroke-linejoin="round"/>
<path d="M63.5781 108.85L83.5481 120.38V67.1599L63.5781 55.6299V108.85Z" fill="#924EEE"/>
<path d="M63.5781 55.6299L83.5481 67.1599L111.618 50.9499L91.6581 39.4199L63.5781 55.6299Z" fill="#040919"/>
<path d="M111.617 104.169L83.5469 120.379V67.1592L111.617 50.9492V104.169Z" fill="#040919"/>
<path d="M83.5469 120.379V67.1592L111.617 50.9492" stroke="#6520C2" stroke-linecap="round" stroke-linejoin="round"/>
<path d="M66.1172 61.2793L81.0072 69.8793V76.8393L66.1172 68.2393V61.2793Z" fill="#040919"/>
<path d="M66.1172 70.9492L81.0072 79.5492V86.5092L66.1172 77.9092V70.9492Z" fill="#040919"/>
<path d="M66.1172 80.6299L81.0072 89.2299V96.1799L66.1172 87.5799V80.6299Z" fill="#040919"/>
<path d="M68.3672 65.0898L70.0072 66.0399" stroke="white" stroke-linecap="round" stroke-linejoin="round"/>
<path d="M75.3984 69.1504L77.0385 70.1004" stroke="white" stroke-linecap="round" stroke-linejoin="round"/>
<path d="M78.918 71.1797L80.558 72.1297" stroke="white" stroke-linecap="round" stroke-linejoin="round"/>
<path d="M71.8906 76.8105L73.5306 77.7505" stroke="white" stroke-linecap="round" stroke-linejoin="round"/>
<path d="M75.3984 78.8398L77.0385 79.7798" stroke="white" stroke-linecap="round" stroke-linejoin="round"/>
<path d="M78.918 80.8701L80.558 81.8101" stroke="white" stroke-linecap="round" stroke-linejoin="round"/>
<path d="M68.3672 84.46L70.0072 85.41" stroke="white" stroke-linecap="round" stroke-linejoin="round"/>
<path d="M71.8906 86.4902L73.5306 87.4402" stroke="white" stroke-linecap="round" stroke-linejoin="round"/>
<path d="M78.918 90.5498L80.558 91.4998" stroke="white" stroke-linecap="round" stroke-linejoin="round"/>
<path d="M63.5781 51.4L83.5481 62.92V27.73L63.5781 16.21V51.4Z" fill="#924EEE"/>
<path d="M63.5781 16.21L83.5481 27.73L111.618 11.53L91.6581 0L63.5781 16.21Z" fill="#6520C2"/>
<path d="M111.617 46.7193L83.5469 62.9193V27.7293L111.617 11.5293V46.7193Z" fill="#040919"/>
<path d="M83.5469 62.9193V27.7293L111.617 11.5293" stroke="#6520C2" stroke-linecap="round" stroke-linejoin="round"/>
<path d="M66.1172 21.8594L81.0072 30.4594V37.4094L66.1172 28.8194V21.8594Z" fill="#040919"/>
<path d="M66.1172 31.5293L81.0072 40.1293V47.0893L66.1172 38.4893V31.5293Z" fill="#040919"/>
<path d="M66.1172 41.2002L81.0072 49.8002V56.7602L66.1172 48.1602V41.2002Z" fill="#040919"/>
<path d="M68.3672 25.6699L70.0072 26.6199" stroke="white" stroke-linecap="round" stroke-linejoin="round"/>
<path d="M75.3984 29.7305L77.0385 30.6805" stroke="white" stroke-linecap="round" stroke-linejoin="round"/>
<path d="M78.918 31.7598L80.558 32.7097" stroke="white" stroke-linecap="round" stroke-linejoin="round"/>
<path d="M71.8906 37.3799L73.5306 38.3299" stroke="white" stroke-linecap="round" stroke-linejoin="round"/>
<path d="M75.3984 39.4102L77.0385 40.3601" stroke="white" stroke-linecap="round" stroke-linejoin="round"/>
<path d="M78.918 41.4404L80.558 42.3904" stroke="white" stroke-linecap="round" stroke-linejoin="round"/>
<path d="M68.3672 45.04L70.0072 45.98" stroke="white" stroke-linecap="round" stroke-linejoin="round"/>
<path d="M71.8906 47.0703L73.5306 48.0103" stroke="white" stroke-linecap="round" stroke-linejoin="round"/>
<path d="M78.918 51.1299L80.558 52.0699" stroke="white" stroke-linecap="round" stroke-linejoin="round"/>
<path d="M61.8508 103.1L59.2908 104.58C52.4708 108.52 52.4708 114.96 59.2908 118.9L72.1307 126.31C78.0407 129.72 87.7007 129.72 93.6107 126.31L96.0108 124.92C98.7408 123.34 100.971 119.47 100.971 116.32V94.1304C100.971 90.9804 98.7708 87.0504 96.0908 85.4004" stroke="#040919" stroke-linecap="round" stroke-linejoin="round"/>
<path d="M100.958 110.32V94.1304C100.958 90.9804 98.7581 87.0504 96.0781 85.4004" stroke="#6520C2" stroke-linecap="round" stroke-linejoin="round"/>
<path d="M105.29 107.83V91.6402C105.29 88.4902 103.09 84.5602 100.41 82.9102" stroke="#6520C2" stroke-linecap="round" stroke-linejoin="round"/>
<path d="M109.61 105.33V89.1402C109.61 85.9902 107.41 82.0602 104.73 80.4102" stroke="#6520C2" stroke-linecap="round" stroke-linejoin="round"/>
<path d="M105.289 107.83V114.35C105.289 116.71 106.959 119.6 108.999 120.78L112.429 122.76" stroke="#040919" stroke-linecap="round" stroke-linejoin="round"/>
<path d="M109.609 105.33V111.85C109.609 114.21 111.279 117.1 113.319 118.28L116.749 120.26" stroke="#040919" stroke-linecap="round" stroke-linejoin="round"/>
<defs>
<linearGradient id="paint0_linear_369_4248" x1="1" y1="104.88" x2="152.28" y2="104.88" gradientUnits="userSpaceOnUse">
<stop stop-color="#D2C1EA"/>
<stop offset="0.492708" stop-color="#B695E3" stop-opacity="0.31"/>
</linearGradient>
</defs>
</svg>
